# Blender 4.3.0
# www.blender.org
mtllib bulletThree.mtl
o Cylinder
v -0.100000 -0.362438 -0.932008
v 0.100000 -0.362438 -0.932008
v -0.100000 -0.691513 -0.722364
v 0.100000 -0.691513 -0.722364
v -0.100000 -0.915312 -0.402747
v 0.100000 -0.915311 -0.402747
v -0.100000 -0.999762 -0.021815
v 0.100000 -0.999762 -0.021815
v -0.100000 -0.932008 0.362438
v 0.100000 -0.932008 0.362438
v -0.100000 -0.722364 0.691513
v 0.100000 -0.722364 0.691513
v -0.100000 -0.402747 0.915311
v 0.100000 -0.402747 0.915311
v -0.100000 -0.021815 0.999762
v 0.100000 -0.021815 0.999762
v -0.100000 0.362438 0.932008
v 0.100000 0.362438 0.932008
v -0.100000 0.691513 0.722364
v 0.100000 0.691513 0.722364
v -0.100000 0.915311 0.402747
v 0.100000 0.915312 0.402747
v -0.100000 0.999762 0.021815
v 0.100000 0.999762 0.021815
v -0.100000 0.932008 -0.362438
v 0.100000 0.932008 -0.362438
v -0.100000 0.722364 -0.691513
v 0.100000 0.722364 -0.691513
v -0.100000 0.402747 -0.915311
v 0.100000 0.402747 -0.915311
v -0.100000 0.021815 -0.999762
v 0.100000 0.021815 -0.999762
v -0.300000 -0.181219 -0.466004
v -0.300000 -0.345757 -0.361182
v -0.300000 -0.457656 -0.201373
v -0.300000 -0.499881 -0.010907
v -0.300000 -0.466004 0.181219
v -0.300000 -0.361182 0.345757
v -0.300000 -0.201373 0.457656
v -0.300000 -0.010908 0.499881
v -0.300000 0.181219 0.466004
v -0.300000 0.345756 0.361182
v -0.300000 0.457656 0.201373
v -0.300000 0.499881 0.010907
v -0.300000 0.466004 -0.181219
v -0.300000 0.361182 -0.345757
v -0.300000 0.201373 -0.457656
v -0.300000 0.010907 -0.499881
v 0.100000 0.000000 0.000000
v -0.800000 -0.181219 -0.466004
v -0.800000 -0.345757 -0.361182
v -0.800000 -0.457656 -0.201373
v -0.800000 -0.499881 -0.010907
v -0.800000 -0.466004 0.181219
v -0.800000 -0.361182 0.345757
v -0.800000 -0.201373 0.457656
v -0.800000 -0.010908 0.499881
v -0.800000 0.181219 0.466004
v -0.800000 0.345756 0.361182
v -0.800000 0.457656 0.201373
v -0.800000 0.499881 0.010907
v -0.800000 0.466004 -0.181219
v -0.800000 0.361182 -0.345757
v -0.800000 0.201373 -0.457656
v -0.800000 0.010907 -0.499881
v -1.500000 -0.090610 -0.233002
v -1.500000 -0.172878 -0.180591
v -1.500000 -0.228828 -0.100687
v -1.500000 -0.249941 -0.005454
v -1.500000 -0.233002 0.090610
v -1.500000 -0.180591 0.172878
v -1.500000 -0.100687 0.228828
v -1.500000 -0.005454 0.249941
v -1.500000 0.090609 0.233002
v -1.500000 0.172878 0.180591
v -1.500000 0.228828 0.100687
v -1.500000 0.249940 0.005454
v -1.500000 0.233002 -0.090609
v -1.500000 0.180591 -0.172878
v -1.500000 0.100687 -0.228828
v -1.500000 0.005454 -0.249940
v -2.000000 -0.090610 -0.233002
v -2.000000 -0.172878 -0.180591
v -2.000000 -0.228828 -0.100686
v -2.000000 -0.249941 -0.005453
v -2.000000 -0.233002 0.090610
v -2.000000 -0.180591 0.172879
v -2.000000 -0.100687 0.228828
v -2.000000 -0.005454 0.249941
v -2.000000 0.090609 0.233002
v -2.000000 0.172878 0.180591
v -2.000000 0.228828 0.100687
v -2.000000 0.249940 0.005454
v -2.000000 0.233002 -0.090609
v -2.000000 0.180591 -0.172878
v -2.000000 0.100687 -0.228828
v -2.000000 0.005454 -0.249940
v -2.700000 -0.045305 -0.116501
v -2.700000 -0.086439 -0.090295
v -2.700000 -0.114414 -0.050343
v -2.700000 -0.124970 -0.002727
v -2.700000 -0.116501 0.045305
v -2.700000 -0.090296 0.086439
v -2.700000 -0.050343 0.114414
v -2.700000 -0.002727 0.124971
v -2.700000 0.045305 0.116501
v -2.700000 0.086439 0.090296
v -2.700000 0.114414 0.050344
v -2.700000 0.124970 0.002727
v -2.700000 0.116501 -0.045304
v -2.700000 0.090295 -0.086439
v -2.700000 0.050343 -0.114414
v -2.700000 0.002727 -0.124970
v -3.700001 -0.000000 -0.000000
vn -0.0000 -0.5373 -0.8434
vn -0.0000 -0.8192 -0.5736
vn -0.0000 -0.9763 -0.2164
vn -0.0000 -0.9848 0.1736
vn -0.0000 -0.8434 0.5373
vn -0.0000 -0.5736 0.8192
vn -0.0000 -0.2164 0.9763
vn -0.0000 0.1736 0.9848
vn -0.0000 0.5373 0.8434
vn -0.0000 0.8192 0.5736
vn -0.0000 0.9763 0.2164
vn -0.0000 0.9848 -0.1736
vn -0.0000 0.8434 -0.5373
vn -0.0000 0.5736 -0.8192
vn -0.0000 0.2164 -0.9763
vn 1.0000 -0.0000 -0.0000
vn -0.9260 0.3719 -0.0656
vn -0.0000 -0.1736 -0.9848
vn -0.9260 -0.3185 0.2029
vn -0.9260 0.3093 0.2166
vn -0.9260 0.0817 -0.3687
vn -0.9260 -0.3687 -0.0817
vn -0.9260 0.0656 0.3719
vn -0.9260 0.3185 -0.2029
vn -0.9260 -0.2029 -0.3185
vn -0.9260 -0.2166 0.3093
vn -0.9260 0.3687 0.0817
vn -0.9260 -0.0656 -0.3719
vn -0.9260 -0.3719 0.0656
vn -0.9260 0.2029 0.3185
vn -0.9260 0.2166 -0.3093
vn -0.9260 -0.3093 -0.2166
vn -0.9260 -0.0817 0.3687
vn -0.3306 0.7731 0.5413
vn -0.3306 -0.9214 -0.2043
vn -0.3306 0.9214 0.2043
vn -0.3306 -0.9294 0.1639
vn -0.3306 0.9294 -0.1639
vn -0.3306 -0.7960 0.5071
vn -0.3306 0.7960 -0.5071
vn -0.3306 -0.5413 0.7731
vn -0.3306 0.5413 -0.7731
vn -0.3306 -0.2043 0.9214
vn -0.3306 0.2043 -0.9214
vn -0.3306 0.1639 0.9294
vn -0.3306 -0.5071 -0.7960
vn -0.3306 -0.1639 -0.9294
vn -0.3306 0.5071 0.7960
vn -0.3306 -0.7731 -0.5413
vn -0.1725 0.8307 -0.5292
vn -0.1217 -0.9690 -0.2148
vn -0.1725 -0.5650 0.8069
vn -0.1725 0.5650 -0.8069
vn -0.1725 -0.2132 0.9617
vn -0.1725 0.2132 -0.9617
vn -0.1725 0.1710 0.9700
vn -0.1725 -0.5292 -0.8307
vn -0.1725 -0.1710 -0.9700
vn -0.1725 0.5292 0.8307
vn -0.1725 -0.8069 -0.5650
vn -0.1725 0.8069 0.5650
vn -0.1725 -0.9617 -0.2132
vn -0.1725 0.9617 0.2132
vn -0.1725 -0.9700 0.1710
vn -0.1725 0.9700 -0.1710
vn -0.1725 -0.8307 0.5292
vn -0.1217 0.9690 0.2148
vn -0.1217 -0.9775 0.1724
vn -0.1217 0.9775 -0.1724
vn -0.1217 -0.8371 0.5333
vn -0.1217 0.8371 -0.5333
vn -0.1217 -0.5693 0.8131
vn -0.1217 0.5693 -0.8131
vn -0.1217 -0.2148 0.9690
vn -0.1217 0.2148 -0.9690
vn -0.1217 0.1724 0.9775
vn -0.1217 -0.5333 -0.8371
vn -0.1217 -0.1724 -0.9775
vn -0.1217 0.5333 0.8371
vn -0.1217 -0.8131 -0.5693
vn -0.1217 0.8131 0.5693
vt 0.674995 0.555994
vt 0.641699 0.567603
vt 0.632814 0.550105
vt 0.669587 0.536847
vt 0.611746 0.585502
vt 0.599619 0.570264
vt 0.586116 0.608984
vt 0.571054 0.596512
vt 0.566081 0.637306
vt 0.548982 0.628263
vt 0.551864 0.669091
vt 0.533564 0.663243
vt 0.545171 0.703683
vt 0.525509 0.700963
vt 0.545025 0.740173
vt 0.524076 0.741024
vt 0.552305 0.778974
vt 0.529884 0.783598
vt 0.568018 0.821475
vt 0.542649 0.830536
vt 0.595992 0.871350
vt 0.564459 0.886645
vt 0.648607 0.939859
vt 0.601501 0.970560
vt 0.921624 0.624822
vt 0.846245 0.582668
vt 0.856730 0.549410
vt 0.945202 0.573726
vt 0.793209 0.562269
vt 0.798469 0.536315
vt 0.749676 0.552571
vt 0.751160 0.529977
vt 0.710916 0.550900
vt 0.708932 0.530306
vt 0.706764 0.714198
vt 0.860674 0.420332
vt 0.917144 0.420396
vt 0.227145 0.064449
vt 0.259553 0.068782
vt 0.247294 0.145177
vt 0.219306 0.141084
vt 0.400450 0.621054
vt 0.415354 0.552868
vt 0.438276 0.909702
vt 0.420158 0.856418
vt 0.695316 0.410266
vt 0.750346 0.416032
vt 0.465773 0.504521
vt 0.506685 0.447328
vt 0.400783 0.800858
vt 0.405351 0.742872
vt 0.804819 0.410266
vt 0.572439 0.422655
vt 0.635859 0.411349
vt 0.398354 0.684697
vt 0.446554 0.965255
vt 0.488618 0.273722
vt 0.508030 0.294169
vt 0.416422 0.362232
vt 0.404091 0.350039
vt 0.495218 0.177612
vt 0.519226 0.198517
vt 0.468731 0.254415
vt 0.447782 0.236683
vt 0.291920 0.075102
vt 0.324124 0.083492
vt 0.301922 0.158718
vt 0.274857 0.151044
vt 0.541763 0.220241
vt 0.355451 0.094826
vt 0.328348 0.168245
vt 0.563137 0.242471
vt 0.385859 0.107939
vt 0.354373 0.178655
vt 0.583680 0.265327
vt 0.525641 0.317395
vt 0.415255 0.122917
vt 0.379428 0.190608
vt 0.131453 0.060657
vt 0.162830 0.060846
vt 0.161418 0.139098
vt 0.130969 0.141074
vt 0.443333 0.139510
vt 0.403511 0.204080
vt 0.194846 0.061962
vt 0.190578 0.139574
vt 0.469892 0.157797
vt 0.426224 0.219716
vt 0.211297 0.262235
vt 0.230319 0.265392
vt 0.206530 0.354099
vt 0.190346 0.350421
vt 0.306131 0.289177
vt 0.287608 0.281345
vt 0.427684 0.373561
vt 0.324193 0.297958
vt 0.174847 0.258231
vt 0.158003 0.257810
vt 0.341801 0.307134
vt 0.192671 0.259656
vt 0.358702 0.317102
vt 0.374800 0.327714
vt 0.389965 0.338761
vt 0.268639 0.274995
vt 0.249493 0.269659
vt 0.157120 0.344790
vt 0.173916 0.347254
vt 0.158467 0.479572
vt 0.147879 0.478596
vt 0.340296 0.414170
vt 0.326507 0.405268
vt 0.238177 0.363197
vt 0.222476 0.358344
vt 0.353671 0.423842
vt 0.253620 0.368683
vt 0.367160 0.433621
vt 0.268786 0.374819
vt 0.380413 0.444081
vt 0.283663 0.381594
vt 0.139753 0.342666
vt 0.298348 0.388734
vt 0.312578 0.396706
vt 0.210131 0.491489
vt 0.220042 0.495217
vt 0.130969 0.722071
vt 0.248595 0.508946
vt 0.239286 0.503961
vt 0.169005 0.481036
vt 0.257658 0.514319
vt 0.179462 0.482977
vt 0.266448 0.520118
vt 0.200051 0.488200
vt 0.189821 0.485359
vt 0.274965 0.526257
vt 0.283185 0.532773
vt 0.291029 0.539554
vt 0.229765 0.499372
vt 0.137263 0.478119
s 0
f 2/1/1 4/2/1 3/3/1 1/4/1
f 4/2/2 6/5/2 5/6/2 3/3/2
f 6/5/3 8/7/3 7/8/3 5/6/3
f 8/7/4 10/9/4 9/10/4 7/8/4
f 10/9/5 12/11/5 11/12/5 9/10/5
f 12/11/6 14/13/6 13/14/6 11/12/6
f 14/13/7 16/15/7 15/16/7 13/14/7
f 16/15/8 18/17/8 17/18/8 15/16/8
f 18/17/9 20/19/9 19/20/9 17/18/9
f 20/19/10 22/21/10 21/22/10 19/20/10
f 22/21/11 24/23/11 23/24/11 21/22/11
f 24/25/12 26/26/12 25/27/12 23/28/12
f 26/26/13 28/29/13 27/30/13 25/27/13
f 28/29/14 30/31/14 29/32/14 27/30/14
f 30/31/15 32/33/15 31/34/15 29/32/15
f 24/23/16 22/21/16 49/35/16
f 23/28/17 25/27/17 45/36/17 44/37/17
f 31/34/18 32/33/18 2/1/18 1/4/18
f 47/38/15 48/39/15 65/40/15 64/41/15
f 9/10/19 11/12/19 38/42/19 37/43/19
f 19/20/20 21/22/20 43/44/20 42/45/20
f 29/32/21 31/34/21 48/46/21 47/47/21
f 5/6/22 7/8/22 36/48/22 35/49/22
f 15/16/23 17/18/23 41/50/23 40/51/23
f 25/27/24 27/30/24 46/52/24 45/36/24
f 1/4/25 3/3/25 34/53/25 33/54/25
f 11/12/26 13/14/26 39/55/26 38/42/26
f 21/22/27 23/24/27 44/56/27 43/44/27
f 31/34/28 1/4/28 33/54/28 48/46/28
f 7/8/29 9/10/29 37/43/29 36/48/29
f 17/18/30 19/20/30 42/45/30 41/50/30
f 27/30/31 29/32/31 47/47/31 46/52/31
f 3/3/32 5/6/32 35/49/32 34/53/32
f 13/14/33 15/16/33 40/51/33 39/55/33
f 2/1/16 32/33/16 49/35/16
f 10/9/16 8/7/16 49/35/16
f 20/19/16 18/17/16 49/35/16
f 30/31/16 28/29/16 49/35/16
f 6/5/16 4/2/16 49/35/16
f 16/15/16 14/13/16 49/35/16
f 26/26/16 24/25/16 49/35/16
f 12/11/16 10/9/16 49/35/16
f 22/21/16 20/19/16 49/35/16
f 32/33/16 30/31/16 49/35/16
f 8/7/16 6/5/16 49/35/16
f 18/17/16 16/15/16 49/35/16
f 28/29/16 26/26/16 49/35/16
f 4/2/16 2/1/16 49/35/16
f 14/13/16 12/11/16 49/35/16
f 59/57/34 60/58/34 76/59/34 75/60/34
f 40/61/8 41/62/8 58/63/8 57/64/8
f 33/65/1 34/66/1 51/67/1 50/68/1
f 48/39/18 33/65/18 50/68/18 65/40/18
f 41/62/9 42/69/9 59/57/9 58/63/9
f 34/66/2 35/70/2 52/71/2 51/67/2
f 42/69/10 43/72/10 60/58/10 59/57/10
f 35/70/3 36/73/3 53/74/3 52/71/3
f 43/72/11 44/75/11 61/76/11 60/58/11
f 36/73/4 37/77/4 54/78/4 53/74/4
f 44/79/12 45/80/12 62/81/12 61/82/12
f 37/77/5 38/83/5 55/84/5 54/78/5
f 45/80/13 46/85/13 63/86/13 62/81/13
f 38/83/6 39/87/6 56/88/6 55/84/6
f 46/85/14 47/38/14 64/41/14 63/86/14
f 39/87/7 40/61/7 57/64/7 56/88/7
f 80/89/15 81/90/15 97/91/15 96/92/15
f 52/71/35 53/74/35 69/93/35 68/94/35
f 60/58/36 61/76/36 77/95/36 76/59/36
f 53/74/37 54/78/37 70/96/37 69/93/37
f 61/82/38 62/81/38 78/97/38 77/98/38
f 54/78/39 55/84/39 71/99/39 70/96/39
f 62/81/40 63/86/40 79/100/40 78/97/40
f 55/84/41 56/88/41 72/101/41 71/99/41
f 63/86/42 64/41/42 80/89/42 79/100/42
f 56/88/43 57/64/43 73/102/43 72/101/43
f 64/41/44 65/40/44 81/90/44 80/89/44
f 57/64/45 58/63/45 74/103/45 73/102/45
f 50/68/46 51/67/46 67/104/46 66/105/46
f 65/40/47 50/68/47 66/105/47 81/90/47
f 58/63/48 59/57/48 75/60/48 74/103/48
f 51/67/49 52/71/49 68/94/49 67/104/49
f 94/106/50 95/107/50 111/108/50 110/109/50
f 73/102/8 74/103/8 90/110/8 89/111/8
f 66/105/1 67/104/1 83/112/1 82/113/1
f 81/90/18 66/105/18 82/113/18 97/91/18
f 74/103/9 75/60/9 91/114/9 90/110/9
f 67/104/2 68/94/2 84/115/2 83/112/2
f 75/60/10 76/59/10 92/116/10 91/114/10
f 68/94/3 69/93/3 85/117/3 84/115/3
f 76/59/11 77/95/11 93/118/11 92/116/11
f 69/93/4 70/96/4 86/119/4 85/117/4
f 77/98/12 78/97/12 94/106/12 93/120/12
f 70/96/5 71/99/5 87/121/5 86/119/5
f 78/97/13 79/100/13 95/107/13 94/106/13
f 71/99/6 72/101/6 88/122/6 87/121/6
f 79/100/14 80/89/14 96/92/14 95/107/14
f 72/101/7 73/102/7 89/111/7 88/122/7
f 100/123/51 101/124/51 114/125/51
f 87/121/52 88/122/52 104/126/52 103/127/52
f 95/107/53 96/92/53 112/128/53 111/108/53
f 88/122/54 89/111/54 105/129/54 104/126/54
f 96/92/55 97/91/55 113/130/55 112/128/55
f 89/111/56 90/110/56 106/131/56 105/129/56
f 82/113/57 83/112/57 99/132/57 98/133/57
f 97/91/58 82/113/58 98/133/58 113/130/58
f 90/110/59 91/114/59 107/134/59 106/131/59
f 83/112/60 84/115/60 100/123/60 99/132/60
f 91/114/61 92/116/61 108/135/61 107/134/61
f 84/115/62 85/117/62 101/124/62 100/123/62
f 92/116/63 93/118/63 109/136/63 108/135/63
f 85/117/64 86/119/64 102/137/64 101/124/64
f 93/120/65 94/106/65 110/109/65 109/138/65
f 86/119/66 87/121/66 103/127/66 102/137/66
f 108/135/67 109/136/67 114/125/67
f 101/124/68 102/137/68 114/125/68
f 109/138/69 110/109/69 114/125/69
f 102/137/70 103/127/70 114/125/70
f 110/109/71 111/108/71 114/125/71
f 103/127/72 104/126/72 114/125/72
f 111/108/73 112/128/73 114/125/73
f 104/126/74 105/129/74 114/125/74
f 112/128/75 113/130/75 114/125/75
f 105/129/76 106/131/76 114/125/76
f 98/133/77 99/132/77 114/125/77
f 113/130/78 98/133/78 114/125/78
f 106/131/79 107/134/79 114/125/79
f 99/132/80 100/123/80 114/125/80
f 107/134/81 108/135/81 114/125/81
