# Blender 4.5.3 LTS
# www.blender.org
mtllib BodyBodyBonkedAlt.mtl
o BotBody
v -0.562500 0.125000 -0.487500
v -0.625000 0.262500 -0.562500
v -0.562500 0.262500 -0.625000
v 0.562500 0.125000 -0.487500
v 0.562500 0.262500 -0.625000
v 0.625000 0.262500 -0.562500
v -0.562500 0.125000 -0.416667
v -0.625000 0.262500 -0.462500
v 0.562500 0.125000 -0.416667
v 0.625000 0.262500 -0.462500
v -0.562500 0.500000 -0.625000
v -0.625000 0.500000 -0.562500
v -0.625000 0.500000 -0.462500
v -0.625000 0.776250 -0.562500
v 0.562500 0.776250 -0.625000
v -0.562500 0.776250 -0.625000
v 0.625000 0.776250 -0.562500
v 0.625000 0.676250 -0.525000
v -0.625000 0.676250 -0.525000
v 0.625000 0.574588 -0.562500
v 0.625000 0.624588 -0.462500
v 0.562500 0.574588 -0.625000
v -0.275000 0.424000 -0.625000
v 0.275000 0.424000 -0.625000
v -0.562500 0.884519 -0.625000
v 0.562500 0.861017 -0.625000
v 0.625000 0.861017 -0.562500
v 0.625000 0.861017 -0.462500
v 0.625000 0.801133 -0.562500
v 0.625000 0.863633 -0.525000
v 0.562500 0.801133 -0.625000
v 0.625000 0.924484 -0.562500
v 0.625000 0.924484 -0.462500
v 0.451812 0.262500 -0.625000
v 0.750000 0.112375 0.000000
v 0.451812 0.776250 -0.625000
v 0.451812 0.125000 -0.487500
v 0.451812 0.125000 -0.429167
v 0.451812 0.574588 -0.625000
v 0.451812 0.801133 -0.625000
v -0.428812 0.125000 -0.487500
v -0.428812 0.125000 -0.429167
v -0.428812 0.262500 -0.625000
v -0.428812 0.500000 -0.625000
v -0.428812 0.776250 -0.625000
v -0.478277 0.884519 -0.625000
v -0.750000 0.550000 -0.375000
v 0.750000 0.550000 -0.375000
v -0.750000 0.925000 -0.375000
v -0.750000 0.925000 0.000000
v -0.750000 0.550000 0.000000
v 0.750000 0.550000 0.000000
v -0.400000 1.250000 -0.375000
v 0.400000 1.250000 -0.375000
v -0.400000 1.250000 0.000000
v 0.400000 1.250000 0.000000
v -0.200000 0.500000 -0.750000
v 0.200000 0.500000 -0.750000
v -0.400000 0.925000 -0.750000
v 0.400000 0.925000 -0.750000
v 0.750000 1.000000 0.000000
v 0.750000 1.000000 -0.662500
v -0.750000 0.925000 -0.662500
v 0.400000 1.250000 -0.662500
v -0.400000 1.250000 -0.662500
v -0.675000 1.175000 -0.750000
v 0.675000 1.175000 -0.750000
v -0.562500 0.000000 -0.375000
v -0.675000 1.250000 -0.375000
v -0.750000 1.175000 -0.375000
v 0.562500 0.000000 -0.375000
v -0.562500 0.000000 0.000000
v -0.675000 1.250000 0.000000
v -0.750000 1.175000 0.000000
v 0.562500 0.000000 0.000000
v 0.750000 1.175000 0.000000
v 0.675000 1.250000 0.000000
v -0.675000 0.925000 -0.750000
v 0.672382 0.962790 -0.750000
v -0.400000 1.175000 -0.750000
v 0.400000 1.175000 -0.750000
v -0.750000 1.175000 -0.662500
v -0.675000 1.250000 -0.662500
v 0.750000 1.175000 -0.662500
v 0.675000 1.250000 -0.662500
v 0.537500 1.175000 -0.750000
v 0.537500 1.250000 -0.662500
v 0.537500 1.250000 -0.375000
v 0.537500 1.250000 0.000000
v 0.542441 0.931395 -0.750000
v -0.750000 0.825000 -0.468750
v -0.325000 0.775000 -0.750000
v 0.350000 0.775000 -0.750000
v -0.593750 0.884519 -0.593750
v 0.593750 0.924484 -0.593750
v 0.534828 0.861017 -0.625000
v 0.625000 0.924484 0.000000
v 0.625000 0.624588 0.000000
v 0.750000 0.112375 -0.375000
v 0.625000 0.676250 0.000000
v 0.625000 0.861017 0.000000
v 0.625000 0.863633 0.000000
v -0.750000 0.115000 0.000000
v -0.750000 0.115000 -0.375000
v -0.562500 0.125000 0.487500
v -0.625000 0.262500 0.562500
v -0.562500 0.262500 0.625000
v 0.562500 0.125000 0.487500
v 0.562500 0.262500 0.625000
v 0.625000 0.262500 0.562500
v -0.562500 0.125000 0.416667
v -0.625000 0.262500 0.462500
v 0.562500 0.125000 0.416667
v 0.625000 0.262500 0.462500
v -0.562500 0.500000 0.625000
v -0.625000 0.500000 0.562500
v -0.625000 0.500000 0.462500
v -0.625000 0.776250 0.562500
v 0.562500 0.776250 0.625000
v -0.562500 0.776250 0.625000
v 0.625000 0.776250 0.562500
v 0.625000 0.676250 0.525000
v -0.625000 0.676250 0.525000
v 0.625000 0.574588 0.562500
v 0.625000 0.624588 0.462500
v 0.562500 0.574588 0.625000
v -0.275000 0.424000 0.625000
v 0.275000 0.424000 0.625000
v -0.562500 0.884519 0.625000
v 0.562500 0.861017 0.625000
v 0.625000 0.861017 0.562500
v 0.625000 0.861017 0.462500
v 0.625000 0.801133 0.562500
v 0.625000 0.863633 0.525000
v 0.562500 0.801133 0.625000
v 0.625000 0.924484 0.562500
v 0.625000 0.924484 0.462500
v 0.451812 0.262500 0.625000
v 0.451812 0.776250 0.625000
v 0.451812 0.125000 0.487500
v 0.451812 0.125000 0.429167
v 0.451812 0.574588 0.625000
v 0.451812 0.801133 0.625000
v -0.428812 0.125000 0.487500
v -0.428812 0.125000 0.429167
v -0.428812 0.262500 0.625000
v -0.428812 0.500000 0.625000
v -0.428812 0.776250 0.625000
v -0.478277 0.884519 0.625000
v -0.750000 0.550000 0.375000
v 0.750000 0.550000 0.375000
v -0.750000 0.925000 0.375000
v -0.400000 1.250000 0.375000
v 0.400000 1.250000 0.375000
v -0.200000 0.500000 0.750000
v 0.200000 0.500000 0.750000
v -0.400000 0.925000 0.750000
v 0.400000 0.925000 0.750000
v 0.750000 1.000000 0.662500
v -0.750000 0.925000 0.662500
v 0.400000 1.250000 0.662500
v -0.400000 1.250000 0.662500
v -0.675000 1.175000 0.750000
v 0.675000 1.175000 0.750000
v -0.562500 0.000000 0.375000
v -0.675000 1.250000 0.375000
v -0.750000 1.175000 0.375000
v 0.562500 0.000000 0.375000
v -0.675000 0.925000 0.750000
v 0.672382 0.962790 0.750000
v -0.400000 1.175000 0.750000
v 0.400000 1.175000 0.750000
v -0.750000 1.175000 0.662500
v -0.675000 1.250000 0.662500
v 0.750000 1.175000 0.662500
v 0.675000 1.250000 0.662500
v 0.537500 1.175000 0.750000
v 0.537500 1.250000 0.662500
v 0.537500 1.250000 0.375000
v 0.542441 0.931395 0.750000
v -0.750000 0.825000 0.468750
v -0.325000 0.775000 0.750000
v 0.350000 0.775000 0.750000
v -0.593750 0.884519 0.593750
v 0.593750 0.924484 0.593750
v 0.534828 0.861017 0.625000
v 0.750000 0.112375 0.375000
v -0.750000 0.115000 0.375000
v 0.587500 0.844895 -0.498750
v 0.587500 0.694988 -0.498750
v 0.587500 0.844895 0.000000
v 0.587500 0.694988 0.000000
v 0.587500 0.844895 0.498750
v 0.587500 0.694988 0.498750
vn 1.0000 -0.0000 -0.0000
vn -0.5773 -0.5774 -0.5774
vn -0.0000 -0.0000 -1.0000
vn 0.5773 -0.5774 -0.5774
vn 0.5141 -0.8577 -0.0000
vn -0.5228 -0.8524 -0.0000
vn 0.7071 -0.0000 -0.7071
vn 0.5735 -0.0000 -0.8192
vn 0.1808 -0.3495 -0.9193
vn -1.0000 -0.0000 -0.0000
vn -0.0000 -0.7071 -0.7071
vn -0.0000 -1.0000 -0.0000
vn -0.7071 -0.0000 -0.7071
vn 0.7071 0.7071 -0.0000
vn -0.0000 1.0000 -0.0000
vn 0.6047 0.6047 -0.5183
vn -0.0000 0.7593 -0.6508
vn -0.7071 0.7071 -0.0000
vn -0.1854 -0.3502 -0.9182
vn -0.7593 -0.0000 -0.6508
vn 0.7542 -0.0051 -0.6566
vn -0.5735 -0.0000 -0.8192
vn 0.5023 -0.8646 -0.0125
vn -0.6047 0.6047 -0.5183
vn 0.5124 0.8587 -0.0000
vn -0.9104 -0.4138 -0.0000
vn -0.6263 -0.2551 -0.7366
vn -0.0000 -0.3162 -0.9487
vn -0.3602 -0.5834 -0.7280
vn -0.7223 -0.3210 -0.6126
vn -0.0221 -0.9608 -0.2763
vn -0.0000 -0.8545 -0.5195
vn 0.4656 -0.8641 -0.1911
vn -0.7296 -0.3516 -0.5866
vn 0.2207 -0.7509 -0.6224
vn 0.7042 -0.3669 -0.6078
vn 0.7782 -0.2225 -0.5873
vn -0.1826 -0.9706 -0.1565
vn 0.4343 -0.9007 -0.0022
vn 0.5735 -0.0000 0.8192
vn -0.0000 0.4417 -0.8971
vn -0.2698 0.3381 0.9016
vn 0.9104 -0.4138 -0.0000
vn -0.5773 -0.5774 0.5774
vn -0.0000 -0.0000 1.0000
vn 0.5773 -0.5774 0.5774
vn 0.7071 -0.0000 0.7071
vn 0.1808 -0.3495 0.9193
vn -0.0000 -0.7071 0.7071
vn -0.7071 -0.0000 0.7071
vn 0.6047 0.6047 0.5183
vn -0.0000 0.7593 0.6508
vn -0.1854 -0.3502 0.9182
vn -0.7593 -0.0000 0.6508
vn 0.7542 -0.0051 0.6566
vn -0.5735 -0.0000 0.8192
vn 0.5023 -0.8646 0.0125
vn -0.6047 0.6047 0.5183
vn -0.6263 -0.2551 0.7366
vn -0.0000 -0.3162 0.9487
vn -0.3602 -0.5834 0.7280
vn -0.7223 -0.3210 0.6126
vn -0.0221 -0.9608 0.2763
vn -0.0000 -0.8545 0.5195
vn 0.4656 -0.8641 0.1911
vn -0.7296 -0.3516 0.5866
vn 0.2207 -0.7509 0.6224
vn 0.7042 -0.3669 0.6078
vn 0.7782 -0.2225 0.5873
vn -0.1826 -0.9706 0.1565
vn 0.4343 -0.9007 0.0022
vn 0.4470 -0.8945 -0.0000
vn -0.0000 0.4417 0.8971
vn -0.2698 0.3381 -0.9016
vn 0.4470 0.8945 -0.0000
vt 0.882606 0.289632
vt 0.935619 0.291570
vt 0.935440 0.298687
vt 0.899371 0.297549
vt 0.711150 0.091794
vt 0.729326 0.073193
vt 0.738605 0.083016
vt 0.747492 0.102489
vt 0.783853 0.083410
vt 0.831742 0.056341
vt 0.784087 0.117648
vt 0.765353 0.277104
vt 0.792972 0.268426
vt 0.790828 0.282098
vt 0.206396 0.762332
vt 0.268884 0.778212
vt 0.259753 0.821245
vt 0.195121 0.808239
vt 0.252834 0.573241
vt 0.266583 0.517255
vt 0.341807 0.538046
vt 0.321631 0.590166
vt 0.843562 0.288226
vt 0.842028 0.307970
vt 0.782741 0.298714
vt 0.844439 0.271511
vt 0.867534 0.020205
vt 0.817158 0.033012
vt 0.854086 0.009391
vt 0.251196 0.876888
vt 0.292766 0.834899
vt 0.274397 0.905814
vt 0.771274 0.061465
vt 0.289461 0.795047
vt 0.790934 0.251738
vt 0.844565 0.250472
vt 0.282544 0.452263
vt 0.369410 0.478168
vt 0.759998 0.259961
vt 0.716808 0.112305
vt 0.713266 0.063704
vt 0.749332 0.030496
vt 0.761639 0.047148
vt 0.818845 0.002572
vt 0.807700 0.018138
vt 0.750320 0.263236
vt 0.707006 0.114881
vt 0.883263 0.272316
vt 0.698030 0.092089
vt 0.883990 0.250240
vt 0.455843 0.112049
vt 0.374316 0.078575
vt 0.378399 0.061948
vt 0.460038 0.102031
vt 0.946545 0.292000
vt 0.947257 0.310533
vt 0.956269 0.293322
vt 0.960122 0.309462
vt 0.939017 0.253272
vt 0.936978 0.274956
vt 0.813890 0.216862
vt 0.309969 0.340594
vt 0.378452 0.349233
vt 0.562657 0.315988
vt 0.494350 0.308238
vt 0.546369 0.132155
vt 0.608577 0.160315
vt 0.414922 0.135569
vt 0.386918 0.242436
vt 0.336912 0.230882
vt 0.364127 0.120064
vt 0.453806 0.144246
vt 0.424766 0.253929
vt 0.323996 0.283476
vt 0.376377 0.292593
vt 0.410428 0.293943
vt 0.427489 0.340058
vt 0.442012 0.329737
vt 0.422020 0.288529
vt 0.439969 0.260368
vt 0.466729 0.110664
vt 0.398632 0.400489
vt 0.455262 0.126604
vt 0.469958 0.126253
vt 0.471176 0.146010
vt 0.505859 0.111290
vt 0.327653 0.268585
vt 0.378328 0.278369
vt 0.420055 0.117506
vt 0.369024 0.100123
vt 0.378276 0.550015
vt 0.351185 0.585628
vt 0.411157 0.282337
vt 0.475666 0.090772
vt 0.486407 0.100695
vt 0.405077 0.491015
vt 0.754021 0.284035
vt 0.386845 0.027556
vt 0.393580 0.000135
vt 0.477083 0.049994
vt 0.502045 0.070633
vt 0.633634 0.300621
vt 0.657754 0.216045
vt 0.180321 0.868505
vt 0.172297 0.901178
vt 0.435842 0.398962
vt 0.458866 0.362678
vt 0.661623 0.336675
vt 0.555827 0.358895
vt 0.489920 0.349198
vt 0.697760 0.199402
vt 0.526012 0.081924
vt 0.552647 0.096040
vt 0.625816 0.121522
vt 0.898980 0.401610
vt 0.840967 0.401533
vt 0.705435 0.801677
vt 0.744043 0.803168
vt 0.736848 0.811994
vt 0.712218 0.810101
vt 0.948243 0.401795
vt 0.936380 0.401761
vt 0.948111 0.276457
vt 0.949260 0.271162
vt 0.959624 0.285949
vt 0.960887 0.401834
vt 0.852171 0.000135
vt 0.882187 0.513606
vt 0.898943 0.505776
vt 0.934847 0.504737
vt 0.934999 0.511838
vt 0.711073 0.709944
vt 0.738347 0.718733
vt 0.729100 0.728476
vt 0.747229 0.699396
vt 0.783649 0.684413
vt 0.830873 0.745480
vt 0.783331 0.718451
vt 0.765381 0.525793
vt 0.790733 0.520871
vt 0.792840 0.534481
vt 0.131817 0.789825
vt 0.143660 0.747458
vt 0.184023 0.556372
vt 0.190286 0.500835
vt 0.843248 0.514874
vt 0.782712 0.504320
vt 0.841754 0.495187
vt 0.844084 0.531529
vt 0.866365 0.781493
vt 0.852969 0.792209
vt 0.816316 0.768636
vt 0.113625 0.843103
vt 0.079664 0.857990
vt 0.096235 0.786634
vt 0.770772 0.740236
vt 0.117625 0.752846
vt 0.790776 0.551082
vt 0.844153 0.552480
vt 0.193561 0.434982
vt 0.760023 0.542834
vt 0.716743 0.689564
vt 0.713116 0.737868
vt 0.761159 0.754445
vt 0.748883 0.770967
vt 0.806877 0.783398
vt 0.817918 0.798900
vt 0.707004 0.686981
vt 0.750403 0.539556
vt 0.882772 0.530856
vt 0.698030 0.709623
vt 0.883414 0.552843
vt 0.286557 0.070476
vt 0.287481 0.059655
vt 0.946713 0.492967
vt 0.945902 0.511458
vt 0.959548 0.494111
vt 0.955611 0.510190
vt 0.936285 0.528410
vt 0.938229 0.550022
vt 0.813524 0.585837
vt 0.245274 0.316526
vt 0.097426 0.201735
vt 0.128842 0.042501
vt 0.197017 0.046360
vt 0.161551 0.226508
vt 0.311929 0.110275
vt 0.287243 0.217957
vt 0.273449 0.099953
vt 0.248377 0.210610
vt 0.273351 0.267291
vt 0.206066 0.285680
vt 0.242548 0.252715
vt 0.197977 0.269806
vt 0.231921 0.209275
vt 0.234782 0.242547
vt 0.277552 0.064206
vt 0.203647 0.352603
vt 0.280331 0.083644
vt 0.267469 0.076525
vt 0.242583 0.046634
vt 0.257238 0.093471
vt 0.278211 0.253781
vt 0.315747 0.091890
vt 0.159934 0.538659
vt 0.152422 0.494548
vt 0.247279 0.242091
vt 0.264730 0.046255
vt 0.278847 0.042437
vt 0.156000 0.429846
vt 0.754124 0.518880
vt 0.264797 0.012369
vt 0.296480 0.005642
vt 0.041642 0.155237
vt 0.059443 0.069110
vt 0.171377 0.334014
vt 0.167781 0.291192
vt 0.083603 0.242924
vt 0.000135 0.174224
vt 0.146504 0.264861
vt 0.031698 0.035829
vt 0.238326 0.011273
vt 0.208183 0.011446
vt 0.131533 0.000135
vt 0.747019 0.901699
vt 0.738430 0.901529
vt 0.947389 0.526964
vt 0.948507 0.532246
vt 0.958914 0.517562
vt 0.851042 0.801406
vt 0.706684 0.900778
vt 0.708677 0.990716
vt 0.733483 0.991631
vt 0.698030 0.900597
vt 0.740336 0.999865
vt 0.701537 0.999865
s 0
f 17/1/1 29/2/1 30/3/1 18/4/1
f 1/5/2 2/6/2 3/7/2
f 43/8/3 44/9/3 45/10/3 23/11/3
f 4/12/4 5/13/4 6/14/4
f 75/15/5 71/16/5 99/17/5 35/18/5
f 72/19/6 103/20/6 104/21/6 68/22/6
f 20/23/1 21/24/1 10/25/1 6/14/1
f 20/23/7 6/14/7 5/13/7 22/26/7
f 46/27/3 45/10/3 16/28/3 25/29/3
f 48/30/8 99/17/8 10/31/8 21/32/8
f 3/7/3 11/33/3 44/9/3 43/8/3
f 99/17/9 71/16/9 9/34/9 10/31/9
f 20/23/1 17/1/1 18/4/1 21/24/1
f 34/35/3 39/36/3 22/26/3 5/13/3
f 103/20/10 51/37/10 47/38/10 104/21/10
f 37/39/11 41/40/11 43/8/11 34/35/11
f 8/41/10 13/42/10 12/43/10 2/6/10
f 13/42/10 19/44/10 14/45/10 12/43/10
f 37/39/12 38/46/12 42/47/12 41/40/12
f 17/1/7 20/23/7 22/26/7 15/48/7
f 11/33/13 12/43/13 14/45/13 16/28/13
f 1/5/12 41/40/12 42/47/12 7/49/12
f 39/36/3 36/50/3 15/48/3 22/26/3
f 85/51/14 77/52/14 76/53/14 84/54/14
f 29/2/1 27/55/1 28/56/1 30/3/1
f 4/12/11 37/39/11 34/35/11 5/13/11
f 27/55/1 32/57/1 33/58/1 28/56/1
f 36/50/3 40/59/3 31/60/3 15/48/3
f 11/33/3 16/28/3 45/10/3 44/9/3
f 43/8/3 23/11/3 24/61/3 34/35/3
f 11/33/13 3/7/13 2/6/13 12/43/13
f 41/40/11 1/5/11 3/7/11 43/8/11
f 51/37/10 50/62/10 49/63/10 47/38/10
f 92/64/3 59/65/3 60/66/3 93/67/3
f 54/68/15 53/69/15 55/70/15 56/71/15
f 64/72/15 65/73/15 53/69/15 54/68/15
f 50/62/10 74/74/10 70/75/10 49/63/10
f 49/63/10 70/75/10 82/76/10 63/77/10
f 78/78/3 66/79/3 80/80/3 59/65/3
f 67/81/16 85/51/16 84/54/16
f 47/38/10 49/63/10 63/77/10 91/82/10
f 87/83/17 85/51/17 67/81/17 86/84/17
f 60/66/3 81/85/3 86/84/3 90/86/3
f 73/87/18 69/88/18 70/75/18 74/74/18
f 85/51/15 87/83/15 88/89/15 89/90/15 77/52/15
f 68/22/19 104/21/19 8/91/19 7/92/19
f 66/79/17 83/93/17 65/73/17 80/80/17
f 80/80/17 65/73/17 64/72/17 81/85/17
f 87/83/17 86/84/17 81/85/17 64/72/17
f 69/88/18 83/93/18 82/76/18 70/75/18
f 63/77/20 82/76/20 66/79/20 78/78/20
f 67/81/21 84/54/21 62/94/21 79/95/21
f 104/21/22 47/38/22 13/96/22 8/91/22
f 68/22/12 71/16/12 75/15/12 72/19/12
f 53/69/15 69/88/15 73/87/15 55/70/15
f 65/73/15 83/93/15 69/88/15 53/69/15
f 37/39/12 4/12/12 9/97/12 38/46/12
f 56/71/15 89/90/15 54/68/15
f 54/68/15 87/83/15 64/72/15
f 62/94/23 61/98/23 97/99/23 33/100/23 95/101/23
f 90/86/3 86/84/3 67/81/3 79/95/3
f 62/94/1 84/54/1 76/53/1 61/98/1
f 57/102/3 92/64/3 93/67/3 58/103/3
f 83/93/24 66/79/24 82/76/24
f 52/104/25 48/30/25 21/32/25 98/105/25
f 1/5/26 7/49/26 8/41/26 2/6/26
f 19/106/27 13/96/27 47/38/27 91/82/27
f 68/22/28 7/92/28 9/34/28 71/16/28
f 91/82/29 63/77/29 94/107/29 19/106/29
f 99/17/1 48/30/1 52/104/1 35/18/1
f 92/64/30 57/102/30 23/108/30 45/109/30
f 78/78/31 59/65/31 46/110/31 94/107/31
f 57/102/32 58/103/32 24/111/32 23/108/32
f 90/86/33 79/95/33 95/101/33 96/112/33
f 59/65/34 92/64/34 45/109/34 46/110/34
f 60/66/35 90/86/35 96/112/35 40/113/35
f 58/103/36 93/67/36 36/114/36 24/111/36
f 93/67/37 60/66/37 40/113/37 36/114/37
f 78/78/38 94/107/38 63/77/38
f 88/89/15 87/83/15 54/68/15 89/90/15
f 62/94/39 95/101/39 79/95/39
f 21/24/1 18/4/1 100/115/1 98/116/1
f 18/117/40 30/118/40 189/119/40 190/120/40
f 30/3/10 28/56/10 101/121/10 102/122/10
f 17/1/7 15/48/7 31/60/7 29/2/7
f 27/55/7 29/2/7 31/60/7 26/123/7
f 34/35/3 24/61/3 36/50/3 39/36/3
f 31/60/3 40/59/3 96/124/3 26/123/3
f 95/125/41 26/123/41 96/124/41
f 26/123/7 95/125/7 32/57/7 27/55/7
f 28/56/1 33/58/1 97/126/1 101/121/1
f 59/65/3 80/80/3 81/85/3 60/66/3
f 14/45/42 19/44/42 94/127/42
f 14/45/13 94/127/13 25/29/13 16/28/13
f 46/27/15 25/29/15 94/127/15
f 9/97/43 4/12/43 6/14/43 10/25/43
f 121/128/1 122/129/1 134/130/1 133/131/1
f 105/132/44 107/133/44 106/134/44
f 146/135/45 127/136/45 148/137/45 147/138/45
f 108/139/46 110/140/46 109/141/46
f 75/15/5 35/18/5 187/142/5 168/143/5
f 72/19/6 165/144/6 188/145/6 103/20/6
f 124/146/1 110/140/1 114/147/1 125/148/1
f 124/146/47 126/149/47 109/141/47 110/140/47
f 149/150/45 129/151/45 120/152/45 148/137/45
f 151/153/40 125/154/40 114/155/40 187/142/40
f 107/133/45 146/135/45 147/138/45 115/156/45
f 187/142/48 114/155/48 113/157/48 168/143/48
f 124/146/1 125/148/1 122/129/1 121/128/1
f 138/158/45 109/141/45 126/149/45 142/159/45
f 103/20/10 188/145/10 150/160/10 51/37/10
f 140/161/49 138/158/49 146/135/49 144/162/49
f 112/163/10 106/134/10 116/164/10 117/165/10
f 117/165/10 116/164/10 118/166/10 123/167/10
f 140/161/12 144/162/12 145/168/12 141/169/12
f 121/128/47 119/170/47 126/149/47 124/146/47
f 115/156/50 120/152/50 118/166/50 116/164/50
f 105/132/12 111/171/12 145/168/12 144/162/12
f 142/159/45 126/149/45 119/170/45 139/172/45
f 176/173/14 175/174/14 76/53/14 77/52/14
f 133/131/1 134/130/1 132/175/1 131/176/1
f 108/139/49 109/141/49 138/158/49 140/161/49
f 131/176/1 132/175/1 137/177/1 136/178/1
f 139/172/45 119/170/45 135/179/45 143/180/45
f 115/156/45 147/138/45 148/137/45 120/152/45
f 146/135/45 138/158/45 128/181/45 127/136/45
f 115/156/50 116/164/50 106/134/50 107/133/50
f 144/162/49 146/135/49 107/133/49 105/132/49
f 51/37/10 150/160/10 152/182/10 50/62/10
f 182/183/45 183/184/45 158/185/45 157/186/45
f 154/187/15 56/71/15 55/70/15 153/188/15
f 161/189/15 154/187/15 153/188/15 162/190/15
f 50/62/10 152/182/10 167/191/10 74/74/10
f 152/182/10 160/192/10 173/193/10 167/191/10
f 169/194/45 157/186/45 171/195/45 163/196/45
f 164/197/51 175/174/51 176/173/51
f 150/160/10 181/198/10 160/192/10 152/182/10
f 178/199/52 177/200/52 164/197/52 176/173/52
f 158/185/45 180/201/45 177/200/45 172/202/45
f 73/87/18 74/74/18 167/191/18 166/203/18
f 176/173/15 77/52/15 89/90/15 179/204/15 178/199/15
f 165/144/53 111/205/53 112/206/53 188/145/53
f 163/196/52 171/195/52 162/190/52 174/207/52
f 171/195/52 172/202/52 161/189/52 162/190/52
f 178/199/52 161/189/52 172/202/52 177/200/52
f 166/203/18 167/191/18 173/193/18 174/207/18
f 160/192/54 169/194/54 163/196/54 173/193/54
f 164/197/55 170/208/55 159/209/55 175/174/55
f 188/145/56 112/206/56 117/210/56 150/160/56
f 165/144/12 72/19/12 75/15/12 168/143/12
f 153/188/15 55/70/15 73/87/15 166/203/15
f 162/190/15 153/188/15 166/203/15 174/207/15
f 140/161/12 141/169/12 113/211/12 108/139/12
f 56/71/15 154/187/15 89/90/15
f 154/187/15 161/189/15 178/199/15
f 159/209/57 185/212/57 137/213/57 97/99/57 61/98/57
f 180/201/45 170/208/45 164/197/45 177/200/45
f 159/209/1 61/98/1 76/53/1 175/174/1
f 155/214/45 156/215/45 183/184/45 182/183/45
f 174/207/58 173/193/58 163/196/58
f 52/104/25 98/105/25 125/154/25 151/153/25
f 105/132/26 106/134/26 112/163/26 111/171/26
f 123/216/59 181/198/59 150/160/59 117/210/59
f 165/144/60 168/143/60 113/157/60 111/205/60
f 181/198/61 123/216/61 184/217/61 160/192/61
f 187/142/1 35/18/1 52/104/1 151/153/1
f 182/183/62 148/218/62 127/219/62 155/214/62
f 169/194/63 184/217/63 149/220/63 157/186/63
f 155/214/64 127/219/64 128/221/64 156/215/64
f 180/201/65 186/222/65 185/212/65 170/208/65
f 157/186/66 149/220/66 148/218/66 182/183/66
f 158/185/67 143/223/67 186/222/67 180/201/67
f 156/215/68 128/221/68 139/224/68 183/184/68
f 183/184/69 139/224/69 143/223/69 158/185/69
f 169/194/70 160/192/70 184/217/70
f 179/204/15 89/90/15 154/187/15 178/199/15
f 159/209/71 170/208/71 185/212/71
f 125/148/1 98/116/1 100/115/1 122/129/1
f 30/118/72 102/225/72 191/226/72 189/119/72
f 134/130/10 102/122/10 101/121/10 132/175/10
f 121/128/47 133/131/47 135/179/47 119/170/47
f 131/176/47 130/227/47 135/179/47 133/131/47
f 138/158/45 142/159/45 139/172/45 128/181/45
f 135/179/45 130/227/45 186/228/45 143/180/45
f 185/229/73 186/228/73 130/227/73
f 130/227/47 131/176/47 136/178/47 185/229/47
f 132/175/1 101/121/1 97/126/1 137/177/1
f 157/186/45 158/185/45 172/202/45 171/195/45
f 118/166/74 184/230/74 123/167/74
f 118/166/50 120/152/50 129/151/50 184/230/50
f 149/150/15 184/230/15 129/151/15
f 113/211/43 114/147/43 110/140/43 108/139/43
f 190/120/1 189/119/1 191/226/1 192/231/1
f 194/232/1 192/231/1 191/226/1 193/233/1
f 100/234/75 18/117/75 190/120/75 192/231/75
f 134/235/8 122/236/8 194/232/8 193/233/8
f 102/225/72 134/235/72 193/233/72 191/226/72
f 122/236/75 100/234/75 192/231/75 194/232/75
f 137/177/15 185/229/15 136/178/15
f 33/58/15 32/57/15 95/125/15
f 145/168/12 111/171/12 113/211/12 141/169/12
f 42/47/12 38/46/12 9/97/12 7/49/12
