# Blender 4.5.3 LTS
# www.blender.org
mtllib Horn.mtl
o NurbsPath
v -0.378000 0.000000 -0.000000
v -0.378000 0.125000 -0.216506
v -0.378000 0.216506 -0.125000
v -0.378000 0.250000 -0.000000
v -0.378000 0.216506 0.125000
v -0.378000 0.125000 0.216506
v -0.378000 0.000000 0.250000
v -0.378000 -0.125000 0.216506
v -0.378000 -0.216506 0.125000
v -0.378000 -0.250000 0.000000
v -0.378000 -0.216507 -0.125000
v -0.378000 -0.125000 -0.216506
v -0.378000 -0.000000 -0.250000
v -0.219164 0.078513 -0.174182
v -0.200177 0.149640 -0.100564
v -0.193227 0.175675 -0.000000
v -0.200177 0.149640 0.100564
v -0.219164 0.078513 0.174182
v -0.245102 -0.018648 0.201128
v -0.271040 -0.115809 0.174182
v -0.290027 -0.186937 0.100564
v -0.296977 -0.212971 0.000000
v -0.290027 -0.186937 -0.100564
v -0.271040 -0.115810 -0.174182
v -0.245102 -0.018648 -0.201128
v -0.121927 0.029954 -0.157699
v -0.097013 0.091774 -0.091048
v -0.087893 0.114401 -0.000000
v -0.097013 0.091774 0.091048
v -0.121927 0.029954 0.157699
v -0.155961 -0.054494 0.182095
v -0.189994 -0.138941 0.157699
v -0.214909 -0.200761 0.091048
v -0.224028 -0.223389 0.000000
v -0.214909 -0.200761 -0.091047
v -0.189994 -0.138941 -0.157699
v -0.155961 -0.054494 -0.182095
v -0.058017 -0.002237 -0.148432
v -0.041328 0.058237 -0.085697
v -0.035219 0.080372 -0.000000
v -0.041328 0.058237 0.085697
v -0.058017 -0.002237 0.148432
v -0.080815 -0.084846 0.171395
v -0.103613 -0.167455 0.148432
v -0.120302 -0.227929 0.085697
v -0.126411 -0.250065 0.000000
v -0.120302 -0.227930 -0.085697
v -0.103613 -0.167456 -0.148432
v -0.080815 -0.084846 -0.171395
v -0.001245 -0.018863 -0.135307
v 0.000125 0.038308 -0.078120
v 0.000626 0.059234 -0.000000
v 0.000125 0.038308 0.078120
v -0.001245 -0.018863 0.135307
v -0.003116 -0.096960 0.156239
v -0.004987 -0.175058 0.135307
v -0.006356 -0.232229 0.078120
v -0.006857 -0.253155 0.000000
v -0.006356 -0.232229 -0.078120
v -0.004987 -0.175058 -0.135307
v -0.003116 -0.096960 -0.156239
v 0.067094 -0.023102 -0.114781
v 0.057266 0.024404 -0.066269
v 0.053669 0.041793 -0.000000
v 0.057266 0.024404 0.066269
v 0.067094 -0.023102 0.114781
v 0.080519 -0.087997 0.132538
v 0.093943 -0.152892 0.114781
v 0.103771 -0.200398 0.066269
v 0.107368 -0.217787 0.000000
v 0.103771 -0.200399 -0.066269
v 0.093943 -0.152892 -0.114781
v 0.080519 -0.087997 -0.132538
v 0.144177 -0.014560 -0.089115
v 0.129828 0.020264 -0.051451
v 0.124575 0.033010 -0.000000
v 0.129828 0.020264 0.051450
v 0.144177 -0.014560 0.089115
v 0.163778 -0.062130 0.102901
v 0.183379 -0.109701 0.089115
v 0.197728 -0.144525 0.051451
v 0.202980 -0.157271 0.000000
v 0.197728 -0.144525 -0.051450
v 0.183379 -0.109701 -0.089115
v 0.163778 -0.062131 -0.102901
v 0.221804 0.007728 -0.061153
v 0.207622 0.029336 -0.035307
v 0.202431 0.037245 -0.000000
v 0.207622 0.029336 0.035307
v 0.221804 0.007728 0.061153
v 0.241177 -0.021789 0.070614
v 0.260550 -0.051306 0.061153
v 0.274732 -0.072914 0.035307
v 0.279923 -0.080823 0.000000
v 0.274732 -0.072914 -0.035307
v 0.260550 -0.051306 -0.061153
v 0.241177 -0.021789 -0.070613
v 0.298279 0.048602 -0.032599
v 0.288578 0.058385 -0.018821
v 0.285027 0.061966 -0.000000
v 0.288578 0.058385 0.018821
v 0.298279 0.048602 0.032599
v 0.311531 0.035237 0.037642
v 0.324783 0.021872 0.032599
v 0.334484 0.012088 0.018821
v 0.338035 0.008507 0.000000
v 0.334484 0.012088 -0.018821
v 0.324783 0.021872 -0.032599
v 0.311531 0.035237 -0.037642
v 0.378000 0.115835 0.000000
vn 0.3342 0.2109 -0.9186
vn 0.3519 0.6463 -0.6771
vn 0.3660 0.8970 -0.2480
vn 0.3660 0.8970 0.2480
vn 0.3519 0.6463 0.6771
vn 0.3342 0.2109 0.9186
vn 0.3310 -0.2835 0.9000
vn 0.3540 -0.6863 0.6353
vn 0.3852 -0.8951 0.2244
vn 0.3852 -0.8951 -0.2244
vn 0.3540 -0.6863 -0.6353
vn 0.3310 -0.2835 -0.9000
vn 0.2627 0.1812 -0.9477
vn 0.4065 0.5962 -0.6923
vn 0.4887 0.8350 -0.2530
vn 0.4887 0.8350 0.2530
vn 0.4065 0.5962 0.6923
vn 0.2627 0.1812 0.9477
vn 0.0943 -0.2996 0.9494
vn -0.0537 -0.7163 0.6957
vn -0.1403 -0.9568 0.2547
vn -0.1403 -0.9568 -0.2547
vn -0.0537 -0.7163 -0.6957
vn 0.0943 -0.2996 -0.9494
vn 0.2245 0.1943 -0.9549
vn 0.4106 0.5931 -0.6926
vn 0.5210 0.8157 -0.2515
vn 0.5210 0.8157 0.2515
vn 0.4106 0.5931 0.6926
vn 0.2245 0.1943 0.9549
vn 0.0173 -0.2782 0.9604
vn -0.1561 -0.6923 0.7045
vn -0.2539 -0.9322 0.2580
vn -0.2539 -0.9322 -0.2580
vn -0.1561 -0.6923 -0.7045
vn 0.0173 -0.2782 -0.9604
vn 0.2456 0.2202 -0.9440
vn 0.3778 0.6319 -0.6768
vn 0.4736 0.8469 -0.2417
vn 0.4736 0.8469 0.2417
vn 0.3778 0.6319 0.6768
vn 0.2456 0.2202 0.9440
vn 0.1216 -0.2789 0.9526
vn 0.0279 -0.7157 0.6979
vn -0.0223 -0.9667 0.2550
vn -0.0223 -0.9667 -0.2550
vn 0.0279 -0.7157 -0.6979
vn 0.1216 -0.2789 -0.9526
vn 0.2611 0.2717 -0.9263
vn 0.2723 0.6945 -0.6660
vn 0.2894 0.9267 -0.2397
vn 0.2894 0.9267 0.2397
vn 0.2723 0.6945 0.6660
vn 0.2611 0.2717 0.9263
vn 0.2662 -0.2317 0.9357
vn 0.2796 -0.6709 0.6868
vn 0.2899 -0.9235 0.2513
vn 0.2899 -0.9235 -0.2513
vn 0.2796 -0.6709 -0.6868
vn 0.2662 -0.2317 -0.9357
vn 0.2444 0.3277 -0.9126
vn 0.1566 0.7357 -0.6589
vn 0.1115 0.9647 -0.2386
vn 0.1115 0.9647 0.2386
vn 0.1566 0.7357 0.6589
vn 0.2444 0.3277 0.9126
vn 0.3566 -0.1537 0.9215
vn 0.4597 -0.5742 0.6775
vn 0.5209 -0.8168 0.2482
vn 0.5209 -0.8168 -0.2482
vn 0.4597 -0.5742 -0.6775
vn 0.3566 -0.1537 -0.9215
vn 0.2006 0.3744 -0.9053
vn 0.0337 0.7546 -0.6553
vn -0.0582 0.9696 -0.2378
vn -0.0582 0.9696 0.2378
vn 0.0337 0.7546 0.6553
vn 0.2006 0.3744 0.9053
vn 0.4019 -0.0721 0.9129
vn 0.5808 -0.4612 0.6708
vn 0.6852 -0.6857 0.2457
vn 0.6852 -0.6857 -0.2457
vn 0.5808 -0.4612 -0.6708
vn 0.4019 -0.0721 -0.9129
vn 0.1169 0.3968 -0.9104
vn -0.1363 0.7349 -0.6644
vn -0.2809 0.9286 -0.2425
vn -0.2809 0.9286 0.2425
vn -0.1363 0.7349 0.6644
vn 0.1169 0.3968 0.9104
vn 0.4117 0.0050 0.9113
vn 0.6672 -0.3333 0.6662
vn 0.8140 -0.5273 0.2434
vn 0.8140 -0.5273 -0.2434
vn 0.6672 -0.3333 -0.6662
vn 0.4117 0.0050 -0.9113
vn 0.0454 0.3918 -0.9189
vn -0.2889 0.6728 -0.6811
vn -0.4853 0.8376 -0.2509
vn -0.4853 0.8376 0.2509
vn -0.2889 0.6728 0.6811
vn 0.0454 0.3918 0.9189
vn 0.4204 0.0756 0.9042
vn 0.7343 -0.1898 0.6518
vn 0.9106 -0.3391 0.2363
vn 0.9106 -0.3391 -0.2363
vn 0.7343 -0.1898 -0.6518
vn 0.4204 0.0756 -0.9042
vn -1.0000 -0.0000 -0.0000
vt 0.240437 0.846619
vt 0.321732 0.760008
vt 0.374485 0.813139
vt 0.313227 0.894518
vt 0.175047 0.789157
vt 0.274795 0.703862
vt 0.119919 0.721277
vt 0.232279 0.645508
vt 0.077651 0.644725
vt 0.194116 0.584219
vt 0.048888 0.562563
vt 0.159656 0.519659
vt 0.031764 0.477126
vt 0.130172 0.450838
vt 0.024714 0.389481
vt 0.106444 0.377810
vt 0.024714 0.302743
vt 0.091780 0.301357
vt 0.031422 0.218074
vt 0.089008 0.227600
vt 0.472254 0.966418
vt 0.498677 0.904761
vt 0.566018 0.934977
vt 0.553264 0.991935
vt 0.391840 0.933906
vt 0.433294 0.862510
vt 0.384958 0.711783
vt 0.427681 0.765997
vt 0.344853 0.654670
vt 0.305284 0.596278
vt 0.265981 0.537707
vt 0.228064 0.479119
vt 0.193816 0.419190
vt 0.165925 0.356560
vt 0.147314 0.291062
vt 0.138982 0.225182
vt 0.529037 0.857135
vt 0.586991 0.889553
vt 0.475290 0.815330
vt 0.428283 0.680531
vt 0.471917 0.727881
vt 0.386371 0.626801
vt 0.345883 0.568901
vt 0.307381 0.509662
vt 0.273277 0.450666
vt 0.245735 0.392465
vt 0.225994 0.334811
vt 0.214054 0.276976
vt 0.208310 0.217273
vt 0.567111 0.800539
vt 0.620309 0.828244
vt 0.517969 0.767793
vt 0.460670 0.648523
vt 0.507336 0.684707
vt 0.415310 0.603170
vt 0.374333 0.549716
vt 0.340135 0.491691
vt 0.315091 0.432638
vt 0.299037 0.375811
vt 0.290457 0.321866
vt 0.287662 0.269534
vt 0.289525 0.216655
vt 0.601602 0.735088
vt 0.651324 0.753181
vt 0.554133 0.712881
vt 0.494608 0.605057
vt 0.538046 0.631631
vt 0.452067 0.568905
vt 0.413881 0.523047
vt 0.385679 0.470457
vt 0.368110 0.417466
vt 0.359755 0.367234
vt 0.358130 0.320386
vt 0.361586 0.275374
vt 0.369928 0.229536
vt 0.623896 0.664365
vt 0.669519 0.673812
vt 0.580870 0.650697
vt 0.531171 0.551179
vt 0.567122 0.571308
vt 0.496732 0.523120
vt 0.466673 0.487448
vt 0.444869 0.446209
vt 0.431764 0.403764
vt 0.426578 0.362889
vt 0.427521 0.324524
vt 0.433379 0.288180
vt 0.443768 0.252954
vt 0.638934 0.593006
vt 0.675485 0.596578
vt 0.603044 0.584814
vt 0.570027 0.492358
vt 0.595895 0.506307
vt 0.545820 0.472823
vt 0.525138 0.448023
vt 0.509898 0.419553
vt 0.500861 0.389789
vt 0.497625 0.360578
vt 0.499212 0.332884
vt 0.504780 0.306813
vt 0.513823 0.282185
vt 0.648422 0.519827
vt 0.674644 0.520674
vt 0.622165 0.515216
vt 0.611952 0.428494
vt 0.625896 0.436066
vt 0.599222 0.418107
vt 0.588528 0.405277
vt 0.580642 0.390554
vt 0.575784 0.374858
vt 0.573991 0.359093
vt 0.574968 0.343853
vt 0.578369 0.329427
vt 0.583888 0.316002
vt 0.655040 0.443126
vt 0.669555 0.443042
vt 0.640391 0.440872
vt 0.660590 0.356684
vt 0.850076 0.371058
vt 0.756614 0.371058
vt 0.803344 0.196656
vt 0.931016 0.324327
vt 0.977747 0.243386
vt 0.977747 0.149924
vt 0.931016 0.068984
vt 0.850076 0.022253
vt 0.756614 0.022253
vt 0.675673 0.068984
vt 0.628942 0.149925
vt 0.628942 0.243387
vt 0.675673 0.324327
s 0
f 2/1/1 14/2/1 25/3/1 13/4/1
f 3/5/2 15/6/2 14/2/2 2/1/2
f 4/7/3 16/8/3 15/6/3 3/5/3
f 5/9/4 17/10/4 16/8/4 4/7/4
f 6/11/5 18/12/5 17/10/5 5/9/5
f 7/13/6 19/14/6 18/12/6 6/11/6
f 8/15/7 20/16/7 19/14/7 7/13/7
f 9/17/8 21/18/8 20/16/8 8/15/8
f 10/19/9 22/20/9 21/18/9 9/17/9
f 11/21/10 23/22/10 22/23/10 10/24/10
f 12/25/11 24/26/11 23/22/11 11/21/11
f 13/4/12 25/3/12 24/26/12 12/25/12
f 14/2/13 26/27/13 37/28/13 25/3/13
f 15/6/14 27/29/14 26/27/14 14/2/14
f 16/8/15 28/30/15 27/29/15 15/6/15
f 17/10/16 29/31/16 28/30/16 16/8/16
f 18/12/17 30/32/17 29/31/17 17/10/17
f 19/14/18 31/33/18 30/32/18 18/12/18
f 20/16/19 32/34/19 31/33/19 19/14/19
f 21/18/20 33/35/20 32/34/20 20/16/20
f 22/20/21 34/36/21 33/35/21 21/18/21
f 23/22/22 35/37/22 34/38/22 22/23/22
f 24/26/23 36/39/23 35/37/23 23/22/23
f 25/3/24 37/28/24 36/39/24 24/26/24
f 26/27/25 38/40/25 49/41/25 37/28/25
f 27/29/26 39/42/26 38/40/26 26/27/26
f 28/30/27 40/43/27 39/42/27 27/29/27
f 29/31/28 41/44/28 40/43/28 28/30/28
f 30/32/29 42/45/29 41/44/29 29/31/29
f 31/33/30 43/46/30 42/45/30 30/32/30
f 32/34/31 44/47/31 43/46/31 31/33/31
f 33/35/32 45/48/32 44/47/32 32/34/32
f 34/36/33 46/49/33 45/48/33 33/35/33
f 35/37/34 47/50/34 46/51/34 34/38/34
f 36/39/35 48/52/35 47/50/35 35/37/35
f 37/28/36 49/41/36 48/52/36 36/39/36
f 38/40/37 50/53/37 61/54/37 49/41/37
f 39/42/38 51/55/38 50/53/38 38/40/38
f 40/43/39 52/56/39 51/55/39 39/42/39
f 41/44/40 53/57/40 52/56/40 40/43/40
f 42/45/41 54/58/41 53/57/41 41/44/41
f 43/46/42 55/59/42 54/58/42 42/45/42
f 44/47/43 56/60/43 55/59/43 43/46/43
f 45/48/44 57/61/44 56/60/44 44/47/44
f 46/49/45 58/62/45 57/61/45 45/48/45
f 47/50/46 59/63/46 58/64/46 46/51/46
f 48/52/47 60/65/47 59/63/47 47/50/47
f 49/41/48 61/54/48 60/65/48 48/52/48
f 50/53/49 62/66/49 73/67/49 61/54/49
f 51/55/50 63/68/50 62/66/50 50/53/50
f 52/56/51 64/69/51 63/68/51 51/55/51
f 53/57/52 65/70/52 64/69/52 52/56/52
f 54/58/53 66/71/53 65/70/53 53/57/53
f 55/59/54 67/72/54 66/71/54 54/58/54
f 56/60/55 68/73/55 67/72/55 55/59/55
f 57/61/56 69/74/56 68/73/56 56/60/56
f 58/62/57 70/75/57 69/74/57 57/61/57
f 59/63/58 71/76/58 70/77/58 58/64/58
f 60/65/59 72/78/59 71/76/59 59/63/59
f 61/54/60 73/67/60 72/78/60 60/65/60
f 62/66/61 74/79/61 85/80/61 73/67/61
f 63/68/62 75/81/62 74/79/62 62/66/62
f 64/69/63 76/82/63 75/81/63 63/68/63
f 65/70/64 77/83/64 76/82/64 64/69/64
f 66/71/65 78/84/65 77/83/65 65/70/65
f 67/72/66 79/85/66 78/84/66 66/71/66
f 68/73/67 80/86/67 79/85/67 67/72/67
f 69/74/68 81/87/68 80/86/68 68/73/68
f 70/75/69 82/88/69 81/87/69 69/74/69
f 71/76/70 83/89/70 82/90/70 70/77/70
f 72/78/71 84/91/71 83/89/71 71/76/71
f 73/67/72 85/80/72 84/91/72 72/78/72
f 74/79/73 86/92/73 97/93/73 85/80/73
f 75/81/74 87/94/74 86/92/74 74/79/74
f 76/82/75 88/95/75 87/94/75 75/81/75
f 77/83/76 89/96/76 88/95/76 76/82/76
f 78/84/77 90/97/77 89/96/77 77/83/77
f 79/85/78 91/98/78 90/97/78 78/84/78
f 80/86/79 92/99/79 91/98/79 79/85/79
f 81/87/80 93/100/80 92/99/80 80/86/80
f 82/88/81 94/101/81 93/100/81 81/87/81
f 83/89/82 95/102/82 94/103/82 82/90/82
f 84/91/83 96/104/83 95/102/83 83/89/83
f 85/80/84 97/93/84 96/104/84 84/91/84
f 86/92/85 98/105/85 109/106/85 97/93/85
f 87/94/86 99/107/86 98/105/86 86/92/86
f 88/95/87 100/108/87 99/107/87 87/94/87
f 89/96/88 101/109/88 100/108/88 88/95/88
f 90/97/89 102/110/89 101/109/89 89/96/89
f 91/98/90 103/111/90 102/110/90 90/97/90
f 92/99/91 104/112/91 103/111/91 91/98/91
f 93/100/92 105/113/92 104/112/92 92/99/92
f 94/101/93 106/114/93 105/113/93 93/100/93
f 95/102/94 107/115/94 106/116/94 94/103/94
f 96/104/95 108/117/95 107/115/95 95/102/95
f 97/93/96 109/106/96 108/117/96 96/104/96
f 98/105/97 110/118/97 109/106/97
f 99/107/98 110/118/98 98/105/98
f 100/108/99 110/118/99 99/107/99
f 101/109/100 110/118/100 100/108/100
f 102/110/101 110/118/101 101/109/101
f 103/111/102 110/118/102 102/110/102
f 104/112/103 110/118/103 103/111/103
f 105/113/104 110/118/104 104/112/104
f 106/114/105 110/118/105 105/113/105
f 107/115/106 110/118/106 106/116/106
f 108/117/107 110/118/107 107/115/107
f 109/106/108 110/118/108 108/117/108
f 4/119/109 3/120/109 1/121/109
f 1/121/109 5/122/109 4/119/109
f 5/122/109 1/121/109 6/123/109
f 6/123/109 1/121/109 7/124/109
f 7/124/109 1/121/109 8/125/109
f 8/125/109 1/121/109 9/126/109
f 9/126/109 1/121/109 10/127/109
f 10/127/109 1/121/109 11/128/109
f 11/128/109 1/121/109 12/129/109
f 12/129/109 1/121/109 13/130/109
f 2/131/109 1/121/109 3/120/109
f 2/131/109 13/130/109 1/121/109
