# Blender 4.5.3 LTS
# www.blender.org
o SwivelStatic
v 1.448000 0.125000 -0.198000
v 1.448000 0.125000 0.198000
v 1.052000 0.125000 -0.198000
v 1.052000 0.125000 0.198000
v 1.450000 0.060000 -0.200000
v 1.050000 0.060000 0.200000
v 1.450000 0.060000 0.200000
v 1.050000 0.060000 -0.200000
v 1.375000 0.042000 -0.125000
v 1.125000 0.042000 0.125000
v 1.375000 0.042000 0.125000
v 1.125000 0.042000 -0.125000
v 1.497500 0.125000 0.000000
v 1.002500 0.125000 0.000000
v 1.500000 0.060000 0.000000
v 1.000000 0.060000 0.000000
v 1.425000 0.042000 0.000000
v 1.075000 0.042000 0.000000
v 1.250000 0.125000 0.247500
v 1.250000 0.125000 -0.247500
v 1.250000 0.060000 -0.250000
v 1.250000 0.060000 0.250000
v 1.250000 0.042000 -0.175000
v 1.250000 0.042000 0.175000
v 1.250000 0.125000 0.000000
v 1.398500 0.125000 -0.247500
v 1.400000 0.060000 -0.250000
v 1.375000 0.125000 0.000000
v 1.398500 0.125000 0.247500
v 1.400000 0.060000 0.250000
v 1.002500 0.125000 -0.148500
v 1.000000 0.060000 -0.150000
v 1.497500 0.125000 -0.148500
v 1.500000 0.060000 -0.150000
v 1.250000 0.125000 -0.125000
v 1.375000 0.125000 -0.125000
v 1.101500 0.125000 0.247500
v 1.100000 0.060000 0.250000
v 1.101500 0.125000 -0.247500
v 1.100000 0.060000 -0.250000
v 1.125000 0.125000 0.000000
v 1.125000 0.125000 -0.125000
v 1.497500 0.125000 0.148500
v 1.500000 0.060000 0.150000
v 1.002500 0.125000 0.148500
v 1.000000 0.060000 0.150000
v 1.250000 0.125000 0.125000
v 1.375000 0.125000 0.125000
v 1.125000 0.125000 0.125000
v 1.375000 0.000000 -0.125000
v 1.125000 0.000000 0.125000
v 1.375000 0.000000 0.125000
v 1.125000 0.000000 -0.125000
v 1.075000 0.000000 0.000000
v 1.425000 0.000000 0.000000
v 1.250000 0.000000 0.175000
v 1.250000 0.000000 -0.175000
v 1.050000 0.105000 0.200000
v 1.450000 0.105000 -0.200000
v 1.450000 0.105000 0.200000
v 1.050000 0.105000 -0.200000
v 1.500000 0.105000 0.000000
v 1.000000 0.105000 0.000000
v 1.250000 0.105000 -0.250000
v 1.250000 0.105000 0.250000
v 1.400000 0.105000 0.250000
v 1.400000 0.105000 -0.250000
v 1.500000 0.105000 -0.150000
v 1.000000 0.105000 -0.150000
v 1.100000 0.105000 -0.250000
v 1.100000 0.105000 0.250000
v 1.000000 0.105000 0.150000
v 1.500000 0.105000 0.150000
v 1.448000 -0.125000 -0.198000
v 1.448000 -0.125000 0.198000
v 1.052000 -0.125000 -0.198000
v 1.052000 -0.125000 0.198000
v 1.450000 -0.060000 -0.200000
v 1.050000 -0.060000 0.200000
v 1.450000 -0.060000 0.200000
v 1.050000 -0.060000 -0.200000
v 1.375000 -0.042000 -0.125000
v 1.125000 -0.042000 0.125000
v 1.375000 -0.042000 0.125000
v 1.125000 -0.042000 -0.125000
v 1.002500 -0.125000 -0.000000
v 1.497500 -0.125000 -0.000000
v 1.500000 -0.060000 0.000000
v 1.000000 -0.060000 0.000000
v 1.425000 -0.042000 0.000000
v 1.075000 -0.042000 0.000000
v 1.250000 -0.125000 -0.247500
v 1.250000 -0.125000 0.247500
v 1.250000 -0.060000 -0.250000
v 1.250000 -0.060000 0.250000
v 1.250000 -0.042000 -0.175000
v 1.250000 -0.042000 0.175000
v 1.250000 -0.125000 0.000000
v 1.398500 -0.125000 0.247500
v 1.400000 -0.060000 -0.250000
v 1.398500 -0.125000 -0.247500
v 1.400000 -0.060000 0.250000
v 1.375000 -0.125000 0.000000
v 1.497500 -0.125000 -0.148500
v 1.000000 -0.060000 -0.150000
v 1.002500 -0.125000 -0.148500
v 1.500000 -0.060000 -0.150000
v 1.250000 -0.125000 -0.125000
v 1.375000 -0.125000 -0.125000
v 1.101500 -0.125000 -0.247500
v 1.100000 -0.060000 0.250000
v 1.125000 -0.125000 0.000000
v 1.101500 -0.125000 0.247500
v 1.100000 -0.060000 -0.250000
v 1.125000 -0.125000 -0.125000
v 1.002500 -0.125000 0.148500
v 1.500000 -0.060000 0.150000
v 1.497500 -0.125000 0.148500
v 1.000000 -0.060000 0.150000
v 1.250000 -0.125000 0.125000
v 1.375000 -0.125000 0.125000
v 1.125000 -0.125000 0.125000
v 1.450000 -0.105000 -0.200000
v 1.450000 -0.105000 0.200000
v 1.050000 -0.105000 -0.200000
v 1.050000 -0.105000 0.200000
v 1.000000 -0.105000 0.000000
v 1.500000 -0.105000 0.000000
v 1.250000 -0.105000 0.250000
v 1.250000 -0.105000 -0.250000
v 1.400000 -0.105000 0.250000
v 1.400000 -0.105000 -0.250000
v 1.500000 -0.105000 -0.150000
v 1.000000 -0.105000 -0.150000
v 1.100000 -0.105000 -0.250000
v 1.100000 -0.105000 0.250000
v 1.000000 -0.105000 0.150000
v 1.500000 -0.105000 0.150000
vn -0.0000 1.0000 -0.0000
vn -0.7001 0.1400 0.7001
vn -0.7001 0.1400 -0.7001
vn 0.7001 0.1400 0.7001
vn 0.7001 0.1400 -0.7001
vn -0.3714 -0.0000 -0.9285
vn -0.1618 -0.9856 0.0498
vn -0.0498 -0.9856 0.1618
vn -0.1618 -0.9856 -0.0498
vn 0.9285 -0.0000 -0.3714
vn 0.9285 -0.0000 0.3714
vn 0.3714 -0.0000 -0.9285
vn 0.0498 -0.9856 -0.1618
vn 0.1618 -0.9856 0.0498
vn -0.9285 -0.0000 -0.3714
vn 0.1618 -0.9856 -0.0498
vn -0.9285 -0.0000 0.3714
vn 0.9923 0.1240 -0.0000
vn -0.9923 0.1240 -0.0000
vn -0.3714 -0.0000 0.9285
vn -0.0498 -0.9856 -0.1618
vn 0.3714 -0.0000 0.9285
vn -0.0000 0.1240 -0.9923
vn -0.0000 0.1240 0.9923
vn 0.0498 -0.9856 0.1618
vn 1.0000 -0.0000 -0.0000
vn -0.7071 -0.0000 0.7071
vn -0.0000 -0.0000 1.0000
vn -0.7071 -0.0000 -0.7071
vn -1.0000 -0.0000 -0.0000
vn 0.7071 -0.0000 -0.7071
vn -0.0000 -0.0000 -1.0000
vn 0.7071 -0.0000 0.7071
vn -0.0000 -1.0000 -0.0000
vn 0.1618 0.9856 -0.0498
vn -0.0498 0.9856 -0.1618
vn -0.1618 0.9856 -0.0498
vn -0.1618 0.9856 0.0498
vn 0.1618 0.9856 0.0498
vn -0.0498 0.9856 0.1618
vn 0.0498 0.9856 0.1618
vn 0.0498 0.9856 -0.1618
vn 0.9923 -0.1240 -0.0000
vn -0.7001 -0.1400 0.7001
vn -0.0000 -0.1240 0.9923
vn -0.7001 -0.1400 -0.7001
vn -0.9923 -0.1240 -0.0000
vn 0.7001 -0.1400 -0.7001
vn -0.0000 -0.1240 -0.9923
vn 0.7001 -0.1400 0.7001
vt 0.251092 0.637771
vt 0.300380 0.682778
vt 0.270197 0.693839
vt 0.237289 0.707257
vt 0.254569 0.757132
vt 0.290738 0.739005
vt 0.425737 0.614780
vt 0.395101 0.595707
vt 0.404829 0.572743
vt 0.439200 0.587890
vt 0.315372 0.268868
vt 0.293866 0.306612
vt 0.263306 0.297039
vt 0.282085 0.251133
vt 0.448247 0.426519
vt 0.414298 0.435906
vt 0.403556 0.413784
vt 0.437963 0.398276
vt 0.744576 0.607541
vt 0.712086 0.607541
vt 0.712086 0.503395
vt 0.744576 0.503396
vt 0.318845 0.785359
vt 0.350152 0.760465
vt 0.424856 0.710987
vt 0.481140 0.761328
vt 0.373886 0.859810
vt 0.190763 0.889858
vt 0.281711 0.807120
vt 0.252570 0.945312
vt 0.462697 0.636318
vt 0.479502 0.605410
vt 0.561795 0.639244
vt 0.744576 0.399250
vt 0.712086 0.399250
vt 0.712086 0.295105
vt 0.744576 0.295105
vt 0.712086 0.190959
vt 0.744576 0.190959
vt 0.513128 0.492962
vt 0.489177 0.415422
vt 0.479142 0.381299
vt 0.563289 0.345993
vt 0.589865 0.493376
vt 0.419763 0.272823
vt 0.343249 0.227404
vt 0.309459 0.203247
vt 0.361252 0.122142
vt 0.477255 0.218993
vt 0.744576 0.711686
vt 0.712086 0.711686
vt 0.462093 0.350379
vt 0.744576 0.815832
vt 0.712086 0.815832
vt 0.423361 0.370576
vt 0.393077 0.390907
vt 0.343532 0.352138
vt 0.378029 0.314401
vt 0.323827 0.719295
vt 0.347595 0.635492
vt 0.382509 0.671991
vt 0.364574 0.554516
vt 0.306348 0.583337
vt 0.364313 0.432560
vt 0.353700 0.495309
vt 0.254343 0.494999
vt 0.303053 0.404483
vt 0.744576 0.919977
vt 0.712086 0.919977
vt 0.489238 0.572280
vt 0.712086 0.086814
vt 0.744576 0.086814
vt 0.449308 0.558913
vt 0.415146 0.550292
vt 0.412889 0.493859
vt 0.458758 0.493425
vt 0.243662 0.234824
vt 0.229959 0.285234
vt 0.117187 0.298462
vt 0.124370 0.199166
vt 0.246358 0.353686
vt 0.166407 0.408756
vt 0.131722 0.804081
vt 0.117188 0.700016
vt 0.161852 0.580161
vt 0.271190 0.184010
vt 0.165222 0.108737
vt 0.224644 0.043126
vt 0.250961 0.638352
vt 0.300113 0.683389
vt 0.269947 0.694373
vt 0.237063 0.707708
vt 0.449221 0.559956
vt 0.489128 0.573432
vt 0.479308 0.606571
vt 0.439045 0.588924
vt 0.323454 0.719895
vt 0.349653 0.761039
vt 0.318324 0.785835
vt 0.290368 0.739504
vt 0.423566 0.371400
vt 0.462358 0.351209
vt 0.479398 0.382202
vt 0.438150 0.399151
vt 0.243791 0.235397
vt 0.271365 0.184540
vt 0.309668 0.203813
vt 0.282244 0.251738
vt 0.424373 0.711909
vt 0.462421 0.637465
vt 0.561508 0.640686
vt 0.480425 0.762386
vt 0.513242 0.494092
vt 0.489395 0.416395
vt 0.563741 0.346959
vt 0.590095 0.494699
vt 0.420059 0.273523
vt 0.477677 0.219652
vt 0.343483 0.228011
vt 0.361551 0.122625
vt 0.315555 0.269507
vt 0.378244 0.315125
vt 0.425519 0.615785
vt 0.382177 0.672822
vt 0.373038 0.860293
vt 0.364497 0.555367
vt 0.394936 0.596623
vt 0.347373 0.636267
vt 0.306247 0.584070
vt 0.364410 0.433380
vt 0.353719 0.496141
vt 0.254376 0.495745
vt 0.303144 0.405235
vt 0.165305 0.109161
vt 0.224806 0.043488
vt 0.190268 0.889854
vt 0.281201 0.807482
vt 0.251804 0.945312
vt 0.254218 0.757529
vt 0.131525 0.804158
vt 0.448407 0.427442
vt 0.458817 0.494439
vt 0.246439 0.354365
vt 0.166420 0.409441
vt 0.117188 0.299057
vt 0.230056 0.285850
vt 0.161927 0.580707
vt 0.117187 0.700286
vt 0.412921 0.494786
vt 0.415072 0.551249
vt 0.414417 0.436791
vt 0.404710 0.573683
vt 0.403696 0.414635
vt 0.393234 0.391724
vt 0.294008 0.307277
vt 0.263427 0.297680
vt 0.343687 0.352877
vt 0.124395 0.199674
vt 0.777066 0.295105
vt 0.777066 0.399250
vt 0.777066 0.503395
vt 0.777066 0.607541
vt 0.777066 0.711686
vt 0.777066 0.815832
vt 0.777066 0.919977
vt 0.777066 0.086814
vt 0.777066 0.190959
s 0
f 49/1/1 45/2/1 4/3/1 37/4/1
f 71/5/2 37/4/2 4/3/2 58/6/2
f 69/7/3 31/8/3 3/9/3 61/10/3
f 73/11/4 43/12/4 2/13/4 60/14/4
f 67/15/5 26/16/5 1/17/5 59/18/5
f 53/19/6 12/20/6 23/21/6 57/22/6
f 6/23/7 46/24/7 16/25/7 18/26/7 10/27/7
f 22/28/8 38/29/8 6/23/8 10/27/8 24/30/8
f 16/25/9 32/31/9 8/32/9 12/33/9 18/26/9
f 50/34/10 9/35/10 17/36/10 55/37/10
f 55/37/11 17/36/11 11/38/11 52/39/11
f 57/22/12 23/21/12 9/35/12 50/34/12
f 21/40/13 27/41/13 5/42/13 9/43/13 23/44/13
f 15/45/14 44/46/14 7/47/14 11/48/14 17/49/14
f 54/50/15 18/51/15 12/20/15 53/19/15
f 5/42/16 34/52/16 15/45/16 17/49/16 9/43/16
f 51/53/17 10/54/17 18/51/17 54/50/17
f 68/55/18 33/56/18 13/57/18 62/58/18
f 72/59/19 45/2/19 14/60/19 63/61/19
f 42/62/1 31/8/1 14/60/1 41/63/1
f 36/64/1 35/65/1 25/66/1 28/67/1
f 56/68/20 24/69/20 10/54/20 51/53/20
f 8/32/21 40/70/21 21/40/21 23/44/21 12/33/21
f 52/39/22 11/38/22 24/71/22 56/72/22
f 70/73/23 39/74/23 20/75/23 64/76/23
f 66/77/24 29/78/24 19/79/24 65/80/24
f 48/81/1 47/82/1 19/79/1 29/78/1
f 43/12/1 48/81/1 29/78/1 2/13/1
f 60/14/4 2/13/4 29/78/4 66/77/4
f 33/56/1 36/64/1 28/67/1 13/57/1
f 64/76/23 20/75/23 26/16/23 67/15/23
f 1/17/1 26/16/1 36/64/1 33/56/1
f 26/16/1 20/75/1 35/65/1 36/64/1
f 39/74/1 3/9/1 31/8/1 42/62/1
f 59/18/5 1/17/5 33/56/5 68/55/5
f 63/61/19 14/60/19 31/8/19 69/7/19
f 20/75/1 39/74/1 42/62/1 35/65/1
f 61/10/3 3/9/3 39/74/3 70/73/3
f 35/65/1 42/62/1 41/63/1 25/66/1
f 65/83/24 19/84/24 37/4/24 71/5/24
f 47/85/1 49/1/1 37/4/1 19/84/1
f 25/66/1 41/63/1 49/1/1 47/85/1
f 13/57/1 28/67/1 48/81/1 43/12/1
f 28/67/1 25/66/1 47/82/1 48/81/1
f 58/6/2 4/3/2 45/2/2 72/59/2
f 62/58/18 13/57/18 43/12/18 73/11/18
f 41/63/1 14/60/1 45/2/1 49/1/1
f 7/47/25 30/86/25 22/87/25 24/88/25 11/48/25
f 15/45/26 62/58/26 73/11/26 44/46/26
f 6/23/27 58/6/27 72/59/27 46/24/27
f 22/28/28 65/83/28 71/5/28 38/29/28
f 8/32/29 61/10/29 70/73/29 40/70/29
f 16/25/30 63/61/30 69/7/30 32/31/30
f 5/42/31 59/18/31 68/55/31 34/52/31
f 21/40/32 64/76/32 67/15/32 27/41/32
f 7/47/33 60/14/33 66/77/33 30/86/33
f 30/86/28 66/77/28 65/80/28 22/87/28
f 40/70/32 70/73/32 64/76/32 21/40/32
f 46/24/30 72/59/30 63/61/30 16/25/30
f 34/52/26 68/55/26 62/58/26 15/45/26
f 27/41/31 67/15/31 59/18/31 5/42/31
f 44/46/33 73/11/33 60/14/33 7/47/33
f 32/31/29 69/7/29 61/10/29 8/32/29
f 38/29/27 71/5/27 58/6/27 6/23/27
f 121/89/34 118/90/34 75/91/34 99/92/34
f 132/93/31 100/94/31 78/95/31 123/96/31
f 138/97/33 117/98/33 80/99/33 124/100/33
f 134/101/29 105/102/29 81/103/29 125/104/29
f 136/105/27 111/106/27 79/107/27 126/108/27
f 88/109/35 107/110/35 78/95/35 82/111/35 90/112/35
f 94/113/36 114/114/36 81/103/36 85/115/36 96/116/36
f 81/103/37 105/102/37 89/117/37 91/118/37 85/115/37
f 89/117/38 119/119/38 79/107/38 83/120/38 91/118/38
f 137/121/30 119/119/30 89/117/30 127/122/30
f 133/123/26 107/110/26 88/109/26 128/124/26
f 80/99/39 117/98/39 88/109/39 90/112/39 84/125/39
f 109/126/34 104/127/34 87/128/34 103/129/34
f 115/130/34 108/131/34 98/132/34 112/133/34
f 79/107/40 111/106/40 95/134/40 97/135/40 83/120/40
f 95/136/41 102/137/41 80/99/41 84/125/41 97/138/41
f 131/139/28 102/137/28 95/136/28 129/140/28
f 78/95/42 100/94/42 94/113/42 96/116/42 82/111/42
f 135/141/32 114/114/32 94/113/32 130/142/32
f 122/143/34 120/144/34 93/145/34 113/146/34
f 124/100/33 80/99/33 102/137/33 131/139/33
f 108/131/34 109/126/34 103/129/34 98/132/34
f 130/142/32 94/113/32 100/94/32 132/93/32
f 120/147/34 121/89/34 99/92/34 93/148/34
f 92/149/34 101/150/34 109/126/34 108/131/34
f 110/151/34 92/149/34 108/131/34 115/130/34
f 101/150/34 74/152/34 104/127/34 109/126/34
f 123/96/31 78/95/31 107/110/31 133/123/31
f 127/122/30 89/117/30 105/102/30 134/101/30
f 76/153/34 110/151/34 115/130/34 106/154/34
f 116/155/34 122/143/34 113/146/34 77/156/34
f 125/104/29 81/103/29 114/114/29 135/141/29
f 106/154/34 115/130/34 112/133/34 86/157/34
f 129/158/28 95/134/28 111/106/28 136/105/28
f 86/157/34 112/133/34 122/143/34 116/155/34
f 98/132/34 103/129/34 121/89/34 120/147/34
f 112/133/34 98/132/34 120/144/34 122/143/34
f 126/108/27 79/107/27 119/119/27 137/121/27
f 128/124/26 88/109/26 117/98/26 138/97/26
f 103/129/34 87/128/34 118/90/34 121/89/34
f 87/128/43 128/124/43 138/97/43 118/90/43
f 77/156/44 126/108/44 137/121/44 116/155/44
f 93/145/45 129/158/45 136/105/45 113/146/45
f 76/153/46 125/104/46 135/141/46 110/151/46
f 86/157/47 127/122/47 134/101/47 106/154/47
f 74/152/48 123/96/48 133/123/48 104/127/48
f 92/149/49 130/142/49 132/93/49 101/150/49
f 75/91/50 124/100/50 131/139/50 99/92/50
f 110/151/49 135/141/49 130/142/49 92/149/49
f 99/92/45 131/139/45 129/140/45 93/148/45
f 104/127/43 133/123/43 128/124/43 87/128/43
f 116/155/47 137/121/47 127/122/47 86/157/47
f 113/146/44 136/105/44 126/108/44 77/156/44
f 106/154/46 134/101/46 125/104/46 76/153/46
f 118/90/50 138/97/50 124/100/50 75/91/50
f 101/150/48 132/93/48 123/96/48 74/152/48
f 50/34/10 55/37/10 90/159/10 82/160/10
f 57/22/12 50/34/12 82/160/12 96/161/12
f 53/19/6 57/22/6 96/161/6 85/162/6
f 54/50/15 53/19/15 85/162/15 91/163/15
f 51/53/17 54/50/17 91/163/17 83/164/17
f 56/68/20 51/53/20 83/164/20 97/165/20
f 52/39/22 56/72/22 97/166/22 84/167/22
f 55/37/11 52/39/11 84/167/11 90/159/11
