# Blender 4.5.3 LTS
# www.blender.org
mtllib SwivelTop.mtl
o SwivelTop
v -0.180000 0.250000 0.180000
v -0.180000 0.250000 -0.180000
v 0.180000 0.250000 0.180000
v 0.180000 0.250000 -0.180000
v -0.200000 0.060000 0.200000
v 0.200000 0.060000 -0.200000
v -0.200000 0.060000 -0.200000
v 0.200000 0.060000 0.200000
v -0.125000 0.042000 0.125000
v -0.125000 -0.092000 0.125000
v 0.125000 -0.092000 -0.125000
v 0.125000 0.042000 -0.125000
v -0.125000 0.042000 -0.125000
v -0.125000 -0.092000 -0.125000
v 0.125000 0.042000 0.125000
v 0.125000 -0.092000 0.125000
v -0.225000 0.250000 0.000000
v 0.225000 0.250000 0.000000
v -0.250000 0.060000 0.000000
v 0.250000 0.060000 0.000000
v -0.175000 -0.092000 0.000000
v -0.175000 0.042000 0.000000
v 0.175000 -0.092000 0.000000
v 0.175000 0.042000 0.000000
v 0.000000 0.250000 -0.225000
v 0.000000 0.250000 0.225000
v 0.000000 0.060000 0.250000
v 0.000000 0.060000 -0.250000
v 0.000000 -0.092000 0.175000
v 0.000000 0.042000 0.175000
v 0.000000 -0.092000 -0.175000
v 0.000000 0.042000 -0.175000
v 0.000000 0.250000 0.000000
v -0.135000 0.250000 0.225000
v -0.150000 0.060000 0.250000
v -0.125000 0.250000 0.000000
v -0.135000 0.250000 -0.225000
v -0.150000 0.060000 -0.250000
v 0.225000 0.250000 0.135000
v 0.250000 0.060000 0.150000
v -0.225000 0.250000 0.135000
v -0.250000 0.060000 0.150000
v 0.000000 0.250000 0.125000
v -0.125000 0.250000 0.125000
v 0.135000 0.250000 -0.225000
v 0.150000 0.060000 -0.250000
v 0.135000 0.250000 0.225000
v 0.150000 0.060000 0.250000
v 0.125000 0.250000 0.000000
v 0.125000 0.250000 0.125000
v -0.225000 0.250000 -0.135000
v -0.250000 0.060000 -0.150000
v 0.225000 0.250000 -0.135000
v 0.250000 0.060000 -0.150000
v 0.000000 0.250000 -0.125000
v -0.125000 0.250000 -0.125000
v 0.125000 0.250000 -0.125000
v -0.125000 -0.050000 0.125000
v 0.125000 -0.050000 -0.125000
v -0.125000 -0.050000 -0.125000
v 0.125000 -0.050000 0.125000
v 0.175000 -0.050000 0.000000
v -0.175000 -0.050000 0.000000
v 0.000000 -0.050000 -0.175000
v 0.000000 -0.050000 0.175000
v 0.200000 0.155000 -0.200000
v -0.200000 0.155000 0.200000
v -0.200000 0.155000 -0.200000
v 0.200000 0.155000 0.200000
v -0.250000 0.155000 0.000000
v 0.250000 0.155000 0.000000
v 0.000000 0.155000 0.250000
v 0.000000 0.155000 -0.250000
v -0.150000 0.155000 -0.250000
v -0.150000 0.155000 0.250000
v -0.250000 0.155000 0.150000
v 0.250000 0.155000 0.150000
v 0.150000 0.155000 0.250000
v 0.150000 0.155000 -0.250000
v 0.250000 0.155000 -0.150000
v -0.250000 0.155000 -0.150000
vn -0.0000 1.0000 -0.0000
vn 0.6777 0.2854 -0.6777
vn 0.6777 0.2854 0.6777
vn -0.6777 0.2854 -0.6777
vn -0.6777 0.2854 0.6777
vn 0.3714 -0.0000 0.9285
vn 0.1618 -0.9856 -0.0498
vn 0.0498 -0.9856 -0.1618
vn 0.1618 -0.9856 0.0498
vn -0.9285 -0.0000 0.3714
vn -0.9285 -0.0000 -0.3714
vn -0.3714 -0.0000 0.9285
vn -0.0498 -0.9856 0.1618
vn -0.1618 -0.9856 -0.0498
vn 0.9285 -0.0000 0.3714
vn -0.1618 -0.9856 0.0498
vn 0.9285 -0.0000 -0.3714
vn -0.9671 0.2545 -0.0000
vn 0.9671 0.2545 -0.0000
vn 0.3714 -0.0000 -0.9285
vn 0.0498 -0.9856 0.1618
vn -0.3714 -0.0000 -0.9285
vn -0.0000 0.2545 0.9671
vn -0.0000 0.2545 -0.9671
vn -0.0498 -0.9856 -0.1618
vn -1.0000 -0.0000 -0.0000
vn 0.7071 -0.0000 -0.7071
vn -0.0000 -0.0000 -1.0000
vn 0.7071 -0.0000 0.7071
vn 1.0000 -0.0000 -0.0000
vn -0.7071 -0.0000 0.7071
vn -0.0000 -0.0000 1.0000
vn -0.7071 -0.0000 -0.7071
vn -0.0000 -1.0000 -0.0000
vt 0.812500 0.687500
vt 0.875000 0.687500
vt 0.875000 0.750000
vt 0.812500 0.750000
vt 0.583333 0.937500
vt 0.625000 0.937500
vt 0.625000 1.000000
vt 0.583333 1.000000
vt 0.583333 0.187500
vt 0.625000 0.187500
vt 0.625000 0.250000
vt 0.583333 0.250000
vt 0.583333 0.687500
vt 0.625000 0.687500
vt 0.625000 0.750000
vt 0.583333 0.750000
vt 0.583333 0.437500
vt 0.625000 0.437500
vt 0.625000 0.500000
vt 0.583333 0.500000
vt 0.500000 0.250000
vt 0.541667 0.250000
vt 0.541667 0.375000
vt 0.500000 0.375000
vt 0.541667 0.000000
vt 0.541667 0.062500
vt 0.541667 0.125000
vt 0.541667 0.875000
vt 0.541667 0.937500
vt 0.541667 1.000000
vt 0.541667 0.187500
vt 0.500000 0.500000
vt 0.541667 0.500000
vt 0.541667 0.625000
vt 0.500000 0.625000
vt 0.541667 0.750000
vt 0.500000 0.750000
vt 0.541667 0.437500
vt 0.541667 0.687500
vt 0.500000 0.125000
vt 0.541667 0.562500
vt 0.500000 0.000000
vt 0.583333 0.562500
vt 0.625000 0.562500
vt 0.625000 0.625000
vt 0.583333 0.625000
vt 0.583333 0.062500
vt 0.625000 0.062500
vt 0.625000 0.125000
vt 0.583333 0.125000
vt 0.812500 0.562500
vt 0.875000 0.562500
vt 0.875000 0.625000
vt 0.812500 0.625000
vt 0.687500 0.562500
vt 0.750000 0.562500
vt 0.750000 0.625000
vt 0.687500 0.625000
vt 0.500000 0.875000
vt 0.500000 1.000000
vt 0.541667 0.312500
vt 0.583333 0.312500
vt 0.625000 0.312500
vt 0.625000 0.375000
vt 0.583333 0.375000
vt 0.583333 0.812500
vt 0.625000 0.812500
vt 0.625000 0.875000
vt 0.583333 0.875000
vt 0.687500 0.687500
vt 0.750000 0.687500
vt 0.750000 0.750000
vt 0.687500 0.750000
vt 0.687500 0.500000
vt 0.750000 0.500000
vt 0.812500 0.500000
vt 0.875000 0.500000
vt 0.583333 0.000000
vt 0.625000 0.000000
vt 0.541667 0.812500
vt 0.458333 0.750000
vt 0.458333 0.875000
vt 0.458333 1.000000
vt 0.458333 0.000000
vt 0.458333 0.125000
vt 0.458333 0.250000
vt 0.458333 0.375000
vt 0.458333 0.500000
vt 0.458333 0.625000
vt 0.000000 0.000000
s 0
usemtl Material
f 57/1/1 53/2/1 4/3/1 45/4/1
f 79/5/2 45/6/2 4/7/2 66/8/2
f 77/9/3 39/10/3 3/11/3 69/12/3
f 81/13/4 51/14/4 2/15/4 68/16/4
f 75/17/5 34/18/5 1/19/5 67/20/5
f 61/21/6 15/22/6 30/23/6 65/24/6
f 6/25/7 54/26/7 20/27/7 24/27/7 12/25/7
f 28/28/8 46/29/8 6/30/8 12/30/8 32/28/8
f 20/27/9 40/31/9 8/22/9 15/22/9 24/27/9
f 58/32/10 9/33/10 22/34/10 63/35/10
f 63/35/11 22/34/11 13/36/11 60/37/11
f 65/24/12 30/23/12 9/33/12 58/32/12
f 27/23/13 35/38/13 5/33/13 9/33/13 30/23/13
f 19/34/14 52/39/14 7/36/14 13/36/14 22/34/14
f 62/40/15 24/27/15 15/22/15 61/21/15
f 5/33/16 42/41/16 19/34/16 22/34/16 9/33/16
f 59/42/17 12/25/17 24/27/17 62/40/17
f 76/43/18 41/44/18 17/45/18 70/46/18
f 80/47/19 53/48/19 18/49/19 71/50/19
f 50/51/1 39/52/1 18/53/1 49/54/1
f 44/55/1 43/56/1 33/57/1 36/58/1
f 64/59/20 32/28/20 12/30/20 59/60/20
f 8/22/21 48/61/21 27/23/21 30/23/21 15/22/21
f 60/37/22 13/36/22 32/28/22 64/59/22
f 78/62/23 47/63/23 26/64/23 72/65/23
f 74/66/24 37/67/24 25/68/24 73/69/24
f 56/70/1 55/71/1 25/72/1 37/73/1
f 51/14/1 56/70/1 37/73/1 2/15/1
f 68/16/4 2/15/4 37/67/4 74/66/4
f 41/44/1 44/55/1 36/58/1 17/45/1
f 72/65/23 26/64/23 34/18/23 75/17/23
f 1/19/1 34/74/1 44/55/1 41/44/1
f 34/74/1 26/75/1 43/56/1 44/55/1
f 47/76/1 3/77/1 39/52/1 50/51/1
f 67/20/5 1/19/5 41/44/5 76/43/5
f 71/50/19 18/49/19 39/10/19 77/9/19
f 26/75/1 47/76/1 50/51/1 43/56/1
f 69/12/3 3/11/3 47/63/3 78/62/3
f 43/56/1 50/51/1 49/54/1 33/57/1
f 73/69/24 25/68/24 45/6/24 79/5/24
f 55/71/1 57/1/1 45/4/1 25/72/1
f 33/57/1 49/54/1 57/1/1 55/71/1
f 17/45/1 36/58/1 56/70/1 51/14/1
f 36/58/1 33/57/1 55/71/1 56/70/1
f 66/78/2 4/79/2 53/48/2 80/47/2
f 70/46/18 17/45/18 51/14/18 81/13/18
f 49/54/1 18/53/1 53/2/1 57/1/1
f 7/36/25 38/80/25 28/28/25 32/28/25 13/36/25
f 14/81/22 60/37/22 64/59/22 31/82/22
f 31/82/20 64/59/20 59/60/20 11/83/20
f 11/84/17 59/42/17 62/40/17 23/85/17
f 23/85/15 62/40/15 61/21/15 16/86/15
f 29/87/12 65/24/12 58/32/12 10/88/12
f 21/89/11 63/35/11 60/37/11 14/81/11
f 10/88/10 58/32/10 63/35/10 21/89/10
f 16/86/6 61/21/6 65/24/6 29/87/6
f 19/34/26 70/46/26 81/13/26 52/39/26
f 6/25/27 66/78/27 80/47/27 54/26/27
f 28/28/28 73/69/28 79/5/28 46/29/28
f 8/22/29 69/12/29 78/62/29 48/61/29
f 20/27/30 71/50/30 77/9/30 40/31/30
f 5/33/31 67/20/31 76/43/31 42/41/31
f 27/23/32 72/65/32 75/17/32 35/38/32
f 7/36/33 68/16/33 74/66/33 38/80/33
f 38/80/28 74/66/28 73/69/28 28/28/28
f 48/61/32 78/62/32 72/65/32 27/23/32
f 54/26/30 80/47/30 71/50/30 20/27/30
f 42/41/26 76/43/26 70/46/26 19/34/26
f 35/38/31 75/17/31 67/20/31 5/33/31
f 52/39/33 81/13/33 68/16/33 7/36/33
f 40/31/29 77/9/29 69/12/29 8/22/29
f 46/29/27 79/5/27 66/8/27 6/30/27
f 14/81/34 31/82/34 11/83/34
f 14/90/34 10/90/34 21/90/34
f 29/87/34 10/88/34 16/86/34
f 16/90/34 11/90/34 23/90/34
f 11/90/34 16/90/34 10/88/34 14/90/34
