# Blender 4.5.3 LTS
# www.blender.org
mtllib SwivelBottom.mtl
o SwivelBottom
v -0.198000 -0.250000 0.198000
v -0.198000 -0.250000 -0.198000
v 0.198000 -0.250000 0.198000
v 0.198000 -0.250000 -0.198000
v -0.200000 -0.060000 0.200000
v 0.200000 -0.060000 -0.200000
v -0.200000 -0.060000 -0.200000
v 0.200000 -0.060000 0.200000
v -0.125000 -0.042000 0.125000
v 0.125000 -0.042000 -0.125000
v -0.125000 -0.042000 -0.125000
v 0.125000 -0.042000 0.125000
v 0.247500 -0.250000 0.000000
v -0.247500 -0.250000 0.000000
v -0.250000 -0.060000 0.000000
v 0.250000 -0.060000 0.000000
v -0.175000 -0.042000 0.000000
v 0.175000 -0.042000 0.000000
v 0.000000 -0.250000 0.247500
v 0.000000 -0.250000 -0.247500
v 0.000000 -0.060000 0.250000
v 0.000000 -0.060000 -0.250000
v 0.000000 -0.042000 0.175000
v 0.000000 -0.042000 -0.175000
v 0.000000 -0.250000 0.000000
v -0.148500 -0.250000 -0.247500
v -0.150000 -0.060000 0.250000
v -0.148500 -0.250000 0.247500
v -0.150000 -0.060000 -0.250000
v -0.125000 -0.250000 0.000000
v -0.247500 -0.250000 0.148500
v 0.250000 -0.060000 0.150000
v 0.247500 -0.250000 0.148500
v -0.250000 -0.060000 0.150000
v 0.000000 -0.250000 0.125000
v -0.125000 -0.250000 0.125000
v 0.148500 -0.250000 0.247500
v 0.150000 -0.060000 -0.250000
v 0.125000 -0.250000 0.000000
v 0.148500 -0.250000 -0.247500
v 0.150000 -0.060000 0.250000
v 0.125000 -0.250000 0.125000
v 0.247500 -0.250000 -0.148500
v -0.250000 -0.060000 -0.150000
v -0.247500 -0.250000 -0.148500
v 0.250000 -0.060000 -0.150000
v 0.000000 -0.250000 -0.125000
v -0.125000 -0.250000 -0.125000
v 0.125000 -0.250000 -0.125000
v -0.200000 -0.155000 0.200000
v -0.200000 -0.155000 -0.200000
v 0.200000 -0.155000 0.200000
v 0.200000 -0.155000 -0.200000
v 0.250000 -0.155000 0.000000
v -0.250000 -0.155000 0.000000
v 0.000000 -0.155000 -0.250000
v 0.000000 -0.155000 0.250000
v -0.150000 -0.155000 -0.250000
v -0.150000 -0.155000 0.250000
v -0.250000 -0.155000 0.150000
v 0.250000 -0.155000 0.150000
v 0.150000 -0.155000 0.250000
v 0.150000 -0.155000 -0.250000
v 0.250000 -0.155000 -0.150000
v -0.250000 -0.155000 -0.150000
vn -0.0000 -1.0000 -0.0000
vn -0.7071 -0.0000 0.7071
vn -0.7071 -0.0000 -0.7071
vn 0.7071 -0.0000 0.7071
vn 0.7071 -0.0000 -0.7071
vn -0.1618 0.9856 0.0498
vn 0.0498 0.9856 0.1618
vn 0.1618 0.9856 0.0498
vn 0.1618 0.9856 -0.0498
vn 1.0000 -0.0000 -0.0000
vn -1.0000 -0.0000 -0.0000
vn -0.1618 0.9856 -0.0498
vn 0.0498 0.9856 -0.1618
vn -0.0498 0.9856 -0.1618
vn -0.0000 -0.0000 -1.0000
vn -0.0498 0.9856 0.1618
vn -0.0000 -0.0000 1.0000
vn -0.9997 -0.0263 -0.0000
vn 0.7068 -0.0298 -0.7068
vn -0.0000 -0.0263 -0.9997
vn 0.7068 -0.0298 0.7068
vn 0.9997 -0.0263 -0.0000
vn -0.7068 -0.0298 0.7068
vn -0.0000 -0.0263 0.9997
vn -0.7068 -0.0298 -0.7068
vn -0.0000 1.0000 -0.0000
vt 0.312500 0.687500
vt 0.375000 0.687500
vt 0.375000 0.750000
vt 0.312500 0.750000
vt 0.416667 0.437500
vt 0.458333 0.437500
vt 0.458333 0.500000
vt 0.416667 0.500000
vt 0.416667 0.687500
vt 0.458333 0.687500
vt 0.458333 0.750000
vt 0.416667 0.750000
vt 0.416667 0.187500
vt 0.458333 0.187500
vt 0.458333 0.250000
vt 0.416667 0.250000
vt 0.416667 0.937500
vt 0.458333 0.937500
vt 0.458333 1.000000
vt 0.416667 1.000000
vt 0.458333 0.625000
vt 0.458333 0.562500
vt 0.458333 0.375000
vt 0.458333 0.312500
vt 0.458333 0.125000
vt 0.458333 0.062500
vt 0.458333 0.000000
vt 0.416667 0.062500
vt 0.416667 0.125000
vt 0.416667 0.562500
vt 0.416667 0.625000
vt 0.312500 0.562500
vt 0.375000 0.562500
vt 0.375000 0.625000
vt 0.312500 0.625000
vt 0.187500 0.562500
vt 0.250000 0.562500
vt 0.250000 0.625000
vt 0.187500 0.625000
vt 0.458333 0.875000
vt 0.458333 0.812500
vt 0.416667 0.812500
vt 0.416667 0.875000
vt 0.416667 0.312500
vt 0.416667 0.375000
vt 0.187500 0.687500
vt 0.250000 0.687500
vt 0.250000 0.750000
vt 0.187500 0.750000
vt 0.250000 0.500000
vt 0.312500 0.500000
vt 0.187500 0.500000
vt 0.375000 0.500000
vt 0.125000 0.500000
vt 0.125000 0.562500
vt 0.125000 0.687500
vt 0.125000 0.750000
vt 0.125000 0.625000
vt 0.416667 0.000000
vt 0.375000 0.000000
vt 0.375000 0.062500
vt 0.375000 0.875000
vt 0.375000 0.937500
vt 0.375000 0.250000
vt 0.375000 0.312500
vt 0.375000 0.125000
vt 0.375000 0.187500
vt 0.375000 0.375000
vt 0.375000 0.437500
vt 0.375000 0.812500
vt 0.375000 1.000000
vt 0.000000 0.000000
s 0
usemtl Material.001
f 48/1/1 45/2/1 2/3/1 26/4/1
f 59/5/2 27/6/2 5/7/2 50/8/2
f 65/9/3 44/10/3 7/11/3 51/12/3
f 61/13/4 32/14/4 8/15/4 52/16/4
f 63/17/5 38/18/5 6/19/5 53/20/5
f 15/21/6 34/22/6 5/7/6 9/7/6 17/21/6
f 21/23/7 41/24/7 8/15/7 12/15/7 23/23/7
f 8/15/8 32/14/8 16/25/8 18/25/8 12/15/8
f 16/25/9 46/26/9 6/27/9 10/27/9 18/25/9
f 64/28/10 46/26/10 16/25/10 54/29/10
f 60/30/11 34/22/11 15/21/11 55/31/11
f 7/11/12 44/10/12 15/21/12 17/21/12 11/11/12
f 36/32/1 31/33/1 14/34/1 30/35/1
f 42/36/1 35/37/1 25/38/1 39/39/1
f 6/19/13 38/18/13 22/40/13 24/40/13 10/19/13
f 22/40/14 29/41/14 7/11/14 11/11/14 24/40/14
f 58/42/15 29/41/15 22/40/15 56/43/15
f 5/7/16 27/6/16 21/23/16 23/23/16 9/7/16
f 62/44/17 41/24/17 21/23/17 57/45/17
f 49/46/1 47/47/1 20/48/1 40/49/1
f 51/12/3 7/11/3 29/41/3 58/42/3
f 35/37/1 36/32/1 30/35/1 25/38/1
f 57/45/17 21/23/17 27/6/17 59/5/17
f 47/47/1 48/1/1 26/4/1 20/48/1
f 19/50/1 28/51/1 36/32/1 35/37/1
f 37/52/1 19/50/1 35/37/1 42/36/1
f 28/51/1 1/53/1 31/33/1 36/32/1
f 50/8/2 5/7/2 34/22/2 60/30/2
f 54/29/10 16/25/10 32/14/10 61/13/10
f 3/54/1 37/52/1 42/36/1 33/55/1
f 43/56/1 49/46/1 40/49/1 4/57/1
f 52/16/4 8/15/4 41/24/4 62/44/4
f 33/55/1 42/36/1 39/39/1 13/58/1
f 56/43/15 22/40/15 38/18/15 63/17/15
f 13/58/1 39/39/1 49/46/1 43/56/1
f 25/38/1 30/35/1 48/1/1 47/47/1
f 39/39/1 25/38/1 47/47/1 49/46/1
f 53/59/5 6/27/5 46/26/5 64/28/5
f 55/31/11 15/21/11 44/10/11 65/9/11
f 30/35/1 14/34/1 45/2/1 48/1/1
f 14/34/18 55/31/18 65/9/18 45/2/18
f 4/60/19 53/59/19 64/28/19 43/61/19
f 20/62/20 56/43/20 63/17/20 40/63/20
f 3/64/21 52/16/21 62/44/21 37/65/21
f 13/66/22 54/29/22 61/13/22 33/67/22
f 1/53/23 50/8/23 60/30/23 31/33/23
f 19/68/24 57/45/24 59/5/24 28/69/24
f 2/3/25 51/12/25 58/42/25 26/70/25
f 37/65/24 62/44/24 57/45/24 19/68/24
f 26/70/20 58/42/20 56/43/20 20/62/20
f 31/33/18 60/30/18 55/31/18 14/34/18
f 43/61/22 64/28/22 54/29/22 13/66/22
f 40/63/19 63/17/19 53/20/19 4/71/19
f 33/67/21 61/13/21 52/16/21 3/64/21
f 45/2/25 65/9/25 51/12/25 2/3/25
f 28/69/23 59/5/23 50/8/23 1/53/23
f 17/72/26 9/72/26 11/72/26
f 23/23/26 12/15/26 9/7/26
f 18/25/26 10/27/26 12/15/26
f 11/11/26 10/19/26 24/40/26
f 9/72/26 12/15/26 10/19/26 11/72/26
