# Blender 4.5.3 LTS
# www.blender.org
o CenterAxle
v -0.132975 -0.157239 -0.742886
v -0.153732 -0.072373 -0.743080
v 0.175291 -0.075689 -0.736351
v 0.173068 -0.131786 -0.736342
v -0.138803 -0.157600 0.741165
v -0.159560 -0.072733 0.740971
v 0.169537 -0.076062 0.739390
v 0.167314 -0.132158 0.739399
v -0.154507 -0.034993 -0.498394
v -0.158785 -0.035113 0.496285
v 0.170287 -0.038438 0.497473
v 0.174541 -0.038314 -0.494435
v 0.168064 -0.119534 0.497482
v 0.172318 -0.119410 -0.494426
v -0.138028 -0.144979 0.496479
v -0.133750 -0.144859 -0.498200
v -0.080957 -0.022523 -0.124374
v 0.071666 0.011641 -0.072917
v -0.082002 -0.022583 0.122967
v 0.100437 -0.025907 0.124164
v 0.071045 0.011579 0.074657
v 0.101472 -0.025845 -0.121793
v 0.099103 -0.082003 0.124177
v -0.060918 0.014903 0.073834
v 0.100138 -0.081941 -0.121780
v -0.069548 -0.107449 0.123122
v -0.060291 0.014963 -0.074571
v -0.068503 -0.107389 -0.124219
v 0.186680 -0.103738 -0.736289
v 0.180925 -0.104110 0.739453
v 0.181675 -0.078986 0.497536
v 0.185929 -0.078862 -0.494372
v 0.112270 -0.053955 0.124229
v 0.113305 -0.053893 -0.121728
v -0.168353 -0.114806 -0.743100
v -0.174181 -0.115167 0.740951
v -0.173406 -0.090046 0.496265
v -0.169128 -0.089926 -0.498414
v -0.100775 -0.065016 0.122928
v -0.099730 -0.064956 -0.124413
vn 0.9290 -0.3687 0.0313
vn 0.0124 0.9883 -0.1518
vn 0.0819 -0.9953 0.0509
vn -0.9570 0.2874 -0.0396
vn -0.9572 0.2875 0.0338
vn -0.9334 0.3200 0.1624
vn 0.0827 -0.9953 -0.0514
vn 0.1048 -0.9894 0.1003
vn 0.0101 0.9882 0.1528
vn 0.0134 0.9994 -0.0334
vn 0.9292 -0.3687 -0.0259
vn 0.9113 -0.3561 0.2069
vn 0.9130 -0.3561 -0.1990
vn 0.0250 0.7971 -0.6033
vn 0.9052 -0.4249 0.0037
vn 0.0128 0.9994 0.0337
vn 0.1492 -0.9888 0.0004
vn 0.7848 0.6197 0.0035
vn 0.1065 -0.9893 -0.0995
vn -0.8054 -0.5927 -0.0035
vn -0.8736 0.4865 -0.0035
vn -0.9320 0.3198 -0.1704
vn 0.0252 0.9997 0.0005
vn 0.0130 0.7966 0.6044
vn 0.9214 0.3887 0.0040
vn 0.9353 0.3163 -0.1585
vn 0.9339 0.3164 0.1667
vn 0.9481 0.3149 0.0438
vn 0.9484 0.3148 -0.0376
vn -0.8084 -0.5539 -0.1992
vn -0.9145 0.4046 -0.0038
vn -0.8104 -0.5535 0.1921
vn -0.8079 -0.5873 -0.0479
vn -0.8083 -0.5872 0.0421
vn 0.0198 -0.0015 -0.9998
vn 0.0047 0.0037 1.0000
vn 0.0045 0.0004 1.0000
vn 0.0200 0.0039 -0.9998
vt 0.967507 0.704355
vt 0.935293 0.701326
vt 0.925940 0.517878
vt 0.946428 0.499807
vt 0.933722 0.214223
vt 0.681238 0.203896
vt 0.689744 0.018566
vt 0.935921 0.027894
vt 0.697434 0.710644
vt 0.697188 0.526097
vt 0.978353 0.215830
vt 0.961670 -0.000000
vt 0.018097 0.000000
vt 0.043735 0.027946
vt 0.044617 0.214363
vt -0.000000 0.215585
vt 0.897709 0.499807
vt 0.862549 0.494878
vt 0.608391 0.482451
vt 0.379598 0.474161
vt 0.378559 0.289575
vt 0.616423 0.298951
vt 0.895716 0.987869
vt 0.765439 0.991630
vt 0.289973 0.018545
vt 0.297073 0.203957
vt 0.723046 0.489340
vt 0.628949 0.500483
vt 0.648614 0.295690
vt 0.918979 0.991087
vt 0.574915 0.012614
vt 0.598155 0.009228
vt 0.079163 0.853052
vt 0.078125 0.691395
vt 0.122152 0.720147
vt 0.121310 0.819565
vt 0.595654 0.680226
vt 0.408963 0.680250
vt 0.409052 0.656733
vt 0.595688 0.656733
vt 0.253288 0.489187
vt 0.113822 0.495439
vt 0.595389 0.809449
vt 0.407838 0.809798
vt 0.277432 0.853276
vt 0.235079 0.820103
vt 0.444663 0.008197
vt 0.408000 0.849792
vt 0.595505 0.849386
vt 0.277088 0.691562
vt 0.233373 0.721048
vt 0.078618 0.500057
vt 0.276988 0.876379
vt 0.079420 0.876097
vt 0.329713 0.202781
vt 0.276499 0.490144
vt 0.699830 0.490158
vt 0.648614 0.202523
vt 0.307293 0.000000
vt 0.672492 0.000000
vt 0.329713 0.283291
vt 0.405309 0.000000
vt 0.078793 0.656307
vt 0.276298 0.656307
vt 0.726118 1.000000
vt 0.648614 0.717107
vt 0.341572 0.500483
vt 0.659077 0.499807
s 0
f 32/1/1 14/2/1 4/3/1 29/4/1
f 9/5/2 12/6/2 3/7/2 2/8/2
f 14/2/3 16/9/3 1/10/3 4/3/3
f 38/11/4 9/5/4 2/8/4 35/12/4
f 36/13/5 6/14/5 10/15/5 37/16/5
f 40/17/6 17/18/6 9/5/6 38/11/6
f 8/19/7 5/20/7 15/21/7 13/22/7
f 25/23/8 28/24/8 16/9/8 14/2/8
f 6/14/9 7/25/9 11/26/9 10/15/9
f 17/18/10 22/27/10 12/6/10 9/5/10
f 30/28/11 8/19/11 13/22/11 31/29/11
f 34/30/12 25/23/12 14/2/12 32/1/12
f 31/29/13 13/22/13 23/31/13 33/32/13
f 22/33/14 17/34/14 27/35/14 18/36/14
f 23/37/15 25/38/15 34/39/15 33/40/15
f 10/15/16 11/26/16 20/41/16 19/42/16
f 26/43/17 28/44/17 25/38/17 23/37/17
f 20/45/18 22/33/18 18/36/18 21/46/18
f 13/22/19 15/21/19 26/47/19 23/31/19
f 40/48/20 28/44/20 26/43/20 39/49/20
f 17/34/21 19/50/21 24/51/21 27/35/21
f 37/16/22 10/15/22 19/42/22 39/52/22
f 21/46/23 18/36/23 27/35/23 24/51/23
f 19/50/24 20/45/24 21/46/24 24/51/24
f 33/53/25 34/54/25 22/33/25 20/45/25
f 11/26/26 31/55/26 33/56/26 20/41/26
f 22/27/27 34/57/27 32/58/27 12/6/27
f 7/25/28 30/59/28 31/55/28 11/26/28
f 12/6/29 32/58/29 29/60/29 3/7/29
f 15/21/30 37/61/30 39/62/30 26/47/30
f 17/34/31 40/63/31 39/64/31 19/50/31
f 28/24/32 40/65/32 38/66/32 16/9/32
f 5/20/33 36/67/33 37/61/33 15/21/33
f 16/9/34 38/66/34 35/68/34 1/10/34
f 3/7/35 29/60/35 35/12/35 2/8/35
f 8/19/36 30/28/36 36/67/36 5/20/36
f 30/59/37 7/25/37 6/14/37 36/13/37
f 29/4/38 4/3/38 1/10/38 35/68/38
