# Blender 4.5.3 LTS
# www.blender.org
o PlusSectionWall.002
v -0.437500 -1.250000 -0.812500
v 0.437500 -1.250000 -0.812500
v -0.437500 -1.250000 0.812500
v 0.437500 -1.250000 0.812500
v -0.219625 -1.125000 -0.481250
v 0.219625 -1.125000 -0.481250
v 0.219625 -1.125000 0.481250
v -0.219625 -1.125000 0.481250
v 0.393750 -1.125000 -0.731250
v 0.393750 -1.125000 0.731250
v -0.393750 -1.125000 0.731250
v -0.393750 -1.125000 -0.731250
v -0.812500 -1.250000 0.437500
v -0.812500 -1.250000 -0.437500
v 0.812500 -1.250000 0.437500
v 0.812500 -1.250000 -0.437500
v -0.481250 -1.125000 0.219625
v -0.481250 -1.125000 -0.219625
v 0.481250 -1.125000 -0.219625
v 0.481250 -1.125000 0.219625
v -0.731250 -1.125000 -0.393750
v 0.731250 -1.125000 -0.393750
v 0.731250 -1.125000 0.393750
v -0.731250 -1.125000 0.393750
v -0.812500 -1.250000 0.000000
v 0.812500 -1.250000 -0.000000
v 0.481250 -1.125000 -0.000000
v -0.481250 -1.125000 0.000000
v -0.731250 -1.125000 0.000000
v 0.731250 -1.125000 -0.000000
v 0.437500 -1.250000 -0.000000
v -0.437500 -1.250000 0.000000
v -0.000000 -1.250000 -0.812500
v 0.000000 -1.250000 0.812500
v 0.000000 -1.125000 0.481250
v -0.000000 -1.125000 -0.481250
v -0.000000 -1.125000 -0.731250
v 0.000000 -1.125000 0.731250
v -0.000000 -1.250000 -0.000000
v -0.078437 1.250000 -0.171875
v 0.078437 1.250000 -0.171875
v 0.078437 1.250000 0.171875
v -0.078437 1.250000 0.171875
v -0.171875 1.250000 0.078438
v -0.171875 1.250000 -0.078438
v 0.171875 1.250000 -0.078438
v 0.171875 1.250000 0.078438
v 0.171875 1.250000 -0.000000
v -0.171875 1.250000 0.000000
v 0.000000 1.250000 0.171875
v -0.000000 1.250000 -0.171875
vn -0.0000 1.0000 -0.0000
vn -0.0000 0.1292 -0.9916
vn 0.9916 0.1292 -0.0000
vn -0.0000 0.5450 -0.8384
vn -0.0000 0.5450 0.8384
vn -0.9916 0.1292 -0.0000
vn -0.7008 0.1330 0.7008
vn -0.8384 0.5450 -0.0000
vn 0.8384 0.5450 -0.0000
vn -0.5773 0.5774 0.5774
vn 0.7008 0.1330 0.7008
vn 0.5773 0.5774 0.5774
vn 0.7008 0.1330 -0.7008
vn 0.5774 0.5774 -0.5774
vn -0.7008 0.1330 -0.7008
vn -0.5774 0.5774 -0.5774
vn -0.0000 -1.0000 -0.0000
vn -0.0000 0.1292 0.9916
vt 0.539277 0.400502
vt 0.507042 0.402180
vt 0.503574 0.251236
vt 0.548983 0.232642
vt 0.939198 0.373146
vt 0.971413 0.370768
vt 0.976749 0.514747
vt 0.933407 0.538689
vt 0.269176 0.763855
vt 0.185676 0.761625
vt 0.975004 0.764996
vt 0.915462 0.759610
vt 0.904464 0.376162
vt 0.903861 0.532255
vt 0.574224 0.399259
vt 0.578299 0.242086
vt 0.732775 0.682377
vt 0.715433 0.712268
vt 0.610820 0.678934
vt 0.623599 0.640862
vt 0.723886 0.118500
vt 0.722504 0.086674
vt 0.848655 0.093732
vt 0.843270 0.135252
vt 0.499384 0.757138
vt 0.440383 0.759903
vt 0.649060 0.751284
vt 0.558946 0.754319
vt 0.725706 0.154561
vt 0.828055 0.161748
vt 0.755958 0.643691
vt 0.644669 0.618443
vt 0.608630 0.146916
vt 0.622889 0.173796
vt 0.599352 0.105861
vt 0.825018 0.753398
vt 0.568401 0.560308
vt 0.597314 0.551679
vt 0.522663 0.542405
vt 0.098760 0.756011
vt 0.886644 0.626095
vt 0.865719 0.603953
vt 0.903745 0.662432
vt 0.352912 0.763044
vt 0.909483 0.213497
vt 0.881066 0.224119
vt 0.956375 0.226891
vt 0.040083 0.750708
vt 0.750027 0.556185
vt 0.730208 0.233182
vt 0.740482 0.392418
vt 0.783455 0.676308
vt 0.736930 0.750709
vt 0.803325 0.704579
vt 0.000000 0.000000
s 0
f 38/1/1 35/2/1 8/3/1 11/4/1
f 37/5/1 36/6/1 6/7/1 9/8/1
f 51/9/2 41/10/2 6/10/2 36/9/2
f 48/11/3 47/12/3 20/12/3 27/11/3
f 33/13/4 37/5/4 9/8/4 2/14/4
f 34/15/5 38/1/5 11/4/5 3/16/5
f 30/17/1 27/18/1 20/19/1 23/20/1
f 29/21/1 28/22/1 18/23/1 21/24/1
f 49/25/6 45/26/6 18/26/6 28/25/6
f 8/27/7 43/27/7 44/28/7 17/28/7
f 25/29/8 29/21/8 21/24/8 14/30/8
f 26/31/9 30/17/9 23/20/9 15/32/9
f 24/33/10 13/34/10 3/16/10 11/4/10
f 17/35/1 24/33/1 11/4/1 8/3/1
f 20/12/11 47/12/11 42/36/11 7/36/11
f 10/37/12 4/38/12 15/32/12 23/20/12
f 7/39/1 10/37/1 23/20/1 20/19/1
f 6/10/13 41/10/13 46/40/13 19/40/13
f 22/41/14 16/42/14 2/14/14 9/8/14
f 19/43/1 22/41/1 9/8/1 6/7/1
f 18/26/15 45/26/15 40/44/15 5/44/15
f 12/45/16 1/46/16 14/30/16 21/24/16
f 5/47/1 12/45/1 21/24/1 18/23/1
f 46/40/3 48/48/3 27/48/3 19/40/3
f 26/31/17 31/49/17 2/14/17 16/42/17
f 25/29/17 32/50/17 3/16/17 13/34/17
f 39/51/17 34/15/17 3/16/17 32/50/17
f 33/13/17 39/51/17 32/50/17 1/46/17
f 14/30/17 1/46/17 32/50/17 25/29/17
f 15/32/17 4/38/17 31/49/17 26/31/17
f 16/42/9 22/41/9 30/52/9 26/31/9
f 13/34/8 24/33/8 29/21/8 25/29/8
f 42/36/18 50/53/18 35/53/18 7/36/18
f 44/28/6 49/25/6 28/25/6 17/28/6
f 24/33/1 17/35/1 28/22/1 29/21/1
f 22/41/1 19/43/1 27/54/1 30/52/1
f 2/14/17 31/49/17 39/51/17 33/13/17
f 31/49/17 4/38/17 34/15/17 39/51/17
f 4/38/5 10/37/5 38/1/5 34/15/5
f 1/46/4 12/45/4 37/5/4 33/13/4
f 40/44/2 51/9/2 36/9/2 5/44/2
f 12/45/1 5/47/1 36/6/1 37/5/1
f 10/37/1 7/39/1 35/2/1 38/1/1
f 50/53/18 43/27/18 8/27/18 35/53/18
f 45/55/1 49/55/1 48/55/1 46/55/1
f 51/55/1 45/55/1 46/55/1
f 46/40/1 41/10/1 51/9/1
f 51/9/1 40/44/1 45/26/1
f 47/12/1 44/28/1 50/53/1
f 50/53/1 42/36/1 47/12/1
f 44/28/1 43/27/1 50/53/1
f 44/28/1 47/12/1 48/55/1 49/25/1
