# Blender 4.5.3 LTS
# www.blender.org
o Cube
v -1.462500 -0.762500 1.137500
v -1.462500 1.512500 1.137500
v -1.462500 -0.762500 -1.137500
v -1.462500 1.512500 -1.137500
v -1.137500 1.512500 -1.462500
v -1.137500 -0.762500 -1.462500
v 1.137500 -0.762500 -1.462500
v 1.137500 1.512500 -1.462500
v 1.462500 1.512500 -1.137500
v 1.462500 -0.762500 -1.137500
v 1.462500 -0.762500 1.137500
v 1.462500 1.512500 1.137500
v 1.137500 1.512500 1.462500
v 1.137500 -0.762500 1.462500
v -1.137500 -0.762500 1.462500
v -1.137500 1.512500 1.462500
v -1.137500 1.837500 -1.137500
v 1.137500 1.837500 -1.137500
v 1.137500 1.837500 1.137500
v -1.137500 1.837500 1.137500
v -1.337500 1.430533 1.320698
v -1.337500 1.695698 1.055533
v -1.337500 -0.945698 -1.055534
v -1.337500 -0.680533 -1.320698
v 1.337500 1.430533 -1.320698
v 1.337499 1.695698 -1.055533
v 1.337500 -0.945698 1.055533
v 1.337500 -0.680533 1.320698
v -1.320698 1.430533 -1.337500
v -1.055533 1.695698 -1.337500
v 1.055533 -0.945698 -1.337500
v 1.320698 -0.680533 -1.337500
v 1.320698 1.430533 1.337500
v 1.055533 1.695698 1.337500
v -1.055534 -0.945698 1.337500
v -1.320698 -0.680533 1.337500
v -1.625000 -1.217500 1.546538
v -1.592500 -1.250000 1.592500
v -1.546538 -1.217500 1.625000
v -1.592500 -1.171538 1.625000
v -1.625000 -1.171538 1.592500
v -1.592500 1.921538 1.625000
v -1.546538 1.967500 1.625000
v -1.546538 2.000000 1.592500
v -1.592500 2.000000 1.546538
v -1.625000 1.967500 1.546538
v -1.625000 1.921538 1.592500
v -1.625000 -1.217500 -1.546538
v -1.625000 -1.171538 -1.592500
v -1.592500 -1.171538 -1.625000
v -1.546538 -1.217500 -1.625000
v -1.592500 -1.250000 -1.592500
v -1.592500 2.000000 -1.546538
v -1.546538 2.000000 -1.592500
v -1.546538 1.967500 -1.625000
v -1.592500 1.921538 -1.625000
v -1.625000 1.921538 -1.592500
v -1.625000 1.967500 -1.546538
v 1.625000 -1.217500 1.546538
v 1.625000 -1.171538 1.592500
v 1.592500 -1.171538 1.625000
v 1.546538 -1.217500 1.625000
v 1.592500 -1.250000 1.592500
v 1.592500 2.000000 1.546538
v 1.546538 2.000000 1.592500
v 1.546538 1.967500 1.625000
v 1.592500 1.921538 1.625000
v 1.625000 1.921538 1.592500
v 1.625000 1.967500 1.546538
v 1.546538 -1.217500 -1.625000
v 1.592500 -1.171538 -1.625000
v 1.625000 -1.171538 -1.592500
v 1.625000 -1.217500 -1.546538
v 1.592500 -1.250000 -1.592500
v 1.546538 2.000000 -1.592500
v 1.592500 2.000000 -1.546538
v 1.625000 1.967500 -1.546538
v 1.625000 1.921538 -1.592500
v 1.592500 1.921538 -1.625000
v 1.546538 1.967500 -1.625000
v -1.592500 -0.762500 1.137500
v -1.625000 -0.795000 1.124038
v -1.625000 -0.749038 1.170000
v -1.625000 1.499038 1.170000
v -1.625000 1.545000 1.124038
v -1.592500 1.512500 1.137500
v -1.625000 1.545000 -1.124038
v -1.625000 1.499038 -1.170000
v -1.592500 1.512500 -1.137500
v -1.592500 -0.762500 -1.137500
v -1.625000 -0.749038 -1.170000
v -1.625000 -0.795000 -1.124038
v -1.137500 -0.762500 -1.592500
v -1.124038 -0.795000 -1.625000
v -1.170000 -0.749038 -1.625000
v -1.170000 1.499038 -1.625000
v -1.124038 1.545000 -1.625000
v -1.137500 1.512500 -1.592500
v 1.124038 1.545000 -1.625000
v 1.170000 1.499038 -1.625000
v 1.137500 1.512500 -1.592500
v 1.137500 -0.762500 -1.592500
v 1.170000 -0.749038 -1.625000
v 1.124038 -0.795000 -1.625000
v 1.592500 -0.762500 -1.137500
v 1.625000 -0.795000 -1.124038
v 1.625000 -0.749038 -1.170000
v 1.625000 1.499038 -1.170000
v 1.625000 1.545000 -1.124038
v 1.592500 1.512500 -1.137500
v 1.625000 1.545000 1.124038
v 1.625000 1.499038 1.170000
v 1.592500 1.512500 1.137500
v 1.592500 -0.762500 1.137500
v 1.625000 -0.749038 1.170000
v 1.625000 -0.795000 1.124038
v 1.137500 -0.762500 1.592500
v 1.124038 -0.795000 1.625000
v 1.170000 -0.749038 1.625000
v 1.170000 1.499038 1.625000
v 1.124038 1.545000 1.625000
v 1.137500 1.512500 1.592500
v -1.124038 1.545000 1.625000
v -1.170000 1.499038 1.625000
v -1.137500 1.512500 1.592500
v -1.137500 -0.762500 1.592500
v -1.170000 -0.749038 1.625000
v -1.124038 -0.795000 1.625000
v 1.137500 1.967500 -1.137500
v 1.170000 2.000000 -1.124038
v 1.124038 2.000000 -1.170000
v -1.124038 2.000000 -1.170000
v -1.170000 2.000000 -1.124038
v -1.137500 1.967500 -1.137500
v -1.170000 2.000000 1.124038
v -1.124038 2.000000 1.170000
v -1.137500 1.967500 1.137500
v 1.137500 1.967500 1.137500
v 1.124038 2.000000 1.170000
v 1.170000 2.000000 1.124038
v -1.555000 1.430533 1.320698
v -1.587500 1.430533 1.274736
v -1.555000 1.695698 1.055533
v -1.587500 1.649736 1.055533
v -1.587500 -0.899736 -1.055534
v -1.555000 -0.945698 -1.055534
v -1.555000 -0.680533 -1.320698
v -1.587500 -0.680533 -1.274736
v 1.554999 1.430533 -1.320698
v 1.587499 1.430533 -1.274736
v 1.554999 1.695698 -1.055533
v 1.587499 1.649736 -1.055533
v 1.587500 -0.899736 1.055533
v 1.555000 -0.945698 1.055533
v 1.555000 -0.680533 1.320698
v 1.587500 -0.680533 1.274736
v -1.320698 1.430533 -1.555000
v -1.274736 1.430533 -1.587500
v -1.055533 1.695698 -1.555000
v -1.055533 1.649736 -1.587500
v 1.055533 -0.899736 -1.587500
v 1.055533 -0.945698 -1.555000
v 1.320698 -0.680533 -1.555000
v 1.274736 -0.680533 -1.587500
v 1.320698 1.430533 1.555000
v 1.274736 1.430533 1.587500
v 1.055533 1.695698 1.555000
v 1.055533 1.649736 1.587500
v -1.055534 -0.899736 1.587500
v -1.055534 -0.945698 1.555000
v -1.320698 -0.680533 1.555000
v -1.274736 -0.680533 1.587500
vn -1.0000 -0.0000 -0.0000
vn -0.0000 -0.0000 -1.0000
vn 1.0000 -0.0000 -0.0000
vn -0.0000 -0.0000 1.0000
vn -0.0000 1.0000 -0.0000
vn -0.6624 -0.3501 0.6624
vn -0.5774 0.5774 0.5773
vn -0.6624 -0.3501 -0.6624
vn -0.5774 0.5773 -0.5774
vn 0.6624 -0.3501 0.6624
vn 0.5774 0.5773 0.5774
vn 0.6624 -0.3501 -0.6624
vn 0.5774 0.5773 -0.5774
vn -0.3827 0.6533 -0.6533
vn -0.3827 -0.6533 -0.6533
vn -0.3827 -0.6533 0.6533
vn -0.3827 0.6533 0.6533
vn 0.6533 0.6533 -0.3827
vn 0.6533 -0.6533 -0.3827
vn -0.6533 -0.6533 -0.3827
vn -0.6533 0.6533 -0.3827
vn 0.3827 0.6533 0.6533
vn 0.3827 -0.6533 0.6533
vn 0.3827 -0.6533 -0.6533
vn 0.3827 0.6533 -0.6533
vn -0.6533 0.6533 0.3827
vn -0.6533 -0.6533 0.3827
vn 0.6533 -0.6533 0.3827
vn 0.6533 0.6533 0.3827
vn -0.6533 0.3827 0.6533
vn 0.6533 0.3827 0.6533
vn 0.6533 0.3827 -0.6533
vn -0.6533 0.3827 -0.6533
vn -0.7071 -0.7071 -0.0000
vn -0.7071 -0.0000 0.7071
vn -0.7071 0.7071 -0.0000
vn -0.7071 -0.0000 -0.7071
vn -0.0000 -0.7071 -0.7071
vn -0.0000 0.7071 -0.7071
vn 0.7071 -0.0000 -0.7071
vn 0.7071 -0.7071 -0.0000
vn 0.7071 0.7071 -0.0000
vn 0.7071 -0.0000 0.7071
vn -0.0000 -0.7071 0.7071
vn -0.0000 0.7071 0.7071
vn -0.7071 -0.5000 0.5000
vn -0.7071 0.5000 0.5000
vn -0.7071 0.5000 -0.5000
vn -0.7071 -0.5000 -0.5000
vn 0.7071 -0.5000 -0.5000
vn 0.7071 0.5000 -0.5000
vn 0.7071 0.5000 0.5000
vn 0.7071 -0.5000 0.5000
vn -0.5000 -0.5000 -0.7071
vn -0.5000 0.5000 -0.7071
vn 0.5000 0.5000 -0.7071
vn 0.5000 -0.5000 -0.7071
vn 0.5000 -0.5000 0.7071
vn 0.5000 0.5000 0.7071
vn -0.5000 0.5000 0.7071
vn -0.5000 -0.5000 0.7071
vn -0.0000 -1.0000 -0.0000
vt 0.412500 0.037500
vt 0.587500 0.037500
vt 0.587500 0.212500
vt 0.412500 0.212500
vt 0.412500 0.287500
vt 0.587500 0.287500
vt 0.587500 0.462500
vt 0.412500 0.462500
vt 0.412500 0.537500
vt 0.587500 0.537500
vt 0.587500 0.712500
vt 0.412500 0.712500
vt 0.412500 0.787500
vt 0.587500 0.787500
vt 0.587500 0.962500
vt 0.412500 0.962500
vt 0.662500 0.537500
vt 0.837500 0.537500
vt 0.837500 0.712500
vt 0.662500 0.712500
vt 0.375000 0.500000
vt 0.625000 0.500000
vt 0.625000 0.750000
vt 0.375000 0.750000
vt 0.377500 0.006036
vt 0.375000 0.002500
vt 0.376250 0.001250
vt 0.380918 0.000118
vt 0.381028 0.002508
vt 0.618964 0.000000
vt 0.622500 0.000000
vt 0.623750 0.001250
vt 0.624841 0.005876
vt 0.622489 0.006025
vt 0.618964 0.002500
vt 0.377500 0.243964
vt 0.381028 0.247492
vt 0.381022 0.252476
vt 0.377495 0.256004
vt 0.375000 0.249951
vt 0.624841 0.244124
vt 0.624934 0.255651
vt 0.622500 0.255999
vt 0.618964 0.252485
vt 0.618964 0.247500
vt 0.622489 0.243975
vt 0.377495 0.743997
vt 0.381022 0.747524
vt 0.381028 0.752508
vt 0.377500 0.756036
vt 0.372536 0.747572
vt 0.627477 0.744008
vt 0.630330 0.748454
vt 0.622489 0.756025
vt 0.618964 0.752500
vt 0.618964 0.747515
vt 0.622500 0.744001
vt 0.377500 0.493964
vt 0.381028 0.497492
vt 0.381022 0.502476
vt 0.377495 0.506004
vt 0.372536 0.502428
vt 0.630330 0.501546
vt 0.627477 0.505992
vt 0.622500 0.505999
vt 0.618964 0.502485
vt 0.618964 0.497500
vt 0.622489 0.493975
vt 0.410000 0.038536
vt 0.413536 0.035000
vt 0.586464 0.035000
vt 0.590000 0.038536
vt 0.590000 0.211464
vt 0.586464 0.215000
vt 0.587500 0.212500
vt 0.412500 0.212500
vt 0.413536 0.215000
vt 0.410000 0.211464
vt 0.412500 0.287500
vt 0.410000 0.288536
vt 0.413536 0.285000
vt 0.586464 0.285000
vt 0.590000 0.288536
vt 0.590000 0.461464
vt 0.586464 0.465000
vt 0.587500 0.462500
vt 0.413535 0.465000
vt 0.410000 0.461464
vt 0.410000 0.538535
vt 0.413536 0.535000
vt 0.586464 0.535000
vt 0.590000 0.538535
vt 0.587500 0.537500
vt 0.590000 0.711464
vt 0.586464 0.715000
vt 0.412500 0.712500
vt 0.413536 0.715000
vt 0.410000 0.711464
vt 0.412500 0.787500
vt 0.410000 0.788536
vt 0.413536 0.785000
vt 0.586464 0.785000
vt 0.590000 0.788536
vt 0.587500 0.787500
vt 0.590000 0.961464
vt 0.586464 0.965000
vt 0.587500 0.962500
vt 0.412500 0.962500
vt 0.413536 0.965000
vt 0.410000 0.961465
vt 0.662500 0.537500
vt 0.660000 0.538536
vt 0.663536 0.535000
vt 0.836464 0.535000
vt 0.840000 0.538535
vt 0.837500 0.537500
vt 0.840000 0.711464
vt 0.836464 0.715000
vt 0.837500 0.712500
vt 0.662500 0.712500
vt 0.663536 0.715000
vt 0.660000 0.711464
vt 0.375000 0.997500
vt 0.377500 0.993965
vt 0.625000 0.993964
vt 0.622500 0.993964
vt 0.618964 0.997500
vt 0.381036 0.997500
vt 0.872500 0.506036
vt 0.868964 0.502500
vt 0.868964 0.747500
vt 0.872500 0.743964
vt 0.375000 0.262636
vt 0.375000 0.000000
vt 0.396667 0.002418
vt 0.396667 0.247582
vt 0.625000 0.000000
vt 0.603333 0.002418
vt 0.625000 0.262636
vt 0.603333 0.247582
vt 0.375000 0.262636
vt 0.396667 0.002418
vt 0.396667 0.247582
vt 0.625000 0.000000
vt 0.603333 0.002418
vt 0.625000 0.262636
vt 0.603333 0.247582
vt 0.375000 0.262636
vt 0.375000 0.000000
vt 0.603333 0.002418
vt 0.625000 0.262636
vt 0.603333 0.247582
vt 0.375000 0.262636
vt 0.396667 0.002418
vt 0.396667 0.247582
vt 0.625000 0.000000
vt 0.603333 0.002418
vt 0.127500 0.502500
vt 0.127500 0.747500
vt 0.157500 0.500000
vt 0.157500 0.750000
vt 0.625000 0.967500
vt 0.375000 0.967500
vt 0.842500 0.500000
vt 0.842500 0.750000
vt 0.157500 0.750000
vt 0.375000 0.967500
vt 0.157500 0.500000
s 0
f 1/1/1 2/2/1 4/3/1 3/4/1
f 6/5/2 5/6/2 8/7/2 7/8/2
f 10/9/3 9/10/3 12/11/3 11/12/3
f 14/13/4 13/14/4 16/15/4 15/16/4
f 18/17/5 17/18/5 20/19/5 19/20/5
f 23/21/3 24/22/3 22/23/3 21/24/3
f 27/21/1 28/22/1 26/23/1 25/24/1
f 31/21/4 32/22/4 30/23/4 29/24/4
f 35/21/2 36/22/2 34/23/2 33/24/2
f 37/25/6 38/26/6 39/27/6 40/28/6 41/29/6
f 42/30/7 43/31/7 44/32/7 45/33/7 46/34/7 47/35/7
f 48/36/8 49/37/8 50/38/8 51/39/8 52/40/8
f 53/41/9 54/42/9 55/43/9 56/44/9 57/45/9 58/46/9
f 59/47/10 60/48/10 61/49/10 62/50/10 63/51/10
f 64/52/11 65/53/11 66/54/11 67/55/11 68/56/11 69/57/11
f 70/58/12 71/59/12 72/60/12 73/61/12 74/62/12
f 75/63/13 76/64/13 77/65/13 78/66/13 79/67/13 80/68/13
f 81/1/14 82/69/14 83/70/14
f 84/71/15 85/72/15 86/2/15
f 87/73/16 88/74/16 89/75/16
f 90/76/17 91/77/17 92/78/17
f 93/79/18 94/80/18 95/81/18
f 96/82/19 97/83/19 98/6/19
f 99/84/20 100/85/20 101/86/20
f 102/8/21 103/87/21 104/88/21
f 105/9/22 106/89/22 107/90/22
f 108/91/23 109/92/23 110/93/23
f 111/94/24 112/95/24 113/11/24
f 114/96/25 115/97/25 116/98/25
f 117/99/26 118/100/26 119/101/26
f 120/102/27 121/103/27 122/104/27
f 123/105/28 124/106/28 125/107/28
f 126/108/29 127/109/29 128/110/29
f 129/111/30 130/112/30 131/113/30
f 132/114/31 133/115/31 134/116/31
f 135/117/32 136/118/32 137/119/32
f 138/120/33 139/121/33 140/122/33
f 52/40/34 38/26/34 37/25/34 48/36/34
f 40/28/35 42/30/35 47/35/35 41/29/35
f 45/33/36 53/41/36 58/46/36 46/34/36
f 56/44/37 50/38/37 49/37/37 57/45/37
f 74/62/38 52/40/38 51/39/38 70/58/38
f 54/42/39 75/63/39 80/68/39 55/43/39
f 78/66/40 72/60/40 71/59/40 79/67/40
f 63/51/41 74/62/41 73/61/41 59/47/41
f 76/64/42 64/52/42 69/57/42 77/65/42
f 67/55/43 61/49/43 60/48/43 68/56/43
f 38/123/44 63/51/44 62/50/44 39/124/44
f 65/53/45 44/125/45 43/126/45 66/54/45
f 83/70/37 84/71/37 86/2/37 81/1/37
f 92/78/36 82/69/36 81/1/36 90/76/36
f 85/72/34 87/73/34 89/75/34 86/2/34
f 88/74/35 91/77/35 90/76/35 89/75/35
f 82/69/1 37/25/1 41/29/1 83/70/1
f 46/34/1 85/72/1 84/71/1 47/35/1
f 57/45/1 88/74/1 87/73/1 58/46/1
f 48/36/1 92/78/1 91/77/1 49/37/1
f 98/6/40 93/79/40 95/81/40 96/82/40
f 104/88/39 94/80/39 93/79/39 102/8/39
f 97/83/38 99/84/38 101/86/38 98/6/38
f 100/85/37 103/87/37 102/8/37 101/86/37
f 94/80/2 51/39/2 50/38/2 95/81/2
f 55/43/2 97/83/2 96/82/2 56/44/2
f 79/67/2 100/85/2 99/84/2 80/68/2
f 70/58/2 104/88/2 103/87/2 71/59/2
f 110/93/43 105/9/43 107/90/43 108/91/43
f 116/98/42 106/89/42 105/9/42 114/96/42
f 109/92/41 111/94/41 113/11/41 110/93/41
f 112/95/40 115/97/40 114/96/40 113/11/40
f 106/89/3 73/61/3 72/60/3 107/90/3
f 77/65/3 109/92/3 108/91/3 78/66/3
f 68/56/3 112/95/3 111/94/3 69/57/3
f 59/47/3 116/98/3 115/97/3 60/48/3
f 122/104/35 117/99/35 119/101/35 120/102/35
f 128/110/45 118/100/45 117/99/45 126/108/45
f 121/103/44 123/105/44 125/107/44 122/104/44
f 126/108/43 125/107/43 124/106/43 127/109/43
f 118/100/4 62/50/4 61/49/4 119/101/4
f 66/54/4 121/103/4 120/102/4 67/55/4
f 42/127/4 124/106/4 123/105/4 43/126/4
f 39/124/4 128/110/4 127/109/4 40/128/4
f 134/116/45 129/111/45 131/113/45 132/114/45
f 129/111/36 138/120/36 140/122/36 130/112/36
f 137/119/42 134/116/42 133/115/42 135/117/42
f 138/120/39 137/119/39 136/118/39 139/121/39
f 130/112/5 76/64/5 75/63/5 131/113/5
f 53/129/5 133/115/5 132/114/5 54/130/5
f 44/131/5 136/118/5 135/117/5 45/132/5
f 64/52/5 140/122/5 139/121/5 65/53/5
f 146/133/46 141/134/46 142/135/46 145/136/46
f 141/134/47 143/137/47 144/138/47 142/135/47
f 143/137/48 147/139/48 148/140/48 144/138/48
f 147/139/49 146/133/49 145/136/49 148/140/49
f 154/141/50 149/134/50 150/142/50 153/143/50
f 149/134/51 151/144/51 152/145/51 150/142/51
f 151/144/52 155/146/52 156/147/52 152/145/52
f 155/146/53 154/141/53 153/143/53 156/147/53
f 162/148/54 157/149/54 158/135/54 161/136/54
f 157/149/55 159/144/55 160/150/55 158/135/55
f 159/144/56 163/151/56 164/152/56 160/150/56
f 163/151/57 162/148/57 161/136/57 164/152/57
f 170/153/58 165/134/58 166/154/58 169/155/58
f 165/134/59 167/156/59 168/157/59 166/154/59
f 167/156/60 171/146/60 172/147/60 168/157/60
f 171/146/61 170/153/61 169/155/61 172/147/61
f 48/36/1 37/25/1 82/69/1 92/78/1
f 42/127/4 40/128/4 127/109/4 124/106/4
f 52/158/62 74/62/62 63/51/62 38/159/62
f 41/29/1 47/35/1 84/71/1 83/70/1
f 39/124/4 62/50/4 118/100/4 128/110/4
f 46/34/1 58/46/1 87/73/1 85/72/1
f 44/131/5 65/53/5 139/121/5 136/118/5
f 66/54/4 43/126/4 123/105/4 121/103/4
f 53/129/5 45/132/5 135/117/5 133/115/5
f 50/38/2 56/44/2 96/82/2 95/81/2
f 57/45/1 49/37/1 91/77/1 88/74/1
f 70/58/2 51/39/2 94/80/2 104/88/2
f 55/43/2 80/68/2 99/84/2 97/83/2
f 75/63/5 54/130/5 132/114/5 131/113/5
f 59/47/3 73/61/3 106/89/3 116/98/3
f 61/49/4 67/55/4 120/102/4 119/101/4
f 68/56/3 60/48/3 115/97/3 112/95/3
f 64/52/5 76/64/5 130/112/5 140/122/5
f 77/65/3 69/57/3 111/94/3 109/92/3
f 72/60/3 78/66/3 108/91/3 107/90/3
f 79/67/2 71/59/2 103/87/2 100/85/2
f 81/1/2 86/2/2 2/2/2 1/1/2
f 90/76/5 81/1/5 1/1/5 3/4/5
f 86/2/62 89/75/62 4/3/62 2/2/62
f 89/75/4 90/76/4 3/4/4 4/3/4
f 93/79/3 98/6/3 5/6/3 6/5/3
f 102/8/5 93/79/5 6/5/5 7/8/5
f 98/6/62 101/86/62 8/7/62 5/6/62
f 101/86/1 102/8/1 7/8/1 8/7/1
f 105/9/4 110/93/4 9/10/4 10/9/4
f 114/96/5 105/9/5 10/9/5 11/12/5
f 110/93/62 113/11/62 12/11/62 9/10/62
f 113/11/2 114/96/2 11/12/2 12/11/2
f 117/99/1 122/104/1 13/14/1 14/13/1
f 126/108/5 117/99/5 14/13/5 15/16/5
f 122/104/62 125/107/62 16/15/62 13/14/62
f 125/107/3 126/108/3 15/16/3 16/15/3
f 138/120/1 129/111/1 18/17/1 19/20/1
f 129/111/4 134/116/4 17/18/4 18/17/4
f 134/116/3 137/119/3 20/19/3 17/18/3
f 137/119/2 138/120/2 19/20/2 20/19/2
f 146/160/44 23/21/44 21/24/44 141/161/44
f 142/135/1 144/138/1 148/140/1 145/136/1
f 21/24/45 22/23/45 143/162/45 141/163/45
f 24/22/39 147/164/39 143/165/39 22/23/39
f 146/133/38 147/139/38 24/22/38 23/21/38
f 154/160/38 27/21/38 25/24/38 149/166/38
f 150/142/3 152/145/3 156/147/3 153/143/3
f 25/24/39 26/23/39 151/162/39 149/167/39
f 28/22/45 155/164/45 151/165/45 26/23/45
f 154/141/44 155/146/44 28/22/44 27/21/44
f 162/160/34 31/21/34 29/24/34 157/166/34
f 158/135/2 160/150/2 164/152/2 161/136/2
f 29/24/36 30/23/36 159/162/36 157/167/36
f 32/22/42 163/164/42 159/165/42 30/23/42
f 162/148/41 163/151/41 32/22/41 31/21/41
f 170/168/41 35/21/41 33/24/41 165/161/41
f 166/154/4 168/157/4 172/147/4 169/155/4
f 33/24/42 34/23/42 167/162/42 165/163/42
f 36/22/36 171/164/36 167/165/36 34/23/36
f 170/153/34 171/146/34 36/22/34 35/21/34
