# Blender 4.5.0
# www.blender.org
mtllib CrateSmall.mtl
o Cube.002
v -0.731250 -1.006250 5.244480
v -0.731250 0.131250 5.244480
v -0.731250 -1.006250 4.106980
v -0.731250 0.131250 4.106980
v -0.568750 0.131250 3.944480
v -0.568750 -1.006250 3.944480
v 0.568750 -1.006250 3.944480
v 0.568750 0.131250 3.944480
v 0.731250 0.131250 4.106980
v 0.731250 -1.006250 4.106980
v 0.731250 -1.006250 5.244480
v 0.731250 0.131250 5.244480
v 0.568750 0.131250 5.406980
v 0.568750 -1.006250 5.406980
v -0.568750 -1.006250 5.406980
v -0.568750 0.131250 5.406980
v -0.568750 0.293750 4.106980
v 0.568750 0.293750 4.106980
v 0.568750 0.293750 5.244480
v -0.568750 0.293750 5.244480
v -0.668750 0.090267 5.336079
v -0.668750 0.222849 5.203497
v -0.668750 -1.097849 4.147963
v -0.668750 -0.965267 4.015381
v 0.668750 0.090267 4.015381
v 0.668750 0.222849 4.147963
v 0.668750 -1.097849 5.203497
v 0.668750 -0.965267 5.336079
v -0.660349 0.090267 4.006980
v -0.527767 0.222849 4.006980
v 0.527767 -1.097849 4.006980
v 0.660349 -0.965267 4.006980
v 0.660349 0.090267 5.344480
v 0.527767 0.222849 5.344480
v -0.527767 -1.097849 5.344480
v -0.660349 -0.965267 5.344480
v -0.812500 -1.233750 5.448999
v -0.796250 -1.250000 5.471980
v -0.773269 -1.233750 5.488230
v -0.796250 -1.210769 5.488230
v -0.812500 -1.210769 5.471980
v -0.796250 0.335769 5.488230
v -0.773269 0.358750 5.488230
v -0.773269 0.375000 5.471980
v -0.796250 0.375000 5.448999
v -0.812500 0.358750 5.448999
v -0.812500 0.335769 5.471980
v -0.812500 -1.233750 3.902461
v -0.812500 -1.210769 3.879480
v -0.796250 -1.210769 3.863230
v -0.773269 -1.233750 3.863230
v -0.796250 -1.250000 3.879480
v -0.796250 0.375000 3.902461
v -0.773269 0.375000 3.879480
v -0.773269 0.358750 3.863230
v -0.796250 0.335769 3.863230
v -0.812500 0.335769 3.879480
v -0.812500 0.358750 3.902461
v 0.812500 -1.233750 5.448999
v 0.812500 -1.210769 5.471980
v 0.796250 -1.210769 5.488230
v 0.773269 -1.233750 5.488230
v 0.796250 -1.250000 5.471980
v 0.796250 0.375000 5.448999
v 0.773269 0.375000 5.471980
v 0.773269 0.358750 5.488230
v 0.796250 0.335769 5.488230
v 0.812500 0.335769 5.471980
v 0.812500 0.358750 5.448999
v 0.773269 -1.233750 3.863230
v 0.796250 -1.210769 3.863230
v 0.812500 -1.210769 3.879480
v 0.812500 -1.233750 3.902461
v 0.796250 -1.250000 3.879480
v 0.773269 0.375000 3.879480
v 0.796250 0.375000 3.902461
v 0.812500 0.358750 3.902461
v 0.812500 0.335769 3.879480
v 0.796250 0.335769 3.863230
v 0.773269 0.358750 3.863230
v -0.796250 -1.006250 5.244480
v -0.812500 -1.022500 5.237749
v -0.812500 -0.999519 5.260730
v -0.812500 0.124519 5.260730
v -0.812500 0.147500 5.237749
v -0.796250 0.131250 5.244480
v -0.812500 0.147500 4.113711
v -0.812500 0.124519 4.090730
v -0.796250 0.131250 4.106980
v -0.796250 -1.006250 4.106980
v -0.812500 -0.999519 4.090730
v -0.812500 -1.022500 4.113711
v -0.568750 -1.006250 3.879480
v -0.562019 -1.022500 3.863230
v -0.585000 -0.999519 3.863230
v -0.585000 0.124519 3.863230
v -0.562019 0.147500 3.863230
v -0.568750 0.131250 3.879480
v 0.562019 0.147500 3.863230
v 0.585000 0.124519 3.863230
v 0.568750 0.131250 3.879480
v 0.568750 -1.006250 3.879480
v 0.585000 -0.999519 3.863230
v 0.562019 -1.022500 3.863230
v 0.796250 -1.006250 4.106980
v 0.812500 -1.022500 4.113711
v 0.812500 -0.999519 4.090730
v 0.812500 0.124519 4.090730
v 0.812500 0.147500 4.113711
v 0.796250 0.131250 4.106980
v 0.812500 0.147500 5.237749
v 0.812500 0.124519 5.260730
v 0.796250 0.131250 5.244480
v 0.796250 -1.006250 5.244480
v 0.812500 -0.999519 5.260730
v 0.812500 -1.022500 5.237749
v 0.568750 -1.006250 5.471980
v 0.562019 -1.022500 5.488230
v 0.585000 -0.999519 5.488230
v 0.585000 0.124519 5.488230
v 0.562019 0.147500 5.488230
v 0.568750 0.131250 5.471980
v -0.562019 0.147500 5.488230
v -0.585000 0.124519 5.488230
v -0.568750 0.131250 5.471980
v -0.568750 -1.006250 5.471980
v -0.585000 -0.999519 5.488230
v -0.562019 -1.022500 5.488230
v 0.568750 0.358750 4.106980
v 0.585000 0.375000 4.113711
v 0.562019 0.375000 4.090730
v -0.562019 0.375000 4.090730
v -0.585000 0.375000 4.113711
v -0.568750 0.358750 4.106980
v -0.585000 0.375000 5.237749
v -0.562019 0.375000 5.260730
v -0.568750 0.358750 5.244480
v 0.568750 0.358750 5.244480
v 0.562019 0.375000 5.260730
v 0.585000 0.375000 5.237749
v -0.777500 0.090267 5.336079
v -0.793750 0.090267 5.313098
v -0.777500 0.222849 5.203497
v -0.793750 0.199868 5.203497
v -0.793750 -1.074868 4.147963
v -0.777500 -1.097849 4.147963
v -0.777500 -0.965267 4.015381
v -0.793750 -0.965267 4.038362
v 0.777500 0.090267 4.015381
v 0.793750 0.090267 4.038362
v 0.777500 0.222849 4.147963
v 0.793750 0.199868 4.147963
v 0.793750 -1.074868 5.203497
v 0.777500 -1.097849 5.203497
v 0.777500 -0.965267 5.336079
v 0.793750 -0.965267 5.313098
v -0.660349 0.090267 3.898230
v -0.637368 0.090267 3.881980
v -0.527767 0.222849 3.898230
v -0.527767 0.199868 3.881980
v 0.527767 -1.074868 3.881980
v 0.527767 -1.097849 3.898230
v 0.660349 -0.965267 3.898230
v 0.637368 -0.965267 3.881980
v 0.660349 0.090267 5.453230
v 0.637368 0.090267 5.469480
v 0.527767 0.222849 5.453230
v 0.527767 0.199868 5.469480
v -0.527767 -1.074868 5.469480
v -0.527767 -1.097849 5.453230
v -0.660349 -0.965267 5.453230
v -0.637368 -0.965267 5.469480
vn -1.0000 -0.0000 -0.0000
vn -0.0000 -0.0000 -1.0000
vn 1.0000 -0.0000 -0.0000
vn -0.0000 -0.0000 1.0000
vn -0.0000 1.0000 -0.0000
vn -0.6624 -0.3501 0.6624
vn -0.5774 0.5773 0.5774
vn -0.6624 -0.3501 -0.6624
vn -0.5774 0.5773 -0.5774
vn 0.6624 -0.3501 0.6624
vn 0.5774 0.5773 0.5774
vn 0.6624 -0.3501 -0.6624
vn 0.5773 0.5773 -0.5774
vn -0.3827 0.6533 -0.6533
vn -0.3827 -0.6533 -0.6533
vn -0.3827 -0.6533 0.6533
vn -0.3827 0.6533 0.6533
vn 0.6533 0.6533 -0.3827
vn 0.6533 -0.6533 -0.3827
vn -0.6533 -0.6533 -0.3827
vn -0.6533 0.6533 -0.3827
vn 0.3827 0.6533 0.6533
vn 0.3827 -0.6533 0.6533
vn 0.3827 -0.6533 -0.6533
vn 0.3827 0.6533 -0.6533
vn -0.6533 0.6533 0.3827
vn -0.6533 -0.6533 0.3827
vn 0.6533 -0.6533 0.3827
vn 0.6533 0.6533 0.3827
vn -0.6533 0.3827 0.6533
vn 0.6533 0.3827 0.6533
vn 0.6533 0.3827 -0.6533
vn -0.6533 0.3827 -0.6533
vn -0.7071 -0.7071 -0.0000
vn -0.7071 -0.0000 0.7071
vn -0.7071 0.7071 -0.0000
vn -0.7071 -0.0000 -0.7071
vn -0.0000 -0.7071 -0.7071
vn -0.0000 0.7071 -0.7071
vn 0.7071 -0.0000 -0.7071
vn 0.7071 -0.7071 -0.0000
vn 0.7071 0.7071 -0.0000
vn 0.7071 -0.0000 0.7071
vn -0.0000 -0.7071 0.7071
vn -0.0000 0.7071 0.7071
vn -0.7071 -0.5000 0.5000
vn -0.7071 0.5000 0.5000
vn -0.7071 0.5000 -0.5000
vn -0.7071 -0.5000 -0.5000
vn 0.7071 -0.5000 -0.5000
vn 0.7071 0.5000 -0.5000
vn 0.7071 0.5000 0.5000
vn 0.7071 -0.5000 0.5000
vn -0.5000 -0.5000 -0.7071
vn -0.5000 0.5000 -0.7071
vn 0.5000 0.5000 -0.7071
vn 0.5000 -0.5000 -0.7071
vn 0.5000 -0.5000 0.7071
vn 0.5000 0.5000 0.7071
vn -0.5000 0.5000 0.7071
vn -0.5000 -0.5000 0.7071
vn -0.0000 -1.0000 -0.0000
vt 0.743252 0.449217
vt 0.743252 0.264245
vt 0.928224 0.264245
vt 0.928224 0.449217
vt 0.449217 0.743252
vt 0.634188 0.743252
vt 0.634188 0.928224
vt 0.449217 0.928224
vt 0.819160 0.743252
vt 0.819160 0.928224
vt 0.634189 0.928224
vt 0.634189 0.743252
vt 0.787451 -0.000000
vt 0.972422 0.000000
vt 0.972422 0.184972
vt 0.787451 0.184972
vt 0.449217 0.743252
vt 0.449217 0.928224
vt 0.264245 0.928224
vt 0.264245 0.743252
vt 0.939021 0.801720
vt 0.908531 0.801720
vt 0.908531 0.528490
vt 0.939021 0.528490
vt 0.939021 0.528490
vt 0.969510 0.528490
vt 0.969510 0.801720
vt 0.939021 0.801720
vt 0.939021 0.255261
vt 0.969510 0.255261
vt 0.969510 0.528490
vt 0.939021 0.528490
vt 0.969510 0.255261
vt 1.000000 0.255261
vt 1.000000 0.528490
vt 0.969510 0.528490
vt 0.002642 0.264245
vt 0.000000 0.261603
vt 0.002642 0.257866
vt 0.006379 0.261603
vt 0.006379 0.264245
vt 0.257866 0.261603
vt 0.261603 0.257866
vt 0.264245 0.257866
vt 0.264245 0.261603
vt 0.261603 0.264245
vt 0.257866 0.264245
vt 0.528490 0.266888
vt 0.528490 0.270625
vt 0.525848 0.270625
vt 0.522111 0.266888
vt 0.525848 0.264245
vt 0.525848 0.528490
vt 0.522111 0.528490
vt 0.522111 0.525848
vt 0.525848 0.522111
vt 0.528490 0.522111
vt 0.528490 0.525848
vt 0.002642 0.000000
vt 0.006379 0.000000
vt 0.006379 0.002642
vt 0.002642 0.006379
vt 0.000000 0.002642
vt 0.264245 0.002642
vt 0.264245 0.006379
vt 0.261603 0.006379
vt 0.257866 0.002642
vt 0.257866 0.000000
vt 0.261603 0.000000
vt 0.258960 0.790093
vt 0.255223 0.790093
vt 0.255223 0.787451
vt 0.258960 0.783714
vt 0.261603 0.787451
vt 0.270625 0.528490
vt 0.266888 0.528490
vt 0.264245 0.525848
vt 0.264245 0.522111
vt 0.266888 0.522111
vt 0.270625 0.525848
vt 0.089843 0.792736
vt 0.092486 0.790093
vt 0.092486 0.793830
vt 0.092486 0.976613
vt 0.092486 0.980350
vt 0.089843 0.977707
vt 0.092486 0.980350
vt 0.092486 0.976613
vt 0.095128 0.977707
vt 0.095128 0.792736
vt 0.092486 0.793830
vt 0.092486 0.790093
vt 0.036994 0.792736
vt 0.039637 0.790093
vt 0.039637 0.793830
vt 0.039637 0.976613
vt 0.039637 0.980350
vt 0.036994 0.977707
vt 0.013212 0.790093
vt 0.013212 0.793830
vt 0.010570 0.792736
vt 0.010570 0.977707
vt 0.013212 0.976613
vt 0.013212 0.980350
vt 0.116268 0.792736
vt 0.118910 0.790093
vt 0.118910 0.793830
vt 0.118910 0.976613
vt 0.118910 0.980350
vt 0.116268 0.977707
vt 0.118910 0.980350
vt 0.118910 0.976613
vt 0.121553 0.977707
vt 0.121553 0.792736
vt 0.118910 0.793830
vt 0.118910 0.790093
vt 0.042279 0.977707
vt 0.039637 0.980350
vt 0.039637 0.976613
vt 0.039637 0.793830
vt 0.039637 0.790093
vt 0.042279 0.792736
vt 0.013212 0.980350
vt 0.013212 0.976613
vt 0.015855 0.977707
vt 0.015855 0.792736
vt 0.013212 0.793830
vt 0.013212 0.790093
vt 0.063419 0.792736
vt 0.066061 0.790093
vt 0.066061 0.793830
vt 0.066061 0.976613
vt 0.066061 0.980350
vt 0.063419 0.977707
vt 0.079274 0.790093
vt 0.079274 0.793830
vt 0.076631 0.792736
vt 0.076631 0.977707
vt 0.079274 0.976613
vt 0.079274 0.980350
vt 0.261603 0.266888
vt 0.002642 0.266888
vt 0.006379 0.264245
vt 0.257866 0.264245
vt 0.270625 0.261603
vt 0.522111 0.261603
vt 0.522111 0.264245
vt 0.270625 0.264245
vt 0.261603 0.525848
vt 0.264245 0.270625
vt 0.264245 0.522111
vt 0.525848 0.257866
vt 0.525848 0.006379
vt 0.528490 0.006379
vt 0.528490 0.257866
vt 0.264245 0.270625
vt 0.266888 0.270625
vt 0.002642 0.525848
vt 0.257866 0.528490
vt 0.006379 0.528490
vt 0.522111 0.002642
vt 0.270625 0.002642
vt 0.270625 0.000000
vt 0.522111 0.000000
vt -0.000000 0.522111
vt 0.000000 0.270625
vt 0.266888 0.006379
vt 0.266888 0.257866
vt 0.264245 0.257866
vt 0.264245 0.006379
vt 0.184972 0.973970
vt 0.184972 0.791188
vt 0.187614 0.790093
vt 0.187614 0.975065
vt 0.211396 0.791188
vt 0.211396 0.973970
vt 0.208754 0.975065
vt 0.208754 0.790093
vt 0.566579 0.224608
vt 0.532227 0.258960
vt 0.528490 0.255223
vt 0.562842 0.220871
vt 0.532227 -0.000000
vt 0.566579 0.034352
vt 0.562842 0.038089
vt 0.528490 0.003737
vt 0.787451 0.003737
vt 0.753099 0.038089
vt 0.749362 0.034352
vt 0.783714 0.000000
vt 0.783714 0.258960
vt 0.749362 0.224608
vt 0.753099 0.220871
vt 0.787451 0.255223
vt 0.145335 0.791188
vt 0.145335 0.973970
vt 0.142692 0.975065
vt 0.142692 0.790093
vt 0.158547 0.791188
vt 0.158547 0.973970
vt 0.155905 0.975065
vt 0.155905 0.790093
vt 0.487759 0.301240
vt 0.491496 0.304977
vt 0.487759 0.491496
vt 0.491496 0.487759
vt 0.301240 0.487759
vt 0.304977 0.491496
vt 0.270625 0.266888
vt 0.304977 0.301240
vt 0.301240 0.304977
vt 0.224609 0.791188
vt 0.224609 0.973970
vt 0.221966 0.975065
vt 0.221966 0.790093
vt 0.227251 0.790093
vt 0.227251 0.975065
vt 0.224608 0.749362
vt 0.220871 0.753099
vt 0.000000 0.783714
vt 0.034352 0.749362
vt 0.038089 0.753099
vt 0.003737 0.787451
vt 0.003737 0.528490
vt 0.038089 0.562842
vt 0.034352 0.566579
vt 0.000000 0.532227
vt 0.258960 0.532227
vt 0.224608 0.566579
vt 0.220871 0.562842
vt 0.255223 0.528490
vt 0.158547 0.973970
vt 0.158547 0.791188
vt 0.161190 0.790093
vt 0.161190 0.975065
vt 0.171760 0.973970
vt 0.171760 0.791188
vt 0.174402 0.790093
vt 0.174402 0.975065
vt 0.036994 0.040731
vt 0.040731 0.036994
vt 0.227251 0.040731
vt 0.223514 0.036994
vt 0.223514 0.227251
vt 0.227251 0.223514
vt 0.036994 0.223514
vt 0.040731 0.227251
vt 0.248391 0.975065
vt 0.248391 0.790093
vt 0.251033 0.791188
vt 0.251033 0.973970
vt 0.911173 0.801720
vt 0.911173 0.986691
vt 0.908531 0.985597
vt 0.908531 0.802814
vt 0.487759 0.036994
vt 0.491496 0.040731
vt 0.487759 0.227251
vt 0.491496 0.223514
vt 0.301240 0.223514
vt 0.304977 0.227251
vt 0.304977 0.036994
vt 0.301240 0.040731
vt 0.264245 0.721693
vt 0.457448 0.528490
vt 0.457448 0.532227
vt 0.267982 0.721693
vt 0.479007 0.550050
vt 0.475270 0.550050
vt 0.285805 0.743252
vt 0.285805 0.739515
vt 0.743252 0.285805
vt 0.550050 0.479007
vt 0.550050 0.475270
vt 0.739515 0.285805
vt 0.528490 0.457448
vt 0.532227 0.457448
vt 0.721693 0.264245
vt 0.721693 0.267982
vt 0.500567 0.528490
vt 0.693769 0.721693
vt 0.690032 0.721693
vt 0.500567 0.532227
vt 0.672210 0.743252
vt 0.672210 0.739515
vt 0.479007 0.550050
vt 0.482744 0.550050
vt 0.715329 0.528490
vt 0.908531 0.721693
vt 0.904794 0.721693
vt 0.715329 0.532227
vt 0.886971 0.743252
vt 0.886971 0.739515
vt 0.693769 0.550050
vt 0.697506 0.550050
vt 0.079274 0.977707
vt 0.079274 0.792736
vt 0.198184 0.790093
vt 0.198184 0.975065
vt 0.198184 0.975065
vt 0.198184 0.790093
vt 0.105698 0.792736
vt 0.105698 0.977707
vt 0.026425 0.977707
vt 0.026425 0.792736
vt 0.132123 0.975065
vt 0.132123 0.790093
vt 0.145335 0.975065
vt 0.145335 0.790093
vt -0.000000 0.977707
vt 0.000000 0.792736
vt 0.105698 0.977707
vt 0.105698 0.792736
vt 0.211396 0.975065
vt 0.211396 0.790093
vt 0.237821 0.790093
vt 0.237821 0.975065
vt 0.132123 0.792736
vt 0.132123 0.977707
vt 0.052849 0.792736
vt 0.052849 0.977707
vt 0.171760 0.790093
vt 0.171760 0.975065
vt 0.184972 0.790093
vt 0.184972 0.975065
vt 0.026425 0.792736
vt 0.026425 0.977707
vt 0.237821 0.975065
vt 0.237821 0.790093
vt 0.052849 0.977707
vt 0.052849 0.792736
vt 0.921743 0.801720
vt 0.921743 0.986691
vt 0.066061 0.977707
vt 0.066061 0.792736
vt 0.907581 0.936455
vt 0.889897 0.936455
vt 0.889897 0.743252
vt 0.907581 0.743252
vt 0.987194 0.528490
vt 0.987194 0.550050
vt 0.969510 0.550050
vt 0.969510 0.528490
vt 0.987194 0.743252
vt 0.969510 0.743252
vt 0.907581 0.958014
vt 0.889897 0.958014
vt 0.969510 0.764812
vt 0.987194 0.764812
vt 0.987194 0.958014
vt 0.969510 0.958014
vt 0.972422 0.214762
vt 0.972422 0.193202
vt 0.990107 0.193202
vt 0.990107 0.214762
vt 0.972422 0.000000
vt 0.990107 0.000000
vt 0.969510 0.743252
vt 0.987194 0.743252
vt 0.836844 0.936455
vt 0.819160 0.936455
vt 0.819160 0.743252
vt 0.836844 0.743252
vt 0.836844 0.958014
vt 0.836844 0.936455
vt 0.854528 0.936455
vt 0.854528 0.958014
vt 0.836844 0.743252
vt 0.854528 0.743252
vt 0.836844 0.958014
vt 0.819160 0.958014
vt 0.854528 0.764812
vt 0.872213 0.764812
vt 0.872213 0.958014
vt 0.854528 0.958014
vt 0.889897 0.743252
vt 0.889897 0.764812
vt 0.872213 0.764812
vt 0.872213 0.743252
vt 0.889897 0.958014
vt 0.872213 0.958014
vt 0.854528 0.743252
vt 0.872213 0.743252
s 1
f 1/1/1 2/2/1 4/3/1 3/4/1
f 6/5/2 5/6/2 8/7/2 7/8/2
f 10/9/3 9/10/3 12/11/3 11/12/3
f 14/13/4 13/14/4 16/15/4 15/16/4
f 18/17/5 17/18/5 20/19/5 19/20/5
f 23/21/3 24/22/3 22/23/3 21/24/3
f 27/25/1 28/26/1 26/27/1 25/28/1
f 31/29/4 32/30/4 30/31/4 29/32/4
f 35/33/2 36/34/2 34/35/2 33/36/2
f 37/37/6 38/38/6 39/39/6 40/40/6 41/41/6
f 42/42/7 43/43/7 44/44/7 45/45/7 46/46/7 47/47/7
f 48/48/8 49/49/8 50/50/8 51/51/8 52/52/8
f 53/53/9 54/54/9 55/55/9 56/56/9 57/57/9 58/58/9
f 59/59/10 60/60/10 61/61/10 62/62/10 63/63/10
f 64/64/11 65/65/11 66/66/11 67/67/11 68/68/11 69/69/11
f 70/70/12 71/71/12 72/72/12 73/73/12 74/74/12
f 75/75/13 76/76/13 77/77/13 78/78/13 79/79/13 80/80/13
f 81/81/14 82/82/14 83/83/14
f 84/84/15 85/85/15 86/86/15
f 87/87/16 88/88/16 89/89/16
f 90/90/17 91/91/17 92/92/17
f 93/93/18 94/94/18 95/95/18
f 96/96/19 97/97/19 98/98/19
f 99/99/20 100/100/20 101/101/20
f 102/102/21 103/103/21 104/104/21
f 105/105/22 106/106/22 107/107/22
f 108/108/23 109/109/23 110/110/23
f 111/111/24 112/112/24 113/113/24
f 114/114/25 115/115/25 116/116/25
f 117/117/26 118/118/26 119/119/26
f 120/120/27 121/121/27 122/122/27
f 123/123/28 124/124/28 125/125/28
f 126/126/29 127/127/29 128/128/29
f 129/129/30 130/130/30 131/131/30
f 132/132/31 133/133/31 134/134/31
f 135/135/32 136/136/32 137/137/32
f 138/138/33 139/139/33 140/140/33
f 52/141/34 38/142/34 37/143/34 48/144/34
f 40/40/35 42/42/35 47/47/35 41/41/35
f 45/145/36 53/146/36 58/147/36 46/148/36
f 56/56/37 50/50/37 49/49/37 57/57/37
f 74/149/38 52/141/38 51/150/38 70/151/38
f 54/152/39 75/153/39 80/154/39 55/155/39
f 78/78/40 72/156/40 71/157/40 79/79/40
f 63/158/41 74/149/41 73/159/41 59/160/41
f 76/161/42 64/162/42 69/163/42 77/164/42
f 67/67/43 61/61/43 60/60/43 68/68/43
f 38/142/44 63/158/44 62/165/44 39/166/44
f 65/167/45 44/168/45 43/169/45 66/170/45
f 83/83/37 84/84/37 86/86/37 81/81/37
f 92/171/36 82/172/36 81/173/36 90/174/36
f 85/175/34 87/176/34 89/177/34 86/178/34
f 88/88/35 91/91/35 90/90/35 89/89/35
f 82/179/1 37/180/1 41/181/1 83/182/1
f 46/183/1 85/184/1 84/185/1 47/186/1
f 57/187/1 88/188/1 87/189/1 58/190/1
f 48/191/1 92/192/1 91/193/1 49/194/1
f 98/98/40 93/93/40 95/95/40 96/96/40
f 104/195/39 94/196/39 93/197/39 102/198/39
f 97/199/38 99/200/38 101/201/38 98/202/38
f 100/100/37 103/103/37 102/102/37 101/101/37
f 94/203/2 51/51/2 50/50/2 95/204/2
f 55/55/2 97/205/2 96/206/2 56/56/2
f 79/79/2 100/207/2 99/208/2 80/80/2
f 70/209/2 104/210/2 103/211/2 71/157/2
f 110/110/43 105/105/43 107/107/43 108/108/43
f 116/212/42 106/213/42 105/214/42 114/215/42
f 109/213/41 111/212/41 113/216/41 110/217/41
f 112/112/40 115/115/40 114/114/40 113/113/40
f 106/218/3 73/73/3 72/72/3 107/219/3
f 77/220/3 109/221/3 108/222/3 78/223/3
f 68/224/3 112/225/3 111/226/3 69/227/3
f 59/228/3 116/229/3 115/230/3 60/231/3
f 122/122/35 117/117/35 119/119/35 120/120/35
f 128/232/45 118/233/45 117/234/45 126/235/45
f 121/236/44 123/237/44 125/238/44 122/239/44
f 126/126/43 125/125/43 124/124/43 127/127/43
f 118/240/4 62/62/4 61/61/4 119/241/4
f 66/66/4 121/242/4 120/243/4 67/67/4
f 42/42/4 124/244/4 123/245/4 43/43/4
f 39/39/4 128/246/4 127/247/4 40/40/4
f 134/134/45 129/129/45 131/131/45 132/132/45
f 129/248/36 138/249/36 140/250/36 130/251/36
f 137/252/42 134/253/42 133/254/42 135/255/42
f 138/138/39 137/137/39 136/136/39 139/139/39
f 130/256/5 76/161/5 75/153/5 131/257/5
f 53/146/5 133/258/5 132/259/5 54/152/5
f 44/168/5 136/260/5 135/261/5 45/145/5
f 64/162/5 140/262/5 139/263/5 65/167/5
f 146/264/46 141/265/46 142/266/46 145/267/46
f 141/265/47 143/268/47 144/269/47 142/266/47
f 143/268/48 147/270/48 148/271/48 144/269/48
f 147/270/49 146/264/49 145/267/49 148/271/49
f 154/272/50 149/273/50 150/274/50 153/275/50
f 149/273/51 151/276/51 152/277/51 150/274/51
f 151/276/52 155/278/52 156/279/52 152/277/52
f 155/278/53 154/272/53 153/275/53 156/279/53
f 162/280/54 157/281/54 158/282/54 161/283/54
f 157/281/55 159/284/55 160/285/55 158/282/55
f 159/284/56 163/286/56 164/287/56 160/285/56
f 163/286/57 162/280/57 161/283/57 164/287/57
f 170/288/58 165/289/58 166/290/58 169/291/58
f 165/289/59 167/292/59 168/293/59 166/290/59
f 167/292/60 171/294/60 172/295/60 168/293/60
f 171/294/61 170/288/61 169/291/61 172/295/61
f 48/191/1 37/180/1 82/179/1 92/192/1
f 42/42/4 40/40/4 127/247/4 124/244/4
f 52/141/62 74/149/62 63/158/62 38/142/62
f 41/181/1 47/186/1 84/185/1 83/182/1
f 39/39/4 62/62/4 118/240/4 128/246/4
f 46/183/1 58/190/1 87/189/1 85/184/1
f 44/168/5 65/167/5 139/263/5 136/260/5
f 66/66/4 43/43/4 123/245/4 121/242/4
f 53/146/5 45/145/5 135/261/5 133/258/5
f 50/50/2 56/56/2 96/206/2 95/204/2
f 57/187/1 49/194/1 91/193/1 88/188/1
f 70/209/2 51/51/2 94/203/2 104/210/2
f 55/55/2 80/80/2 99/208/2 97/205/2
f 75/153/5 54/152/5 132/259/5 131/257/5
f 59/228/3 73/73/3 106/218/3 116/229/3
f 61/61/4 67/67/4 120/243/4 119/241/4
f 68/224/3 60/231/3 115/230/3 112/225/3
f 64/162/5 76/161/5 130/256/5 140/262/5
f 77/220/3 69/227/3 111/226/3 109/221/3
f 72/72/3 78/223/3 108/222/3 107/219/3
f 79/79/2 71/157/2 103/211/2 100/207/2
f 81/81/2 86/86/2 2/296/2 1/297/2
f 90/174/5 81/173/5 1/298/5 3/299/5
f 86/178/62 89/177/62 4/300/62 2/301/62
f 89/89/4 90/90/4 3/302/4 4/303/4
f 93/93/3 98/98/3 5/304/3 6/305/3
f 102/198/5 93/197/5 6/306/5 7/307/5
f 98/202/62 101/201/62 8/308/62 5/309/62
f 101/101/1 102/102/1 7/310/1 8/311/1
f 105/105/4 110/110/4 9/312/4 10/313/4
f 114/215/5 105/214/5 10/314/5 11/315/5
f 110/217/62 113/216/62 12/316/62 9/317/62
f 113/113/2 114/114/2 11/318/2 12/319/2
f 117/117/1 122/122/1 13/320/1 14/321/1
f 126/235/5 117/234/5 14/322/5 15/323/5
f 122/239/62 125/238/62 16/324/62 13/325/62
f 125/125/3 126/126/3 15/326/3 16/327/3
f 138/249/1 129/248/1 18/328/1 19/329/1
f 129/129/4 134/134/4 17/330/4 18/331/4
f 134/253/3 137/252/3 20/332/3 17/333/3
f 137/137/2 138/138/2 19/334/2 20/335/2
f 146/336/44 23/337/44 21/338/44 141/339/44
f 142/266/1 144/269/1 148/271/1 145/267/1
f 21/340/45 22/341/45 143/342/45 141/343/45
f 24/344/39 147/345/39 143/342/39 22/341/39
f 146/336/38 147/346/38 24/347/38 23/337/38
f 154/348/38 27/349/38 25/350/38 149/351/38
f 150/274/3 152/277/3 156/279/3 153/275/3
f 25/352/39 26/353/39 151/354/39 149/355/39
f 28/356/45 155/357/45 151/354/45 26/353/45
f 154/348/44 155/358/44 28/359/44 27/349/44
f 162/360/34 31/361/34 29/362/34 157/363/34
f 158/282/2 160/285/2 164/287/2 161/283/2
f 29/364/36 30/365/36 159/366/36 157/367/36
f 32/368/42 163/369/42 159/366/42 30/365/42
f 162/360/41 163/370/41 32/371/41 31/361/41
f 170/372/41 35/373/41 33/374/41 165/375/41
f 166/290/4 168/293/4 172/295/4 169/291/4
f 33/376/42 34/377/42 167/378/42 165/379/42
f 36/380/36 171/381/36 167/378/36 34/377/36
f 170/372/34 171/382/34 36/383/34 35/373/34
