# Blender 4.5.0
# www.blender.org
mtllib CrateBig.mtl
o Cube
v -1.462500 -0.762500 1.137500
v -1.462500 1.512500 1.137500
v -1.462500 -0.762500 -1.137500
v -1.462500 1.512500 -1.137500
v -1.137500 1.512500 -1.462500
v -1.137500 -0.762500 -1.462500
v 1.137500 -0.762500 -1.462500
v 1.137500 1.512500 -1.462500
v 1.462500 1.512500 -1.137500
v 1.462500 -0.762500 -1.137500
v 1.462500 -0.762500 1.137500
v 1.462500 1.512500 1.137500
v 1.137500 1.512500 1.462500
v 1.137500 -0.762500 1.462500
v -1.137500 -0.762500 1.462500
v -1.137500 1.512500 1.462500
v -1.137500 1.837500 -1.137500
v 1.137500 1.837500 -1.137500
v 1.137500 1.837500 1.137500
v -1.137500 1.837500 1.137500
v -1.337500 1.430533 1.320698
v -1.337500 1.695698 1.055533
v -1.337500 -0.945698 -1.055534
v -1.337500 -0.680533 -1.320698
v 1.337500 1.430533 -1.320698
v 1.337499 1.695698 -1.055533
v 1.337500 -0.945698 1.055533
v 1.337500 -0.680533 1.320698
v -1.320698 1.430533 -1.337500
v -1.055533 1.695698 -1.337500
v 1.055533 -0.945698 -1.337500
v 1.320698 -0.680533 -1.337500
v 1.320698 1.430533 1.337500
v 1.055533 1.695698 1.337500
v -1.055534 -0.945698 1.337500
v -1.320698 -0.680533 1.337500
v -1.625000 -1.217500 1.546538
v -1.592500 -1.250000 1.592500
v -1.546538 -1.217500 1.625000
v -1.592500 -1.171538 1.625000
v -1.625000 -1.171538 1.592500
v -1.592500 1.921538 1.625000
v -1.546538 1.967500 1.625000
v -1.546538 2.000000 1.592500
v -1.592500 2.000000 1.546538
v -1.625000 1.967500 1.546538
v -1.625000 1.921538 1.592500
v -1.625000 -1.217500 -1.546538
v -1.625000 -1.171538 -1.592500
v -1.592500 -1.171538 -1.625000
v -1.546538 -1.217500 -1.625000
v -1.592500 -1.250000 -1.592500
v -1.592500 2.000000 -1.546538
v -1.546538 2.000000 -1.592500
v -1.546538 1.967500 -1.625000
v -1.592500 1.921538 -1.625000
v -1.625000 1.921538 -1.592500
v -1.625000 1.967500 -1.546538
v 1.625000 -1.217500 1.546538
v 1.625000 -1.171538 1.592500
v 1.592500 -1.171538 1.625000
v 1.546538 -1.217500 1.625000
v 1.592500 -1.250000 1.592500
v 1.592500 2.000000 1.546538
v 1.546538 2.000000 1.592500
v 1.546538 1.967500 1.625000
v 1.592500 1.921538 1.625000
v 1.625000 1.921538 1.592500
v 1.625000 1.967500 1.546538
v 1.546538 -1.217500 -1.625000
v 1.592500 -1.171538 -1.625000
v 1.625000 -1.171538 -1.592500
v 1.625000 -1.217500 -1.546538
v 1.592500 -1.250000 -1.592500
v 1.546538 2.000000 -1.592500
v 1.592500 2.000000 -1.546538
v 1.625000 1.967500 -1.546538
v 1.625000 1.921538 -1.592500
v 1.592500 1.921538 -1.625000
v 1.546538 1.967500 -1.625000
v -1.592500 -0.762500 1.137500
v -1.625000 -0.795000 1.124038
v -1.625000 -0.749038 1.170000
v -1.625000 1.499038 1.170000
v -1.625000 1.545000 1.124038
v -1.592500 1.512500 1.137500
v -1.625000 1.545000 -1.124038
v -1.625000 1.499038 -1.170000
v -1.592500 1.512500 -1.137500
v -1.592500 -0.762500 -1.137500
v -1.625000 -0.749038 -1.170000
v -1.625000 -0.795000 -1.124038
v -1.137500 -0.762500 -1.592500
v -1.124038 -0.795000 -1.625000
v -1.170000 -0.749038 -1.625000
v -1.170000 1.499038 -1.625000
v -1.124038 1.545000 -1.625000
v -1.137500 1.512500 -1.592500
v 1.124038 1.545000 -1.625000
v 1.170000 1.499038 -1.625000
v 1.137500 1.512500 -1.592500
v 1.137500 -0.762500 -1.592500
v 1.170000 -0.749038 -1.625000
v 1.124038 -0.795000 -1.625000
v 1.592500 -0.762500 -1.137500
v 1.625000 -0.795000 -1.124038
v 1.625000 -0.749038 -1.170000
v 1.625000 1.499038 -1.170000
v 1.625000 1.545000 -1.124038
v 1.592500 1.512500 -1.137500
v 1.625000 1.545000 1.124038
v 1.625000 1.499038 1.170000
v 1.592500 1.512500 1.137500
v 1.592500 -0.762500 1.137500
v 1.625000 -0.749038 1.170000
v 1.625000 -0.795000 1.124038
v 1.137500 -0.762500 1.592500
v 1.124038 -0.795000 1.625000
v 1.170000 -0.749038 1.625000
v 1.170000 1.499038 1.625000
v 1.124038 1.545000 1.625000
v 1.137500 1.512500 1.592500
v -1.124038 1.545000 1.625000
v -1.170000 1.499038 1.625000
v -1.137500 1.512500 1.592500
v -1.137500 -0.762500 1.592500
v -1.170000 -0.749038 1.625000
v -1.124038 -0.795000 1.625000
v 1.137500 1.967500 -1.137500
v 1.170000 2.000000 -1.124038
v 1.124038 2.000000 -1.170000
v -1.124038 2.000000 -1.170000
v -1.170000 2.000000 -1.124038
v -1.137500 1.967500 -1.137500
v -1.170000 2.000000 1.124038
v -1.124038 2.000000 1.170000
v -1.137500 1.967500 1.137500
v 1.137500 1.967500 1.137500
v 1.124038 2.000000 1.170000
v 1.170000 2.000000 1.124038
v -1.555000 1.430533 1.320698
v -1.587500 1.430533 1.274736
v -1.555000 1.695698 1.055533
v -1.587500 1.649736 1.055533
v -1.587500 -0.899736 -1.055534
v -1.555000 -0.945698 -1.055534
v -1.555000 -0.680533 -1.320698
v -1.587500 -0.680533 -1.274736
v 1.554999 1.430533 -1.320698
v 1.587499 1.430533 -1.274736
v 1.554999 1.695698 -1.055533
v 1.587499 1.649736 -1.055533
v 1.587500 -0.899736 1.055533
v 1.555000 -0.945698 1.055533
v 1.555000 -0.680533 1.320698
v 1.587500 -0.680533 1.274736
v -1.320698 1.430533 -1.555000
v -1.274736 1.430533 -1.587500
v -1.055533 1.695698 -1.555000
v -1.055533 1.649736 -1.587500
v 1.055533 -0.899736 -1.587500
v 1.055533 -0.945698 -1.555000
v 1.320698 -0.680533 -1.555000
v 1.274736 -0.680533 -1.587500
v 1.320698 1.430533 1.555000
v 1.274736 1.430533 1.587500
v 1.055533 1.695698 1.555000
v 1.055533 1.649736 1.587500
v -1.055534 -0.899736 1.587500
v -1.055534 -0.945698 1.555000
v -1.320698 -0.680533 1.555000
v -1.274736 -0.680533 1.587500
vn -1.0000 -0.0000 -0.0000
vn -0.0000 -0.0000 -1.0000
vn 1.0000 -0.0000 -0.0000
vn -0.0000 -0.0000 1.0000
vn -0.0000 1.0000 -0.0000
vn -0.6624 -0.3501 0.6624
vn -0.5774 0.5773 0.5773
vn -0.6624 -0.3501 -0.6624
vn -0.5774 0.5773 -0.5774
vn 0.6624 -0.3501 0.6624
vn 0.5774 0.5773 0.5774
vn 0.6624 -0.3501 -0.6624
vn 0.5773 0.5773 -0.5774
vn -0.3827 0.6533 -0.6533
vn -0.3827 -0.6533 -0.6533
vn -0.3827 -0.6533 0.6533
vn -0.3827 0.6533 0.6533
vn 0.6533 0.6533 -0.3827
vn 0.6533 -0.6533 -0.3827
vn -0.6533 -0.6533 -0.3827
vn -0.6533 0.6533 -0.3827
vn 0.3827 0.6533 0.6533
vn 0.3827 -0.6533 0.6533
vn 0.3827 -0.6533 -0.6533
vn 0.3827 0.6533 -0.6533
vn -0.6533 0.6533 0.3827
vn -0.6533 -0.6533 0.3827
vn 0.6533 -0.6533 0.3827
vn 0.6533 0.6533 0.3827
vn -0.6533 0.3827 0.6533
vn 0.6533 0.3827 0.6533
vn 0.6533 0.3827 -0.6533
vn -0.6533 0.3827 -0.6533
vn -0.7071 -0.7071 -0.0000
vn -0.7071 -0.0000 0.7071
vn -0.7071 0.7071 -0.0000
vn -0.7071 -0.0000 -0.7071
vn -0.0000 -0.7071 -0.7071
vn -0.0000 0.7071 -0.7071
vn 0.7071 -0.0000 -0.7071
vn 0.7071 -0.7071 -0.0000
vn 0.7071 0.7071 -0.0000
vn 0.7071 -0.0000 0.7071
vn -0.0000 -0.7071 0.7071
vn -0.0000 0.7071 0.7071
vn -0.7071 -0.5000 0.5000
vn -0.7071 0.5000 0.5000
vn -0.7071 0.5000 -0.5000
vn -0.7071 -0.5000 -0.5000
vn 0.7071 -0.5000 -0.5000
vn 0.7071 0.5000 -0.5000
vn 0.7071 0.5000 0.5000
vn 0.7071 -0.5000 0.5000
vn -0.5000 -0.5000 -0.7071
vn -0.5000 0.5000 -0.7071
vn 0.5000 0.5000 -0.7071
vn 0.5000 -0.5000 -0.7071
vn 0.5000 -0.5000 0.7071
vn 0.5000 0.5000 0.7071
vn -0.5000 0.5000 0.7071
vn -0.5000 -0.5000 0.7071
vn -0.0000 -1.0000 -0.0000
vt 0.718483 0.935560
vt 0.718483 0.748595
vt 0.905449 0.748595
vt 0.905449 0.935560
vt 0.000000 0.751265
vt 0.186966 0.751265
vt 0.186966 0.938231
vt -0.000000 0.938231
vt 0.373932 0.751265
vt 0.373932 0.938231
vt 0.795940 -0.000000
vt 0.982906 0.000000
vt 0.982906 0.186966
vt 0.795940 0.186966
vt 0.718483 0.748595
vt 0.718483 0.935560
vt 0.531517 0.935560
vt 0.531517 0.748595
vt 0.495792 0.810363
vt 0.464973 0.810363
vt 0.464973 0.534188
vt 0.495792 0.534188
vt 0.795940 0.186966
vt 0.826759 0.186966
vt 0.826759 0.463141
vt 0.795940 0.463141
vt 0.434155 0.534188
vt 0.464973 0.534188
vt 0.464973 0.810363
vt 0.434155 0.810363
vt 0.495792 0.534188
vt 0.526610 0.534188
vt 0.526610 0.810363
vt 0.495792 0.810363
vt 0.006448 0.264423
vt 0.002671 0.267094
vt -0.000000 0.264423
vt -0.000000 0.260646
vt 0.002671 0.260646
vt 0.000000 0.006448
vt 0.000000 0.002671
vt 0.002671 0.000000
vt 0.006448 0.000000
vt 0.006448 0.002671
vt 0.002671 0.006448
vt 0.260646 0.264423
vt 0.264423 0.260646
vt 0.267094 0.260646
vt 0.267094 0.264423
vt 0.264423 0.267094
vt 0.260646 0.000000
vt 0.264423 0.000000
vt 0.267094 0.002671
vt 0.267094 0.006448
vt 0.264423 0.006448
vt 0.260646 0.002671
vt 0.273542 0.002671
vt 0.269765 0.006448
vt 0.267094 0.006448
vt 0.267094 0.002671
vt 0.269765 0.000000
vt 0.273542 0.267094
vt 0.269765 0.267094
vt 0.267094 0.264423
vt 0.267094 0.260646
vt 0.269765 0.260646
vt 0.273542 0.264423
vt 0.534188 0.002671
vt 0.534188 0.006448
vt 0.531517 0.006448
vt 0.527740 0.002671
vt 0.531517 0.000000
vt 0.795940 0.525069
vt 0.795940 0.528846
vt 0.793269 0.531517
vt 0.789492 0.531517
vt 0.789492 0.528846
vt 0.793269 0.525069
vt 0.978592 0.751266
vt 0.981263 0.748595
vt 0.981263 0.752372
vt 0.413996 0.751265
vt 0.413996 0.755043
vt 0.411325 0.753936
vt 0.413996 0.939796
vt 0.413996 0.943573
vt 0.411325 0.940902
vt 0.976743 0.189637
vt 0.974072 0.190743
vt 0.974072 0.186966
vt 0.951882 0.751266
vt 0.954553 0.748595
vt 0.954553 0.752372
vt 0.960717 0.186966
vt 0.960717 0.190743
vt 0.958046 0.189637
vt 0.400641 0.751266
vt 0.400641 0.755043
vt 0.397970 0.753936
vt 0.397970 0.940902
vt 0.400641 0.939796
vt 0.400641 0.943573
vt 0.989710 0.534188
vt 0.992381 0.531517
vt 0.992381 0.535295
vt 0.416667 0.940902
vt 0.416667 0.753936
vt 0.983933 0.751266
vt 0.376603 0.940902
vt 0.373932 0.943573
vt 0.373932 0.939796
vt 0.373932 0.755043
vt 0.373932 0.751265
vt 0.376603 0.753936
vt 0.957224 0.751266
vt 0.963388 0.189637
vt 0.976356 0.534188
vt 0.979026 0.531517
vt 0.979026 0.535294
vt 0.934007 0.379274
vt 0.934007 0.375496
vt 0.936678 0.376603
vt 0.934007 0.190743
vt 0.934007 0.186966
vt 0.936678 0.189637
vt 0.444838 0.813034
vt 0.447509 0.810363
vt 0.447509 0.814140
vt 0.537965 0.261752
vt 0.792163 0.261752
vt 0.792163 0.264423
vt 0.537965 0.264423
vt 0.006448 0.531517
vt 0.260646 0.531517
vt 0.260646 0.534188
vt 0.006448 0.534188
vt 0.269765 0.531517
vt 0.531517 0.531517
vt 0.527740 0.534188
vt 0.273542 0.534188
vt 0.264423 0.527740
vt 0.264423 0.273542
vt 0.267094 0.273542
vt 0.267094 0.527740
vt 0.531517 0.260646
vt 0.534188 0.260646
vt 0.269765 0.269765
vt 0.267094 0.527740
vt 0.267094 0.273542
vt 0.260646 0.269765
vt 0.006448 0.269765
vt 0.006448 0.267094
vt 0.260646 0.267094
vt 0.531517 0.269765
vt 0.527740 0.267094
vt 0.002671 0.273542
vt 0.002671 0.527740
vt -0.000000 0.527740
vt 0.000000 0.273542
vt 0.981263 0.937125
vt 0.978592 0.938231
vt 0.482437 0.996223
vt 0.482437 0.811470
vt 0.485108 0.810363
vt 0.485108 0.997329
vt 0.974072 0.375496
vt 0.976743 0.376603
vt 0.041170 0.229701
vt 0.037393 0.225924
vt 0.041170 0.037393
vt 0.037393 0.041170
vt 0.229701 0.041170
vt 0.225924 0.037393
vt 0.225924 0.229701
vt 0.229701 0.225924
vt 0.951882 0.938231
vt 0.954553 0.937125
vt 0.996261 0.001106
vt 0.996261 0.185860
vt 0.993590 0.186966
vt 0.993590 -0.000000
vt 0.960717 0.375496
vt 0.958046 0.376603
vt 0.566239 0.305594
vt 0.531517 0.270871
vt 0.535295 0.267094
vt 0.570017 0.301816
vt 0.793269 0.270871
vt 0.758547 0.305594
vt 0.754770 0.301816
vt 0.789492 0.267094
vt 0.754770 0.494124
vt 0.758547 0.490347
vt 0.531517 0.525069
vt 0.566239 0.490347
vt 0.570017 0.494124
vt 0.535294 0.528846
vt 0.989710 0.721154
vt 0.992381 0.720048
vt 0.479766 0.997329
vt 0.479766 0.810363
vt 0.983933 0.938231
vt 0.493018 0.037393
vt 0.496795 0.041170
vt 0.527740 0.264423
vt 0.493018 0.229701
vt 0.496795 0.225924
vt 0.304487 0.225924
vt 0.308265 0.229701
vt 0.308265 0.037393
vt 0.304487 0.041170
vt 0.447509 0.996223
vt 0.447509 0.811470
vt 0.450180 0.810363
vt 0.450180 0.997329
vt 0.957224 0.938231
vt 0.963388 0.376603
vt 0.568910 0.038500
vt 0.534188 0.003777
vt 0.537965 0.000000
vt 0.572688 0.034722
vt 0.795940 0.003777
vt 0.761218 0.038500
vt 0.757441 0.034722
vt 0.792163 0.000000
vt 0.757441 0.227030
vt 0.761218 0.223253
vt 0.795940 0.257975
vt 0.534188 0.257975
vt 0.568910 0.223253
vt 0.572688 0.227030
vt 0.976356 0.721154
vt 0.979026 0.720048
vt 0.444838 1.000000
vt 0.447509 0.998894
vt 0.506476 0.997329
vt 0.506476 0.810363
vt 0.509146 0.811470
vt 0.509146 0.996223
vt 0.225924 0.304487
vt 0.229701 0.308265
vt 0.225924 0.496795
vt 0.229701 0.493018
vt 0.037393 0.493018
vt 0.041170 0.496795
vt 0.041170 0.304487
vt 0.037393 0.308265
vt 0.000000 0.729474
vt 0.195285 0.534188
vt 0.195285 0.537965
vt 0.003777 0.729474
vt 0.217077 0.555980
vt 0.213300 0.555980
vt 0.021792 0.751265
vt 0.021792 0.747488
vt 0.434155 0.555980
vt 0.238869 0.751265
vt 0.238869 0.747488
vt 0.430377 0.555980
vt 0.217077 0.729473
vt 0.220855 0.729473
vt 0.412363 0.534188
vt 0.412363 0.537965
vt 0.770386 0.531517
vt 0.965672 0.726803
vt 0.961894 0.726803
vt 0.770386 0.535294
vt 0.943880 0.748595
vt 0.943880 0.744817
vt 0.748594 0.553309
vt 0.752372 0.553309
vt 0.553309 0.531517
vt 0.748594 0.726803
vt 0.744817 0.726803
vt 0.553309 0.535295
vt 0.726802 0.748595
vt 0.726802 0.744817
vt 0.531517 0.553309
vt 0.535294 0.553309
vt 0.967908 0.938231
vt 0.967908 0.751266
vt 0.495792 0.810363
vt 0.495792 0.997329
vt 0.400641 0.940902
vt 0.400641 0.753936
vt 0.987426 0.189637
vt 0.987426 0.376603
vt 0.941198 0.938231
vt 0.941198 0.751266
vt 0.982906 0.186966
vt 0.982906 -0.000000
vt 0.947362 0.376603
vt 0.947362 0.189637
vt 0.387286 0.940902
vt 0.387286 0.753936
vt 0.979026 0.721154
vt 0.979026 0.534188
vt 0.469082 0.997329
vt 0.469082 0.810363
vt 0.427351 0.753936
vt 0.427351 0.940902
vt 0.994617 0.751266
vt 0.994617 0.938231
vt 0.460864 0.810363
vt 0.460864 0.997329
vt 0.967908 0.751266
vt 0.967908 0.938231
vt 0.974072 0.189637
vt 0.974072 0.376603
vt 0.434155 1.000000
vt 0.434155 0.813034
vt 0.965672 0.721154
vt 0.965672 0.534188
vt 0.947362 0.189637
vt 0.947362 0.376603
vt 0.923324 0.943880
vt 0.905449 0.943880
vt 0.905449 0.748595
vt 0.923324 0.748595
vt 0.898258 0.186966
vt 0.898258 0.208758
vt 0.880383 0.208758
vt 0.880383 0.186966
vt 0.898258 0.404043
vt 0.880383 0.404043
vt 0.813815 0.506725
vt 0.813815 0.528517
vt 0.795940 0.528517
vt 0.795940 0.506725
vt 0.941198 0.748595
vt 0.941198 0.943880
vt 0.923324 0.943880
vt 0.862509 0.404043
vt 0.862508 0.382251
vt 0.880383 0.382251
vt 0.862508 0.186966
vt 0.880383 0.186966
vt 0.831690 0.463141
vt 0.831690 0.484933
vt 0.813815 0.484933
vt 0.813815 0.463141
vt 0.916133 0.186966
vt 0.934007 0.382251
vt 0.916133 0.382251
vt 0.826759 0.404043
vt 0.826759 0.382251
vt 0.844634 0.382251
vt 0.844634 0.404043
vt 0.826759 0.186966
vt 0.844634 0.186966
vt 0.813815 0.484933
vt 0.813815 0.506725
vt 0.795940 0.506725
vt 0.795940 0.484933
vt 0.916133 0.186966
vt 0.916133 0.382251
vt 0.898258 0.382251
vt 0.862508 0.186966
vt 0.862508 0.208758
vt 0.844634 0.208758
vt 0.844634 0.186966
vt 0.862508 0.404043
vt 0.844634 0.404043
vt 0.795940 0.484933
vt 0.795940 0.463141
vt 0.813815 0.463141
vt 0.813815 0.484933
s 1
f 1/1/1 2/2/1 4/3/1 3/4/1
f 6/5/2 5/6/2 8/7/2 7/8/2
f 10/9/3 9/10/3 12/7/3 11/6/3
f 14/11/4 13/12/4 16/13/4 15/14/4
f 18/15/5 17/16/5 20/17/5 19/18/5
f 23/19/3 24/20/3 22/21/3 21/22/3
f 27/23/1 28/24/1 26/25/1 25/26/1
f 31/27/4 32/28/4 30/29/4 29/30/4
f 35/31/2 36/32/2 34/33/2 33/34/2
f 37/35/6 38/36/6 39/37/6 40/38/6 41/39/6
f 42/40/7 43/41/7 44/42/7 45/43/7 46/44/7 47/45/7
f 48/46/8 49/47/8 50/48/8 51/49/8 52/50/8
f 53/51/9 54/52/9 55/53/9 56/54/9 57/55/9 58/56/9
f 59/57/10 60/58/10 61/59/10 62/60/10 63/61/10
f 64/62/11 65/63/11 66/64/11 67/65/11 68/66/11 69/67/11
f 70/68/12 71/69/12 72/70/12 73/71/12 74/72/12
f 75/73/13 76/74/13 77/75/13 78/76/13 79/77/13 80/78/13
f 81/79/14 82/80/14 83/81/14
f 84/82/15 85/83/15 86/84/15
f 87/85/16 88/86/16 89/87/16
f 90/88/17 91/89/17 92/90/17
f 93/91/18 94/92/18 95/93/18
f 96/94/19 97/95/19 98/96/19
f 99/97/20 100/98/20 101/99/20
f 102/100/21 103/101/21 104/102/21
f 105/103/22 106/104/22 107/105/22
f 108/86/23 109/85/23 110/106/23
f 111/83/24 112/82/24 113/107/24
f 114/108/25 115/81/25 116/80/25
f 117/109/26 118/110/26 119/111/26
f 120/112/27 121/113/27 122/114/27
f 123/93/28 124/92/28 125/115/28
f 126/116/29 127/95/29 128/94/29
f 129/117/30 130/118/30 131/119/30
f 132/120/31 133/121/31 134/122/31
f 135/123/32 136/124/32 137/125/32
f 138/126/33 139/127/33 140/128/33
f 52/50/34 38/36/34 37/35/34 48/46/34
f 40/129/35 42/130/35 47/131/35 41/132/35
f 45/133/36 53/134/36 58/135/36 46/136/36
f 56/54/37 50/48/37 49/47/37 57/55/37
f 74/137/38 52/138/38 51/139/38 70/140/38
f 54/141/39 75/142/39 80/143/39 55/144/39
f 78/145/40 72/70/40 71/69/40 79/146/40
f 63/147/41 74/137/41 73/148/41 59/149/41
f 76/150/42 64/151/42 69/152/42 77/153/42
f 67/65/43 61/59/43 60/58/43 68/66/43
f 38/154/44 63/147/44 62/62/44 39/155/44
f 65/156/45 44/157/45 43/158/45 66/159/45
f 83/81/37 84/160/37 86/161/37 81/79/37
f 92/162/36 82/163/36 81/164/36 90/165/36
f 85/83/34 87/85/34 89/87/34 86/84/34
f 88/166/35 91/89/35 90/88/35 89/167/35
f 82/168/1 37/35/1 41/39/1 83/169/1
f 46/44/1 85/170/1 84/171/1 47/45/1
f 57/55/1 88/172/1 87/173/1 58/56/1
f 48/46/1 92/174/1 91/175/1 49/47/1
f 98/176/40 93/91/40 95/93/40 96/177/40
f 104/178/39 94/179/39 93/180/39 102/181/39
f 97/95/38 99/182/38 101/183/38 98/96/38
f 100/98/37 103/101/37 102/100/37 101/99/37
f 94/184/2 51/185/2 50/186/2 95/187/2
f 55/188/2 97/189/2 96/190/2 56/191/2
f 79/77/2 100/192/2 99/193/2 80/78/2
f 70/194/2 104/195/2 103/196/2 71/197/2
f 110/198/43 105/103/43 107/105/43 108/199/43
f 116/163/42 106/162/42 105/200/42 114/201/42
f 109/85/41 111/83/41 113/107/41 110/106/41
f 112/160/40 115/81/40 114/108/40 113/202/40
f 106/203/3 73/71/3 72/70/3 107/204/3
f 77/205/3 109/206/3 108/207/3 78/145/3
f 68/66/3 112/208/3 111/209/3 69/67/3
f 59/57/3 116/210/3 115/211/3 60/58/3
f 122/114/35 117/109/35 119/111/35 120/112/35
f 128/212/45 118/213/45 117/214/45 126/215/45
f 121/177/44 123/93/44 125/115/44 122/216/44
f 126/116/43 125/217/43 124/182/43 127/95/43
f 118/218/4 62/219/4 61/220/4 119/221/4
f 66/222/4 121/223/4 120/224/4 67/225/4
f 42/130/4 124/226/4 123/227/4 43/228/4
f 39/229/4 128/230/4 127/231/4 40/129/4
f 134/232/45 129/117/45 131/119/45 132/233/45
f 129/234/36 138/126/36 140/128/36 130/235/36
f 137/125/42 134/122/42 133/121/42 135/123/42
f 138/236/39 137/237/39 136/238/39 139/239/39
f 130/240/5 76/150/5 75/142/5 131/241/5
f 53/134/5 133/242/5 132/243/5 54/141/5
f 44/157/5 136/244/5 135/245/5 45/133/5
f 64/151/5 140/246/5 139/247/5 65/156/5
f 146/248/46 141/249/46 142/250/46 145/251/46
f 141/249/47 143/252/47 144/253/47 142/250/47
f 143/252/48 147/254/48 148/255/48 144/253/48
f 147/254/49 146/248/49 145/251/49 148/255/49
f 154/256/50 149/257/50 150/258/50 153/259/50
f 149/257/51 151/260/51 152/261/51 150/258/51
f 151/260/52 155/262/52 156/263/52 152/261/52
f 155/262/53 154/256/53 153/259/53 156/263/53
f 162/264/54 157/265/54 158/266/54 161/267/54
f 157/265/55 159/268/55 160/269/55 158/266/55
f 159/268/56 163/270/56 164/271/56 160/269/56
f 163/270/57 162/264/57 161/267/57 164/271/57
f 170/272/58 165/273/58 166/274/58 169/275/58
f 165/273/59 167/276/59 168/277/59 166/274/59
f 167/276/60 171/278/60 172/279/60 168/277/60
f 171/278/61 170/272/61 169/275/61 172/279/61
f 48/46/1 37/35/1 82/168/1 92/174/1
f 42/130/4 40/129/4 127/231/4 124/226/4
f 52/138/62 74/137/62 63/147/62 38/154/62
f 41/39/1 47/45/1 84/171/1 83/169/1
f 39/229/4 62/219/4 118/218/4 128/230/4
f 46/44/1 58/56/1 87/173/1 85/170/1
f 44/157/5 65/156/5 139/247/5 136/244/5
f 66/222/4 43/228/4 123/227/4 121/223/4
f 53/134/5 45/133/5 135/245/5 133/242/5
f 50/186/2 56/191/2 96/190/2 95/187/2
f 57/55/1 49/47/1 91/175/1 88/172/1
f 70/194/2 51/185/2 94/184/2 104/195/2
f 55/188/2 80/78/2 99/193/2 97/189/2
f 75/142/5 54/141/5 132/243/5 131/241/5
f 59/57/3 73/71/3 106/203/3 116/210/3
f 61/220/4 67/225/4 120/224/4 119/221/4
f 68/66/3 60/58/3 115/211/3 112/208/3
f 64/151/5 76/150/5 130/240/5 140/246/5
f 77/205/3 69/67/3 111/209/3 109/206/3
f 72/70/3 78/145/3 108/207/3 107/204/3
f 79/77/2 71/197/2 103/196/2 100/192/2
f 81/79/2 86/161/2 2/280/2 1/281/2
f 90/165/5 81/164/5 1/282/5 3/283/5
f 86/84/62 89/87/62 4/284/62 2/285/62
f 89/167/4 90/88/4 3/286/4 4/287/4
f 93/91/3 98/176/3 5/288/3 6/289/3
f 102/181/5 93/180/5 6/290/5 7/291/5
f 98/96/62 101/183/62 8/292/62 5/293/62
f 101/99/1 102/100/1 7/294/1 8/295/1
f 105/103/4 110/198/4 9/296/4 10/297/4
f 114/201/5 105/200/5 10/298/5 11/299/5
f 110/106/62 113/107/62 12/300/62 9/301/62
f 113/202/2 114/108/2 11/302/2 12/303/2
f 117/109/1 122/114/1 13/295/1 14/294/1
f 126/215/5 117/214/5 14/304/5 15/305/5
f 122/216/62 125/115/62 16/306/62 13/307/62
f 125/217/3 126/116/3 15/308/3 16/309/3
f 138/126/1 129/234/1 18/310/1 19/311/1
f 129/117/4 134/232/4 17/312/4 18/313/4
f 134/122/3 137/125/3 20/314/3 17/315/3
f 137/237/2 138/236/2 19/283/2 20/34/2
f 146/316/44 23/317/44 21/318/44 141/319/44
f 142/250/1 144/253/1 148/255/1 145/251/1
f 21/320/45 22/321/45 143/322/45 141/323/45
f 24/324/39 147/325/39 143/322/39 22/321/39
f 146/326/38 147/327/38 24/328/38 23/329/38
f 154/319/38 27/330/38 25/331/38 149/332/38
f 150/258/3 152/261/3 156/263/3 153/259/3
f 25/333/39 26/334/39 151/335/39 149/325/39
f 28/336/45 155/337/45 151/335/45 26/334/45
f 154/338/44 155/339/44 28/340/44 27/341/44
f 162/342/34 31/124/34 29/343/34 157/344/34
f 158/266/2 160/269/2 164/271/2 161/267/2
f 29/345/36 30/346/36 159/347/36 157/348/36
f 32/349/42 163/350/42 159/347/42 30/346/42
f 162/351/41 163/352/41 32/353/41 31/354/41
f 170/320/41 35/355/41 33/356/41 165/357/41
f 166/274/4 168/277/4 172/279/4 169/275/4
f 33/358/42 34/359/42 167/360/42 165/361/42
f 36/362/36 171/363/36 167/360/36 34/359/36
f 170/364/34 171/365/34 36/366/34 35/367/34
