# Blender 4.5.3 LTS
# www.blender.org
o PlusSectionWall
v -0.875000 -1.250000 -1.625000
v 0.875000 -1.250000 -1.625000
v -0.875000 -1.250000 1.625000
v 0.875000 -1.250000 1.625000
v -0.627500 -0.625000 -1.375000
v 0.627500 -0.625000 -1.375000
v 0.627500 -0.625000 1.375000
v -0.627500 -0.625000 1.375000
v -0.439250 1.250000 -0.962500
v 0.439250 1.250000 -0.962500
v 0.439250 1.250000 0.962500
v -0.439250 1.250000 0.962500
v 0.875000 -1.000000 -1.625000
v 0.875000 -1.000000 1.625000
v -0.875000 -1.000000 1.625000
v -0.875000 -1.000000 -1.625000
v -1.625000 -1.250000 0.875000
v -1.625000 -1.250000 -0.875000
v 1.625000 -1.250000 0.875000
v 1.625000 -1.250000 -0.875000
v -1.375000 -0.625000 0.627500
v -1.375000 -0.625000 -0.627500
v 1.375000 -0.625000 -0.627500
v 1.375000 -0.625000 0.627500
v -0.962500 1.250000 0.439250
v -0.962500 1.250000 -0.439250
v 0.962500 1.250000 -0.439250
v 0.962500 1.250000 0.439250
v -1.625000 -1.000000 -0.875000
v 1.625000 -1.000000 -0.875000
v 1.625000 -1.000000 0.875000
v -1.625000 -1.000000 0.875000
v -1.625000 -1.250000 0.000000
v 1.625000 -1.250000 -0.000000
v 1.375000 -0.625000 -0.000000
v -1.375000 -0.625000 0.000000
v 0.962500 1.250000 -0.000000
v -0.962500 1.250000 0.000000
v -1.625000 -1.000000 0.000000
v 1.625000 -1.000000 -0.000000
v 0.875000 -1.250000 -0.000000
v -0.875000 -1.250000 0.000000
v -0.000000 -1.250000 -1.625000
v 0.000000 -1.250000 1.625000
v 0.000000 -0.625000 1.375000
v -0.000000 -0.625000 -1.375000
v 0.000000 1.250000 0.962500
v -0.000000 1.250000 -0.962500
v -0.000000 -1.000000 -1.625000
v 0.000000 -1.000000 1.625000
v 0.000000 -1.250000 0.000000
v -0.875000 3.750000 -1.625000
v 0.875000 3.750000 -1.625000
v -0.875000 3.750000 1.625000
v 0.875000 3.750000 1.625000
v -0.627500 3.125000 -1.375000
v 0.627500 3.125000 -1.375000
v 0.627500 3.125000 1.375000
v -0.627500 3.125000 1.375000
v 0.875000 3.500000 -1.625000
v 0.875000 3.500000 1.625000
v -0.875000 3.500000 1.625000
v -0.875000 3.500000 -1.625000
v -1.625000 3.750000 0.875000
v -1.625000 3.750000 -0.875000
v 1.625000 3.750000 0.875000
v 1.625000 3.750000 -0.875000
v -1.375000 3.125000 0.627500
v -1.375000 3.125000 -0.627500
v 1.375000 3.125000 -0.627500
v 1.375000 3.125000 0.627500
v -1.625000 3.500000 -0.875000
v 1.625000 3.500000 -0.875000
v 1.625000 3.500000 0.875000
v -1.625000 3.500000 0.875000
v -1.625000 3.750000 0.000000
v 1.625000 3.750000 -0.000000
v 1.375000 3.125000 -0.000000
v -1.375000 3.125000 0.000000
v -1.625000 3.500000 0.000000
v 1.625000 3.500000 -0.000000
v 0.875000 3.750000 -0.000000
v -0.875000 3.750000 0.000000
v -0.000000 3.750000 -1.625000
v 0.000000 3.750000 1.625000
v 0.000000 3.125000 1.375000
v -0.000000 3.125000 -1.375000
v -0.000000 3.500000 -1.625000
v 0.000000 3.500000 1.625000
v 0.000000 3.750000 0.000000
v 0.439250 -0.450000 -0.962500
v 0.439250 -0.450000 0.962500
v -0.439250 -0.450000 0.962500
v -0.439250 -0.450000 -0.962500
v -0.962500 -0.450000 -0.439250
v 0.962500 -0.450000 -0.439250
v 0.962500 -0.450000 0.439250
v -0.962500 -0.450000 0.439250
v -0.962500 -0.450000 0.000000
v 0.962500 -0.450000 -0.000000
v -0.000000 -0.450000 -0.962500
v 0.000000 -0.450000 0.962500
v 0.439250 2.950000 -0.962500
v 0.439250 2.950000 0.962500
v -0.439250 2.950000 0.962500
v -0.439250 2.950000 -0.962500
v -0.962500 2.950000 -0.439250
v 0.962500 2.950000 -0.439250
v 0.962500 2.950000 0.439250
v -0.962500 2.950000 0.439250
v -0.962500 2.950000 0.000000
v 0.962500 2.950000 -0.000000
v -0.000000 2.950000 -0.962500
v 0.000000 2.950000 0.962500
vn -0.0000 0.5547 0.8321
vn -0.0000 0.5547 -0.8321
vn -0.0000 -0.0000 1.0000
vn -0.0000 -0.0000 -1.0000
vn 0.8321 0.5547 -0.0000
vn -0.8321 0.5547 -0.0000
vn 1.0000 -0.0000 -0.0000
vn -1.0000 -0.0000 -0.0000
vn -0.7071 -0.0000 0.7071
vn -0.5157 0.6842 0.5157
vn -0.2693 0.9246 0.2693
vn 0.7071 -0.0000 0.7071
vn 0.5157 0.6842 0.5157
vn 0.2693 0.9246 0.2693
vn 0.7071 -0.0000 -0.7071
vn 0.5157 0.6842 -0.5157
vn 0.2693 0.9246 -0.2693
vn -0.7071 -0.0000 -0.7071
vn -0.5157 0.6842 -0.5157
vn -0.2693 0.9246 -0.2693
vn -0.0000 -1.0000 -0.0000
vn -0.0000 -0.5547 0.8321
vn -0.0000 -0.5547 -0.8321
vn 0.8321 -0.5547 -0.0000
vn -0.8321 -0.5547 -0.0000
vn -0.5157 -0.6842 0.5157
vn -0.2693 -0.9246 0.2693
vn 0.5157 -0.6842 0.5157
vn 0.2693 -0.9246 0.2693
vn 0.5157 -0.6842 -0.5157
vn 0.2693 -0.9246 -0.2693
vn -0.5157 -0.6842 -0.5157
vn -0.2693 -0.9246 -0.2693
vn -0.0000 1.0000 -0.0000
vn -0.0000 0.9206 0.3905
vn -0.0000 0.9206 -0.3905
vn 0.3905 0.9206 -0.0000
vn -0.3905 0.9206 -0.0000
vn -0.0000 -0.9206 0.3906
vn -0.0000 -0.9206 -0.3906
vn 0.3906 -0.9206 -0.0000
vn -0.3906 -0.9206 -0.0000
vt 0.539277 0.400502
vt 0.507042 0.402180
vt 0.503574 0.251236
vt 0.548983 0.232642
vt 0.939198 0.373146
vt 0.971413 0.370768
vt 0.976749 0.514747
vt 0.933407 0.538689
vt 0.736641 0.773133
vt 0.735005 0.900208
vt 0.651269 0.901018
vt 0.649391 0.773744
vt 0.268887 0.786280
vt 0.267252 0.913354
vt 0.179164 0.910664
vt 0.184699 0.783981
vt 0.904464 0.376162
vt 0.903861 0.532255
vt 0.574224 0.399259
vt 0.578299 0.242086
vt 0.732775 0.682377
vt 0.715433 0.712268
vt 0.610820 0.678934
vt 0.623599 0.640862
vt 0.723886 0.118500
vt 0.722504 0.086674
vt 0.848655 0.093732
vt 0.843270 0.135252
vt 0.973368 0.787249
vt 0.964099 0.913354
vt 0.905421 0.908051
vt 0.913956 0.781876
vt 0.500196 0.779606
vt 0.504797 0.906925
vt 0.445235 0.909743
vt 0.441111 0.782379
vt 0.725706 0.154561
vt 0.828055 0.161748
vt 0.755958 0.643691
vt 0.644669 0.618443
vt 0.608630 0.146916
vt 0.622889 0.173796
vt 0.599352 0.105861
vt 0.559674 0.776795
vt 0.558946 0.754319
vt 0.649060 0.751284
vt 0.568401 0.560308
vt 0.597314 0.551679
vt 0.522663 0.542405
vt 0.824041 0.775754
vt 0.825018 0.753398
vt 0.915462 0.759610
vt 0.886644 0.626095
vt 0.865719 0.603953
vt 0.903745 0.662432
vt 0.097254 0.778278
vt 0.098760 0.756011
vt 0.185676 0.761625
vt 0.909483 0.213497
vt 0.881066 0.224119
vt 0.956375 0.226891
vt 0.353244 0.785504
vt 0.352912 0.763044
vt 0.440383 0.759903
vt 0.750027 0.556185
vt 0.730208 0.233182
vt 0.740482 0.392418
vt 0.783455 0.676308
vt 0.563798 0.904160
vt 0.088720 0.904453
vt 0.029178 0.899067
vt 0.038447 0.772962
vt 0.803325 0.704579
vt 0.355122 0.912778
vt 0.818505 0.902437
vt 0.649391 0.773744
vt 0.184699 0.783981
vt 0.038447 0.772962
vt 0.736930 0.750709
vt 0.269176 0.763855
vt 0.040083 0.750708
vt 0.499384 0.757138
vt 0.975004 0.764996
s 0
f 50/1/1 45/2/1 8/3/1 15/4/1
f 49/5/2 46/6/2 6/7/2 13/8/2
f 102/9/3 47/10/3 12/11/3 93/12/3
f 101/13/4 48/14/4 10/15/4 91/16/4
f 43/17/4 49/5/4 13/8/4 2/18/4
f 44/19/3 50/1/3 15/4/3 3/20/3
f 40/21/5 35/22/5 24/23/5 31/24/5
f 39/25/6 36/26/6 22/27/6 29/28/6
f 100/29/7 37/30/7 28/31/7 97/32/7
f 99/33/8 38/34/8 26/35/8 95/36/8
f 33/37/8 39/25/8 29/28/8 18/38/8
f 34/39/7 40/21/7 31/24/7 19/40/7
f 32/41/9 17/42/9 3/20/9 15/4/9
f 21/43/10 32/41/10 15/4/10 8/3/10
f 98/44/11 21/45/11 8/46/11 93/12/11
f 14/47/12 4/48/12 19/40/12 31/24/12
f 7/49/13 14/47/13 31/24/13 24/23/13
f 92/50/14 7/51/14 24/52/14 97/32/14
f 30/53/15 20/54/15 2/18/15 13/8/15
f 23/55/16 30/53/16 13/8/16 6/7/16
f 96/56/17 23/57/17 6/58/17 91/16/17
f 16/59/18 1/60/18 18/38/18 29/28/18
f 5/61/19 16/59/19 29/28/19 22/27/19
f 94/62/20 5/63/20 22/64/20 95/36/20
f 34/39/21 41/65/21 2/18/21 20/54/21
f 33/37/21 42/66/21 3/20/21 17/42/21
f 51/67/21 44/19/21 3/20/21 42/66/21
f 43/17/21 51/67/21 42/66/21 1/60/21
f 18/38/21 1/60/21 42/66/21 33/37/21
f 19/40/21 4/48/21 41/65/21 34/39/21
f 20/54/7 30/53/7 40/68/7 34/39/7
f 17/42/8 32/41/8 39/25/8 33/37/8
f 98/44/8 25/69/8 38/34/8 99/33/8
f 96/56/7 27/70/7 37/71/7 100/72/7
f 32/41/6 21/43/6 36/26/6 39/25/6
f 30/53/5 23/55/5 35/73/5 40/68/5
f 2/18/21 41/65/21 51/67/21 43/17/21
f 41/65/21 4/48/21 44/19/21 51/67/21
f 4/48/3 14/47/3 50/1/3 44/19/3
f 1/60/4 16/59/4 49/5/4 43/17/4
f 94/62/4 9/74/4 48/14/4 101/13/4
f 92/50/3 11/75/3 47/10/3 102/9/3
f 16/59/2 5/61/2 46/6/2 49/5/2
f 14/47/1 7/49/1 45/2/1 50/1/1
f 89/1/22 62/4/22 59/3/22 86/2/22
f 88/5/23 60/8/23 57/7/23 87/6/23
f 114/9/3 105/76/3 12/11/3 47/10/3
f 113/13/4 103/77/4 10/15/4 48/14/4
f 84/17/4 53/18/4 60/8/4 88/5/4
f 85/19/3 54/20/3 62/4/3 89/1/3
f 81/21/24 74/24/24 71/23/24 78/22/24
f 80/25/25 72/28/25 69/27/25 79/26/25
f 112/29/7 109/32/7 28/31/7 37/30/7
f 111/33/8 107/36/8 26/35/8 38/34/8
f 76/37/8 65/38/8 72/28/8 80/25/8
f 77/39/7 66/40/7 74/24/7 81/21/7
f 75/41/9 62/4/9 54/20/9 64/42/9
f 68/43/26 59/3/26 62/4/26 75/41/26
f 110/44/27 105/76/27 59/46/27 68/45/27
f 61/47/12 74/24/12 66/40/12 55/48/12
f 58/49/28 71/23/28 74/24/28 61/47/28
f 104/50/29 109/32/29 71/52/29 58/51/29
f 73/53/15 60/8/15 53/18/15 67/54/15
f 70/55/30 57/7/30 60/8/30 73/53/30
f 108/56/31 103/77/31 57/58/31 70/57/31
f 63/59/18 72/28/18 65/38/18 52/60/18
f 56/61/32 69/27/32 72/28/32 63/59/32
f 106/62/33 107/36/33 69/64/33 56/63/33
f 77/39/34 67/54/34 53/18/34 82/65/34
f 76/37/34 64/42/34 54/20/34 83/66/34
f 90/67/34 83/66/34 54/20/34 85/19/34
f 84/17/34 52/60/34 83/66/34 90/67/34
f 65/38/34 76/37/34 83/66/34 52/60/34
f 66/40/34 77/39/34 82/65/34 55/48/34
f 67/54/7 77/39/7 81/68/7 73/53/7
f 64/42/8 76/37/8 80/25/8 75/41/8
f 110/44/8 111/33/8 38/34/8 25/69/8
f 108/56/7 112/78/7 37/71/7 27/70/7
f 75/41/25 80/25/25 79/26/25 68/43/25
f 73/53/24 81/68/24 78/73/24 70/55/24
f 53/18/34 84/17/34 90/67/34 82/65/34
f 82/65/34 90/67/34 85/19/34 55/48/34
f 55/48/3 85/19/3 89/1/3 61/47/3
f 52/60/4 84/17/4 88/5/4 63/59/4
f 106/62/4 113/13/4 48/14/4 9/74/4
f 104/50/3 114/9/3 47/10/3 11/75/3
f 63/59/23 88/5/23 87/6/23 56/61/23
f 61/47/22 89/1/22 86/2/22 58/49/22
f 7/51/35 92/50/35 102/9/35 45/79/35
f 5/63/36 94/62/36 101/13/36 46/80/36
f 23/57/37 96/56/37 100/72/37 35/81/37
f 21/45/38 98/44/38 99/33/38 36/82/38
f 9/74/18 94/62/18 95/36/18 26/35/18
f 27/70/15 96/56/15 91/16/15 10/15/15
f 11/75/12 92/50/12 97/32/12 28/31/12
f 25/69/9 98/44/9 93/12/9 12/11/9
f 36/82/38 99/33/38 95/36/38 22/64/38
f 35/83/37 100/29/37 97/32/37 24/52/37
f 46/80/36 101/13/36 91/16/36 6/58/36
f 45/79/35 102/9/35 93/12/35 8/46/35
f 58/51/39 86/79/39 114/9/39 104/50/39
f 56/63/40 87/80/40 113/13/40 106/62/40
f 70/57/41 78/81/41 112/78/41 108/56/41
f 68/45/42 79/82/42 111/33/42 110/44/42
f 9/74/18 26/35/18 107/36/18 106/62/18
f 27/70/15 10/15/15 103/77/15 108/56/15
f 11/75/12 28/31/12 109/32/12 104/50/12
f 25/69/9 12/11/9 105/76/9 110/44/9
f 79/82/42 69/64/42 107/36/42 111/33/42
f 78/83/41 71/52/41 109/32/41 112/29/41
f 87/80/40 57/58/40 103/77/40 113/13/40
f 86/79/39 59/46/39 105/76/39 114/9/39
