# Blender 4.5.0
# www.blender.org
mtllib Pipe_Tobj.mtl
o Circle.004
v -1.625000 -0.625000 -0.445500
v -1.625000 -0.795485 -0.411588
v -1.625000 -0.940016 -0.315016
v -1.625000 -1.036589 -0.170486
v -1.625000 -1.070500 0.000000
v -1.625000 -1.036589 0.170486
v -1.625000 -0.940016 0.315016
v -1.625000 -0.795485 0.411588
v -1.625000 -0.625000 0.445500
v -1.625000 -0.454515 0.411588
v -1.625000 -0.309984 0.315016
v -1.625000 -0.213412 0.170486
v -1.625000 -0.179500 0.000000
v -1.625000 -0.213412 -0.170486
v -1.625000 -0.309984 -0.315016
v -1.625000 -0.454515 -0.411588
v -1.625000 -0.859418 -0.565934
v -1.625000 -0.625000 -0.612563
v -1.625000 -1.058147 -0.433147
v -1.625000 -1.190934 -0.234418
v -1.625000 -1.237563 0.000000
v -1.625000 -1.190934 0.234418
v -1.625000 -1.058147 0.433147
v -1.625000 -0.859418 0.565934
v -1.625000 -0.625000 0.612563
v -1.625000 -0.390582 0.565934
v -1.625000 -0.191853 0.433147
v -1.625000 -0.059066 0.234418
v -1.625000 -0.012438 0.000000
v -1.625000 -0.059066 -0.234418
v -1.625000 -0.191853 -0.433147
v -1.625000 -0.390582 -0.565934
v -1.416667 -0.859418 0.565934
v -1.416667 -0.625000 0.612563
v -1.416667 -0.625000 -0.612563
v -1.416667 -0.859417 -0.565934
v -1.416667 -0.390582 -0.565934
v -1.416667 -0.390582 0.565934
v -1.416667 -1.058147 -0.433147
v -1.416667 -0.191853 0.433147
v -1.416667 -1.190934 -0.234418
v -1.416667 -0.059066 0.234418
v -1.416667 -1.237563 0.000000
v -1.416667 -0.012437 0.000000
v -1.416667 -1.190934 0.234418
v -1.416667 -0.059066 -0.234418
v -1.416667 -1.058147 0.433147
v -1.416667 -0.191853 -0.433147
v -1.600000 -0.881781 -0.683998
v -1.600000 -0.927088 -0.665232
v -1.625000 -0.896547 -0.655571
v -1.600000 -0.649520 -0.730198
v -1.625000 -0.625000 -0.709585
v -1.600000 -0.600480 -0.730198
v -1.600000 -1.123990 -0.533666
v -1.600000 -1.158666 -0.498990
v -1.625000 -1.126752 -0.501753
v -1.600000 -1.290232 -0.302088
v -1.600000 -1.308998 -0.256781
v -1.625000 -1.280572 -0.271547
v -1.600000 -1.355198 -0.024520
v -1.600000 -1.355198 0.024520
v -1.625000 -1.334586 0.000000
v -1.600000 -1.308998 0.256781
v -1.600000 -1.290232 0.302088
v -1.625000 -1.280572 0.271547
v -1.600000 -1.158666 0.498990
v -1.600000 -1.123990 0.533666
v -1.625000 -1.126752 0.501753
v -1.600000 -0.927088 0.665232
v -1.600000 -0.881781 0.683998
v -1.625000 -0.896547 0.655571
v -1.600000 -0.649520 0.730198
v -1.600000 -0.600480 0.730198
v -1.625000 -0.625000 0.709585
v -1.600000 -0.368219 0.683998
v -1.600000 -0.322912 0.665232
v -1.625000 -0.353453 0.655571
v -1.600000 -0.126010 0.533666
v -1.600000 -0.091334 0.498990
v -1.625000 -0.123247 0.501753
v -1.600000 0.040232 0.302088
v -1.600000 0.058998 0.256781
v -1.625000 0.030571 0.271547
v -1.600000 0.105198 0.024520
v -1.600000 0.105198 -0.024520
v -1.625000 0.084585 -0.000000
v -1.600000 0.058998 -0.256781
v -1.600000 0.040232 -0.302088
v -1.625000 0.030571 -0.271547
v -1.600000 -0.091334 -0.498990
v -1.600000 -0.126010 -0.533666
v -1.625000 -0.123247 -0.501753
v -1.600000 -0.322912 -0.665232
v -1.600000 -0.368219 -0.683998
v -1.625000 -0.353453 -0.655571
v -1.441667 -0.649520 0.730198
v -1.416667 -0.625000 0.709585
v -1.441667 -0.600480 0.730198
v -1.441667 -0.881781 -0.683998
v -1.416667 -0.896546 -0.655571
v -1.441667 -0.927088 -0.665232
v -1.441667 -0.368219 0.683998
v -1.416667 -0.353453 0.655571
v -1.441667 -0.322912 0.665232
v -1.441667 -1.123990 -0.533666
v -1.416667 -1.126753 -0.501753
v -1.441667 -1.158666 -0.498990
v -1.441667 -0.126010 0.533666
v -1.416667 -0.123247 0.501753
v -1.441667 -0.091334 0.498990
v -1.441667 -1.290232 -0.302088
v -1.416667 -1.280572 -0.271547
v -1.441667 -1.308998 -0.256781
v -1.441667 0.040232 0.302088
v -1.416667 0.030571 0.271547
v -1.441667 0.058998 0.256781
v -1.441667 -1.355198 -0.024520
v -1.416667 -1.334585 0.000000
v -1.441667 -1.355198 0.024520
v -1.441667 0.105198 0.024520
v -1.416667 0.084585 -0.000000
v -1.441667 0.105198 -0.024520
v -1.441667 -1.308998 0.256781
v -1.416667 -1.280572 0.271547
v -1.441667 -1.290232 0.302088
v -1.441667 0.058998 -0.256781
v -1.416667 0.030571 -0.271547
v -1.441667 0.040232 -0.302088
v -1.441667 -1.158666 0.498990
v -1.416667 -1.126753 0.501753
v -1.441667 -1.123990 0.533666
v -1.441667 -0.091334 -0.498990
v -1.416667 -0.123247 -0.501753
v -1.441667 -0.126010 -0.533666
v -1.441667 -0.881781 0.683998
v -1.441667 -0.927088 0.665232
v -1.416667 -0.896547 0.655571
v -1.441667 -0.649520 -0.730198
v -1.441667 -0.600480 -0.730198
v -1.416667 -0.625000 -0.709585
v -1.441667 -0.368219 -0.683998
v -1.441667 -0.322912 -0.665232
v -1.416667 -0.353453 -0.655571
v -0.445500 -0.625000 -1.625000
v -0.411588 -0.795485 -1.625000
v -0.315016 -0.940016 -1.625000
v -0.170485 -1.036588 -1.625000
v 0.000000 -1.070500 -1.625000
v 0.170486 -1.036588 -1.625000
v 0.315016 -0.940016 -1.625000
v 0.411588 -0.795485 -1.625000
v 0.445500 -0.625000 -1.625000
v 0.411588 -0.454515 -1.625000
v 0.315016 -0.309984 -1.625000
v 0.170486 -0.213412 -1.625000
v 0.000000 -0.179500 -1.625000
v -0.170486 -0.213412 -1.625000
v -0.315016 -0.309984 -1.625000
v -0.411588 -0.454515 -1.625000
v -0.445500 -0.625000 1.625000
v -0.411588 -0.795485 1.625000
v -0.315016 -0.940016 1.625000
v -0.170486 -1.036589 1.625000
v 0.000000 -1.070500 1.625000
v 0.170485 -1.036589 1.625000
v 0.315016 -0.940016 1.625000
v 0.411588 -0.795485 1.625000
v 0.445500 -0.625000 1.625000
v 0.411588 -0.454515 1.625000
v 0.315016 -0.309984 1.625000
v 0.170485 -0.213412 1.625000
v 0.000000 -0.179500 1.625000
v -0.170486 -0.213412 1.625000
v -0.315016 -0.309984 1.625000
v -0.411588 -0.454515 1.625000
v -0.565934 -0.859418 -1.625000
v -0.612563 -0.625000 -1.625000
v -0.433147 -1.058147 -1.625000
v -0.234418 -1.190934 -1.625000
v 0.000000 -1.237563 -1.625000
v 0.234418 -1.190934 -1.625000
v 0.433147 -1.058147 -1.625000
v 0.565934 -0.859418 -1.625000
v 0.612563 -0.625000 -1.625000
v 0.565934 -0.390582 -1.625000
v 0.433147 -0.191853 -1.625000
v 0.234418 -0.059066 -1.625000
v 0.000000 -0.012437 -1.625000
v -0.234418 -0.059066 -1.625000
v -0.433147 -0.191853 -1.625000
v -0.565934 -0.390582 -1.625000
v -0.565934 -0.859418 1.625000
v -0.612563 -0.625000 1.625000
v -0.433147 -1.058147 1.625000
v -0.234418 -1.190934 1.625000
v 0.000000 -1.237563 1.625000
v 0.234417 -1.190934 1.625000
v 0.433147 -1.058147 1.625000
v 0.565934 -0.859418 1.625000
v 0.612562 -0.625000 1.625000
v 0.565934 -0.390583 1.625000
v 0.433147 -0.191853 1.625000
v 0.234417 -0.059066 1.625000
v 0.000000 -0.012438 1.625000
v -0.234418 -0.059066 1.625000
v -0.433147 -0.191853 1.625000
v -0.565934 -0.390582 1.625000
v 0.565934 -0.859418 1.416667
v 0.565934 -0.859418 -1.416667
v 0.612563 -0.625000 -1.416667
v 0.612562 -0.625000 1.416667
v -0.612563 -0.625000 1.416667
v -0.612563 -0.625000 -1.416667
v -0.565934 -0.859417 -1.416667
v -0.565934 -0.859417 1.416667
v -0.565934 -0.390582 1.416667
v -0.565934 -0.390582 -1.416667
v 0.565934 -0.390582 -1.416667
v 0.565934 -0.390582 1.416667
v -0.433147 -1.058147 -1.416667
v -0.433147 -1.058147 1.416667
v 0.433147 -0.191853 -1.416667
v 0.433147 -0.191853 1.416667
v -0.234418 -1.190934 -1.416667
v -0.234418 -1.190934 1.416667
v 0.234418 -0.059066 -1.416667
v 0.234417 -0.059066 1.416667
v 0.000000 -1.237563 -1.416667
v 0.000000 -1.237563 1.416667
v 0.000000 -0.012437 -1.416667
v 0.000000 -0.012437 1.416667
v 0.234418 -1.190934 -1.416667
v 0.234417 -1.190934 1.416667
v -0.234418 -0.059066 -1.416667
v -0.234418 -0.059066 1.416667
v 0.433147 -1.058147 -1.416667
v 0.433147 -1.058147 1.416667
v -0.433147 -0.191853 -1.416667
v -0.433147 -0.191853 1.416667
v -0.655571 -0.896547 -1.625000
v -0.665232 -0.927088 -1.600000
v -0.683998 -0.881781 -1.600000
v -0.730198 -0.649520 -1.600000
v -0.730198 -0.600480 -1.600000
v -0.709585 -0.625000 -1.625000
v -0.501752 -1.126753 -1.625000
v -0.498990 -1.158666 -1.600000
v -0.533666 -1.123990 -1.600000
v -0.271547 -1.280571 -1.625000
v -0.256781 -1.308998 -1.600000
v -0.302088 -1.290232 -1.600000
v 0.000000 -1.334585 -1.625000
v 0.024520 -1.355198 -1.600000
v -0.024520 -1.355198 -1.600000
v 0.271547 -1.280571 -1.625000
v 0.302088 -1.290232 -1.600000
v 0.256782 -1.308998 -1.600000
v 0.501753 -1.126752 -1.625000
v 0.533666 -1.123990 -1.600000
v 0.498990 -1.158666 -1.600000
v 0.655571 -0.896547 -1.625000
v 0.683998 -0.881781 -1.600000
v 0.665232 -0.927088 -1.600000
v 0.709585 -0.625000 -1.625000
v 0.730198 -0.600480 -1.600000
v 0.730198 -0.649520 -1.600000
v 0.655571 -0.353453 -1.625000
v 0.665232 -0.322912 -1.600000
v 0.683998 -0.368219 -1.600000
v 0.501753 -0.123247 -1.625000
v 0.498990 -0.091334 -1.600000
v 0.533666 -0.126010 -1.600000
v 0.271547 0.030571 -1.625000
v 0.256781 0.058998 -1.600000
v 0.302088 0.040232 -1.600000
v 0.000000 0.084585 -1.625000
v -0.024520 0.105198 -1.600000
v 0.024520 0.105198 -1.600000
v -0.271547 0.030571 -1.625000
v -0.302088 0.040232 -1.600000
v -0.256781 0.058998 -1.600000
v -0.498990 -0.091334 -1.600000
v -0.501753 -0.123247 -1.625000
v -0.533666 -0.126010 -1.600000
v -0.665232 -0.322912 -1.600000
v -0.655571 -0.353453 -1.625000
v -0.683998 -0.368219 -1.600000
v -0.683998 -0.881781 1.600000
v -0.665232 -0.927088 1.600000
v -0.655572 -0.896547 1.625000
v -0.730198 -0.649520 1.600000
v -0.709586 -0.625000 1.625000
v -0.730198 -0.600480 1.600000
v -0.533666 -1.123990 1.600000
v -0.498990 -1.158666 1.600000
v -0.501753 -1.126753 1.625000
v -0.302088 -1.290232 1.600000
v -0.256782 -1.308998 1.600000
v -0.271547 -1.280572 1.625000
v -0.024520 -1.355198 1.600000
v 0.024519 -1.355198 1.600000
v 0.000000 -1.334586 1.625000
v 0.256781 -1.308998 1.600000
v 0.302088 -1.290232 1.600000
v 0.271546 -1.280572 1.625000
v 0.498990 -1.158666 1.600000
v 0.533666 -1.123990 1.600000
v 0.501752 -1.126752 1.625000
v 0.665231 -0.927088 1.600000
v 0.683998 -0.881781 1.600000
v 0.655571 -0.896547 1.625000
v 0.730198 -0.649520 1.600000
v 0.730198 -0.600480 1.600000
v 0.709585 -0.625000 1.625000
v 0.683998 -0.368219 1.600000
v 0.665231 -0.322912 1.600000
v 0.655571 -0.353453 1.625000
v 0.533666 -0.126010 1.600000
v 0.498990 -0.091334 1.600000
v 0.501752 -0.123247 1.625000
v 0.302088 0.040232 1.600000
v 0.256781 0.058998 1.600000
v 0.271546 0.030571 1.625000
v 0.024519 0.105198 1.600000
v -0.024520 0.105198 1.600000
v 0.000000 0.084585 1.625000
v -0.256782 0.058998 1.600000
v -0.302088 0.040232 1.600000
v -0.271547 0.030571 1.625000
v -0.498990 -0.091334 1.600000
v -0.533666 -0.126010 1.600000
v -0.501753 -0.123247 1.625000
v -0.665232 -0.322912 1.600000
v -0.683998 -0.368219 1.600000
v -0.655572 -0.353453 1.625000
v 0.683998 -0.881782 -1.441667
v 0.655571 -0.896547 -1.416667
v 0.665232 -0.927088 -1.441666
v 0.730198 -0.649520 1.441667
v 0.709585 -0.625000 1.416667
v 0.730198 -0.600480 1.441667
v -0.730198 -0.649520 -1.441667
v -0.709585 -0.625000 -1.416667
v -0.730198 -0.600480 -1.441667
v -0.683998 -0.881781 1.441667
v -0.655572 -0.896546 1.416667
v -0.665232 -0.927088 1.441667
v -0.683998 -0.368219 -1.441667
v -0.655571 -0.353453 -1.416667
v -0.665232 -0.322912 -1.441667
v 0.683998 -0.368219 1.441667
v 0.655571 -0.353453 1.416667
v 0.665231 -0.322912 1.441667
v -0.533666 -1.123990 1.441667
v -0.501753 -1.126753 1.416667
v -0.498990 -1.158666 1.441667
v 0.533666 -0.126010 1.441667
v 0.501752 -0.123247 1.416667
v 0.498990 -0.091334 1.441667
v -0.302088 -1.290232 1.441667
v -0.271547 -1.280572 1.416667
v -0.256782 -1.308998 1.441667
v 0.302088 0.040232 1.441667
v 0.271546 0.030571 1.416667
v 0.256781 0.058998 1.441667
v -0.024520 -1.355198 1.441667
v 0.000000 -1.334585 1.416667
v 0.024519 -1.355198 1.441667
v 0.024519 0.105198 1.441667
v 0.000000 0.084585 1.416667
v -0.024520 0.105198 1.441667
v 0.256781 -1.308998 1.441667
v 0.271546 -1.280572 1.416667
v 0.302088 -1.290232 1.441667
v -0.256782 0.058998 1.441666
v -0.271547 0.030571 1.416667
v -0.302088 0.040232 1.441667
v 0.498990 -1.158666 1.441667
v 0.501752 -1.126753 1.416667
v 0.533666 -1.123990 1.441667
v -0.498990 -0.091334 1.441666
v -0.501753 -0.123247 1.416667
v -0.533666 -0.126010 1.441666
v 0.683998 -0.881781 1.441667
v 0.665231 -0.927088 1.441667
v 0.655571 -0.896547 1.416667
v 0.730198 -0.649520 -1.441667
v 0.730198 -0.600480 -1.441667
v 0.709585 -0.625000 -1.416667
v -0.730198 -0.649520 1.441667
v -0.730198 -0.600480 1.441667
v -0.709586 -0.625000 1.416667
v -0.683998 -0.881781 -1.441667
v -0.665232 -0.927088 -1.441667
v -0.655571 -0.896547 -1.416667
v -0.683998 -0.368219 1.441667
v -0.665232 -0.322912 1.441666
v -0.655572 -0.353453 1.416667
v 0.683998 -0.368219 -1.441667
v 0.665232 -0.322912 -1.441667
v 0.655571 -0.353453 -1.416667
v -0.533666 -1.123990 -1.441667
v -0.498990 -1.158666 -1.441667
v -0.501753 -1.126753 -1.416667
v 0.533666 -0.126010 -1.441667
v 0.498990 -0.091334 -1.441667
v 0.501753 -0.123247 -1.416667
v -0.302088 -1.290232 -1.441667
v -0.256781 -1.308998 -1.441667
v -0.271547 -1.280571 -1.416667
v 0.302088 0.040232 -1.441667
v 0.256782 0.058998 -1.441667
v 0.271547 0.030571 -1.416667
v -0.024520 -1.355198 -1.441667
v 0.024520 -1.355198 -1.441667
v 0.000000 -1.334585 -1.416667
v 0.024520 0.105198 -1.441667
v -0.024520 0.105198 -1.441667
v 0.000000 0.084585 -1.416667
v 0.256781 -1.308998 -1.441666
v 0.302088 -1.290232 -1.441667
v 0.271547 -1.280571 -1.416667
v -0.256781 0.058998 -1.441667
v -0.302088 0.040232 -1.441667
v -0.271547 0.030571 -1.416667
v 0.498990 -1.158666 -1.441666
v 0.533666 -1.123990 -1.441666
v 0.501753 -1.126752 -1.416667
v -0.498990 -0.091334 -1.441667
v -0.533666 -0.126010 -1.441667
v -0.501753 -0.123247 -1.416667
v -0.445500 -0.625000 -0.625000
v -0.411588 -0.795485 -0.625000
v -0.315016 -0.940016 -0.625000
v -0.170485 -1.036588 -0.625000
v 0.000000 -1.070500 -0.625000
v 0.170486 -1.036588 -0.625000
v 0.315016 -0.940016 -0.625000
v 0.411588 -0.795485 -0.625000
v 0.445500 -0.625000 -0.625000
v 0.411588 -0.454515 -0.625000
v 0.315016 -0.309984 -0.625000
v 0.170486 -0.213412 -0.625000
v 0.000000 -0.179500 -0.625000
v -0.170486 -0.213412 -0.625000
v -0.315016 -0.309984 -0.625000
v -0.411588 -0.454515 -0.625000
v -0.445500 -0.625000 0.625000
v -0.411588 -0.795485 0.625000
v -0.315016 -0.940016 0.625000
v -0.170486 -1.036589 0.625000
v 0.000000 -1.070500 0.625000
v 0.170485 -1.036589 0.625000
v 0.315016 -0.940016 0.625000
v 0.411588 -0.795485 0.625000
v 0.445500 -0.625000 0.625000
v 0.411588 -0.454515 0.625000
v 0.315016 -0.309984 0.625000
v 0.170485 -0.213412 0.625000
v 0.000000 -0.179500 0.625000
v -0.170486 -0.213412 0.625000
v -0.315016 -0.309984 0.625000
v -0.411588 -0.454515 0.625000
v 0.500000 -0.625000 -0.445500
v 0.500000 -0.795485 -0.411588
v 0.500000 -0.940016 -0.315016
v 0.500000 -1.036588 -0.170485
v 0.500000 -1.070500 0.000000
v 0.500000 -1.036588 0.170486
v 0.500000 -0.940016 0.315016
v 0.500000 -0.795486 0.411588
v 0.500000 -0.625000 0.445500
v 0.500000 -0.454515 0.411588
v 0.500000 -0.309984 0.315016
v 0.500000 -0.213412 0.170486
v 0.500000 -0.179500 0.000000
v 0.500000 -0.213412 -0.170485
v 0.500000 -0.309984 -0.315016
v 0.500000 -0.454515 -0.411588
v -0.625000 -0.625000 -0.445500
v -0.625000 -0.795485 -0.411588
v -0.625000 -0.940016 -0.315016
v -0.625000 -1.036589 -0.170486
v -0.625000 -1.070500 0.000000
v -0.625000 -1.036589 0.170485
v -0.625000 -0.940016 0.315016
v -0.625000 -0.625000 0.445500
v -0.625000 -0.454515 0.411588
v -0.625000 -0.309984 0.315016
v -0.625000 -0.213412 0.170485
v -0.625000 -0.179500 0.000000
v -0.625000 -0.213412 -0.170486
v -0.625000 -0.309984 -0.315016
v -0.625000 -0.454515 -0.411588
v 0.604167 -0.793781 0.407472
v 0.604167 -0.625000 0.441045
v 0.604167 -0.625000 -0.441045
v 0.604167 -0.793781 -0.407472
v 0.604167 -0.456219 -0.407472
v 0.604167 -0.456219 0.407472
v 0.604167 -0.936866 -0.311866
v 0.604167 -0.313134 0.311866
v 0.604167 -1.032472 -0.168781
v 0.604167 -0.217527 0.168781
v 0.604167 -1.066045 0.000000
v 0.604167 -0.183955 0.000000
v 0.604167 -1.032472 0.168781
v 0.604167 -0.217527 -0.168781
v 0.604167 -0.936866 0.311866
v 0.604167 -0.313134 -0.311866
v -0.620833 -0.859418 0.565934
v -0.620833 -0.625000 0.612563
v -0.620833 -0.625000 -0.612563
v -0.620833 -0.859418 -0.565934
v -0.620833 -0.390582 -0.565934
v -0.620833 -0.390582 0.565934
v -0.620834 -1.058147 -0.433147
v -0.620833 -0.191853 0.433147
v -0.620834 -1.190934 -0.234418
v -0.620833 -0.059066 0.234418
v -0.620834 -1.237562 0.000000
v -0.620833 -0.012437 0.000000
v -0.620834 -1.190934 0.234418
v -0.620833 -0.059066 -0.234418
v -0.620834 -1.058147 0.433147
v -0.620833 -0.191853 -0.433147
v -0.561767 -0.859418 0.625000
v -0.608396 -0.625000 0.625000
v 0.616729 -0.625000 0.625000
v 0.570101 -0.859418 0.625000
v 0.570101 -0.390582 0.625000
v -0.561767 -0.390582 0.625000
v 0.437314 -1.058147 0.625000
v -0.428980 -0.191853 0.625000
v 0.238584 -1.190934 0.625000
v -0.230251 -0.059066 0.625000
v 0.004167 -1.237562 0.625000
v 0.004167 -0.012437 0.625000
v -0.230251 -1.190934 0.625000
v 0.238584 -0.059066 0.625000
v -0.428981 -1.058147 0.625000
v 0.437314 -0.191853 0.625000
v -0.561768 -0.859418 -0.625000
v -0.608396 -0.625000 -0.625000
v 0.616729 -0.625000 -0.625000
v 0.570100 -0.859418 -0.625000
v 0.570100 -0.390582 -0.625000
v -0.561768 -0.390582 -0.625000
v 0.437314 -1.058147 -0.625000
v -0.428981 -0.191853 -0.625000
v 0.238584 -1.190934 -0.625000
v -0.230251 -0.059066 -0.625000
v 0.004167 -1.237562 -0.625000
v 0.004167 -0.012437 -0.625000
v -0.230251 -1.190934 -0.625000
v 0.238584 -0.059066 -0.625000
v -0.428981 -1.058147 -0.625000
v 0.437314 -0.191853 -0.625000
v 0.004167 -0.012437 0.000000
v 0.004167 -1.237562 0.000000
v -0.625000 -0.795485 0.411588
v 0.004167 -0.179544 0.000000
v 0.004167 -1.070456 0.000000
v 0.729167 -0.919030 0.000000
v 0.729167 -0.330970 0.000000
v 0.729167 -0.896648 -0.118146
v 0.729167 -0.353352 -0.118146
v 0.729167 -0.832911 -0.218306
v 0.729167 -0.417089 -0.218306
v 0.729167 -0.737520 -0.285231
v 0.729167 -0.512480 -0.285231
v 0.729167 -0.353352 0.118146
v 0.729167 -0.896648 0.118146
v 0.729167 -0.417089 0.218306
v 0.729167 -0.832911 0.218306
v 0.729167 -0.737520 0.285231
v 0.729167 -0.512480 0.285231
vn -1.0000 -0.0000 -0.0000
vn -0.6362 -0.2952 -0.7128
vn -0.6362 -0.0000 -0.7716
vn -0.6362 -0.5456 -0.5456
vn -0.6361 -0.7128 -0.2953
vn -0.6361 -0.7716 -0.0000
vn -0.6361 -0.7128 0.2953
vn -0.6362 -0.5456 0.5456
vn -0.6362 -0.2953 0.7128
vn -0.6362 -0.0000 0.7716
vn -0.6362 0.2952 0.7128
vn -0.6361 0.5456 0.5456
vn -0.6362 0.7128 0.2953
vn -0.6362 0.7716 -0.0000
vn -0.6362 0.7128 -0.2953
vn -0.6361 0.5456 -0.5456
vn -0.6362 0.2953 -0.7128
vn 0.6362 -0.0000 0.7716
vn 0.6362 -0.2952 -0.7128
vn 0.6362 0.2952 0.7128
vn 0.6361 -0.5456 -0.5456
vn 0.6361 0.5456 0.5456
vn 0.6361 -0.7128 -0.2953
vn 0.6362 0.7128 0.2953
vn 0.6362 -0.7716 -0.0000
vn 0.6362 0.7716 -0.0000
vn 0.6361 -0.7128 0.2953
vn 0.6362 0.7128 -0.2953
vn 0.6362 -0.5456 0.5456
vn 0.6361 0.5456 -0.5456
vn 0.6362 -0.2952 0.7128
vn 0.6362 -0.0000 -0.7716
vn 0.6362 0.2952 -0.7128
vn -0.7071 -0.1379 -0.6935
vn -0.7071 -0.3928 -0.5879
vn -0.7071 -0.5879 -0.3928
vn -0.7071 -0.6935 -0.1380
vn -0.7071 -0.6935 0.1380
vn -0.7071 -0.5879 0.3928
vn -0.7071 -0.3928 0.5879
vn -0.7071 -0.1379 0.6935
vn -0.7071 0.1379 0.6935
vn -0.7071 0.3928 0.5879
vn -0.7071 0.5879 0.3928
vn -0.7071 0.6935 0.1379
vn -0.7071 0.6935 -0.1379
vn -0.7071 0.5879 -0.3928
vn -0.7071 0.3928 -0.5879
vn -0.7071 0.1379 -0.6935
vn -0.0000 -0.0000 1.0000
vn -0.0000 -0.3827 -0.9239
vn -0.0000 0.3827 0.9239
vn -0.0000 -0.7071 -0.7071
vn -0.0000 0.7071 0.7071
vn -0.0000 -0.9239 -0.3827
vn -0.0000 0.9239 0.3827
vn -0.0000 -1.0000 -0.0000
vn -0.0000 1.0000 -0.0000
vn -0.0000 -0.9239 0.3827
vn -0.0000 0.9239 -0.3827
vn -0.0000 -0.7071 0.7071
vn -0.0000 0.7071 -0.7071
vn -0.0000 -0.3827 0.9239
vn -0.0000 -0.0000 -1.0000
vn -0.0000 0.3827 -0.9239
vn 0.7071 0.3928 -0.5879
vn 0.7071 -0.3928 0.5879
vn 0.7071 0.5879 -0.3928
vn 0.7071 -0.5879 0.3929
vn 0.7071 0.6935 -0.1379
vn 0.7071 -0.6935 0.1379
vn 0.7071 0.6935 0.1379
vn 0.7071 -0.6935 -0.1379
vn 0.7071 0.5879 0.3928
vn 0.7071 -0.5879 -0.3929
vn 0.7071 0.3928 0.5879
vn 0.7071 -0.3928 -0.5879
vn 0.7071 0.1379 0.6935
vn 0.7071 0.1379 -0.6935
vn 0.7071 -0.1379 -0.6935
vn 0.7071 -0.1379 0.6935
vn -0.0000 -0.1951 -0.9808
vn -0.0000 -0.5556 -0.8315
vn -0.0000 0.1951 -0.9808
vn -0.0000 -0.8315 -0.5556
vn -0.0000 -0.9808 -0.1951
vn -0.0000 -0.9808 0.1951
vn -0.0000 -0.8315 0.5556
vn -0.0000 -0.5556 0.8315
vn -0.0000 -0.1951 0.9808
vn -0.0000 0.1951 0.9808
vn -0.0000 0.5556 0.8315
vn -0.0000 0.8315 0.5556
vn -0.0000 0.9808 0.1951
vn -0.0000 0.9808 -0.1951
vn -0.0000 0.8315 -0.5556
vn -0.0000 0.5556 -0.8315
vn 1.0000 -0.0000 -0.0000
vn -0.7128 -0.2953 -0.6362
vn -0.7716 -0.0000 -0.6362
vn -0.5456 -0.5456 -0.6362
vn -0.2953 -0.7128 -0.6362
vn -0.0000 -0.7716 -0.6362
vn 0.2953 -0.7128 -0.6362
vn 0.5456 -0.5456 -0.6362
vn 0.7128 -0.2953 -0.6362
vn 0.7716 -0.0000 -0.6362
vn 0.7128 0.2953 -0.6362
vn 0.5456 0.5456 -0.6361
vn 0.2953 0.7128 -0.6362
vn -0.0000 0.7716 -0.6362
vn -0.2953 0.7128 -0.6362
vn -0.5456 0.5456 -0.6361
vn -0.7128 0.2953 -0.6362
vn -0.7128 -0.2953 0.6361
vn -0.7716 -0.0000 0.6361
vn -0.5456 -0.5456 0.6362
vn -0.2953 -0.7128 0.6361
vn -0.0000 -0.7716 0.6361
vn 0.2953 -0.7128 0.6361
vn 0.5456 -0.5456 0.6362
vn 0.7128 -0.2953 0.6362
vn 0.7716 -0.0000 0.6362
vn 0.7128 0.2953 0.6361
vn 0.5456 0.5456 0.6362
vn 0.2952 0.7128 0.6362
vn -0.0000 0.7716 0.6362
vn -0.2953 0.7128 0.6362
vn -0.5456 0.5456 0.6361
vn -0.7128 0.2953 0.6361
vn 0.7128 -0.2952 0.6362
vn -0.7716 -0.0000 0.6362
vn -0.7128 0.2953 0.6362
vn 0.7128 0.2953 -0.6361
vn 0.5456 0.5456 -0.6362
vn -0.2953 -0.7128 -0.6361
vn 0.2952 0.7128 -0.6362
vn 0.2953 -0.7128 -0.6361
vn -0.5456 0.5456 -0.6362
vn -0.7716 -0.0000 -0.6361
vn -0.7128 -0.2953 0.6362
vn -0.7128 0.2952 -0.6361
vn 0.7128 0.2953 0.6362
vn 0.5456 0.5456 0.6361
vn -0.2953 -0.7128 0.6362
vn 0.2953 0.7128 0.6362
vn -0.0000 -0.7716 0.6362
vn 0.2953 -0.7128 0.6362
vn -0.2952 0.7128 0.6362
vn -0.6935 -0.1379 -0.7071
vn -0.5879 -0.3928 -0.7071
vn -0.3928 -0.5879 -0.7071
vn -0.1379 -0.6935 -0.7071
vn 0.1379 -0.6935 -0.7071
vn 0.3928 -0.5879 -0.7071
vn 0.5879 -0.3928 -0.7071
vn 0.6935 -0.1379 -0.7071
vn 0.6935 0.1379 -0.7071
vn 0.5879 0.3928 -0.7071
vn 0.3928 0.5879 -0.7071
vn 0.1379 0.6935 -0.7071
vn -0.1380 0.6935 -0.7071
vn -0.3928 0.5879 -0.7071
vn -0.5879 0.3928 -0.7071
vn -0.6935 0.1379 -0.7071
vn -0.6935 -0.1380 0.7071
vn -0.5879 -0.3928 0.7071
vn -0.3929 -0.5879 0.7071
vn -0.1380 -0.6935 0.7071
vn 0.1380 -0.6935 0.7071
vn 0.3928 -0.5879 0.7071
vn 0.5879 -0.3928 0.7071
vn 0.6935 -0.1379 0.7071
vn 0.6935 0.1379 0.7071
vn 0.5879 0.3928 0.7071
vn 0.3928 0.5879 0.7071
vn 0.1379 0.6935 0.7071
vn -0.1379 0.6935 0.7071
vn -0.3928 0.5879 0.7071
vn -0.5879 0.3928 0.7071
vn -0.6935 0.1380 0.7071
vn 0.9239 -0.3827 -0.0000
vn -0.9239 -0.3827 -0.0000
vn -0.9239 0.3827 -0.0000
vn 0.9239 0.3827 -0.0000
vn -0.7071 -0.7071 -0.0000
vn 0.7071 0.7071 -0.0000
vn -0.3827 -0.9239 -0.0000
vn 0.3827 0.9239 -0.0000
vn 0.3827 -0.9239 -0.0000
vn -0.3827 0.9239 -0.0000
vn 0.7071 -0.7071 -0.0000
vn -0.7071 0.7071 -0.0000
vn -0.1379 0.6935 -0.7071
vn 0.1379 -0.6935 0.7071
vn -0.1379 -0.6935 0.7071
vn -0.3928 -0.5879 0.7071
vn -0.3929 -0.5879 -0.7071
vn -0.6935 0.1379 0.7071
vn -0.6935 0.1380 -0.7071
vn -0.6935 -0.1379 0.7071
vn -0.6935 -0.1380 -0.7071
vn -0.9808 -0.1951 -0.0000
vn -0.8315 -0.5556 -0.0000
vn -0.9808 0.1951 -0.0000
vn -0.5556 -0.8315 -0.0000
vn -0.1951 -0.9808 -0.0000
vn 0.1951 -0.9808 -0.0000
vn 0.5556 -0.8315 -0.0000
vn 0.8315 -0.5556 -0.0000
vn 0.9808 -0.1951 -0.0000
vn 0.9808 0.1951 -0.0000
vn 0.8315 0.5556 -0.0000
vn 0.5556 0.8315 -0.0000
vn 0.1951 0.9808 -0.0000
vn -0.1951 0.9808 -0.0000
vn -0.5556 0.8315 -0.0000
vn -0.8315 0.5556 -0.0000
vn 0.9925 0.1176 -0.0339
vn 0.8941 0.4024 -0.1968
vn 0.6710 0.7125 -0.2053
vn 0.3236 0.9462 -0.0002
vn 0.2749 0.9615 -0.0000
vn 0.8941 -0.4024 -0.1968
vn 0.6710 -0.7125 -0.2053
vn 0.3236 -0.9462 -0.0002
vn 0.2749 -0.9615 -0.0000
vn 0.9925 -0.1176 -0.0339
vn -0.1915 -0.9626 -0.1915
vn -0.4857 -0.7268 -0.4857
vn -0.6393 -0.4272 -0.6393
vn -0.7002 -0.1393 -0.7002
vn -0.7002 0.1393 -0.7002
vn -0.6393 0.4272 -0.6393
vn -0.4857 0.7268 -0.4857
vn -0.1915 0.9626 -0.1915
vn 0.6710 0.7125 0.2053
vn 0.8941 0.4024 0.1968
vn 0.9925 0.1176 0.0339
vn 0.9925 -0.1176 0.0339
vn 0.8941 -0.4024 0.1968
vn 0.6710 -0.7125 0.2053
vn 0.3236 -0.9462 0.0002
vn -0.4857 -0.7268 0.4857
vn -0.6393 -0.4272 0.6393
vn -0.7002 -0.1393 0.7002
vn -0.7002 0.1393 0.7002
vn -0.6393 0.4272 0.6393
vn -0.4857 0.7268 0.4857
vn -0.1915 0.9626 0.1915
vn 0.3236 0.9462 0.0002
vn -0.1915 -0.9626 0.1915
vn -0.9322 -0.1264 0.3391
vn -0.8081 -0.4110 0.4221
vn -0.5754 -0.7204 0.3872
vn -0.2164 -0.9620 0.1663
vn 0.0001 -1.0000 -0.0000
vn -0.0000 -1.0000 -0.0001
vn -0.8081 0.4110 0.4221
vn -0.5754 0.7204 0.3872
vn -0.2164 0.9620 0.1663
vn 0.0001 1.0000 -0.0000
vn -0.0000 1.0000 -0.0001
vn -0.9322 0.1264 0.3391
vn 0.1915 0.9626 0.1915
vn 0.4857 0.7268 0.4857
vn 0.6393 0.4272 0.6393
vn 0.7002 0.1393 0.7002
vn 0.7002 -0.1393 0.7002
vn 0.6393 -0.4272 0.6393
vn 0.4857 -0.7268 0.4857
vn 0.1915 -0.9626 0.1915
vn -0.0001 -1.0000 -0.0000
vn -0.0001 1.0000 -0.0000
vn -0.5754 -0.7204 -0.3873
vn -0.8081 -0.4110 -0.4221
vn -0.9322 -0.1264 -0.3391
vn -0.9322 0.1264 -0.3391
vn -0.8080 0.4110 -0.4221
vn -0.5754 0.7204 -0.3873
vn -0.2164 0.9620 -0.1663
vn -0.0000 1.0000 0.0001
vn 0.4857 0.7268 -0.4857
vn 0.7002 -0.1393 -0.7002
vn 0.6393 -0.4272 -0.6393
vn 0.4857 -0.7268 -0.4857
vn 0.1915 -0.9626 -0.1915
vn -0.0000 -1.0000 0.0001
vn -0.2164 -0.9620 -0.1663
vn 0.1915 0.9626 -0.1915
vn 0.7002 0.1393 -0.7002
vn 0.6393 0.4272 -0.6393
vn -0.5556 0.8315 0.0029
vn -0.1951 0.9808 0.0010
vn 0.1951 0.9808 -0.0010
vn 0.5556 0.8315 -0.0029
vn 0.8315 0.5556 -0.0044
vn 0.9808 0.1951 -0.0052
vn 0.9808 -0.1951 -0.0052
vn 0.8315 -0.5556 -0.0044
vn 0.5556 -0.8315 -0.0029
vn 0.1951 -0.9808 -0.0010
vn -0.1951 -0.9808 0.0010
vn -0.5556 -0.8315 0.0029
vn -0.8315 -0.5556 0.0044
vn -0.9808 -0.1951 0.0052
vn -0.9808 0.1951 0.0052
vn -0.8315 0.5556 0.0044
vn -0.9808 0.1951 -0.0052
vn -0.9808 -0.1951 -0.0052
vn -0.8315 -0.5556 -0.0044
vn -0.5556 -0.8315 -0.0029
vn -0.1951 -0.9808 -0.0010
vn 0.1951 -0.9808 0.0010
vn 0.5556 -0.8315 0.0029
vn 0.8315 -0.5556 0.0044
vn 0.9808 -0.1951 0.0052
vn 0.9808 0.1951 0.0052
vn 0.8315 0.5556 0.0044
vn 0.5556 0.8315 0.0029
vn 0.1951 0.9808 0.0010
vn -0.1951 0.9808 -0.0010
vn -0.5556 0.8315 -0.0029
vn -0.8315 0.5556 -0.0044
vn -0.0419 -0.1949 0.9799
vn -0.0419 -0.5551 0.8307
vn -0.0419 -0.8307 0.5551
vn -0.0419 -0.9799 0.1949
vn -0.0419 -0.9799 -0.1949
vn -0.0419 -0.8307 -0.5551
vn -0.0419 -0.5551 -0.8307
vn -0.0419 -0.1949 -0.9799
vn -0.0419 0.1949 -0.9799
vn -0.0419 0.5551 -0.8307
vn -0.0419 0.8307 -0.5551
vn -0.0419 0.9799 -0.1949
vn -0.0419 0.9799 0.1949
vn -0.0419 0.8307 0.5551
vn -0.0419 0.5551 0.8307
vn -0.0419 0.1949 0.9799
vn 0.7515 -0.0000 0.6597
vn 0.7319 -0.3837 0.5630
vn 0.7455 -0.5576 0.3653
vn 0.7544 -0.6443 0.1256
vn 0.7544 -0.6443 -0.1256
vn 0.7455 0.5576 -0.3653
vn 0.7319 0.3837 -0.5630
vn 0.7515 -0.0000 -0.6597
vn 0.7319 -0.3837 -0.5630
vn 0.7455 -0.5576 -0.3653
vn 0.7544 0.6443 -0.1256
vn 0.7544 0.6443 0.1256
vn 0.7455 0.5576 0.3653
vn 0.7319 0.3837 0.5630
vt 0.718391 0.768517
vt 0.739732 0.777357
vt 0.735401 0.799131
vt 0.706058 0.786976
vt 0.693218 0.707744
vt 0.693218 0.730843
vt 0.671444 0.735174
vt 0.671444 0.703413
vt 0.702058 0.752184
vt 0.683599 0.764518
vt 0.702058 0.686403
vt 0.683599 0.674070
vt 0.718391 0.670070
vt 0.706057 0.651611
vt 0.739732 0.661230
vt 0.735401 0.639456
vt 0.762831 0.661230
vt 0.767162 0.639456
vt 0.784172 0.670070
vt 0.796505 0.651611
vt 0.800505 0.686403
vt 0.818964 0.674069
vt 0.809345 0.707744
vt 0.831119 0.703413
vt 0.809345 0.730843
vt 0.831119 0.735174
vt 0.800505 0.752184
vt 0.818964 0.764517
vt 0.784172 0.768517
vt 0.796506 0.786976
vt 0.762831 0.777357
vt 0.767162 0.799130
vt 0.927278 0.169705
vt 0.927281 0.163684
vt 0.930605 0.167743
vt 0.927269 0.200569
vt 0.930595 0.203828
vt 0.927269 0.207086
vt 0.668791 0.668094
vt 0.672411 0.662676
vt 0.672879 0.666907
vt 0.982669 0.239363
vt 0.982708 0.233342
vt 0.985971 0.235305
vt 0.982804 0.202478
vt 0.982804 0.195961
vt 0.986083 0.199220
vt 0.982708 0.165097
vt 0.982669 0.159076
vt 0.985971 0.163135
vt 0.802481 0.636803
vt 0.807899 0.640423
vt 0.803668 0.640891
vt 0.906235 0.305518
vt 0.906238 0.311539
vt 0.902911 0.309576
vt 0.906247 0.342403
vt 0.906247 0.348920
vt 0.902921 0.345661
vt 0.906238 0.379784
vt 0.906235 0.385805
vt 0.902911 0.381746
vt 0.833772 0.770493
vt 0.830152 0.775911
vt 0.829684 0.771680
vt 0.961703 0.291694
vt 0.961664 0.297715
vt 0.958401 0.295753
vt 0.961569 0.328579
vt 0.961569 0.335096
vt 0.958290 0.331837
vt 0.961664 0.365960
vt 0.961703 0.371981
vt 0.958401 0.367922
vt 0.700082 0.801784
vt 0.694664 0.798164
vt 0.698895 0.797696
vt 0.927281 0.243971
vt 0.927278 0.237950
vt 0.930605 0.239912
vt 0.927287 0.342403
vt 0.930605 0.345661
vt 0.927287 0.348920
vt 0.906237 0.169705
vt 0.902921 0.167743
vt 0.906241 0.163684
vt 0.927278 0.379784
vt 0.930595 0.381746
vt 0.927275 0.385805
vt 0.694664 0.606555
vt 0.698895 0.606087
vt 0.700082 0.610175
vt 0.807899 0.448815
vt 0.803668 0.449282
vt 0.802481 0.445194
vt 0.961632 0.239363
vt 0.958290 0.235305
vt 0.961670 0.233342
vt 0.982741 0.291694
vt 0.986083 0.295753
vt 0.982702 0.297715
vt 0.961766 0.202478
vt 0.958401 0.199220
vt 0.961766 0.195961
vt 0.982607 0.328579
vt 0.985971 0.331837
vt 0.982607 0.335096
vt 0.961670 0.165097
vt 0.958290 0.163135
vt 0.961632 0.159076
vt 0.982702 0.365960
vt 0.986083 0.367922
vt 0.982741 0.371981
vt 0.830151 0.584302
vt 0.829684 0.580072
vt 0.833772 0.578884
vt 0.672411 0.471067
vt 0.672879 0.475298
vt 0.668791 0.476485
vt 0.927278 0.311539
vt 0.927275 0.305518
vt 0.930595 0.309576
vt 0.906229 0.200569
vt 0.906229 0.207086
vt 0.902910 0.203828
vt 0.906237 0.237950
vt 0.906241 0.243971
vt 0.902921 0.239912
vt 0.658799 0.700898
vt 0.658799 0.737690
vt 0.655477 0.735028
vt 0.655477 0.703559
vt 0.656748 0.697168
vt 0.698894 0.640891
vt 0.694663 0.640424
vt 0.732885 0.626811
vt 0.700082 0.636803
vt 0.729155 0.624760
vt 0.769677 0.626811
vt 0.735547 0.623489
vt 0.767016 0.623489
vt 0.773407 0.624760
vt 0.829684 0.666906
vt 0.830151 0.662675
vt 0.843764 0.700897
vt 0.833772 0.668094
vt 0.845815 0.697167
vt 0.843764 0.737689
vt 0.847086 0.703559
vt 0.847086 0.735028
vt 0.845815 0.741419
vt 0.803669 0.797696
vt 0.807900 0.798163
vt 0.769678 0.811776
vt 0.802481 0.801784
vt 0.773408 0.813827
vt 0.732886 0.811776
vt 0.767016 0.815098
vt 0.735547 0.815098
vt 0.729156 0.813827
vt 0.672879 0.771681
vt 0.672412 0.775912
vt 0.668791 0.770493
vt 0.656748 0.741420
vt 0.906273 0.132911
vt 0.927313 0.132911
vt 0.927306 0.137519
vt 0.906266 0.137519
vt 0.927243 0.416578
vt 0.906203 0.416578
vt 0.906210 0.411970
vt 0.927250 0.411970
vt 0.927250 0.279352
vt 0.906210 0.279352
vt 0.906203 0.274744
vt 0.927243 0.274744
vt 0.906266 0.270137
vt 0.927306 0.270137
vt 0.927313 0.274744
vt 0.906273 0.274744
vt 0.656748 0.505559
vt 0.658799 0.509289
vt 0.845815 0.549810
vt 0.843764 0.546080
vt 0.694663 0.448815
vt 0.698894 0.449282
vt 0.807900 0.606555
vt 0.803669 0.606087
vt 0.700082 0.445194
vt 0.729155 0.433152
vt 0.732885 0.435202
vt 0.802481 0.610175
vt 0.773408 0.622218
vt 0.769677 0.620167
vt 0.735547 0.431880
vt 0.767016 0.431880
vt 0.769677 0.435202
vt 0.767016 0.623489
vt 0.735547 0.623489
vt 0.732886 0.620167
vt 0.773407 0.433151
vt 0.729156 0.622218
vt 0.830151 0.471066
vt 0.829684 0.475297
vt 0.672412 0.584303
vt 0.672879 0.580072
vt 0.833772 0.476485
vt 0.845814 0.505558
vt 0.843764 0.509289
vt 0.655477 0.543419
vt 0.655477 0.511950
vt 0.658799 0.546081
vt 0.668791 0.578884
vt 0.656748 0.549811
vt 0.847086 0.511950
vt 0.847086 0.543419
vt 0.961360 0.265529
vt 0.982397 0.265529
vt 0.961360 0.132911
vt 0.982397 0.132911
vt 0.983013 0.265529
vt 0.961975 0.265529
vt 0.983013 0.398146
vt 0.961975 0.398146
vt 0.831118 0.543565
vt 0.831118 0.511804
vt 0.818964 0.482460
vt 0.671444 0.543565
vt 0.683599 0.572909
vt 0.706058 0.595367
vt 0.796505 0.460002
vt 0.735401 0.607522
vt 0.767162 0.447848
vt 0.767162 0.607522
vt 0.735401 0.447848
vt 0.796506 0.595367
vt 0.706057 0.460002
vt 0.818964 0.572909
vt 0.683599 0.482461
vt 0.671444 0.511804
vt 0.320298 0.854973
vt 0.298958 0.846133
vt 0.303289 0.824359
vt 0.332632 0.836514
vt 0.774221 0.145027
vt 0.795561 0.153867
vt 0.791230 0.175641
vt 0.761887 0.163486
vt 0.749048 0.084254
vt 0.749048 0.107353
vt 0.727274 0.111684
vt 0.727274 0.079923
vt 0.275859 0.846133
vt 0.271528 0.824359
vt 0.757887 0.128694
vt 0.739428 0.141028
vt 0.757887 0.062913
vt 0.739428 0.050580
vt 0.254518 0.854973
vt 0.242184 0.836514
vt 0.774220 0.046580
vt 0.761887 0.028121
vt 0.238185 0.871306
vt 0.219726 0.858973
vt 0.795561 0.037740
vt 0.791230 0.015966
vt 0.229345 0.892647
vt 0.207571 0.888316
vt 0.818660 0.037740
vt 0.822991 0.015966
vt 0.229345 0.915746
vt 0.207571 0.920077
vt 0.840001 0.046580
vt 0.852335 0.028121
vt 0.238185 0.937087
vt 0.219726 0.949421
vt 0.856334 0.062913
vt 0.874793 0.050579
vt 0.254518 0.953420
vt 0.242184 0.971879
vt 0.865174 0.084254
vt 0.886948 0.079923
vt 0.275859 0.962260
vt 0.271528 0.984034
vt 0.865174 0.107353
vt 0.886948 0.111684
vt 0.298958 0.962260
vt 0.303289 0.984034
vt 0.856334 0.128694
vt 0.874793 0.141027
vt 0.320299 0.953420
vt 0.332632 0.971879
vt 0.840001 0.145027
vt 0.852335 0.163486
vt 0.336632 0.937087
vt 0.355091 0.949420
vt 0.345472 0.892647
vt 0.336632 0.871306
vt 0.355091 0.858972
vt 0.367245 0.888316
vt 0.818660 0.153867
vt 0.822991 0.175640
vt 0.345471 0.915746
vt 0.367245 0.920077
vt 0.641139 0.915393
vt 0.637817 0.919451
vt 0.637817 0.913431
vt 0.637817 0.882566
vt 0.637817 0.876050
vt 0.641139 0.879308
vt 0.339795 0.825794
vt 0.338612 0.821705
vt 0.344031 0.825325
vt 0.958290 0.304713
vt 0.954968 0.306616
vt 0.954968 0.300635
vt 0.958290 0.340682
vt 0.954968 0.343897
vt 0.954968 0.337381
vt 0.958290 0.376874
vt 0.954968 0.380912
vt 0.954968 0.374853
vt 0.209006 0.851810
vt 0.204923 0.852996
vt 0.208543 0.847578
vt 0.986178 0.462104
vt 0.982855 0.464066
vt 0.982855 0.458046
vt 0.986178 0.498189
vt 0.982855 0.501447
vt 0.982855 0.494931
vt 0.986178 0.534274
vt 0.982855 0.538332
vt 0.982855 0.532312
vt 0.235021 0.982599
vt 0.236214 0.986686
vt 0.230795 0.983066
vt 0.958493 0.467031
vt 0.955171 0.469052
vt 0.955171 0.462993
vt 0.958493 0.503224
vt 0.955171 0.506524
vt 0.955171 0.500008
vt 0.958493 0.539192
vt 0.955171 0.543270
vt 0.955171 0.537289
vt 0.366283 0.960813
vt 0.365811 0.956583
vt 0.369903 0.955395
vt 0.637817 0.839165
vt 0.641139 0.843223
vt 0.637817 0.845185
vt 0.933927 0.237950
vt 0.933927 0.243971
vt 0.930605 0.239912
vt 0.933927 0.207086
vt 0.930605 0.203828
vt 0.933927 0.200569
vt 0.724616 0.044605
vt 0.728236 0.039187
vt 0.728708 0.043417
vt 0.934131 0.595052
vt 0.934131 0.601033
vt 0.930808 0.599129
vt 0.934131 0.631798
vt 0.934131 0.638314
vt 0.930808 0.635098
vt 0.934130 0.669270
vt 0.934130 0.675328
vt 0.930808 0.671290
vt 0.858306 0.013314
vt 0.863724 0.016934
vt 0.859497 0.017401
vt 0.961815 0.590663
vt 0.961815 0.596684
vt 0.958493 0.594722
vt 0.961815 0.627548
vt 0.961815 0.634065
vt 0.958493 0.630807
vt 0.961815 0.664930
vt 0.961815 0.670950
vt 0.958493 0.666892
vt 0.889597 0.147004
vt 0.885976 0.152422
vt 0.885513 0.148190
vt 0.952925 0.846211
vt 0.952925 0.852270
vt 0.949603 0.850249
vt 0.952925 0.883226
vt 0.952925 0.889742
vt 0.949603 0.886441
vt 0.952925 0.920507
vt 0.952925 0.926488
vt 0.949603 0.922410
vt 0.755907 0.178295
vt 0.750488 0.174675
vt 0.754724 0.174206
vt 0.933927 0.163684
vt 0.933927 0.169705
vt 0.930605 0.167743
vt 0.961815 0.464066
vt 0.958493 0.462104
vt 0.961815 0.458046
vt 0.982855 0.627548
vt 0.986178 0.630807
vt 0.982855 0.634065
vt 0.616776 0.882566
vt 0.613454 0.879308
vt 0.616776 0.876050
vt 0.954968 0.237950
vt 0.958290 0.239912
vt 0.954968 0.243971
vt 0.616776 0.845185
vt 0.613454 0.843223
vt 0.616776 0.839165
vt 0.982855 0.664930
vt 0.986178 0.666892
vt 0.982855 0.670950
vt 0.724616 0.338613
vt 0.728708 0.339801
vt 0.728236 0.344031
vt 0.889597 0.236214
vt 0.885513 0.235027
vt 0.885976 0.230795
vt 0.955171 0.595052
vt 0.958493 0.599129
vt 0.955171 0.601033
vt 0.973965 0.846211
vt 0.977288 0.850249
vt 0.973965 0.852270
vt 0.955171 0.631798
vt 0.958493 0.635098
vt 0.955171 0.638314
vt 0.973965 0.883226
vt 0.977288 0.886441
vt 0.973965 0.889742
vt 0.955171 0.669270
vt 0.958493 0.671290
vt 0.955171 0.675328
vt 0.973966 0.920507
vt 0.977288 0.922410
vt 0.973965 0.926488
vt 0.858306 0.369904
vt 0.859498 0.365817
vt 0.863724 0.366283
vt 0.755907 0.204923
vt 0.754724 0.209011
vt 0.750488 0.208543
vt 0.982855 0.596684
vt 0.982855 0.590664
vt 0.986178 0.594722
vt 0.961815 0.494931
vt 0.961815 0.501447
vt 0.958493 0.498189
vt 0.954968 0.207086
vt 0.954968 0.200569
vt 0.958290 0.203828
vt 0.616776 0.913431
vt 0.616776 0.919451
vt 0.613454 0.915393
vt 0.954968 0.169705
vt 0.954968 0.163684
vt 0.958290 0.167743
vt 0.961815 0.532312
vt 0.961815 0.538332
vt 0.958493 0.534274
vt 0.013314 0.852996
vt 0.016934 0.847578
vt 0.017406 0.851808
vt 0.178295 0.955395
vt 0.174674 0.960813
vt 0.174212 0.956582
vt 0.933927 0.300635
vt 0.933927 0.306616
vt 0.930605 0.304713
vt 0.934131 0.462993
vt 0.934131 0.469052
vt 0.930808 0.467031
vt 0.933927 0.337381
vt 0.933927 0.343897
vt 0.930605 0.340682
vt 0.934131 0.500008
vt 0.934131 0.506524
vt 0.930808 0.503224
vt 0.933927 0.374853
vt 0.933927 0.380912
vt 0.930605 0.376874
vt 0.934131 0.537289
vt 0.934131 0.543270
vt 0.930808 0.539192
vt 0.147004 0.821705
vt 0.152422 0.825326
vt 0.148196 0.825792
vt 0.044605 0.986686
vt 0.039187 0.983066
vt 0.043422 0.982598
vt 0.369903 0.852996
vt 0.381946 0.882069
vt 0.379890 0.885800
vt 0.365811 0.851809
vt 0.366283 0.847577
vt 0.309539 0.809662
vt 0.305804 0.811714
vt 0.271678 0.808391
vt 0.303147 0.808391
vt 0.269012 0.811714
vt 0.236213 0.821705
vt 0.265287 0.809663
vt 0.235021 0.825794
vt 0.230795 0.825326
vt 0.192880 0.882070
vt 0.194926 0.885801
vt 0.191609 0.919930
vt 0.191609 0.888461
vt 0.194926 0.922592
vt 0.204923 0.955395
vt 0.192880 0.926322
vt 0.209006 0.956584
vt 0.208543 0.960814
vt 0.265287 0.998729
vt 0.269013 0.996679
vt 0.303148 1.000000
vt 0.271679 1.000000
vt 0.305804 0.996679
vt 0.338613 0.986686
vt 0.309539 0.998729
vt 0.339795 0.982599
vt 0.344031 0.983065
vt 0.381946 0.926321
vt 0.379890 0.922592
vt 0.383217 0.888461
vt 0.383217 0.919930
vt 0.714628 0.077408
vt 0.714629 0.114200
vt 0.711302 0.111539
vt 0.711302 0.080070
vt 0.712573 0.073679
vt 0.754724 0.017401
vt 0.750488 0.016935
vt 0.788715 0.003321
vt 0.755906 0.013314
vt 0.784980 0.001271
vt 0.825506 0.003321
vt 0.791371 0.000000
vt 0.822840 0.000000
vt 0.829232 0.001271
vt 0.885513 0.043416
vt 0.885976 0.039186
vt 0.899593 0.077408
vt 0.889596 0.044605
vt 0.901639 0.073678
vt 0.899593 0.114199
vt 0.902910 0.080070
vt 0.902910 0.111539
vt 0.901639 0.117930
vt 0.859498 0.174206
vt 0.863724 0.174674
vt 0.825507 0.188286
vt 0.858306 0.178295
vt 0.829232 0.190338
vt 0.788715 0.188286
vt 0.822841 0.191609
vt 0.791372 0.191609
vt 0.784980 0.190338
vt 0.728708 0.148191
vt 0.728236 0.152423
vt 0.724616 0.147004
vt 0.712573 0.117931
vt 0.954968 0.274744
vt 0.933927 0.274744
vt 0.933927 0.270137
vt 0.954968 0.270137
vt 0.973965 0.819777
vt 0.952925 0.819777
vt 0.952925 0.815098
vt 0.973965 0.815098
vt 0.955171 0.706442
vt 0.934130 0.706442
vt 0.934130 0.701763
vt 0.955171 0.701763
vt 0.954968 0.137519
vt 0.933927 0.137519
vt 0.933927 0.132911
vt 0.954968 0.132911
vt 0.637817 0.950225
vt 0.616776 0.950225
vt 0.616776 0.945617
vt 0.637817 0.945617
vt 0.955171 0.436559
vt 0.934131 0.436559
vt 0.934131 0.431880
vt 0.955171 0.431880
vt 0.954968 0.412025
vt 0.933927 0.412025
vt 0.933927 0.407346
vt 0.954968 0.407346
vt 0.637817 0.812999
vt 0.616776 0.812999
vt 0.616776 0.808391
vt 0.637817 0.808391
vt 0.017407 0.956582
vt 0.016935 0.960814
vt 0.728236 0.230795
vt 0.728708 0.235027
vt 0.174211 0.851808
vt 0.174674 0.847578
vt 0.885976 0.344031
vt 0.885513 0.339801
vt 0.077413 0.996677
vt 0.073679 0.998729
vt 0.784980 0.192880
vt 0.788715 0.194932
vt 0.114205 0.811712
vt 0.117930 0.809662
vt 0.829232 0.381946
vt 0.825506 0.379897
vt 0.114205 0.996677
vt 0.111539 1.000000
vt 0.080070 1.000000
vt 0.791372 0.191609
vt 0.822841 0.191609
vt 0.825507 0.194932
vt 0.077413 0.811713
vt 0.080070 0.808391
vt 0.111539 0.808391
vt 0.822840 0.383218
vt 0.791371 0.383218
vt 0.788715 0.379896
vt 0.148196 0.982597
vt 0.147004 0.986686
vt 0.117931 0.998729
vt 0.829232 0.192880
vt 0.858306 0.204923
vt 0.859498 0.209012
vt 0.043422 0.825792
vt 0.044605 0.821705
vt 0.073678 0.809663
vt 0.784980 0.381946
vt 0.755906 0.369904
vt 0.754724 0.365817
vt 0.152422 0.983066
vt 0.863724 0.208543
vt 0.039186 0.825326
vt 0.750488 0.366283
vt 0.188291 0.922590
vt 0.190337 0.926321
vt 0.901639 0.265287
vt 0.899593 0.269018
vt 0.003327 0.885799
vt 0.001271 0.882070
vt 0.712573 0.309539
vt 0.714629 0.305810
vt 0.188291 0.885799
vt 0.191609 0.888461
vt 0.191609 0.919930
vt 0.902910 0.271679
vt 0.902910 0.303148
vt 0.899593 0.305810
vt 0.003327 0.922591
vt 0.013314 0.955395
vt 0.001271 0.926322
vt 0.712573 0.265287
vt 0.724616 0.236214
vt 0.714629 0.269018
vt 0.000000 0.919930
vt -0.000000 0.888461
vt 0.711302 0.303148
vt 0.711302 0.271679
vt 0.178295 0.852996
vt 0.190337 0.882069
vt 0.901639 0.309539
vt 0.889596 0.338613
vt 0.982855 0.431880
vt 0.961815 0.431880
vt 0.982855 0.564498
vt 0.961815 0.564498
vt 0.955171 0.569161
vt 0.934131 0.569161
vt 0.955171 0.569161
vt 0.934131 0.569161
vt 0.982855 0.697116
vt 0.961815 0.697116
vt 0.973966 0.952379
vt 0.952925 0.952379
vt 0.175646 0.888314
vt 0.163491 0.858971
vt 0.141033 0.836512
vt 0.874793 0.332638
vt 0.886948 0.303295
vt 0.886948 0.271534
vt 0.015972 0.888314
vt 0.015972 0.920075
vt 0.028127 0.949419
vt 0.727274 0.271534
vt 0.727274 0.303295
vt 0.739428 0.332638
vt 0.050585 0.971877
vt 0.874793 0.242190
vt 0.761887 0.355097
vt 0.852335 0.219732
vt 0.791230 0.367251
vt 0.822991 0.207577
vt 0.822991 0.367251
vt 0.791230 0.207577
vt 0.852335 0.355097
vt 0.761887 0.219732
vt 0.739428 0.242190
vt 0.175646 0.920075
vt 0.028126 0.858971
vt 0.163492 0.949419
vt 0.050585 0.836512
vt 0.141033 0.971877
vt 0.079928 0.824358
vt 0.111690 0.984032
vt 0.111689 0.824358
vt 0.079929 0.984032
vt 0.907742 0.815123
vt 0.930397 0.815116
vt 0.930397 0.948002
vt 0.907742 0.948009
vt 0.949603 0.815098
vt 0.949603 0.947984
vt 0.163580 0.257801
vt 0.163380 0.238595
vt 0.296251 0.238595
vt 0.296450 0.257801
vt 0.163310 0.215940
vt 0.296181 0.215940
vt 0.163380 0.193285
vt 0.296251 0.193285
vt 0.163580 0.174079
vt 0.296450 0.174079
vt 0.986633 0.132911
vt 0.967427 0.132892
vt 0.967427 0.000006
vt 0.986633 0.000025
vt 0.944772 0.132886
vt 0.944772 -0.000000
vt 0.429320 0.174079
vt 0.429520 0.193285
vt 0.296650 0.193285
vt 0.429590 0.215940
vt 0.296720 0.215940
vt 0.429520 0.238595
vt 0.296650 0.238595
vt 0.429320 0.257801
vt 0.865880 0.815098
vt 0.885086 0.815116
vt 0.885086 0.948002
vt 0.865880 0.947984
vt 0.888947 0.564766
vt 0.866292 0.564766
vt 0.866292 0.431880
vt 0.888947 0.431880
vt 0.847086 0.564766
vt 0.847086 0.431880
vt 0.122392 0.132886
vt 0.102989 0.132886
vt 0.102989 0.000000
vt 0.122392 0.000000
vt 0.080267 0.132886
vt 0.080267 0.000000
vt 0.057684 0.132886
vt 0.057684 0.000000
vt 0.038680 0.132886
vt 0.038680 0.000000
vt 0.693962 0.132886
vt 0.674756 0.132886
vt 0.674756 0.000000
vt 0.693962 0.000000
vt 0.652101 0.132886
vt 0.652101 0.000000
vt 0.629446 0.132886
vt 0.629446 0.000000
vt 0.610240 0.132886
vt 0.610240 0.000000
vt 0.554220 0.132886
vt 0.535216 0.132886
vt 0.535216 0.000000
vt 0.554220 0.000000
vt 0.512634 0.132886
vt 0.512634 0.000000
vt 0.489911 0.132886
vt 0.489911 0.000000
vt 0.470508 0.132886
vt 0.470508 0.000000
vt 0.930808 0.564766
vt 0.911602 0.564766
vt 0.911602 0.431880
vt 0.930808 0.431880
vt 0.911602 0.647152
vt 0.930808 0.647152
vt 0.930808 0.780038
vt 0.911602 0.780038
vt 0.470508 0.298994
vt 0.489911 0.298994
vt 0.489911 0.431880
vt 0.470508 0.431880
vt 0.512634 0.298994
vt 0.512634 0.431880
vt 0.535216 0.298994
vt 0.535216 0.431880
vt 0.554220 0.298994
vt 0.554220 0.431880
vt 0.610240 0.298994
vt 0.629446 0.298994
vt 0.629446 0.431880
vt 0.610240 0.431880
vt 0.652101 0.298994
vt 0.652101 0.431880
vt 0.674756 0.298994
vt 0.674756 0.431880
vt 0.693962 0.298994
vt 0.693962 0.431880
vt 0.038680 0.298994
vt 0.057684 0.298994
vt 0.057684 0.431880
vt 0.038680 0.431880
vt 0.080267 0.298994
vt 0.080267 0.431880
vt 0.102989 0.298994
vt 0.102989 0.431880
vt 0.122392 0.298994
vt 0.122392 0.431880
vt 0.847086 0.647152
vt 0.866292 0.647152
vt 0.866292 0.780038
vt 0.847086 0.780038
vt 0.888947 0.647152
vt 0.888947 0.780038
vt 0.574440 0.674283
vt 0.596868 0.678744
vt 0.596868 0.703189
vt 0.565717 0.703189
vt 0.555426 0.661578
vt 0.539309 0.703189
vt 0.538062 0.642564
vt 0.538260 0.661578
vt 0.515839 0.703189
vt 0.489160 0.703189
vt 0.537993 0.620136
vt 0.457916 0.703189
vt 0.457916 0.620136
vt 0.638311 0.661578
vt 0.654427 0.703189
vt 0.628019 0.703189
vt 0.619297 0.674283
vt 0.000198 0.642564
vt 0.049100 0.703190
vt 0.022420 0.703190
vt -0.000000 0.661578
vt 0.000267 0.620136
vt 0.080343 0.703190
vt 0.080343 0.620136
vt 0.163291 0.651287
vt 0.111394 0.703190
vt 0.163387 0.620136
vt 0.163017 0.677695
vt 0.137525 0.703190
vt 0.524744 0.914172
vt 0.524744 0.922032
vt 0.498336 0.939677
vt 0.498336 0.914146
vt 0.555895 0.914180
vt 0.555895 0.915835
vt 0.587046 0.914172
vt 0.587046 0.922032
vt 0.613454 0.914146
vt 0.613454 0.939677
vt 0.374969 0.651287
vt 0.426865 0.703189
vt 0.400734 0.703189
vt 0.375243 0.677695
vt 0.374872 0.620136
vt 0.538260 0.578693
vt 0.538062 0.597707
vt 0.489160 0.537082
vt 0.515839 0.537082
vt 0.574440 0.565988
vt 0.555426 0.578693
vt 0.539309 0.537082
vt 0.565717 0.537082
vt 0.596868 0.561527
vt 0.596868 0.537082
vt 0.619297 0.565988
vt 0.628019 0.537082
vt 0.638311 0.578693
vt 0.654427 0.537082
vt 0.000198 0.597707
vt -0.000000 0.578693
vt 0.022420 0.537082
vt 0.049100 0.537082
vt 0.080343 0.537082
vt 0.163017 0.562576
vt 0.163291 0.588985
vt 0.111394 0.537082
vt 0.137525 0.537082
vt 0.409626 0.833897
vt 0.383217 0.833922
vt 0.383217 0.808391
vt 0.409626 0.826037
vt 0.440777 0.833888
vt 0.440777 0.832233
vt 0.471927 0.833897
vt 0.471927 0.826037
vt 0.498336 0.833922
vt 0.498336 0.808391
vt 0.374969 0.588985
vt 0.375243 0.562576
vt 0.400735 0.537082
vt 0.426865 0.537082
vt 0.457916 0.537082
vt 0.674756 0.270634
vt 0.652101 0.275141
vt 0.693962 0.257801
vt 0.013902 0.238595
vt 0.014101 0.257801
vt 0.013831 0.215940
vt 0.079713 0.215940
vt 0.610240 0.257801
vt 0.629446 0.270634
vt 0.578999 0.238595
vt 0.578799 0.257801
vt 0.579069 0.215940
vt 0.513187 0.215940
vt 0.911602 0.618792
vt 0.930808 0.605959
vt 0.888947 0.623299
vt 0.866292 0.618792
vt 0.847086 0.605959
vt 0.014101 0.174079
vt 0.013902 0.193285
vt 0.674756 0.161246
vt 0.693962 0.174079
vt 0.652101 0.156739
vt 0.629446 0.161246
vt 0.610240 0.174079
vt 0.578999 0.193285
vt 0.578799 0.174079
vt 0.922117 0.132892
vt 0.922117 0.000006
vt 0.866292 0.593126
vt 0.888947 0.588619
vt 0.847086 0.605959
vt 0.902910 0.132911
vt 0.902910 0.000025
vt 0.911602 0.593126
vt 0.930808 0.605959
vt 0.426312 0.808391
vt 0.400181 0.808391
vt 0.457362 0.808391
vt 0.488606 0.808391
vt 0.515285 0.808391
vt 0.565717 0.808391
vt 0.539309 0.808391
vt 0.596868 0.808391
vt 0.628019 0.808391
vt 0.654427 0.808391
vt 0.049654 0.808391
vt 0.022974 0.808391
vt 0.080897 0.808391
vt 0.111948 0.808391
vt 0.138079 0.808391
vt 0.760679 0.930216
vt 0.760679 0.903808
vt 0.865880 0.903808
vt 0.865880 0.930216
vt 0.760679 0.872657
vt 0.865880 0.872657
vt 0.760679 0.841506
vt 0.865880 0.841506
vt 0.760679 0.815098
vt 0.865880 0.815098
vt 0.555895 0.808425
vt 0.587046 0.808416
vt 0.524744 0.808416
vt 0.498336 0.808391
vt 0.269033 0.651287
vt 0.268759 0.677695
vt 0.269130 0.620136
vt 0.269033 0.588985
vt 0.268759 0.562576
vt 0.409626 0.939652
vt 0.383217 0.939677
vt 0.440777 0.939643
vt 0.471927 0.939652
vt 0.498336 0.939677
vt 0.269226 0.588985
vt 0.269500 0.562576
vt 0.269130 0.620136
vt 0.269226 0.651287
vt 0.269500 0.677695
vt 0.613454 0.808391
vt 0.655477 0.872657
vt 0.655477 0.841506
vt 0.655477 0.903808
vt 0.655477 0.930216
vt 0.111948 0.431880
vt 0.138079 0.431880
vt 0.080897 0.431880
vt 0.049654 0.431880
vt 0.022974 0.431880
vt 0.628019 0.431880
vt 0.654427 0.431880
vt 0.596868 0.431880
vt 0.565717 0.431880
vt 0.539309 0.431880
vt 0.488606 0.431880
vt 0.515285 0.431880
vt 0.457362 0.431880
vt 0.426312 0.431880
vt 0.400181 0.431880
vt 0.655477 0.815098
vt 0.654982 0.850252
vt 0.654988 0.872681
vt 0.641145 0.872907
vt 0.641139 0.850252
vt 0.655007 0.891695
vt 0.641164 0.892114
vt 0.000267 0.257383
vt 0.000069 0.238369
vt -0.000000 0.215940
vt 0.000069 0.193511
vt 0.000267 0.174497
vt 0.930809 0.789746
vt 0.930827 0.770732
vt 0.944670 0.770958
vt 0.944651 0.790164
vt 0.930833 0.748303
vt 0.944676 0.748303
vt 0.930827 0.725874
vt 0.944670 0.725648
vt 0.930809 0.706860
vt 0.944651 0.706442
vt 0.592633 0.174497
vt 0.592831 0.193511
vt 0.592900 0.215940
vt 0.592831 0.238369
vt 0.592633 0.257383
vt 0.655007 0.808810
vt 0.654988 0.827824
vt 0.641145 0.827597
vt 0.641164 0.808391
vt 0.611821 0.582232
vt 0.581916 0.582232
vt 0.624497 0.591126
vt 0.632967 0.604436
vt 0.651016 0.597707
vt 0.635941 0.620136
vt 0.655477 0.620136
vt 0.632967 0.635836
vt 0.651016 0.642564
vt 0.560770 0.635836
vt 0.569240 0.649145
vt 0.542721 0.642564
vt 0.581916 0.658039
vt 0.611821 0.658039
vt 0.706795 0.238595
vt 0.597407 0.238595
vt 0.711302 0.215940
vt 0.592900 0.215940
vt 0.597407 0.193285
vt 0.706795 0.193285
vt 0.624497 0.649145
vt 0.538259 0.620136
vt 0.557796 0.620136
vt 0.542721 0.597707
vt 0.560770 0.604436
vt 0.569240 0.591126
s 1
f 15/1/1 14/2/1 30/3/1 31/4/1
f 2/5/1 1/6/1 18/7/1 17/8/1
f 16/9/1 15/1/1 31/4/1 32/10/1
f 3/11/1 2/5/1 17/8/1 19/12/1
f 1/6/1 16/9/1 32/10/1 18/7/1
f 4/13/1 3/11/1 19/12/1 20/14/1
f 5/15/1 4/13/1 20/14/1 21/16/1
f 6/17/1 5/15/1 21/16/1 22/18/1
f 7/19/1 6/17/1 22/18/1 23/20/1
f 8/21/1 7/19/1 23/20/1 24/22/1
f 9/23/1 8/21/1 24/22/1 25/24/1
f 10/25/1 9/23/1 25/24/1 26/26/1
f 11/27/1 10/25/1 26/26/1 27/28/1
f 12/29/1 11/27/1 27/28/1 28/30/1
f 13/31/1 12/29/1 28/30/1 29/32/1
f 14/2/1 13/31/1 29/32/1 30/3/1
f 49/33/2 50/34/2 51/35/2
f 52/36/3 53/37/3 54/38/3
f 55/39/4 56/40/4 57/41/4
f 58/42/5 59/43/5 60/44/5
f 61/45/6 62/46/6 63/47/6
f 64/48/7 65/49/7 66/50/7
f 67/51/8 68/52/8 69/53/8
f 70/54/9 71/55/9 72/56/9
f 73/57/10 74/58/10 75/59/10
f 76/60/11 77/61/11 78/62/11
f 79/63/12 80/64/12 81/65/12
f 82/66/13 83/67/13 84/68/13
f 85/69/14 86/70/14 87/71/14
f 88/72/15 89/73/15 90/74/15
f 91/75/16 92/76/16 93/77/16
f 94/78/17 95/79/17 96/80/17
f 97/81/18 98/82/18 99/83/18
f 100/84/19 101/85/19 102/86/19
f 103/87/20 104/88/20 105/89/20
f 106/90/21 107/91/21 108/92/21
f 109/93/22 110/94/22 111/95/22
f 112/96/23 113/97/23 114/98/23
f 115/99/24 116/100/24 117/101/24
f 118/102/25 119/103/25 120/104/25
f 121/105/26 122/106/26 123/107/26
f 124/108/27 125/109/27 126/110/27
f 127/111/28 128/112/28 129/113/28
f 130/114/29 131/115/29 132/116/29
f 133/117/30 134/118/30 135/119/30
f 136/120/31 137/121/31 138/122/31
f 139/123/32 140/124/32 141/125/32
f 142/126/33 143/127/33 144/128/33
f 51/129/34 53/130/34 52/131/34 49/132/34
f 57/41/35 51/129/35 50/133/35 55/39/35
f 60/134/36 57/41/36 56/40/36 58/135/36
f 63/136/37 60/134/37 59/137/37 61/138/37
f 66/139/38 63/136/38 62/140/38 64/141/38
f 69/53/39 66/139/39 65/142/39 67/51/39
f 72/143/40 69/53/40 68/52/40 70/144/40
f 75/145/41 72/143/41 71/146/41 73/147/41
f 78/148/42 75/145/42 74/149/42 76/150/42
f 81/65/43 78/148/43 77/151/43 79/63/43
f 84/152/44 81/65/44 80/64/44 82/153/44
f 87/154/45 84/152/45 83/155/45 85/156/45
f 90/157/46 87/154/46 86/158/46 88/159/46
f 93/77/47 90/157/47 89/160/47 91/75/47
f 96/161/48 93/77/48 92/76/48 94/162/48
f 53/130/49 96/161/49 95/163/49 54/164/49
f 99/83/50 74/58/50 73/57/50 97/81/50
f 102/86/51 50/34/51 49/33/51 100/84/51
f 105/89/52 77/61/52 76/60/52 103/87/52
f 108/165/53 56/166/53 55/167/53 106/168/53
f 111/169/54 80/170/54 79/171/54 109/172/54
f 114/98/55 59/43/55 58/42/55 112/96/55
f 117/101/56 83/67/56 82/66/56 115/99/56
f 120/104/57 62/46/57 61/45/57 118/102/57
f 123/107/58 86/70/58 85/69/58 121/105/58
f 126/110/59 65/49/59 64/48/59 124/108/59
f 129/113/60 89/73/60 88/72/60 127/111/60
f 132/173/61 68/174/61 67/175/61 130/176/61
f 135/177/62 92/178/62 91/179/62 133/180/62
f 70/54/63 137/121/63 136/120/63 71/55/63
f 54/38/64 140/124/64 139/123/64 52/36/64
f 94/78/65 143/127/65 142/126/65 95/79/65
f 143/181/66 135/119/66 134/118/66 144/182/66
f 137/183/67 132/116/67 131/115/67 138/184/67
f 133/117/68 129/185/68 128/186/68 134/118/68
f 130/114/69 126/187/69 125/188/69 131/115/69
f 127/189/70 123/190/70 122/191/70 128/186/70
f 124/192/71 120/193/71 119/194/71 125/188/71
f 121/195/72 117/196/72 116/197/72 122/191/72
f 118/198/73 114/199/73 113/200/73 119/194/73
f 115/201/74 111/95/74 110/94/74 116/197/74
f 112/202/75 108/92/75 107/91/75 113/200/75
f 109/93/76 105/203/76 104/204/76 110/94/76
f 106/90/77 102/205/77 101/206/77 107/91/77
f 103/207/78 99/208/78 98/209/78 104/204/78
f 140/210/79 142/211/79 144/182/79 141/212/79
f 100/213/80 139/214/80 141/212/80 101/206/80
f 97/215/81 136/216/81 138/184/81 98/209/81
f 17/8/1 18/7/1 53/130/1 51/129/1
f 139/123/82 100/84/82 49/33/82 52/36/82
f 19/12/1 17/8/1 51/129/1 57/41/1
f 102/86/83 106/168/83 55/167/83 50/34/83
f 18/7/1 32/10/1 96/161/1 53/130/1
f 142/126/84 140/124/84 54/38/84 95/79/84
f 20/14/1 19/12/1 57/41/1 60/134/1
f 108/217/85 112/96/85 58/42/85 56/218/85
f 21/16/1 20/14/1 60/134/1 63/136/1
f 114/98/86 118/102/86 61/45/86 59/43/86
f 22/18/1 21/16/1 63/136/1 66/139/1
f 120/104/87 124/108/87 64/48/87 62/46/87
f 23/20/1 22/18/1 66/139/1 69/53/1
f 126/110/88 130/219/88 67/220/88 65/49/88
f 24/22/1 23/20/1 69/53/1 72/143/1
f 132/173/89 137/121/89 70/54/89 68/174/89
f 25/24/1 24/22/1 72/143/1 75/145/1
f 136/120/90 97/81/90 73/57/90 71/55/90
f 26/26/1 25/24/1 75/145/1 78/148/1
f 99/83/91 103/87/91 76/60/91 74/58/91
f 27/28/1 26/26/1 78/148/1 81/65/1
f 105/89/92 109/172/92 79/171/92 77/61/92
f 28/30/1 27/28/1 81/65/1 84/152/1
f 111/221/93 115/99/93 82/66/93 80/222/93
f 29/32/1 28/30/1 84/152/1 87/154/1
f 117/101/94 121/105/94 85/69/94 83/67/94
f 30/3/1 29/32/1 87/154/1 90/157/1
f 123/107/95 127/111/95 88/72/95 86/70/95
f 31/4/1 30/3/1 90/157/1 93/77/1
f 129/113/96 133/223/96 91/224/96 89/73/96
f 32/10/1 31/4/1 93/77/1 96/161/1
f 135/177/97 143/127/97 94/78/97 92/178/97
f 33/225/98 34/226/98 98/209/98 138/184/98
f 34/226/98 38/227/98 104/204/98 98/209/98
f 35/228/98 36/229/98 101/206/98 141/212/98
f 36/229/98 39/230/98 107/91/98 101/206/98
f 38/227/98 40/231/98 110/94/98 104/204/98
f 39/230/98 41/232/98 113/200/98 107/91/98
f 40/231/98 42/233/98 116/197/98 110/94/98
f 41/232/98 43/234/98 119/194/98 113/200/98
f 42/233/98 44/235/98 122/191/98 116/197/98
f 43/234/98 45/236/98 125/188/98 119/194/98
f 44/235/98 46/237/98 128/186/98 122/191/98
f 45/236/98 47/238/98 131/115/98 125/188/98
f 46/237/98 48/239/98 134/118/98 128/186/98
f 47/238/98 33/225/98 138/184/98 131/115/98
f 48/239/98 37/240/98 144/182/98 134/118/98
f 37/240/98 35/228/98 141/212/98 144/182/98
f 147/241/64 148/242/64 180/243/64 179/244/64
f 175/245/50 174/246/50 206/247/50 207/248/50
f 162/249/50 161/250/50 194/251/50 193/252/50
f 148/242/64 149/253/64 181/254/64 180/243/64
f 176/255/50 175/245/50 207/248/50 208/256/50
f 163/257/50 162/249/50 193/252/50 195/258/50
f 149/253/64 150/259/64 182/260/64 181/254/64
f 161/250/50 176/255/50 208/256/50 194/251/50
f 164/261/50 163/257/50 195/258/50 196/262/50
f 150/259/64 151/263/64 183/264/64 182/260/64
f 165/265/50 164/261/50 196/262/50 197/266/50
f 151/263/64 152/267/64 184/268/64 183/264/64
f 166/269/50 165/265/50 197/266/50 198/270/50
f 152/267/64 153/271/64 185/272/64 184/268/64
f 167/273/50 166/269/50 198/270/50 199/274/50
f 153/271/64 154/275/64 186/276/64 185/272/64
f 168/277/50 167/273/50 199/274/50 200/278/50
f 154/275/64 155/279/64 187/280/64 186/276/64
f 169/281/50 168/277/50 200/278/50 201/282/50
f 155/279/64 156/283/64 188/284/64 187/280/64
f 170/285/50 169/281/50 201/282/50 202/286/50
f 156/283/64 157/287/64 189/288/64 188/284/64
f 171/289/50 170/285/50 202/286/50 203/290/50
f 157/287/64 158/291/64 190/292/64 189/288/64
f 172/293/50 171/289/50 203/290/50 204/294/50
f 158/291/64 159/295/64 191/296/64 190/292/64
f 145/297/64 146/298/64 177/299/64 178/300/64
f 173/301/50 172/293/50 204/294/50 205/302/50
f 159/295/64 160/303/64 192/304/64 191/296/64
f 146/298/64 147/241/64 179/244/64 177/299/64
f 174/246/50 173/301/50 205/302/50 206/247/50
f 160/303/64 145/297/64 178/300/64 192/304/64
f 241/305/99 242/306/99 243/307/99
f 244/308/100 245/309/100 246/310/100
f 247/311/101 248/312/101 249/313/101
f 250/314/102 251/315/102 252/316/102
f 253/317/103 254/318/103 255/319/103
f 256/320/104 257/321/104 258/322/104
f 259/323/105 260/324/105 261/325/105
f 262/326/106 263/327/106 264/328/106
f 265/329/107 266/330/107 267/331/107
f 268/332/108 269/333/108 270/334/108
f 271/335/109 272/336/109 273/337/109
f 274/338/110 275/339/110 276/340/110
f 277/341/111 278/342/111 279/343/111
f 280/344/112 281/345/112 282/346/112
f 283/347/113 284/348/113 285/349/113
f 286/350/114 287/351/114 288/352/114
f 289/353/115 290/354/115 291/355/115
f 292/356/116 293/357/116 294/358/116
f 295/359/117 296/360/117 297/361/117
f 298/362/118 299/363/118 300/364/118
f 301/365/119 302/366/119 303/367/119
f 304/368/120 305/369/120 306/370/120
f 307/371/121 308/372/121 309/373/121
f 310/374/122 311/375/122 312/376/122
f 313/377/123 314/378/123 315/379/123
f 316/380/124 317/381/124 318/382/124
f 319/383/125 320/384/125 321/385/125
f 322/386/126 323/387/126 324/388/126
f 325/389/127 326/390/127 327/391/127
f 328/392/128 329/393/128 330/394/128
f 331/395/129 332/396/129 333/397/129
f 334/398/130 335/399/130 336/400/130
f 337/401/131 338/402/131 339/403/131
f 340/404/107 341/405/107 342/406/107
f 343/407/132 344/408/132 345/409/132
f 346/410/99 347/411/99 348/412/99
f 349/413/133 350/414/133 351/415/133
f 352/416/134 353/417/134 354/418/134
f 355/419/101 356/420/101 357/421/101
f 358/422/135 359/423/135 360/424/135
f 361/425/136 362/426/136 363/427/136
f 364/428/137 365/429/137 366/430/137
f 367/431/103 368/432/103 369/433/103
f 370/434/111 371/435/111 372/436/111
f 373/437/138 374/438/138 375/439/138
f 376/440/112 377/441/112 378/442/112
f 379/443/105 380/444/105 381/445/105
f 382/446/139 383/447/139 384/448/139
f 385/449/106 386/450/106 387/451/106
f 388/452/123 389/453/123 390/454/123
f 391/455/140 392/456/140 393/457/140
f 394/458/141 395/459/141 396/460/141
f 397/461/142 398/462/142 399/463/142
f 400/464/143 401/465/143 402/466/143
f 403/467/117 404/468/117 405/469/117
f 406/470/144 407/471/144 408/472/144
f 409/473/145 410/474/145 411/475/145
f 412/476/146 413/477/146 414/478/146
f 415/479/147 416/480/147 417/481/147
f 418/482/127 419/483/127 420/484/127
f 421/485/148 422/486/148 423/487/148
f 424/488/149 425/489/149 426/490/149
f 427/491/121 428/492/121 429/493/121
f 430/494/129 431/495/129 432/496/129
f 243/497/150 244/498/150 246/499/150 241/500/150
f 249/313/151 242/501/151 241/500/151 247/311/151
f 252/502/152 248/312/152 247/311/152 250/503/152
f 255/504/153 251/505/153 250/503/153 253/506/153
f 258/507/154 254/508/154 253/506/154 256/509/154
f 261/325/155 257/510/155 256/509/155 259/323/155
f 264/511/156 260/324/156 259/323/156 262/512/156
f 267/513/157 263/514/157 262/512/157 265/515/157
f 270/516/158 266/517/158 265/515/158 268/518/158
f 273/337/159 269/519/159 268/518/159 271/335/159
f 276/520/160 272/336/160 271/335/160 274/521/160
f 279/522/161 275/523/161 274/521/161 277/524/161
f 282/525/162 278/526/162 277/524/162 280/527/162
f 283/347/163 281/528/163 280/527/163 284/348/163
f 286/529/164 285/349/164 284/348/164 287/530/164
f 245/531/165 288/532/165 287/530/165 246/499/165
f 291/533/166 293/534/166 292/535/166 289/536/166
f 297/361/167 291/533/167 290/537/167 295/359/167
f 300/538/168 297/361/168 296/360/168 298/539/168
f 303/540/169 300/538/169 299/541/169 301/542/169
f 306/543/170 303/540/170 302/544/170 304/545/170
f 309/373/171 306/543/171 305/546/171 307/371/171
f 312/547/172 309/373/172 308/372/172 310/548/172
f 315/549/173 312/547/173 311/550/173 313/551/173
f 318/552/174 315/549/174 314/553/174 316/554/174
f 321/385/175 318/552/175 317/555/175 319/383/175
f 324/556/176 321/385/176 320/384/176 322/557/176
f 327/558/177 324/556/177 323/559/177 325/560/177
f 330/561/178 327/558/178 326/562/178 328/563/178
f 333/397/179 330/561/179 329/564/179 331/395/179
f 336/565/180 333/397/180 332/396/180 334/566/180
f 293/534/181 336/565/181 335/567/181 294/568/181
f 339/403/182 264/328/182 263/327/182 337/401/182
f 342/406/98 314/378/98 313/377/98 340/404/98
f 345/409/1 245/309/1 244/308/1 343/407/1
f 348/412/183 290/354/183 289/353/183 346/410/183
f 351/415/184 286/350/184 288/352/184 349/413/184
f 354/418/185 317/381/185 316/380/185 352/416/185
f 357/569/186 296/570/186 295/571/186 355/572/186
f 360/573/187 320/574/187 319/575/187 358/576/187
f 363/427/188 299/363/188 298/362/188 361/425/188
f 366/430/189 323/387/189 322/386/189 364/428/189
f 369/433/57 302/366/57 301/365/57 367/431/57
f 372/436/58 326/390/58 325/389/58 370/434/58
f 375/439/190 305/369/190 304/368/190 373/437/190
f 378/442/191 329/393/191 328/392/191 376/440/191
f 381/577/192 308/578/192 307/579/192 379/580/192
f 384/581/193 332/582/193 331/583/193 382/584/193
f 310/374/182 386/450/182 385/449/182 311/375/182
f 266/330/98 389/453/98 388/452/98 267/331/98
f 294/358/1 392/456/1 391/455/1 292/356/1
f 242/306/183 395/459/183 394/458/183 243/307/183
f 334/398/184 398/462/184 397/461/184 335/399/184
f 269/333/185 401/465/185 400/464/185 270/334/185
f 248/585/186 404/586/186 403/587/186 249/588/186
f 272/589/187 407/590/187 406/591/187 273/592/187
f 251/315/188 410/474/188 409/473/188 252/316/188
f 275/339/189 413/477/189 412/476/189 276/340/189
f 254/318/57 416/480/57 415/479/57 255/319/57
f 278/342/58 419/483/58 418/482/58 279/343/58
f 257/321/190 422/486/190 421/485/190 258/322/190
f 281/345/191 425/489/191 424/488/191 282/346/191
f 260/593/192 428/594/192 427/595/192 261/596/192
f 285/597/193 431/598/193 430/599/193 283/600/193
f 350/601/180 432/496/180 431/495/180 351/602/180
f 398/603/164 384/448/164 383/447/164 399/604/164
f 338/605/172 429/493/172 428/492/172 339/606/172
f 386/607/156 381/445/156 380/444/156 387/608/156
f 432/496/179 426/609/179 425/610/179 430/494/179
f 382/446/163 378/611/163 377/612/163 383/447/163
f 429/493/171 423/613/171 422/614/171 427/491/171
f 379/443/155 375/615/155 374/616/155 380/444/155
f 426/609/178 420/617/178 419/618/178 424/619/178
f 376/620/194 372/621/194 371/622/194 377/612/194
f 423/613/195 417/623/195 416/624/195 421/625/195
f 373/626/154 369/627/154 368/628/154 374/616/154
f 420/617/177 414/629/177 413/630/177 418/631/177
f 370/632/161 366/633/161 365/634/161 371/622/161
f 417/623/196 411/635/196 410/636/196 415/637/196
f 367/638/153 363/639/153 362/640/153 368/628/153
f 414/629/176 408/472/176 407/471/176 412/641/176
f 364/642/160 360/424/160 359/423/160 365/634/160
f 411/635/197 405/469/197 404/468/197 409/643/197
f 361/644/198 357/421/198 356/420/198 362/640/198
f 408/472/175 402/645/175 401/646/175 406/470/175
f 358/422/159 354/647/159 353/648/159 359/423/159
f 405/469/167 396/649/167 395/650/167 403/467/167
f 355/419/151 348/651/151 347/652/151 356/420/151
f 402/645/174 390/653/174 389/654/174 400/655/174
f 352/656/158 342/657/158 341/658/158 353/648/158
f 344/659/199 350/601/199 349/660/199 345/661/199
f 392/662/200 397/663/200 399/604/200 393/664/200
f 396/649/201 344/659/201 343/665/201 394/666/201
f 346/667/202 391/668/202 393/664/202 347/652/202
f 390/653/173 338/605/173 337/669/173 388/670/173
f 340/671/157 385/672/157 387/608/157 341/658/157
f 244/308/203 243/307/203 394/458/203 343/407/203
f 177/299/64 179/244/64 247/311/64 241/500/64
f 178/300/64 177/299/64 241/500/64 246/499/64
f 242/306/204 249/588/204 403/587/204 395/459/204
f 192/304/64 178/300/64 246/499/64 287/530/64
f 288/352/205 245/309/205 345/409/205 349/413/205
f 179/244/64 180/243/64 250/503/64 247/311/64
f 248/569/206 252/316/206 409/473/206 404/570/206
f 251/315/207 255/319/207 415/479/207 410/474/207
f 180/243/64 181/254/64 253/506/64 250/503/64
f 254/318/208 258/322/208 421/485/208 416/480/208
f 181/254/64 182/260/64 256/509/64 253/506/64
f 257/321/209 261/596/209 427/595/209 422/486/209
f 182/260/64 183/264/64 259/323/64 256/509/64
f 260/673/210 264/328/210 339/403/210 428/674/210
f 183/264/64 184/268/64 262/512/64 259/323/64
f 263/327/211 267/331/211 388/452/211 337/401/211
f 184/268/64 185/272/64 265/515/64 262/512/64
f 266/330/212 270/334/212 400/464/212 389/453/212
f 185/272/64 186/276/64 268/518/64 265/515/64
f 269/333/213 273/675/213 406/676/213 401/465/213
f 186/276/64 187/280/64 271/335/64 268/518/64
f 272/589/214 276/340/214 412/476/214 407/590/214
f 187/280/64 188/284/64 274/521/64 271/335/64
f 275/339/215 279/343/215 418/482/215 413/477/215
f 188/284/64 189/288/64 277/524/64 274/521/64
f 278/342/216 282/346/216 424/488/216 419/483/216
f 189/288/64 190/292/64 280/527/64 277/524/64
f 281/345/217 283/677/217 430/678/217 425/489/217
f 190/292/64 191/296/64 284/348/64 280/527/64
f 285/597/218 286/350/218 351/415/218 431/598/218
f 191/296/64 192/304/64 287/530/64 284/348/64
f 193/252/50 194/251/50 293/534/50 291/533/50
f 391/455/203 346/410/203 289/353/203 292/356/203
f 195/258/50 193/252/50 291/533/50 297/361/50
f 348/412/204 355/572/204 295/571/204 290/354/204
f 194/251/50 208/256/50 336/565/50 293/534/50
f 397/461/205 392/456/205 294/358/205 335/399/205
f 196/262/50 195/258/50 297/361/50 300/538/50
f 357/679/206 361/425/206 298/362/206 296/680/206
f 197/266/50 196/262/50 300/538/50 303/540/50
f 363/427/207 367/431/207 301/365/207 299/363/207
f 198/270/50 197/266/50 303/540/50 306/543/50
f 369/433/208 373/437/208 304/368/208 302/366/208
f 199/274/50 198/270/50 306/543/50 309/373/50
f 375/439/209 379/580/209 307/579/209 305/369/209
f 200/278/50 199/274/50 309/373/50 312/547/50
f 381/675/210 386/450/210 310/374/210 308/676/210
f 201/282/50 200/278/50 312/547/50 315/549/50
f 385/449/211 340/404/211 313/377/211 311/375/211
f 202/286/50 201/282/50 315/549/50 318/552/50
f 342/406/212 352/416/212 316/380/212 314/378/212
f 203/290/50 202/286/50 318/552/50 321/385/50
f 354/418/213 358/681/213 319/682/213 317/381/213
f 204/294/50 203/290/50 321/385/50 324/556/50
f 360/573/214 364/428/214 322/386/214 320/574/214
f 205/302/50 204/294/50 324/556/50 327/558/50
f 366/430/215 370/434/215 325/389/215 323/387/215
f 206/247/50 205/302/50 327/558/50 330/561/50
f 372/436/216 376/440/216 328/392/216 326/390/216
f 207/248/50 206/247/50 330/561/50 333/397/50
f 378/442/217 382/683/217 331/684/217 329/393/217
f 208/256/50 207/248/50 333/397/50 336/565/50
f 384/581/218 398/462/218 334/398/218 332/582/218
f 211/685/50 210/686/50 338/605/50 390/653/50
f 210/686/50 237/687/50 429/493/50 338/605/50
f 209/688/64 212/689/64 341/658/64 387/608/64
f 212/689/64 220/690/64 353/648/64 341/658/64
f 215/691/50 214/692/50 344/659/50 396/649/50
f 214/692/50 218/693/50 350/601/50 344/659/50
f 213/694/64 216/695/64 347/652/64 393/664/64
f 216/695/64 222/696/64 356/420/64 347/652/64
f 218/693/50 239/697/50 432/496/50 350/601/50
f 220/690/64 224/698/64 359/423/64 353/648/64
f 222/696/64 226/699/64 362/640/64 356/420/64
f 224/698/64 228/700/64 365/634/64 359/423/64
f 226/699/64 230/701/64 368/628/64 362/640/64
f 228/700/64 232/702/64 371/622/64 365/634/64
f 230/701/64 234/703/64 374/616/64 368/628/64
f 232/702/64 236/704/64 377/612/64 371/622/64
f 234/703/64 238/705/64 380/444/64 374/616/64
f 236/704/64 240/706/64 383/447/64 377/612/64
f 238/705/64 209/688/64 387/608/64 380/444/64
f 240/706/64 217/707/64 399/604/64 383/447/64
f 219/708/50 211/685/50 390/653/50 402/645/50
f 217/707/64 213/694/64 393/664/64 399/604/64
f 221/709/50 215/691/50 396/649/50 405/469/50
f 223/710/50 219/708/50 402/645/50 408/472/50
f 225/711/50 221/709/50 405/469/50 411/635/50
f 227/712/50 223/710/50 408/472/50 414/629/50
f 229/713/50 225/711/50 411/635/50 417/623/50
f 231/714/50 227/712/50 414/629/50 420/617/50
f 233/715/50 229/713/50 417/623/50 423/613/50
f 235/716/50 231/714/50 420/617/50 426/609/50
f 237/687/50 233/715/50 423/613/50 429/493/50
f 239/697/50 235/716/50 426/609/50 432/496/50
f 481/717/90 495/718/90 16/719/90 1/720/90
f 495/718/89 494/721/89 15/722/89 16/719/89
f 494/723/88 493/724/88 14/725/88 15/726/88
f 493/724/87 492/727/87 13/728/87 14/725/87
f 492/727/86 491/729/86 12/730/86 13/728/86
f 491/729/85 490/731/85 11/732/85 12/730/85
f 490/733/83 489/734/83 10/735/83 11/736/83
f 489/734/82 488/737/82 9/738/82 10/735/82
f 487/739/96 486/740/96 6/741/96 7/732/96
f 486/740/95 485/742/95 5/743/95 6/741/95
f 485/742/94 484/744/94 4/745/94 5/743/94
f 484/744/93 483/746/93 3/726/93 4/745/93
f 483/747/92 482/748/92 2/749/92 3/750/92
f 482/748/91 481/717/91 1/720/91 2/749/91
f 449/751/211 464/752/211 176/753/211 161/754/211
f 464/752/210 463/755/210 175/756/210 176/753/210
f 463/757/209 462/758/209 174/759/209 175/760/209
f 462/758/208 461/761/208 173/762/208 174/759/208
f 461/761/207 460/763/207 172/764/207 173/762/207
f 460/763/206 459/765/206 171/766/206 172/764/206
f 459/767/204 458/768/204 170/769/204 171/770/204
f 458/768/203 457/771/203 169/772/203 170/769/203
f 457/771/205 456/773/205 168/774/205 169/772/205
f 456/773/218 455/775/218 167/776/218 168/774/218
f 455/777/217 454/778/217 166/779/217 167/780/217
f 454/778/216 453/781/216 165/782/216 166/779/216
f 453/781/215 452/783/215 164/784/215 165/782/215
f 452/783/214 451/785/214 163/786/214 164/784/214
f 451/787/213 450/788/213 162/789/213 163/790/213
f 450/788/212 449/751/212 161/754/212 162/789/212
f 434/791/213 435/792/213 147/793/213 146/794/213
f 435/795/214 436/796/214 148/797/214 147/798/214
f 436/796/215 437/799/215 149/800/215 148/797/215
f 437/799/216 438/801/216 150/802/216 149/800/216
f 438/801/217 439/803/217 151/804/217 150/802/217
f 439/805/218 440/806/218 152/807/218 151/808/218
f 440/806/205 441/809/205 153/810/205 152/807/205
f 441/809/203 442/811/203 154/812/203 153/810/203
f 442/811/204 443/813/204 155/814/204 154/812/204
f 443/815/206 444/816/206 156/817/206 155/818/206
f 444/816/207 445/819/207 157/820/207 156/817/207
f 445/819/208 446/821/208 158/822/208 157/820/208
f 446/821/209 447/823/209 159/824/209 158/822/209
f 447/825/210 448/826/210 160/827/210 159/828/210
f 448/826/211 433/829/211 145/830/211 160/827/211
f 433/829/212 434/791/212 146/794/212 145/830/212
f 500/831/219 498/832/219 546/833/219 548/834/219
f 511/835/220 500/831/220 548/834/220 559/836/220
f 509/837/221 511/838/221 559/839/221 557/840/221
f 507/841/222 509/837/222 557/840/222 555/842/222
f 507/841/223 555/842/223 560/843/223
f 502/844/224 550/845/224 547/846/224 499/847/224
f 504/848/225 552/849/225 550/850/225 502/851/225
f 506/852/226 554/853/226 552/849/226 504/848/226
f 506/852/227 561/854/227 554/853/227
f 499/847/228 547/846/228 546/833/228 498/832/228
f 520/855/229 556/856/229 554/853/229 522/857/229
f 518/858/230 558/859/230 556/856/230 520/855/230
f 515/860/231 544/861/231 558/862/231 518/863/231
f 514/864/232 545/865/232 544/861/232 515/860/232
f 516/866/233 549/867/233 545/865/233 514/864/233
f 527/868/234 551/869/234 549/867/234 516/866/234
f 525/870/235 553/871/235 551/872/235 527/873/235
f 523/874/236 555/842/236 553/871/236 525/870/236
f 560/843/58 555/842/58 523/874/58
f 561/854/57 522/857/57 554/853/57
f 503/875/237 505/876/237 541/877/237 543/878/237
f 501/879/238 503/880/238 543/881/238 532/882/238
f 497/883/239 501/879/239 532/882/239 530/884/239
f 496/885/240 497/883/240 530/884/240 531/886/240
f 510/887/241 496/885/241 531/886/241 534/888/241
f 508/889/242 510/890/242 534/891/242 536/892/242
f 506/852/243 508/889/243 536/892/243 538/893/243
f 506/852/227 538/893/227 561/854/227
f 526/894/244 524/895/244 540/896/244 542/897/244
f 512/898/245 526/899/245 542/900/245 528/901/245
f 513/902/246 512/898/246 528/901/246 529/903/246
f 517/904/247 513/902/247 529/903/247 533/905/247
f 519/906/248 517/904/248 533/905/248 535/907/248
f 521/908/249 519/909/249 535/910/249 537/911/249
f 523/874/250 521/908/250 537/911/250 539/912/250
f 523/874/58 539/912/58 560/843/58
f 560/843/223 539/912/223 507/841/223
f 505/876/251 507/841/251 539/912/251 541/877/251
f 524/895/252 522/857/252 538/893/252 540/896/252
f 538/893/57 522/857/57 561/854/57
f 480/913/253 442/811/253 441/809/253 465/914/253
f 479/915/254 443/813/254 442/811/254 480/913/254
f 478/916/255 444/816/255 443/815/255 479/917/255
f 477/918/256 445/819/256 444/816/256 478/916/256
f 477/918/257 563/919/57 445/819/258
f 467/920/259 466/921/259 440/806/259 439/805/259
f 468/922/260 467/923/260 439/803/260 438/801/260
f 469/924/261 468/922/261 438/801/261 437/799/261
f 469/924/262 437/799/263 564/925/58
f 466/921/264 465/914/264 441/809/264 440/806/264
f 484/744/265 485/742/265 437/799/265 436/796/265
f 483/746/266 484/744/266 436/796/266 435/795/266
f 482/926/267 483/927/267 435/792/267 434/791/267
f 481/928/268 482/926/268 434/791/268 433/829/268
f 495/929/269 481/928/269 433/829/269 448/826/269
f 494/930/270 495/929/270 448/826/270 447/825/270
f 493/724/271 494/723/271 447/823/271 446/821/271
f 492/727/272 493/724/272 446/821/272 445/819/272
f 563/919/57 492/727/273 445/819/258
f 564/925/58 437/799/263 485/742/274
f 475/931/275 459/765/275 460/763/275 476/932/275
f 474/933/276 458/768/276 459/767/276 475/934/276
f 473/935/277 457/771/277 458/768/277 474/933/277
f 472/936/278 456/773/278 457/771/278 473/935/278
f 471/937/279 455/775/279 456/773/279 472/936/279
f 470/938/280 454/778/280 455/777/280 471/939/280
f 469/924/281 453/781/281 454/778/281 470/938/281
f 469/924/262 564/925/58 453/781/282
f 487/739/283 451/785/283 452/783/283 486/740/283
f 9/738/84 488/737/84 562/940/84 8/941/84
f 489/942/284 464/752/284 449/751/284 488/943/284
f 490/944/285 463/755/285 464/752/285 489/942/285
f 491/729/286 462/758/286 463/757/286 490/731/286
f 492/727/287 461/761/287 462/758/287 491/729/287
f 492/727/273 563/919/57 461/761/288
f 563/919/57 477/918/257 461/761/288
f 476/932/289 460/763/289 461/761/289 477/918/289
f 486/740/290 452/783/290 453/781/290 485/742/290
f 453/781/282 564/925/58 485/742/274
f 8/941/97 562/940/97 487/945/97 7/946/97
f 449/751/291 450/788/291 562/947/291 488/943/291
f 450/788/292 451/787/292 487/948/292 562/947/292
f 551/872/293 553/871/293 235/949/293 239/950/293
f 553/871/294 555/842/294 231/951/294 235/949/294
f 555/842/295 557/840/295 227/952/295 231/951/295
f 557/840/296 559/839/296 223/953/296 227/952/296
f 559/836/297 548/834/297 219/954/297 223/955/297
f 548/834/298 546/833/298 211/956/298 219/954/298
f 546/833/299 547/846/299 210/957/299 211/956/299
f 547/846/300 550/845/300 237/958/300 210/957/300
f 550/850/301 552/849/301 233/959/301 237/960/301
f 552/849/302 554/853/302 229/961/302 233/959/302
f 554/853/303 556/856/303 225/962/303 229/961/303
f 556/856/304 558/859/304 221/963/304 225/962/304
f 558/964/305 544/965/305 215/966/305 221/967/305
f 544/965/306 545/968/306 214/969/306 215/966/306
f 545/968/307 549/970/307 218/971/307 214/969/307
f 549/970/308 551/972/308 239/973/308 218/971/308
f 516/866/84 514/864/84 35/974/84 37/975/84
f 514/864/82 515/860/82 36/976/82 35/974/82
f 515/860/83 518/863/83 39/977/83 36/976/83
f 518/858/85 520/855/85 41/978/85 39/979/85
f 520/855/86 522/857/86 43/980/86 41/978/86
f 522/857/87 524/895/87 45/981/87 43/980/87
f 524/895/88 526/894/88 47/982/88 45/981/88
f 526/899/89 512/898/89 33/983/89 47/984/89
f 512/898/90 513/902/90 34/985/90 33/983/90
f 513/902/91 517/904/91 38/986/91 34/985/91
f 517/904/92 519/906/92 40/987/92 38/986/92
f 519/909/93 521/908/93 42/988/93 40/989/93
f 521/908/94 523/874/94 44/990/94 42/988/94
f 523/874/95 525/870/95 46/991/95 44/990/95
f 525/870/96 527/873/96 48/992/96 46/991/96
f 527/868/97 516/866/97 37/975/97 48/993/97
f 533/970/309 529/968/309 213/994/309 217/995/309
f 529/968/310 528/965/310 216/996/310 213/994/310
f 528/965/311 542/964/311 222/997/311 216/996/311
f 542/897/312 540/896/312 226/998/312 222/999/312
f 540/896/313 538/893/313 230/1000/313 226/998/313
f 538/893/314 536/892/314 234/1001/314 230/1000/314
f 536/892/315 534/891/315 238/1002/315 234/1001/315
f 534/888/316 531/886/316 209/1003/316 238/1004/316
f 531/886/317 530/884/317 212/1005/317 209/1003/317
f 530/884/318 532/882/318 220/1006/318 212/1005/318
f 532/882/319 543/881/319 224/1007/319 220/1006/319
f 543/878/320 541/877/320 228/1008/320 224/1009/320
f 541/877/321 539/912/321 232/1010/321 228/1008/321
f 539/912/322 537/911/322 236/1011/322 232/1010/322
f 537/911/323 535/910/323 240/1012/323 236/1011/323
f 535/972/324 533/970/324 217/995/324 240/1013/324
f 498/1014/325 500/1015/325 480/1016/325 465/1017/325
f 500/1015/326 511/1018/326 479/1019/326 480/1016/326
f 511/1020/327 509/1021/327 478/916/327 479/917/327
f 509/1021/328 507/1022/328 477/918/328 478/916/328
f 507/1022/329 505/1023/329 476/932/329 477/918/329
f 505/1023/330 503/1024/330 475/931/330 476/932/330
f 503/1025/331 501/1026/331 474/1027/331 475/1028/331
f 501/1026/332 497/1029/332 473/1030/332 474/1027/332
f 497/1029/333 496/1031/333 472/1032/333 473/1030/333
f 496/1031/334 510/1033/334 471/1034/334 472/1032/334
f 510/1035/335 508/1036/335 470/938/335 471/939/335
f 508/1036/336 506/1037/336 469/924/336 470/938/336
f 506/1037/337 504/1038/337 468/922/337 469/924/337
f 504/1038/338 502/1039/338 467/923/338 468/922/338
f 502/1040/339 499/1041/339 466/1042/339 467/1043/339
f 499/1041/340 498/1014/340 465/1017/340 466/1042/340
f 496/885/341 577/1044/341 578/1045/341 501/879/341 497/883/341
f 576/1046/342 577/1044/342 496/885/342 510/887/342
f 574/1047/343 576/1046/343 510/887/343 508/1048/343
f 565/1049/344 574/1047/344 508/1048/344 506/1050/344
f 567/1051/345 565/1049/345 506/1050/345 504/1052/345
f 568/1053/346 570/1054/346 511/835/346 509/1055/346
f 570/1054/347 572/1056/347 500/831/347 511/835/347
f 499/847/348 498/832/348 500/831/348 572/1056/348 571/1057/348
f 479/915/1 480/913/1 466/921/1 467/920/1
f 478/1058/1 479/915/1 467/920/1 468/1059/1
f 477/1060/1 478/1058/1 468/1059/1 469/1061/1
f 469/1061/1 470/1062/1 476/1063/1 477/1060/1
f 470/1062/1 471/937/1 475/934/1 476/1063/1
f 471/937/1 472/936/1 474/933/1 475/934/1
f 474/933/1 472/936/1 473/935/1
f 480/913/1 465/914/1 466/921/1
f 502/844/349 499/847/349 571/1057/349 569/1064/349
f 571/1057/98 572/1056/98 570/1054/98 569/1064/98
f 504/1052/350 502/844/350 569/1064/350 567/1051/350
f 569/1064/98 570/1054/98 568/1053/98 567/1051/98
f 509/1055/351 507/1065/351 566/1066/351 568/1053/351
f 565/1049/98 567/1051/98 568/1053/98 566/1066/98
f 507/1065/352 505/1067/352 573/1068/352 566/1066/352
f 573/1068/98 574/1047/98 565/1049/98 566/1066/98
f 505/1067/353 503/880/353 575/1069/353 573/1068/353
f 575/1069/98 576/1046/98 574/1047/98 573/1068/98
f 503/880/354 501/879/354 578/1045/354 575/1069/354
f 577/1044/98 576/1046/98 575/1069/98 578/1045/98
