# Blender 4.5.0
# www.blender.org
mtllib Pipe_EndCap.mtl
o Circle.005
v 1.625000 -0.624701 -0.445500
v 1.625000 -0.795187 -0.411588
v 1.625000 -0.939717 -0.315016
v 1.625000 -1.036290 -0.170486
v 1.625000 -1.070201 0.000000
v 1.625000 -1.036290 0.170486
v 1.625000 -0.939717 0.315016
v 1.625000 -0.795187 0.411588
v 1.625000 -0.624701 0.445500
v 1.625000 -0.454216 0.411588
v 1.625000 -0.309685 0.315016
v 1.625000 -0.213113 0.170486
v 1.625000 -0.179201 0.000000
v 1.625000 -0.213113 -0.170486
v 1.625000 -0.309685 -0.315016
v 1.625000 -0.454216 -0.411588
v -1.625000 -0.624701 0.000000
v 1.625000 -0.859119 -0.565934
v 1.625000 -0.624701 -0.612563
v 1.625000 -1.057848 -0.433147
v 1.625000 -1.190635 -0.234418
v 1.625000 -1.237264 0.000000
v 1.625000 -1.190635 0.234418
v 1.625000 -1.057848 0.433147
v 1.625000 -0.859119 0.565934
v 1.625000 -0.624701 0.612563
v 1.625000 -0.390284 0.565934
v 1.625000 -0.191554 0.433147
v 1.625000 -0.058767 0.234418
v 1.625000 -0.012139 0.000000
v 1.625000 -0.058767 -0.234418
v 1.625000 -0.191554 -0.433147
v 1.625000 -0.390284 -0.565934
v 1.416667 -0.859119 0.565934
v 1.416667 -0.624701 0.612563
v 1.416667 -0.624701 -0.612563
v 1.416667 -0.859119 -0.565934
v 1.416667 -0.390284 -0.565934
v 1.416667 -0.390284 0.565934
v 1.416667 -1.057848 -0.433147
v 1.416667 -0.191554 0.433147
v 1.416667 -1.190635 -0.234418
v 1.416667 -0.058767 0.234418
v 1.416667 -1.237264 0.000000
v 1.416667 -0.012139 0.000000
v 1.416667 -1.190635 0.234418
v 1.416667 -0.058767 -0.234418
v 1.416667 -1.057848 0.433147
v 1.416667 -0.191554 -0.433147
v 1.625000 -0.896248 -0.655571
v 1.600000 -0.926789 -0.665232
v 1.600000 -0.881483 -0.683998
v 1.600000 -0.649221 -0.730198
v 1.600000 -0.600182 -0.730198
v 1.625000 -0.624701 -0.709585
v 1.625000 -1.126454 -0.501753
v 1.600000 -1.158367 -0.498990
v 1.600000 -1.123691 -0.533666
v 1.625000 -1.280273 -0.271547
v 1.600000 -1.308699 -0.256781
v 1.600000 -1.289933 -0.302088
v 1.625000 -1.334287 0.000000
v 1.600000 -1.354899 0.024520
v 1.600000 -1.354899 -0.024520
v 1.625000 -1.280273 0.271547
v 1.600000 -1.289933 0.302088
v 1.600000 -1.308699 0.256781
v 1.625000 -1.126454 0.501753
v 1.600000 -1.123691 0.533666
v 1.600000 -1.158367 0.498990
v 1.625000 -0.896248 0.655571
v 1.600000 -0.881483 0.683998
v 1.600000 -0.926789 0.665232
v 1.625000 -0.624701 0.709585
v 1.600000 -0.600182 0.730198
v 1.600000 -0.649221 0.730198
v 1.625000 -0.353155 0.655571
v 1.600000 -0.322614 0.665232
v 1.600000 -0.367920 0.683998
v 1.625000 -0.122949 0.501753
v 1.600000 -0.091035 0.498990
v 1.600000 -0.125712 0.533666
v 1.625000 0.030870 0.271547
v 1.600000 0.059297 0.256781
v 1.600000 0.040530 0.302088
v 1.625000 0.084884 -0.000000
v 1.600000 0.105497 -0.024520
v 1.600000 0.105497 0.024520
v 1.625000 0.030870 -0.271547
v 1.600000 0.040530 -0.302088
v 1.600000 0.059297 -0.256781
v 1.600000 -0.091035 -0.498990
v 1.625000 -0.122949 -0.501753
v 1.600000 -0.125712 -0.533666
v 1.600000 -0.322614 -0.665232
v 1.625000 -0.353155 -0.655571
v 1.600000 -0.367920 -0.683998
v 1.441667 -0.881483 0.683998
v 1.416667 -0.896248 0.655571
v 1.441667 -0.926789 0.665232
v 1.441667 -0.649221 -0.730198
v 1.416667 -0.624701 -0.709585
v 1.441667 -0.600182 -0.730198
v 1.441667 -0.367920 -0.683998
v 1.416667 -0.353155 -0.655571
v 1.441667 -0.322614 -0.665232
v 1.441667 -0.649221 0.730198
v 1.441667 -0.600182 0.730198
v 1.416667 -0.624701 0.709585
v 1.441667 -0.881483 -0.683998
v 1.441667 -0.926789 -0.665232
v 1.416667 -0.896248 -0.655571
v 1.441667 -0.367920 0.683998
v 1.441667 -0.322614 0.665232
v 1.416667 -0.353155 0.655571
v 1.441667 -1.123691 -0.533666
v 1.441667 -1.158367 -0.498990
v 1.416667 -1.126454 -0.501753
v 1.441667 -0.125712 0.533666
v 1.441667 -0.091036 0.498990
v 1.416667 -0.122949 0.501753
v 1.441667 -1.289933 -0.302088
v 1.441667 -1.308699 -0.256781
v 1.416667 -1.280273 -0.271547
v 1.441667 0.040530 0.302088
v 1.441667 0.059297 0.256781
v 1.416667 0.030870 0.271547
v 1.441667 -1.354899 -0.024520
v 1.441667 -1.354899 0.024520
v 1.416667 -1.334287 0.000000
v 1.441667 0.105497 0.024520
v 1.441667 0.105497 -0.024520
v 1.416667 0.084884 -0.000000
v 1.441667 -1.308699 0.256781
v 1.441667 -1.289933 0.302088
v 1.416667 -1.280273 0.271547
v 1.441667 0.059297 -0.256781
v 1.441667 0.040530 -0.302088
v 1.416667 0.030870 -0.271547
v 1.441667 -1.158367 0.498990
v 1.441667 -1.123691 0.533666
v 1.416667 -1.126454 0.501753
v 1.441667 -0.091036 -0.498990
v 1.441667 -0.125712 -0.533666
v 1.416667 -0.122949 -0.501753
v -1.625000 -0.812235 0.452747
v -1.625000 -0.624701 0.490050
v -1.625000 -0.624701 -0.490050
v -1.625000 -0.812235 -0.452747
v -1.625000 -0.437167 -0.452747
v -1.625000 -0.437167 0.452747
v -1.625000 -0.971219 -0.346518
v -1.625000 -0.278184 0.346518
v -1.625000 -1.077449 -0.187534
v -1.625000 -0.171954 0.187534
v -1.625000 -1.114752 0.000000
v -1.625000 -0.134651 0.000000
v -1.625000 -1.077449 0.187534
v -1.625000 -0.171954 -0.187534
v -1.625000 -0.971219 0.346518
v -1.625000 -0.278184 -0.346518
v -1.320833 -0.859119 0.565934
v -1.320833 -0.624701 -0.612563
v -1.320833 -0.390284 -0.565934
v -1.320833 -0.624701 0.612563
v -1.320833 -0.859119 -0.565934
v -1.320833 -0.390284 0.565934
v -1.320833 -1.057849 -0.433147
v -1.320833 -0.191554 0.433147
v -1.320833 -1.190635 -0.234418
v -1.320833 -0.058767 0.234418
v -1.320833 -1.237264 0.000000
v -1.320833 -0.012139 0.000000
v -1.320833 -1.190635 0.234418
v -1.320833 -0.058767 -0.234418
v -1.320833 -1.057849 0.433147
v -1.320833 -0.191554 -0.433147
vn 0.1332 0.1934 -0.9720
vn 0.1332 0.1934 0.9720
vn 0.1332 -0.1934 0.9720
vn 0.1332 -0.1934 -0.9720
vn 0.1332 0.5506 0.8241
vn 0.1332 -0.5506 -0.8241
vn 0.1332 0.8241 0.5506
vn 0.1332 -0.8241 -0.5506
vn 0.1332 0.9720 0.1933
vn 0.1332 -0.9720 -0.1934
vn 0.1332 0.9720 -0.1933
vn 0.1332 -0.9720 0.1934
vn 0.1332 0.8241 -0.5506
vn 0.1332 -0.8241 0.5506
vn 0.1332 0.5506 -0.8241
vn 0.1332 -0.5506 0.8241
vn 1.0000 -0.0000 -0.0000
vn 0.6362 -0.2953 -0.7128
vn 0.6362 -0.0000 -0.7716
vn 0.6361 -0.5456 -0.5456
vn 0.6361 -0.7128 -0.2953
vn 0.6361 -0.7716 -0.0000
vn 0.6361 -0.7128 0.2953
vn 0.6361 -0.5456 0.5456
vn 0.6362 -0.2953 0.7128
vn 0.6362 -0.0000 0.7716
vn 0.6362 0.2953 0.7128
vn 0.6362 0.5456 0.5456
vn 0.6362 0.7128 0.2953
vn 0.6362 0.7716 -0.0000
vn 0.6362 0.7128 -0.2953
vn 0.6362 0.5456 -0.5456
vn 0.6362 0.2953 -0.7128
vn -0.6362 -0.2953 0.7128
vn -0.6362 -0.0000 -0.7716
vn -0.6362 0.2953 -0.7128
vn -0.6362 -0.0000 0.7716
vn -0.6362 -0.2953 -0.7128
vn -0.6362 0.2953 0.7128
vn -0.6361 -0.5456 -0.5456
vn -0.6361 0.5456 0.5456
vn -0.6361 -0.7128 -0.2953
vn -0.6362 0.7128 0.2953
vn -0.6361 -0.7716 -0.0000
vn -0.6362 0.7716 -0.0000
vn -0.6361 -0.7128 0.2953
vn -0.6362 0.7128 -0.2953
vn -0.6362 -0.5456 0.5456
vn -0.6361 0.5456 -0.5456
vn 0.7071 -0.1379 -0.6935
vn 0.7071 -0.3928 -0.5879
vn 0.7071 -0.5879 -0.3929
vn 0.7071 -0.6935 -0.1380
vn 0.7071 -0.6935 0.1380
vn 0.7071 -0.5879 0.3929
vn 0.7071 -0.3928 0.5879
vn 0.7071 -0.1379 0.6935
vn 0.7071 0.1379 0.6935
vn 0.7071 0.3928 0.5879
vn 0.7071 0.5879 0.3928
vn 0.7071 0.6935 0.1379
vn 0.7071 0.6935 -0.1379
vn 0.7071 0.5879 -0.3928
vn 0.7071 0.3928 -0.5879
vn 0.7071 0.1379 -0.6935
vn -0.0000 -0.3827 0.9239
vn -0.0000 -0.0000 -1.0000
vn -0.0000 0.3827 -0.9239
vn -0.0000 -0.0000 1.0000
vn -0.0000 -0.3827 -0.9239
vn -0.0000 0.3827 0.9239
vn -0.0000 -0.7071 -0.7071
vn -0.0000 0.7071 0.7071
vn -0.0000 -0.9239 -0.3827
vn -0.0000 0.9239 0.3827
vn -0.0000 -1.0000 -0.0000
vn -0.0000 1.0000 -0.0000
vn -0.0000 -0.9239 0.3827
vn -0.0000 0.9239 -0.3827
vn -0.0000 -0.7071 0.7071
vn -0.0000 0.7071 -0.7071
vn -0.7071 0.3928 -0.5879
vn -0.7071 -0.3928 0.5879
vn -0.7071 0.5879 -0.3929
vn -0.7071 -0.5879 0.3929
vn -0.7071 0.6935 -0.1379
vn -0.7071 -0.6935 0.1380
vn -0.7071 0.6935 0.1379
vn -0.7071 -0.6935 -0.1380
vn -0.7071 0.5879 0.3929
vn -0.7071 -0.5879 -0.3929
vn -0.7071 0.3928 0.5879
vn -0.7071 -0.3928 -0.5879
vn -0.7071 0.1379 0.6935
vn -0.7071 0.1379 -0.6935
vn -0.7071 -0.1379 -0.6935
vn -0.7071 -0.1379 0.6935
vn -0.0000 -0.1951 -0.9808
vn -0.0000 -0.5556 -0.8315
vn -0.0000 0.1951 -0.9808
vn -0.0000 -0.8315 -0.5556
vn -0.0000 -0.9808 -0.1951
vn -0.0000 -0.9808 0.1951
vn -0.0000 -0.8315 0.5556
vn -0.0000 -0.5556 0.8315
vn -0.0000 -0.1951 0.9808
vn -0.0000 0.1951 0.9808
vn -0.0000 0.5556 0.8315
vn -0.0000 0.8315 0.5556
vn -0.0000 0.9808 0.1951
vn -0.0000 0.9808 -0.1951
vn -0.0000 0.8315 -0.5556
vn -0.0000 0.5556 -0.8315
vn -1.0000 -0.0000 -0.0000
vn -0.3674 -0.1814 0.9122
vn -0.3674 -0.1814 -0.9122
vn -0.3674 0.1814 -0.9122
vn -0.3674 0.1814 0.9122
vn -0.3674 -0.5167 -0.7733
vn -0.3674 0.5167 0.7733
vn -0.3674 -0.7733 -0.5167
vn -0.3674 0.7733 0.5167
vn -0.3674 -0.9122 -0.1814
vn -0.3674 0.9122 0.1814
vn -0.3674 -0.9122 0.1814
vn -0.3674 0.9122 -0.1814
vn -0.3674 -0.7733 0.5167
vn -0.3674 0.7733 -0.5167
vn -0.3674 -0.5167 0.7733
vn -0.3674 0.5167 -0.7733
vt 0.640267 1.000000
vt 0.640267 0.499775
vt 0.664985 0.997552
vt 0.490985 0.001565
vt 0.477546 0.499775
vt 0.464107 0.001565
vt 0.515817 0.001016
vt 0.691784 0.995496
vt 0.439275 0.001016
vt 0.716585 0.994144
vt 0.420269 0.000000
vt 0.413114 0.472366
vt 0.413114 0.975412
vt 0.394347 0.475539
vt 0.222957 0.972592
vt 0.222957 0.472366
vt 0.247674 0.970144
vt 0.369739 0.478913
vt 0.274474 0.968087
vt 0.343036 0.481973
vt 0.299275 0.966736
vt 0.318303 0.484254
vt 0.318303 0.966294
vt 0.534823 0.000000
vt 0.168755 0.622116
vt 0.179041 0.597284
vt 0.204377 0.602323
vt 0.190234 0.636468
vt 0.179041 0.570406
vt 0.204377 0.565366
vt 0.168755 0.545573
vt 0.190234 0.531222
vt 0.149750 0.526568
vt 0.164101 0.505089
vt 0.124917 0.516282
vt 0.129957 0.490946
vt 0.098039 0.516282
vt 0.093000 0.490946
vt 0.073207 0.526568
vt 0.058856 0.505089
vt 0.054202 0.545574
vt 0.032723 0.531222
vt 0.043916 0.570406
vt 0.018580 0.565366
vt 0.043916 0.597284
vt 0.018580 0.602324
vt 0.054202 0.622116
vt 0.032723 0.636468
vt 0.073207 0.641122
vt 0.058856 0.662601
vt 0.124918 0.651408
vt 0.149750 0.641122
vt 0.164102 0.662600
vt 0.129957 0.676744
vt 0.098040 0.651407
vt 0.093000 0.676744
vt 0.673112 0.376660
vt 0.676845 0.372320
vt 0.676766 0.379757
vt 0.676766 0.416375
vt 0.676845 0.423812
vt 0.673112 0.419471
vt 0.202708 0.644802
vt 0.207465 0.643421
vt 0.203252 0.649726
vt 0.219091 0.605250
vt 0.222957 0.602153
vt 0.221478 0.609591
vt 0.673112 0.261817
vt 0.676766 0.258720
vt 0.676845 0.266157
vt 0.673112 0.219006
vt 0.676845 0.214666
vt 0.676766 0.222103
vt 0.172436 0.492615
vt 0.171054 0.487859
vt 0.177359 0.492071
vt 0.132884 0.476232
vt 0.129787 0.472366
vt 0.137224 0.473846
vt 0.673112 0.376660
vt 0.669458 0.379757
vt 0.669379 0.372320
vt 0.673112 0.419471
vt 0.669379 0.423812
vt 0.669458 0.416375
vt 0.020249 0.522887
vt 0.015492 0.524269
vt 0.019705 0.517964
vt 0.003866 0.562439
vt 0.000000 0.565536
vt 0.001479 0.558099
vt 0.673112 0.219006
vt 0.669458 0.222103
vt 0.669379 0.214666
vt 0.673112 0.261817
vt 0.669379 0.266157
vt 0.669458 0.258720
vt 0.045598 0.675618
vt 0.050521 0.675075
vt 0.051903 0.679831
vt 0.085733 0.693844
vt 0.090073 0.691458
vt 0.093170 0.695323
vt 0.644183 0.338490
vt 0.640069 0.337108
vt 0.643958 0.332185
vt 0.701213 0.416375
vt 0.705280 0.419471
vt 0.701292 0.423812
vt 0.702041 0.457642
vt 0.706155 0.459024
vt 0.702266 0.463947
vt 0.644932 0.372320
vt 0.645011 0.379757
vt 0.640944 0.376660
vt 0.701213 0.379757
vt 0.701292 0.372320
vt 0.705280 0.376660
vt 0.645011 0.416375
vt 0.644932 0.423812
vt 0.640944 0.419471
vt 0.702041 0.338490
vt 0.702266 0.332185
vt 0.706155 0.337108
vt 0.644183 0.457642
vt 0.643958 0.463947
vt 0.640069 0.459024
vt 0.702266 0.306292
vt 0.702041 0.299987
vt 0.706155 0.301369
vt 0.643958 0.174531
vt 0.644183 0.180835
vt 0.640069 0.179454
vt 0.701292 0.266157
vt 0.701213 0.258720
vt 0.705280 0.261817
vt 0.644932 0.214666
vt 0.645011 0.222103
vt 0.640944 0.219006
vt 0.701213 0.222103
vt 0.701292 0.214666
vt 0.705280 0.219006
vt 0.645011 0.258720
vt 0.644932 0.266157
vt 0.640944 0.261817
vt 0.702041 0.180835
vt 0.702266 0.174531
vt 0.706155 0.179454
vt 0.644183 0.299988
vt 0.643958 0.306292
vt 0.640069 0.301369
vt 0.171055 0.679831
vt 0.137225 0.693844
vt 0.132884 0.691458
vt 0.172436 0.675074
vt 0.177360 0.675618
vt 0.222957 0.565536
vt 0.219091 0.562439
vt 0.207465 0.524269
vt 0.221478 0.558099
vt 0.202708 0.522887
vt 0.203252 0.517964
vt 0.093170 0.472366
vt 0.090073 0.476232
vt 0.051902 0.487859
vt 0.085732 0.473846
vt 0.050521 0.492615
vt 0.045597 0.492071
vt 0.000000 0.602154
vt 0.003866 0.605251
vt 0.015492 0.643421
vt 0.001479 0.609591
vt 0.020249 0.644803
vt 0.019705 0.649726
vt 0.129788 0.695323
vt 0.668405 0.332185
vt 0.668631 0.338490
vt 0.677819 0.463947
vt 0.677593 0.457642
vt 0.677819 0.332185
vt 0.677593 0.338490
vt 0.668405 0.463947
vt 0.668631 0.457642
vt 0.677593 0.299987
vt 0.677818 0.306292
vt 0.668631 0.180835
vt 0.668405 0.174531
vt 0.677818 0.174531
vt 0.677593 0.180835
vt 0.668405 0.306292
vt 0.668631 0.299988
vt 0.591226 0.701004
vt 0.621498 0.670732
vt 0.622041 0.675655
vt 0.596149 0.701547
vt 0.469310 0.518544
vt 0.439038 0.548816
vt 0.438495 0.543893
vt 0.464387 0.518000
vt 0.637881 0.631180
vt 0.640267 0.635520
vt 0.626254 0.669350
vt 0.422655 0.588368
vt 0.420269 0.584028
vt 0.434282 0.550198
vt 0.637881 0.588368
vt 0.621498 0.548816
vt 0.626254 0.550198
vt 0.640267 0.584028
vt 0.422655 0.631179
vt 0.439038 0.670732
vt 0.434282 0.669350
vt 0.420269 0.635520
vt 0.591226 0.518544
vt 0.596149 0.518000
vt 0.622041 0.543893
vt 0.469310 0.701004
vt 0.464387 0.701547
vt 0.438495 0.675655
vt 0.551674 0.502161
vt 0.556014 0.499775
vt 0.589844 0.513788
vt 0.508862 0.717387
vt 0.504522 0.719773
vt 0.470692 0.705760
vt 0.551674 0.717387
vt 0.589844 0.705760
vt 0.556014 0.719773
vt 0.508863 0.502161
vt 0.470692 0.513788
vt 0.504522 0.499775
vt 0.679202 0.332185
vt 0.703650 0.332185
vt 0.679202 0.148638
vt 0.703650 0.148638
vt 0.667022 0.148638
vt 0.642574 0.148638
vt 0.667022 0.332185
vt 0.642574 0.332185
vt 0.511789 0.516875
vt 0.477645 0.531018
vt 0.451512 0.557151
vt 0.511789 0.702673
vt 0.548747 0.702673
vt 0.582891 0.688530
vt 0.609024 0.662397
vt 0.548747 0.516875
vt 0.477645 0.688530
vt 0.582891 0.531018
vt 0.451512 0.662397
vt 0.609024 0.557151
vt 0.437369 0.628253
vt 0.623167 0.591295
vt 0.437369 0.591295
vt 0.623167 0.628253
vt 0.026133 0.423442
vt 0.060277 0.422687
vt 0.063973 0.470645
vt 0.036658 0.471249
vt 0.228613 0.049680
vt 0.191656 0.049680
vt 0.195352 0.001722
vt 0.224918 0.001722
vt 0.262757 0.048924
vt 0.252233 0.001117
vt 0.097234 0.422687
vt 0.093539 0.470645
vt 0.157512 0.048924
vt 0.168036 0.001117
vt 0.131379 0.423442
vt 0.120854 0.471249
vt 0.288890 0.424839
vt 0.315023 0.423442
vt 0.325548 0.471249
vt 0.304641 0.472366
vt 0.157512 0.424839
vt 0.141760 0.472366
vt 0.349167 0.422687
vt 0.352863 0.470645
vt 0.640069 0.047807
vt 0.605924 0.048563
vt 0.602229 0.000605
vt 0.629544 -0.000000
vt 0.386125 0.422687
vt 0.382429 0.470645
vt 0.568967 0.048563
vt 0.572663 0.000605
vt 0.420269 0.423442
vt 0.409744 0.471249
vt 0.534823 0.047807
vt 0.545347 0.000000
vt -0.000000 0.424839
vt 0.015751 0.472366
vt 0.288890 0.047528
vt 0.273139 -0.000000
vt 0.777392 0.116417
vt 0.756486 0.137324
vt 0.714388 0.074319
vt 0.729170 0.148638
vt 0.699605 0.148638
vt 0.672289 0.137324
vt 0.651383 0.116417
vt 0.640069 0.089102
vt 0.640069 0.059536
vt 0.651383 0.032221
vt 0.672289 0.011314
vt 0.699605 0.000000
vt 0.729171 0.000000
vt 0.756486 0.011314
vt 0.777392 0.032221
vt 0.788706 0.059536
vt 0.788706 0.089102
vt 0.288890 0.470214
vt 0.262757 0.471611
vt 0.000000 0.002152
vt 0.026133 0.000756
vt 0.568967 0.471249
vt 0.534823 0.470493
vt 0.386125 0.000000
vt 0.420269 0.000756
vt 0.605924 0.471249
vt 0.349167 0.000000
vt 0.640069 0.470493
vt 0.315023 0.000756
vt 0.131379 0.000756
vt 0.157512 0.002152
vt 0.288890 0.002152
vt 0.097234 0.000000
vt 0.191656 0.472366
vt 0.157512 0.471611
vt 0.060277 -0.000000
vt 0.228613 0.472366
s 1
f 8/1/1 17/2/1 9/3/1
f 1/4/2 17/5/2 2/6/2
f 16/7/3 17/5/3 1/4/3
f 9/3/4 17/2/4 10/8/4
f 2/6/5 17/5/5 3/9/5
f 10/8/6 17/2/6 11/10/6
f 3/9/7 17/5/7 4/11/7
f 11/12/8 17/13/8 12/14/8
f 4/15/9 17/16/9 5/17/9
f 12/14/10 17/13/10 13/18/10
f 5/17/11 17/16/11 6/19/11
f 13/18/12 17/13/12 14/20/12
f 6/19/13 17/16/13 7/21/13
f 14/20/14 17/13/14 15/22/14
f 7/21/15 17/16/15 8/23/15
f 15/24/16 17/5/16 16/7/16
f 3/25/17 4/26/17 21/27/17 20/28/17
f 4/26/17 5/29/17 22/30/17 21/27/17
f 5/29/17 6/31/17 23/32/17 22/30/17
f 6/31/17 7/33/17 24/34/17 23/32/17
f 7/33/17 8/35/17 25/36/17 24/34/17
f 8/35/17 9/37/17 26/38/17 25/36/17
f 9/37/17 10/39/17 27/40/17 26/38/17
f 10/39/17 11/41/17 28/42/17 27/40/17
f 11/41/17 12/43/17 29/44/17 28/42/17
f 12/43/17 13/45/17 30/46/17 29/44/17
f 13/45/17 14/47/17 31/48/17 30/46/17
f 14/47/17 15/49/17 32/50/17 31/48/17
f 1/51/17 2/52/17 18/53/17 19/54/17
f 15/49/17 16/55/17 33/56/17 32/50/17
f 2/52/17 3/25/17 20/28/17 18/53/17
f 16/55/17 1/51/17 19/54/17 33/56/17
f 50/57/18 51/58/18 52/59/18
f 53/60/19 54/61/19 55/62/19
f 56/63/20 57/64/20 58/65/20
f 59/66/21 60/67/21 61/68/21
f 62/69/22 63/70/22 64/71/22
f 65/72/23 66/73/23 67/74/23
f 68/75/24 69/76/24 70/77/24
f 71/78/25 72/79/25 73/80/25
f 74/81/26 75/82/26 76/83/26
f 77/84/27 78/85/27 79/86/27
f 80/87/28 81/88/28 82/89/28
f 83/90/29 84/91/29 85/92/29
f 86/93/30 87/94/30 88/95/30
f 89/96/31 90/97/31 91/98/31
f 92/99/32 93/100/32 94/101/32
f 95/102/33 96/103/33 97/104/33
f 98/105/34 99/106/34 100/107/34
f 101/108/35 102/109/35 103/110/35
f 104/111/36 105/112/36 106/113/36
f 107/114/37 108/115/37 109/116/37
f 110/117/38 111/118/38 112/119/38
f 113/120/39 114/121/39 115/122/39
f 116/123/40 117/124/40 118/125/40
f 119/126/41 120/127/41 121/128/41
f 122/129/42 123/130/42 124/131/42
f 125/132/43 126/133/43 127/134/43
f 128/135/44 129/136/44 130/137/44
f 131/138/45 132/139/45 133/140/45
f 134/141/46 135/142/46 136/143/46
f 137/144/47 138/145/47 139/146/47
f 140/147/48 141/148/48 142/149/48
f 143/150/49 144/151/49 145/152/49
f 52/153/50 53/154/50 55/155/50 50/156/50
f 58/65/51 51/157/51 50/156/51 56/63/51
f 61/68/52 57/64/52 56/63/52 59/66/52
f 64/158/53 60/67/53 59/66/53 62/159/53
f 67/160/54 63/161/54 62/159/54 65/162/54
f 70/77/55 66/163/55 65/162/55 68/75/55
f 73/80/56 69/76/56 68/75/56 71/78/56
f 76/164/57 72/79/57 71/78/57 74/165/57
f 79/166/58 75/167/58 74/165/58 77/168/58
f 82/89/59 78/169/59 77/168/59 80/87/59
f 85/92/60 81/88/60 80/87/60 83/90/60
f 88/170/61 84/91/61 83/90/61 86/171/61
f 91/172/62 87/173/62 86/171/62 89/174/62
f 92/99/63 90/175/63 89/174/63 93/100/63
f 95/102/64 94/101/64 93/100/64 96/103/64
f 54/176/65 97/104/65 96/103/65 55/155/65
f 100/107/66 73/177/66 72/178/66 98/105/66
f 103/110/67 54/61/67 53/60/67 101/108/67
f 106/113/68 95/179/68 97/180/68 104/111/68
f 75/82/69 108/115/69 107/114/69 76/83/69
f 51/58/70 111/118/70 110/117/70 52/59/70
f 78/85/71 114/121/71 113/120/71 79/86/71
f 57/181/72 117/124/72 116/123/72 58/182/72
f 81/183/73 120/127/73 119/126/73 82/184/73
f 60/185/74 123/130/74 122/129/74 61/186/74
f 84/187/75 126/133/75 125/132/75 85/188/75
f 63/70/76 129/136/76 128/135/76 64/71/76
f 87/94/77 132/139/77 131/138/77 88/95/77
f 66/73/78 135/142/78 134/141/78 67/74/78
f 90/97/79 138/145/79 137/144/79 91/98/79
f 69/189/80 141/148/80 140/147/80 70/190/80
f 94/191/81 144/151/81 143/150/81 92/192/81
f 105/193/82 145/194/82 144/195/82 106/196/82
f 99/197/83 142/198/83 141/199/83 100/200/83
f 145/194/84 139/201/84 138/202/84 143/203/84
f 142/198/85 136/204/85 135/205/85 140/206/85
f 139/146/86 133/140/86 132/139/86 137/144/86
f 136/143/87 130/137/87 129/136/87 134/141/87
f 133/207/88 127/208/88 126/209/88 131/210/88
f 130/211/89 124/212/89 123/213/89 128/214/89
f 127/208/90 121/215/90 120/216/90 125/217/90
f 124/212/91 118/218/91 117/219/91 122/220/91
f 121/215/92 115/221/92 114/222/92 119/223/92
f 118/218/93 112/224/93 111/225/93 116/226/93
f 115/122/94 109/116/94 108/115/94 113/120/94
f 102/227/95 105/193/95 104/228/95 103/229/95
f 112/119/96 102/109/96 101/108/96 110/117/96
f 109/230/97 99/197/97 98/231/97 107/232/97
f 53/60/98 52/59/98 110/117/98 101/108/98
f 18/53/17 20/28/17 56/63/17 50/156/17
f 19/54/17 18/53/17 50/156/17 55/155/17
f 51/58/99 58/182/99 116/123/99 111/118/99
f 33/56/17 19/54/17 55/155/17 96/103/17
f 97/180/100 54/61/100 103/110/100 104/111/100
f 20/28/17 21/27/17 59/66/17 56/63/17
f 57/233/101 61/186/101 122/129/101 117/234/101
f 60/185/102 64/71/102 128/135/102 123/130/102
f 21/27/17 22/30/17 62/159/17 59/66/17
f 63/70/103 67/74/103 134/141/103 129/136/103
f 22/30/17 23/32/17 65/162/17 62/159/17
f 66/73/104 70/190/104 140/147/104 135/142/104
f 23/32/17 24/34/17 68/75/17 65/162/17
f 69/189/105 73/235/105 100/236/105 141/148/105
f 24/34/17 25/36/17 71/78/17 68/75/17
f 72/178/106 76/83/106 107/114/106 98/105/106
f 25/36/17 26/38/17 74/165/17 71/78/17
f 75/82/107 79/86/107 113/120/107 108/115/107
f 26/38/17 27/40/17 77/168/17 74/165/17
f 78/85/108 82/184/108 119/126/108 114/121/108
f 27/40/17 28/42/17 80/87/17 77/168/17
f 81/237/109 85/188/109 125/132/109 120/238/109
f 28/42/17 29/44/17 83/90/17 80/87/17
f 84/187/110 88/95/110 131/138/110 126/133/110
f 29/44/17 30/46/17 86/171/17 83/90/17
f 87/94/111 91/98/111 137/144/111 132/139/111
f 30/46/17 31/48/17 89/174/17 86/171/17
f 90/97/112 92/192/112 143/150/112 138/145/112
f 31/48/17 32/50/17 93/100/17 89/174/17
f 94/191/113 95/239/113 106/240/113 144/151/113
f 32/50/17 33/56/17 96/103/17 93/100/17
f 35/241/114 34/242/114 99/197/114 109/230/114
f 34/242/114 48/243/114 142/198/114 99/197/114
f 37/244/114 36/245/114 102/227/114 112/224/114
f 36/245/114 38/246/114 105/193/114 102/227/114
f 38/246/114 49/247/114 145/194/114 105/193/114
f 39/248/114 35/241/114 109/230/114 115/221/114
f 40/249/114 37/244/114 112/224/114 118/218/114
f 41/250/114 39/248/114 115/221/114 121/215/114
f 42/251/114 40/249/114 118/218/114 124/212/114
f 43/252/114 41/250/114 121/215/114 127/208/114
f 44/253/114 42/251/114 124/212/114 130/211/114
f 45/254/114 43/252/114 127/208/114 133/207/114
f 46/255/114 44/253/114 130/211/114 136/204/114
f 47/256/114 45/254/114 133/207/114 139/201/114
f 48/243/114 46/255/114 136/204/114 142/198/114
f 49/247/114 47/256/114 139/201/114 145/194/114
f 162/257/115 165/258/115 147/259/115 146/260/115
f 163/261/116 166/262/116 149/263/116 148/264/116
f 164/265/117 163/261/117 148/264/117 150/266/117
f 165/258/118 167/267/118 151/268/118 147/259/118
f 166/262/119 168/269/119 152/270/119 149/263/119
f 167/267/120 169/271/120 153/272/120 151/268/120
f 168/273/121 170/274/121 154/275/121 152/276/121
f 169/271/122 171/277/122 155/278/122 153/272/122
f 170/274/123 172/279/123 156/280/123 154/275/123
f 171/281/124 173/282/124 157/283/124 155/284/124
f 172/279/125 174/285/125 158/286/125 156/280/125
f 173/282/126 175/287/126 159/288/126 157/283/126
f 174/285/127 176/289/127 160/290/127 158/286/127
f 175/287/128 177/291/128 161/292/128 159/288/128
f 176/293/129 162/257/129 146/260/129 160/294/129
f 177/295/130 164/265/130 150/266/130 161/296/130
f 149/297/114 152/298/114 17/299/114
f 152/298/114 154/300/114 17/299/114
f 154/300/114 156/301/114 17/299/114
f 156/301/114 158/302/114 17/299/114
f 158/302/114 160/303/114 17/299/114
f 160/303/114 146/304/114 17/299/114
f 146/304/114 147/305/114 17/299/114
f 147/305/114 151/306/114 17/299/114
f 151/306/114 153/307/114 17/299/114
f 153/307/114 155/308/114 17/299/114
f 155/308/114 157/309/114 17/299/114
f 157/309/114 159/310/114 17/299/114
f 159/310/114 161/311/114 17/299/114
f 161/311/114 150/312/114 17/299/114
f 150/312/114 148/313/114 17/299/114
f 148/313/114 149/297/114 17/299/114
f 49/314/113 38/315/113 164/265/113 177/295/113
f 48/316/105 34/317/105 162/257/105 176/293/105
f 47/318/112 49/319/112 177/291/112 175/287/112
f 46/320/104 48/321/104 176/289/104 174/285/104
f 45/322/111 47/318/111 175/287/111 173/282/111
f 44/323/103 46/320/103 174/285/103 172/279/103
f 43/324/110 45/322/110 173/282/110 171/281/110
f 42/325/102 44/323/102 172/279/102 170/274/102
f 41/326/109 43/327/109 171/277/109 169/271/109
f 40/328/101 42/325/101 170/274/101 168/273/101
f 39/329/108 41/326/108 169/271/108 167/267/108
f 37/330/99 40/331/99 168/269/99 166/262/99
f 35/332/107 39/329/107 167/267/107 165/258/107
f 38/315/100 36/333/100 163/261/100 164/265/100
f 36/333/98 37/330/98 166/262/98 163/261/98
f 34/317/106 35/332/106 165/258/106 162/257/106
