# Blender 4.5.3 LTS
# www.blender.org
o Circle.001
v 1.625000 -0.625000 -0.445500
v 1.625000 -0.795485 -0.411588
v 1.625000 -0.940016 -0.315016
v 1.625000 -1.036588 -0.170486
v 1.625000 -1.070500 -0.000000
v 1.625000 -1.036588 0.170486
v 1.625000 -0.940016 0.315016
v 1.625000 -0.795485 0.411588
v 1.625000 -0.625000 0.445500
v 1.625000 -0.454515 0.411588
v 1.625000 -0.309984 0.315016
v 1.625000 -0.213412 0.170486
v 1.625000 -0.179500 -0.000000
v 1.625000 -0.213412 -0.170486
v 1.625000 -0.309984 -0.315016
v 1.625000 -0.454515 -0.411588
v -1.625000 -0.625000 -0.445500
v -1.625000 -0.795485 -0.411588
v -1.625000 -0.940016 -0.315016
v -1.625000 -1.036589 -0.170486
v -1.625000 -1.070500 -0.000000
v -1.625000 -1.036589 0.170486
v -1.625000 -0.940016 0.315016
v -1.625000 -0.795485 0.411588
v -1.625000 -0.625000 0.445500
v -1.625000 -0.454515 0.411588
v -1.625000 -0.309984 0.315016
v -1.625000 -0.213412 0.170486
v -1.625000 -0.179500 -0.000000
v -1.625000 -0.213412 -0.170486
v -1.625000 -0.309984 -0.315016
v -1.625000 -0.454515 -0.411588
v 1.625000 -0.859418 -0.565934
v 1.625000 -0.625000 -0.612563
v 1.625000 -1.058147 -0.433147
v 1.625000 -1.190934 -0.234418
v 1.625000 -1.237563 -0.000000
v 1.625000 -1.190934 0.234418
v 1.625000 -1.058147 0.433147
v 1.625000 -0.859418 0.565934
v 1.625000 -0.625000 0.612563
v 1.625000 -0.390582 0.565934
v 1.625000 -0.191853 0.433147
v 1.625000 -0.059066 0.234418
v 1.625000 -0.012437 -0.000000
v 1.625000 -0.059066 -0.234418
v 1.625000 -0.191853 -0.433147
v 1.625000 -0.390582 -0.565934
v -1.625000 -0.859418 -0.565934
v -1.625000 -0.625000 -0.612563
v -1.625000 -1.058147 -0.433147
v -1.625000 -1.190934 -0.234418
v -1.625000 -1.237563 -0.000000
v -1.625000 -1.190934 0.234418
v -1.625000 -1.058147 0.433147
v -1.625000 -0.859418 0.565934
v -1.625000 -0.625000 0.612563
v -1.625000 -0.390582 0.565934
v -1.625000 -0.191853 0.433147
v -1.625000 -0.059066 0.234418
v -1.625000 -0.012438 -0.000000
v -1.625000 -0.059066 -0.234418
v -1.625000 -0.191853 -0.433147
v -1.625000 -0.390582 -0.565934
v -1.416667 -0.859418 0.565934
v 1.416667 -0.859418 0.565934
v 1.416667 -0.625000 0.612563
v -1.416667 -0.625000 0.612563
v -1.416667 -0.625000 -0.612563
v 1.416667 -0.625000 -0.612563
v 1.416667 -0.859418 -0.565934
v -1.416667 -0.859417 -0.565934
v -1.416667 -0.390582 -0.565934
v 1.416667 -0.390582 -0.565934
v 1.416667 -0.390582 0.565934
v -1.416667 -0.390582 0.565934
v 1.416667 -1.058147 -0.433147
v -1.416667 -1.058147 -0.433147
v 1.416667 -0.191853 0.433147
v -1.416667 -0.191853 0.433147
v 1.416667 -1.190934 -0.234418
v -1.416667 -1.190934 -0.234418
v 1.416667 -0.059066 0.234418
v -1.416667 -0.059066 0.234418
v 1.416667 -1.237563 -0.000000
v -1.416667 -1.237563 -0.000000
v 1.416667 -0.012437 -0.000000
v -1.416667 -0.012437 -0.000000
v 1.416667 -1.190934 0.234418
v -1.416667 -1.190934 0.234418
v 1.416667 -0.059066 -0.234418
v -1.416667 -0.059066 -0.234418
v 1.416667 -1.058147 0.433147
v -1.416667 -1.058147 0.433147
v 1.416667 -0.191853 -0.433147
v -1.416667 -0.191853 -0.433147
v 1.625000 -0.896547 -0.655571
v 1.600000 -0.927088 -0.665232
v 1.600000 -0.881781 -0.683998
v 1.600000 -0.649520 -0.730198
v 1.600000 -0.600480 -0.730198
v 1.625000 -0.625000 -0.709585
v 1.625000 -1.126752 -0.501753
v 1.600000 -1.158666 -0.498990
v 1.600000 -1.123990 -0.533666
v 1.625000 -1.280571 -0.271547
v 1.600000 -1.308998 -0.256781
v 1.600000 -1.290232 -0.302088
v 1.625000 -1.334585 -0.000000
v 1.600000 -1.355198 0.024520
v 1.600000 -1.355198 -0.024520
v 1.625000 -1.280571 0.271547
v 1.600000 -1.290232 0.302088
v 1.600000 -1.308998 0.256781
v 1.625000 -1.126752 0.501753
v 1.600000 -1.123990 0.533666
v 1.600000 -1.158666 0.498990
v 1.625000 -0.896547 0.655571
v 1.600000 -0.881781 0.683998
v 1.600000 -0.927088 0.665232
v 1.625000 -0.625000 0.709585
v 1.600000 -0.600480 0.730198
v 1.600000 -0.649520 0.730198
v 1.625000 -0.353453 0.655571
v 1.600000 -0.322912 0.665232
v 1.600000 -0.368219 0.683998
v 1.625000 -0.123247 0.501753
v 1.600000 -0.091334 0.498990
v 1.600000 -0.126010 0.533666
v 1.625000 0.030571 0.271547
v 1.600000 0.058998 0.256781
v 1.600000 0.040232 0.302088
v 1.625000 0.084585 -0.000000
v 1.600000 0.105198 -0.024520
v 1.600000 0.105198 0.024520
v 1.625000 0.030571 -0.271547
v 1.600000 0.040232 -0.302088
v 1.600000 0.058998 -0.256781
v 1.600000 -0.091334 -0.498990
v 1.625000 -0.123247 -0.501753
v 1.600000 -0.126010 -0.533666
v 1.600000 -0.322912 -0.665232
v 1.625000 -0.353453 -0.655571
v 1.600000 -0.368219 -0.683998
v -1.600000 -0.881781 -0.683998
v -1.600000 -0.927088 -0.665232
v -1.625000 -0.896547 -0.655571
v -1.600000 -0.649520 -0.730198
v -1.625000 -0.625000 -0.709585
v -1.600000 -0.600480 -0.730198
v -1.600000 -1.123990 -0.533666
v -1.600000 -1.158666 -0.498990
v -1.625000 -1.126752 -0.501753
v -1.600000 -1.290232 -0.302088
v -1.600000 -1.308998 -0.256781
v -1.625000 -1.280572 -0.271547
v -1.600000 -1.355198 -0.024520
v -1.600000 -1.355198 0.024520
v -1.625000 -1.334586 -0.000000
v -1.600000 -1.308998 0.256781
v -1.600000 -1.290232 0.302088
v -1.625000 -1.280572 0.271547
v -1.600000 -1.158666 0.498990
v -1.600000 -1.123990 0.533666
v -1.625000 -1.126752 0.501753
v -1.600000 -0.927088 0.665232
v -1.600000 -0.881781 0.683998
v -1.625000 -0.896547 0.655571
v -1.600000 -0.649520 0.730198
v -1.600000 -0.600480 0.730198
v -1.625000 -0.625000 0.709585
v -1.600000 -0.368219 0.683998
v -1.600000 -0.322912 0.665232
v -1.625000 -0.353453 0.655571
v -1.600000 -0.126010 0.533666
v -1.600000 -0.091334 0.498990
v -1.625000 -0.123247 0.501753
v -1.600000 0.040232 0.302088
v -1.600000 0.058998 0.256781
v -1.625000 0.030571 0.271547
v -1.600000 0.105198 0.024520
v -1.600000 0.105198 -0.024520
v -1.625000 0.084585 -0.000000
v -1.600000 0.058998 -0.256781
v -1.600000 0.040232 -0.302088
v -1.625000 0.030571 -0.271547
v -1.600000 -0.091334 -0.498990
v -1.600000 -0.126010 -0.533666
v -1.625000 -0.123247 -0.501753
v -1.600000 -0.322912 -0.665232
v -1.600000 -0.368219 -0.683998
v -1.625000 -0.353453 -0.655571
v 1.441667 -0.881782 0.683998
v 1.416667 -0.896547 0.655571
v 1.441667 -0.927088 0.665232
v -1.441667 -0.649520 0.730198
v -1.416667 -0.625000 0.709585
v -1.441667 -0.600480 0.730198
v 1.441667 -0.649520 -0.730198
v 1.416667 -0.625000 -0.709585
v 1.441667 -0.600480 -0.730198
v -1.441667 -0.881781 -0.683998
v -1.416667 -0.896546 -0.655571
v -1.441667 -0.927088 -0.665232
v 1.441667 -0.368219 -0.683998
v 1.416667 -0.353453 -0.655571
v 1.441667 -0.322912 -0.665232
v -1.441667 -0.368219 0.683998
v -1.416667 -0.353453 0.655571
v -1.441667 -0.322912 0.665232
v -1.441667 -1.123990 -0.533666
v -1.416667 -1.126753 -0.501753
v -1.441667 -1.158666 -0.498990
v -1.441667 -0.126010 0.533666
v -1.416667 -0.123247 0.501753
v -1.441667 -0.091334 0.498990
v -1.441667 -1.290232 -0.302088
v -1.416667 -1.280572 -0.271547
v -1.441667 -1.308998 -0.256781
v -1.441667 0.040232 0.302088
v -1.416667 0.030571 0.271547
v -1.441667 0.058998 0.256781
v -1.441667 -1.355198 -0.024520
v -1.416667 -1.334585 -0.000000
v -1.441667 -1.355198 0.024520
v -1.441667 0.105198 0.024520
v -1.416667 0.084585 -0.000000
v -1.441667 0.105198 -0.024520
v -1.441667 -1.308998 0.256781
v -1.416667 -1.280572 0.271547
v -1.441667 -1.290232 0.302088
v -1.441667 0.058998 -0.256781
v -1.416667 0.030571 -0.271547
v -1.441667 0.040232 -0.302088
v -1.441667 -1.158666 0.498990
v -1.416667 -1.126753 0.501753
v -1.441667 -1.123990 0.533666
v -1.441667 -0.091334 -0.498990
v -1.416667 -0.123247 -0.501753
v -1.441667 -0.126010 -0.533666
v -1.441667 -0.881781 0.683998
v -1.441667 -0.927088 0.665232
v -1.416667 -0.896547 0.655571
v 1.441667 -0.649520 0.730198
v 1.441667 -0.600480 0.730198
v 1.416667 -0.625000 0.709585
v -1.441667 -0.649520 -0.730198
v -1.441667 -0.600480 -0.730198
v -1.416667 -0.625000 -0.709585
v 1.441667 -0.881781 -0.683998
v 1.441667 -0.927088 -0.665232
v 1.416667 -0.896547 -0.655571
v -1.441667 -0.368219 -0.683998
v -1.441667 -0.322912 -0.665232
v -1.416667 -0.353453 -0.655571
v 1.441667 -0.368219 0.683998
v 1.441667 -0.322912 0.665232
v 1.416667 -0.353453 0.655571
v 1.441667 -1.123990 -0.533666
v 1.441667 -1.158666 -0.498990
v 1.416667 -1.126752 -0.501753
v 1.441667 -0.126010 0.533666
v 1.441667 -0.091334 0.498990
v 1.416667 -0.123247 0.501753
v 1.441667 -1.290232 -0.302088
v 1.441667 -1.308998 -0.256781
v 1.416667 -1.280571 -0.271547
v 1.441667 0.040232 0.302088
v 1.441667 0.058998 0.256781
v 1.416667 0.030571 0.271547
v 1.441667 -1.355198 -0.024520
v 1.441667 -1.355198 0.024520
v 1.416667 -1.334585 -0.000000
v 1.441667 0.105198 0.024520
v 1.441667 0.105198 -0.024520
v 1.416667 0.084585 -0.000000
v 1.441667 -1.308998 0.256781
v 1.441667 -1.290232 0.302088
v 1.416667 -1.280571 0.271547
v 1.441667 0.058998 -0.256781
v 1.441667 0.040232 -0.302088
v 1.416667 0.030571 -0.271547
v 1.441667 -1.158666 0.498990
v 1.441667 -1.123990 0.533666
v 1.416667 -1.126752 0.501753
v 1.441667 -0.091334 -0.498990
v 1.441667 -0.126010 -0.533666
v 1.416667 -0.123247 -0.501753
vn -0.0000 0.1951 -0.9808
vn -0.0000 0.1951 0.9808
vn -0.0000 -0.1951 0.9808
vn -0.0000 -0.1951 -0.9808
vn -0.0000 0.5556 0.8315
vn -0.0000 -0.5556 -0.8315
vn -0.0000 0.8315 0.5556
vn -0.0000 -0.8315 -0.5556
vn -0.0000 0.9808 0.1951
vn -0.0000 -0.9808 -0.1951
vn -0.0000 0.9808 -0.1951
vn -0.0000 -0.9808 0.1951
vn -0.0000 0.8315 -0.5556
vn -0.0000 -0.8315 0.5556
vn -0.0000 0.5556 -0.8315
vn -0.0000 -0.5556 0.8315
vn 1.0000 -0.0000 -0.0000
vn -1.0000 -0.0000 -0.0000
vn 0.6362 -0.2953 -0.7128
vn 0.6362 -0.0000 -0.7716
vn 0.6362 -0.5456 -0.5456
vn 0.6362 -0.7128 -0.2953
vn 0.6362 -0.7716 -0.0000
vn 0.6362 -0.7128 0.2953
vn 0.6362 -0.5456 0.5456
vn 0.6362 -0.2953 0.7128
vn 0.6362 -0.0000 0.7716
vn 0.6362 0.2953 0.7128
vn 0.6362 0.5456 0.5456
vn 0.6362 0.7128 0.2953
vn 0.6362 0.7716 -0.0000
vn 0.6362 0.7128 -0.2953
vn 0.6362 0.5456 -0.5456
vn 0.6362 0.2953 -0.7128
vn -0.6362 -0.2953 -0.7128
vn -0.6362 -0.0000 -0.7716
vn -0.6362 -0.5456 -0.5456
vn -0.6362 -0.7128 -0.2953
vn -0.6362 -0.7716 -0.0000
vn -0.6362 -0.7128 0.2953
vn -0.6362 -0.5456 0.5456
vn -0.6362 -0.2953 0.7128
vn -0.6362 -0.0000 0.7716
vn -0.6362 0.2953 0.7128
vn -0.6362 0.5456 0.5456
vn -0.6362 0.7128 0.2953
vn -0.6362 0.7716 -0.0000
vn -0.6362 0.7128 -0.2953
vn -0.6362 0.5456 -0.5456
vn -0.6362 0.2953 -0.7128
vn 0.6361 -0.7128 -0.2953
vn 0.6361 0.7128 0.2953
vn 0.6361 0.7716 -0.0000
vn 0.6361 0.7128 -0.2953
vn -0.6361 0.7716 -0.0000
vn -0.6361 -0.7128 0.2953
vn 0.7071 -0.1380 -0.6935
vn 0.7071 -0.3928 -0.5879
vn 0.7071 -0.5879 -0.3928
vn 0.7071 -0.6935 -0.1379
vn 0.7071 -0.6935 0.1379
vn 0.7071 -0.5879 0.3928
vn 0.7071 -0.3928 0.5879
vn 0.7071 -0.1379 0.6935
vn 0.7071 0.1379 0.6935
vn 0.7071 0.3928 0.5879
vn 0.7071 0.5879 0.3928
vn 0.7071 0.6935 0.1379
vn 0.7071 0.6935 -0.1379
vn 0.7071 0.5879 -0.3928
vn 0.7071 0.3928 -0.5879
vn 0.7071 0.1379 -0.6935
vn -0.7071 -0.1379 -0.6935
vn -0.7071 -0.3928 -0.5879
vn -0.7071 -0.5879 -0.3928
vn -0.7071 -0.6935 -0.1379
vn -0.7071 -0.6935 0.1379
vn -0.7071 -0.5879 0.3928
vn -0.7071 -0.3928 0.5879
vn -0.7071 -0.1379 0.6935
vn -0.7071 0.1379 0.6935
vn -0.7071 0.3928 0.5879
vn -0.7071 0.5879 0.3928
vn -0.7071 0.6935 0.1379
vn -0.7071 0.6935 -0.1379
vn -0.7071 0.5879 -0.3928
vn -0.7071 0.3928 -0.5879
vn -0.7071 0.1379 -0.6935
vn -0.0000 -0.3827 0.9239
vn -0.0000 -0.0000 1.0000
vn -0.0000 -0.0000 -1.0000
vn -0.0000 -0.3827 -0.9239
vn -0.0000 0.3827 -0.9239
vn -0.0000 0.3827 0.9239
vn -0.0000 -0.7071 -0.7071
vn -0.0000 0.7071 0.7071
vn -0.0000 -0.9239 -0.3827
vn -0.0000 0.9239 0.3827
vn -0.0000 -1.0000 -0.0000
vn -0.0000 1.0000 -0.0000
vn -0.0000 -0.9239 0.3827
vn -0.0000 0.9239 -0.3827
vn -0.0000 -0.7071 0.7071
vn -0.0000 0.7071 -0.7071
vt 0.000000 0.000000
s 0
f 8/1/1 24/1/1 25/1/1 9/1/1
f 1/1/2 17/1/2 18/1/2 2/1/2
f 16/1/3 32/1/3 17/1/3 1/1/3
f 9/1/4 25/1/4 26/1/4 10/1/4
f 2/1/5 18/1/5 19/1/5 3/1/5
f 10/1/6 26/1/6 27/1/6 11/1/6
f 3/1/7 19/1/7 20/1/7 4/1/7
f 11/1/8 27/1/8 28/1/8 12/1/8
f 4/1/9 20/1/9 21/1/9 5/1/9
f 12/1/10 28/1/10 29/1/10 13/1/10
f 5/1/11 21/1/11 22/1/11 6/1/11
f 13/1/12 29/1/12 30/1/12 14/1/12
f 6/1/13 22/1/13 23/1/13 7/1/13
f 14/1/14 30/1/14 31/1/14 15/1/14
f 7/1/15 23/1/15 24/1/15 8/1/15
f 15/1/16 31/1/16 32/1/16 16/1/16
f 3/1/17 4/1/17 36/1/17 35/1/17
f 31/1/18 30/1/18 62/1/18 63/1/18
f 18/1/18 17/1/18 50/1/18 49/1/18
f 4/1/17 5/1/17 37/1/17 36/1/17
f 32/1/18 31/1/18 63/1/18 64/1/18
f 19/1/18 18/1/18 49/1/18 51/1/18
f 5/1/17 6/1/17 38/1/17 37/1/17
f 17/1/18 32/1/18 64/1/18 50/1/18
f 20/1/18 19/1/18 51/1/18 52/1/18
f 6/1/17 7/1/17 39/1/17 38/1/17
f 21/1/18 20/1/18 52/1/18 53/1/18
f 7/1/17 8/1/17 40/1/17 39/1/17
f 22/1/18 21/1/18 53/1/18 54/1/18
f 8/1/17 9/1/17 41/1/17 40/1/17
f 23/1/18 22/1/18 54/1/18 55/1/18
f 9/1/17 10/1/17 42/1/17 41/1/17
f 24/1/18 23/1/18 55/1/18 56/1/18
f 10/1/17 11/1/17 43/1/17 42/1/17
f 25/1/18 24/1/18 56/1/18 57/1/18
f 11/1/17 12/1/17 44/1/17 43/1/17
f 26/1/18 25/1/18 57/1/18 58/1/18
f 12/1/17 13/1/17 45/1/17 44/1/17
f 27/1/18 26/1/18 58/1/18 59/1/18
f 13/1/17 14/1/17 46/1/17 45/1/17
f 28/1/18 27/1/18 59/1/18 60/1/18
f 14/1/17 15/1/17 47/1/17 46/1/17
f 1/1/17 2/1/17 33/1/17 34/1/17
f 29/1/18 28/1/18 60/1/18 61/1/18
f 15/1/17 16/1/17 48/1/17 47/1/17
f 2/1/17 3/1/17 35/1/17 33/1/17
f 30/1/18 29/1/18 61/1/18 62/1/18
f 16/1/17 1/1/17 34/1/17 48/1/17
f 95/1/15 74/1/15 73/1/15 96/1/15
f 93/1/16 66/1/16 65/1/16 94/1/16
f 91/1/13 95/1/13 96/1/13 92/1/13
f 89/1/14 93/1/14 94/1/14 90/1/14
f 87/1/11 91/1/11 92/1/11 88/1/11
f 85/1/12 89/1/12 90/1/12 86/1/12
f 83/1/9 87/1/9 88/1/9 84/1/9
f 81/1/10 85/1/10 86/1/10 82/1/10
f 79/1/7 83/1/7 84/1/7 80/1/7
f 77/1/8 81/1/8 82/1/8 78/1/8
f 75/1/5 79/1/5 80/1/5 76/1/5
f 71/1/6 77/1/6 78/1/6 72/1/6
f 67/1/2 75/1/2 76/1/2 68/1/2
f 74/1/1 70/1/1 69/1/1 73/1/1
f 70/1/4 71/1/4 72/1/4 69/1/4
f 66/1/3 67/1/3 68/1/3 65/1/3
f 97/1/19 98/1/19 99/1/19
f 100/1/20 101/1/20 102/1/20
f 103/1/21 104/1/21 105/1/21
f 106/1/22 107/1/22 108/1/22
f 109/1/23 110/1/23 111/1/23
f 112/1/24 113/1/24 114/1/24
f 115/1/25 116/1/25 117/1/25
f 118/1/26 119/1/26 120/1/26
f 121/1/27 122/1/27 123/1/27
f 124/1/28 125/1/28 126/1/28
f 127/1/29 128/1/29 129/1/29
f 130/1/30 131/1/30 132/1/30
f 133/1/31 134/1/31 135/1/31
f 136/1/32 137/1/32 138/1/32
f 139/1/33 140/1/33 141/1/33
f 142/1/34 143/1/34 144/1/34
f 145/1/35 146/1/35 147/1/35
f 148/1/36 149/1/36 150/1/36
f 151/1/37 152/1/37 153/1/37
f 154/1/38 155/1/38 156/1/38
f 157/1/39 158/1/39 159/1/39
f 160/1/40 161/1/40 162/1/40
f 163/1/41 164/1/41 165/1/41
f 166/1/42 167/1/42 168/1/42
f 169/1/43 170/1/43 171/1/43
f 172/1/44 173/1/44 174/1/44
f 175/1/45 176/1/45 177/1/45
f 178/1/46 179/1/46 180/1/46
f 181/1/47 182/1/47 183/1/47
f 184/1/48 185/1/48 186/1/48
f 187/1/49 188/1/49 189/1/49
f 190/1/50 191/1/50 192/1/50
f 193/1/42 194/1/42 195/1/42
f 196/1/27 197/1/27 198/1/27
f 199/1/36 200/1/36 201/1/36
f 202/1/19 203/1/19 204/1/19
f 205/1/50 206/1/50 207/1/50
f 208/1/28 209/1/28 210/1/28
f 211/1/21 212/1/21 213/1/21
f 214/1/29 215/1/29 216/1/29
f 217/1/51 218/1/51 219/1/51
f 220/1/52 221/1/52 222/1/52
f 223/1/23 224/1/23 225/1/23
f 226/1/53 227/1/53 228/1/53
f 229/1/24 230/1/24 231/1/24
f 232/1/54 233/1/54 234/1/54
f 235/1/25 236/1/25 237/1/25
f 238/1/33 239/1/33 240/1/33
f 241/1/26 242/1/26 243/1/26
f 244/1/43 245/1/43 246/1/43
f 247/1/20 248/1/20 249/1/20
f 250/1/35 251/1/35 252/1/35
f 253/1/34 254/1/34 255/1/34
f 256/1/44 257/1/44 258/1/44
f 259/1/37 260/1/37 261/1/37
f 262/1/45 263/1/45 264/1/45
f 265/1/38 266/1/38 267/1/38
f 268/1/46 269/1/46 270/1/46
f 271/1/39 272/1/39 273/1/39
f 274/1/55 275/1/55 276/1/55
f 277/1/56 278/1/56 279/1/56
f 280/1/48 281/1/48 282/1/48
f 283/1/41 284/1/41 285/1/41
f 286/1/49 287/1/49 288/1/49
f 99/1/57 100/1/57 102/1/57 97/1/57
f 105/1/58 98/1/58 97/1/58 103/1/58
f 108/1/59 104/1/59 103/1/59 106/1/59
f 111/1/60 107/1/60 106/1/60 109/1/60
f 114/1/61 110/1/61 109/1/61 112/1/61
f 117/1/62 113/1/62 112/1/62 115/1/62
f 120/1/63 116/1/63 115/1/63 118/1/63
f 123/1/64 119/1/64 118/1/64 121/1/64
f 126/1/65 122/1/65 121/1/65 124/1/65
f 129/1/66 125/1/66 124/1/66 127/1/66
f 132/1/67 128/1/67 127/1/67 130/1/67
f 135/1/68 131/1/68 130/1/68 133/1/68
f 138/1/69 134/1/69 133/1/69 136/1/69
f 139/1/70 137/1/70 136/1/70 140/1/70
f 142/1/71 141/1/71 140/1/71 143/1/71
f 101/1/72 144/1/72 143/1/72 102/1/72
f 147/1/73 149/1/73 148/1/73 145/1/73
f 153/1/74 147/1/74 146/1/74 151/1/74
f 156/1/75 153/1/75 152/1/75 154/1/75
f 159/1/76 156/1/76 155/1/76 157/1/76
f 162/1/77 159/1/77 158/1/77 160/1/77
f 165/1/78 162/1/78 161/1/78 163/1/78
f 168/1/79 165/1/79 164/1/79 166/1/79
f 171/1/80 168/1/80 167/1/80 169/1/80
f 174/1/81 171/1/81 170/1/81 172/1/81
f 177/1/82 174/1/82 173/1/82 175/1/82
f 180/1/83 177/1/83 176/1/83 178/1/83
f 183/1/84 180/1/84 179/1/84 181/1/84
f 186/1/85 183/1/85 182/1/85 184/1/85
f 189/1/86 186/1/86 185/1/86 187/1/86
f 192/1/87 189/1/87 188/1/87 190/1/87
f 149/1/88 192/1/88 191/1/88 150/1/88
f 195/1/89 120/1/89 119/1/89 193/1/89
f 198/1/90 170/1/90 169/1/90 196/1/90
f 201/1/91 101/1/91 100/1/91 199/1/91
f 204/1/92 146/1/92 145/1/92 202/1/92
f 207/1/93 142/1/93 144/1/93 205/1/93
f 210/1/94 173/1/94 172/1/94 208/1/94
f 213/1/95 152/1/95 151/1/95 211/1/95
f 216/1/96 176/1/96 175/1/96 214/1/96
f 219/1/97 155/1/97 154/1/97 217/1/97
f 222/1/98 179/1/98 178/1/98 220/1/98
f 225/1/99 158/1/99 157/1/99 223/1/99
f 228/1/100 182/1/100 181/1/100 226/1/100
f 231/1/101 161/1/101 160/1/101 229/1/101
f 234/1/102 185/1/102 184/1/102 232/1/102
f 237/1/103 164/1/103 163/1/103 235/1/103
f 240/1/104 188/1/104 187/1/104 238/1/104
f 166/1/89 242/1/89 241/1/89 167/1/89
f 122/1/90 245/1/90 244/1/90 123/1/90
f 150/1/91 248/1/91 247/1/91 148/1/91
f 98/1/92 251/1/92 250/1/92 99/1/92
f 190/1/93 254/1/93 253/1/93 191/1/93
f 125/1/94 257/1/94 256/1/94 126/1/94
f 104/1/95 260/1/95 259/1/95 105/1/95
f 128/1/96 263/1/96 262/1/96 129/1/96
f 107/1/97 266/1/97 265/1/97 108/1/97
f 131/1/98 269/1/98 268/1/98 132/1/98
f 110/1/99 272/1/99 271/1/99 111/1/99
f 134/1/100 275/1/100 274/1/100 135/1/100
f 113/1/101 278/1/101 277/1/101 114/1/101
f 137/1/102 281/1/102 280/1/102 138/1/102
f 116/1/103 284/1/103 283/1/103 117/1/103
f 141/1/104 287/1/104 286/1/104 139/1/104
f 206/1/87 288/1/87 287/1/87 207/1/87
f 254/1/71 240/1/71 239/1/71 255/1/71
f 194/1/79 285/1/79 284/1/79 195/1/79
f 242/1/63 237/1/63 236/1/63 243/1/63
f 288/1/86 282/1/86 281/1/86 286/1/86
f 238/1/70 234/1/70 233/1/70 239/1/70
f 285/1/78 279/1/78 278/1/78 283/1/78
f 235/1/62 231/1/62 230/1/62 236/1/62
f 282/1/85 276/1/85 275/1/85 280/1/85
f 232/1/69 228/1/69 227/1/69 233/1/69
f 279/1/77 273/1/77 272/1/77 277/1/77
f 229/1/61 225/1/61 224/1/61 230/1/61
f 276/1/84 270/1/84 269/1/84 274/1/84
f 226/1/68 222/1/68 221/1/68 227/1/68
f 273/1/76 267/1/76 266/1/76 271/1/76
f 223/1/60 219/1/60 218/1/60 224/1/60
f 270/1/83 264/1/83 263/1/83 268/1/83
f 220/1/67 216/1/67 215/1/67 221/1/67
f 267/1/75 261/1/75 260/1/75 265/1/75
f 217/1/59 213/1/59 212/1/59 218/1/59
f 264/1/82 258/1/82 257/1/82 262/1/82
f 214/1/66 210/1/66 209/1/66 215/1/66
f 261/1/74 252/1/74 251/1/74 259/1/74
f 211/1/58 204/1/58 203/1/58 212/1/58
f 258/1/81 246/1/81 245/1/81 256/1/81
f 208/1/65 198/1/65 197/1/65 209/1/65
f 200/1/88 206/1/88 205/1/88 201/1/88
f 248/1/72 253/1/72 255/1/72 249/1/72
f 252/1/73 200/1/73 199/1/73 250/1/73
f 202/1/57 247/1/57 249/1/57 203/1/57
f 246/1/80 194/1/80 193/1/80 244/1/80
f 196/1/64 241/1/64 243/1/64 197/1/64
f 100/1/4 99/1/4 250/1/4 199/1/4
f 33/1/17 35/1/17 103/1/17 97/1/17
f 34/1/17 33/1/17 97/1/17 102/1/17
f 98/1/6 105/1/6 259/1/6 251/1/6
f 48/1/17 34/1/17 102/1/17 143/1/17
f 144/1/1 101/1/1 201/1/1 205/1/1
f 35/1/17 36/1/17 106/1/17 103/1/17
f 104/1/8 108/1/8 265/1/8 260/1/8
f 107/1/10 111/1/10 271/1/10 266/1/10
f 36/1/17 37/1/17 109/1/17 106/1/17
f 110/1/12 114/1/12 277/1/12 272/1/12
f 37/1/17 38/1/17 112/1/17 109/1/17
f 113/1/14 117/1/14 283/1/14 278/1/14
f 38/1/17 39/1/17 115/1/17 112/1/17
f 116/1/16 120/1/16 195/1/16 284/1/16
f 39/1/17 40/1/17 118/1/17 115/1/17
f 119/1/3 123/1/3 244/1/3 193/1/3
f 40/1/17 41/1/17 121/1/17 118/1/17
f 122/1/2 126/1/2 256/1/2 245/1/2
f 41/1/17 42/1/17 124/1/17 121/1/17
f 125/1/5 129/1/5 262/1/5 257/1/5
f 42/1/17 43/1/17 127/1/17 124/1/17
f 128/1/7 132/1/7 268/1/7 263/1/7
f 43/1/17 44/1/17 130/1/17 127/1/17
f 131/1/9 135/1/9 274/1/9 269/1/9
f 44/1/17 45/1/17 133/1/17 130/1/17
f 134/1/11 138/1/11 280/1/11 275/1/11
f 45/1/17 46/1/17 136/1/17 133/1/17
f 137/1/13 139/1/13 286/1/13 281/1/13
f 46/1/17 47/1/17 140/1/17 136/1/17
f 141/1/15 142/1/15 207/1/15 287/1/15
f 47/1/17 48/1/17 143/1/17 140/1/17
f 49/1/18 50/1/18 149/1/18 147/1/18
f 247/1/4 202/1/4 145/1/4 148/1/4
f 51/1/18 49/1/18 147/1/18 153/1/18
f 204/1/6 211/1/6 151/1/6 146/1/6
f 50/1/18 64/1/18 192/1/18 149/1/18
f 253/1/1 248/1/1 150/1/1 191/1/1
f 52/1/18 51/1/18 153/1/18 156/1/18
f 213/1/8 217/1/8 154/1/8 152/1/8
f 53/1/18 52/1/18 156/1/18 159/1/18
f 219/1/10 223/1/10 157/1/10 155/1/10
f 54/1/18 53/1/18 159/1/18 162/1/18
f 225/1/12 229/1/12 160/1/12 158/1/12
f 55/1/18 54/1/18 162/1/18 165/1/18
f 231/1/14 235/1/14 163/1/14 161/1/14
f 56/1/18 55/1/18 165/1/18 168/1/18
f 237/1/16 242/1/16 166/1/16 164/1/16
f 57/1/18 56/1/18 168/1/18 171/1/18
f 241/1/3 196/1/3 169/1/3 167/1/3
f 58/1/18 57/1/18 171/1/18 174/1/18
f 198/1/2 208/1/2 172/1/2 170/1/2
f 59/1/18 58/1/18 174/1/18 177/1/18
f 210/1/5 214/1/5 175/1/5 173/1/5
f 60/1/18 59/1/18 177/1/18 180/1/18
f 216/1/7 220/1/7 178/1/7 176/1/7
f 61/1/18 60/1/18 180/1/18 183/1/18
f 222/1/9 226/1/9 181/1/9 179/1/9
f 62/1/18 61/1/18 183/1/18 186/1/18
f 228/1/11 232/1/11 184/1/11 182/1/11
f 63/1/18 62/1/18 186/1/18 189/1/18
f 234/1/13 238/1/13 187/1/13 185/1/13
f 64/1/18 63/1/18 189/1/18 192/1/18
f 240/1/15 254/1/15 190/1/15 188/1/15
f 67/1/18 66/1/18 194/1/18 246/1/18
f 66/1/18 93/1/18 285/1/18 194/1/18
f 65/1/17 68/1/17 197/1/17 243/1/17
f 68/1/17 76/1/17 209/1/17 197/1/17
f 71/1/18 70/1/18 200/1/18 252/1/18
f 70/1/18 74/1/18 206/1/18 200/1/18
f 69/1/17 72/1/17 203/1/17 249/1/17
f 72/1/17 78/1/17 212/1/17 203/1/17
f 74/1/18 95/1/18 288/1/18 206/1/18
f 76/1/17 80/1/17 215/1/17 209/1/17
f 78/1/17 82/1/17 218/1/17 212/1/17
f 80/1/17 84/1/17 221/1/17 215/1/17
f 82/1/17 86/1/17 224/1/17 218/1/17
f 84/1/17 88/1/17 227/1/17 221/1/17
f 86/1/17 90/1/17 230/1/17 224/1/17
f 88/1/17 92/1/17 233/1/17 227/1/17
f 90/1/17 94/1/17 236/1/17 230/1/17
f 92/1/17 96/1/17 239/1/17 233/1/17
f 94/1/17 65/1/17 243/1/17 236/1/17
f 96/1/17 73/1/17 255/1/17 239/1/17
f 75/1/18 67/1/18 246/1/18 258/1/18
f 73/1/17 69/1/17 249/1/17 255/1/17
f 77/1/18 71/1/18 252/1/18 261/1/18
f 79/1/18 75/1/18 258/1/18 264/1/18
f 81/1/18 77/1/18 261/1/18 267/1/18
f 83/1/18 79/1/18 264/1/18 270/1/18
f 85/1/18 81/1/18 267/1/18 273/1/18
f 87/1/18 83/1/18 270/1/18 276/1/18
f 89/1/18 85/1/18 273/1/18 279/1/18
f 91/1/18 87/1/18 276/1/18 282/1/18
f 93/1/18 89/1/18 279/1/18 285/1/18
f 95/1/18 91/1/18 282/1/18 288/1/18
