# Blender 4.5.3 LTS
# www.blender.org
mtllib PlusWall.mtl
o Plus_Wall
v -3.750000 0.000000 0.750000
v -3.414874 1.986709 0.409837
v -3.750000 0.000000 -0.750000
v -3.414874 1.986709 -0.409837
v 3.750000 0.000000 0.750000
v 3.414874 1.986709 0.409837
v 3.750000 0.000000 -0.750000
v 3.414874 1.986709 -0.409837
v 1.625000 0.000000 -1.125000
v -1.625000 0.000000 -1.125000
v -1.549969 2.525010 -0.732818
v 1.549969 2.525010 -0.732818
v -1.625000 0.000000 1.125000
v 1.625000 0.000000 1.125000
v 1.549969 2.525010 0.732818
v -1.549969 2.525010 0.732818
v -3.500000 0.500000 0.500000
v -3.500000 0.500000 -0.500000
v 3.500000 0.500000 -0.500000
v 3.500000 0.500000 0.500000
v 1.625000 0.500000 0.875000
v -1.625000 0.500000 0.875000
v -1.625000 0.500000 -0.875000
v 1.625000 0.500000 -0.875000
v -3.750000 0.250000 -0.750000
v 3.750000 0.250000 -0.750000
v 3.750000 0.250000 0.750000
v 1.625000 0.250000 1.125000
v -1.625000 0.250000 1.125000
v -1.625000 0.250000 -1.125000
v 1.625000 0.250000 -1.125000
v -3.750000 0.250000 0.750000
v -3.500000 1.625000 0.500000
v -3.500000 1.625000 -0.500000
v 1.625000 2.250000 -0.875000
v 3.500000 1.625000 -0.500000
v 3.500000 1.625000 0.500000
v -1.625000 2.250000 0.875000
v -1.625000 2.250000 -0.875000
v 1.625000 2.250000 0.875000
v -0.750000 0.000000 -3.750000
v -0.409837 1.986709 -3.414874
v 0.750000 0.000000 -3.750000
v 0.409837 1.986709 -3.414874
v -0.750000 0.000000 3.750000
v -0.409837 1.986709 3.414874
v 0.750000 0.000000 3.750000
v 0.409837 1.986709 3.414874
v 1.125000 0.000000 1.625000
v 1.125000 0.000000 -1.625000
v 0.732818 2.525010 -1.549969
v 0.732818 2.525010 1.549969
v -1.125000 0.000000 -1.625000
v -1.125000 0.000000 1.625000
v -0.732818 2.525010 1.549969
v -0.732818 2.525010 -1.549969
v -0.500000 0.500000 -3.500000
v 0.500000 0.500000 -3.500000
v 0.500000 0.500000 3.500000
v -0.500000 0.500000 3.500000
v -0.875000 0.500000 1.625000
v -0.875000 0.500000 -1.625000
v 0.875000 0.500000 -1.625000
v 0.875000 0.500000 1.625000
v 0.750000 0.250000 -3.750000
v 0.750000 0.250000 3.750000
v -0.750000 0.250000 3.750000
v -1.125000 0.250000 1.625000
v -1.125000 0.250000 -1.625000
v 1.125000 0.250000 -1.625000
v 1.125000 0.250000 1.625000
v -0.750000 0.250000 -3.750000
v -0.500000 1.625000 -3.500000
v 0.500000 1.625000 -3.500000
v 0.875000 2.250000 1.625000
v 0.500000 1.625000 3.500000
v -0.500000 1.625000 3.500000
v -0.875000 2.250000 -1.625000
v 0.875000 2.250000 -1.625000
v -0.875000 2.250000 1.625000
v -0.000000 0.000000 -3.750000
v -0.000000 1.625000 -3.500000
v 0.000000 0.000000 3.750000
v 0.000000 1.625000 3.500000
v 0.000000 2.525010 1.549969
v -0.000000 2.525010 -1.549969
v -0.000000 0.000000 -1.625000
v 0.000000 0.000000 1.625000
v 0.000000 0.500000 3.500000
v -0.000000 0.500000 -3.500000
v -0.000000 0.250000 -3.750000
v 0.000000 0.250000 3.750000
v -0.000000 1.986709 -3.414874
v 0.000000 1.986709 3.414874
v 0.000000 0.000000 -1.125000
v 0.000000 0.000000 1.125000
v 0.000000 2.525010 0.732818
v 0.000000 2.525010 -0.732818
v -3.750000 0.000000 0.000000
v -3.500000 1.625000 0.000000
v 3.750000 0.000000 0.000000
v 3.500000 1.625000 0.000000
v 1.549969 2.525010 0.000000
v -1.549969 2.525010 0.000000
v -1.625000 0.000000 0.000000
v 1.625000 0.000000 0.000000
v 3.500000 0.500000 0.000000
v -3.500000 0.500000 0.000000
v -3.750000 0.250000 0.000000
v 3.750000 0.250000 0.000000
v -3.414874 1.986709 0.000000
v 3.414874 1.986709 -0.000000
v 0.000000 2.525010 0.000000
v 0.000000 0.000000 0.000000
vn -1.0000 -0.0000 -0.0000
vn 0.1961 -0.0000 -0.9806
vn 1.0000 -0.0000 -0.0000
vn -0.1961 -0.0000 0.9806
vn -0.0000 -1.0000 -0.0000
vn -0.2773 0.9608 -0.0000
vn 0.2773 0.9608 -0.0000
vn 0.1961 -0.0000 0.9806
vn -0.1961 -0.0000 -0.9806
vn -0.1255 0.7322 -0.6694
vn 0.1255 0.7322 0.6694
vn -0.1255 0.7322 0.6694
vn 0.7071 0.7071 -0.0000
vn 0.1255 0.7322 -0.6694
vn -0.7071 0.7071 -0.0000
vn 0.1738 -0.0000 -0.9848
vn -0.1738 -0.0000 0.9848
vn 0.1738 -0.0000 0.9848
vn -0.1738 -0.0000 -0.9848
vn -0.9734 0.2291 -0.0000
vn 0.2850 0.3910 -0.8752
vn 0.9734 0.2291 -0.0000
vn -0.2850 0.3910 0.8752
vn -0.2850 0.3910 -0.8752
vn 0.2850 0.3910 0.8752
vn -0.0000 -0.0000 -1.0000
vn 0.9806 -0.0000 0.1961
vn -0.0000 -0.0000 1.0000
vn -0.9806 -0.0000 -0.1961
vn -0.0000 0.9608 -0.2773
vn -0.0000 0.9608 0.2773
vn -0.9806 -0.0000 0.1961
vn 0.9806 -0.0000 -0.1961
vn 0.6694 0.7322 -0.1255
vn -0.6694 0.7322 0.1255
vn -0.6694 0.7322 -0.1255
vn -0.0000 0.7071 0.7071
vn 0.6694 0.7322 0.1255
vn -0.0000 0.7071 -0.7071
vn 0.9848 -0.0000 0.1738
vn -0.9848 -0.0000 -0.1738
vn -0.9848 -0.0000 0.1738
vn 0.9848 -0.0000 -0.1738
vn -0.0000 0.2291 -0.9734
vn 0.8752 0.3910 0.2850
vn -0.0000 0.2291 0.9734
vn -0.8752 0.3910 -0.2850
vn 0.8752 0.3910 -0.2850
vn -0.8752 0.3910 0.2850
vn -0.7071 -0.0000 0.7071
vn -0.5774 0.5774 0.5774
vn -0.6174 0.4876 0.6174
vn -0.6174 0.4876 -0.6174
vn -0.7071 -0.0000 -0.7071
vn -0.5774 0.5773 -0.5774
vn 0.7071 -0.0000 -0.7071
vn 0.5774 0.5774 -0.5774
vn 0.6174 0.4876 -0.6174
vn 0.5774 0.5773 0.5774
vn 0.7071 -0.0000 0.7071
vn 0.6173 0.4876 0.6174
vn -0.0000 1.0000 -0.0000
vt 0.223474 0.281166
vt 0.163546 0.301917
vt 0.153010 0.274874
vt 0.213141 0.249296
vt 0.179295 0.809897
vt 0.103891 0.774771
vt 0.147825 0.754471
vt 0.199670 0.779536
vt 0.211281 0.752297
vt 0.158803 0.729643
vt 0.168266 0.705271
vt 0.223780 0.724777
vt 0.240282 0.352417
vt 0.152545 0.379622
vt 0.173179 0.330443
vt 0.234333 0.312177
vt 0.551837 0.357650
vt 0.605146 0.357650
vt 0.605146 0.420366
vt 0.551837 0.451724
vt 0.855510 0.508354
vt 0.936910 0.509974
vt 0.934906 0.553789
vt 0.855098 0.592498
vt 0.668503 0.504761
vt 0.749903 0.506381
vt 0.747059 0.590298
vt 0.668813 0.548599
vt 0.416997 0.357650
vt 0.470306 0.357650
vt 0.470306 0.451724
vt 0.416997 0.420366
vt 0.151333 0.657843
vt 0.231754 0.688333
vt 0.103262 0.248419
vt 0.192610 0.213587
vt 0.225233 0.232356
vt 0.203251 0.194995
vt 0.242180 0.720839
vt 0.250299 0.682316
vt 0.259761 0.360255
vt 0.253918 0.317942
vt 0.223044 0.757528
vt 0.187504 0.826812
vt 0.209187 0.795250
vt 0.237018 0.276647
vt 0.250773 0.272104
vt 0.237671 0.227522
vt 0.198457 0.832746
vt 0.219271 0.800632
vt 0.234958 0.762883
vt 0.253446 0.725214
vt 0.273303 0.356875
vt 0.266247 0.314794
vt 0.263316 0.686081
vt 0.216561 0.188405
vt 0.936600 0.466136
vt 0.971647 0.450772
vt 0.975417 0.510716
vt 0.750315 0.422237
vt 0.670507 0.460946
vt 0.636055 0.444241
vt 0.725903 0.399107
vt 0.633766 0.563962
vt 0.629996 0.504019
vt 0.969358 0.570494
vt 0.879510 0.615628
vt 0.858353 0.424438
vt 0.883656 0.402281
vt 0.721757 0.612454
vt 0.115468 0.951996
vt 0.070482 0.922464
vt 0.074252 0.916572
vt 0.121625 0.946098
vt 0.249733 0.646804
vt 0.167001 0.616583
vt 0.231310 0.532163
vt 0.297418 0.534992
vt 0.297599 0.524495
vt 0.231546 0.522995
vt 0.231542 0.515011
vt 0.297959 0.513967
vt 0.176872 0.166792
vt 0.085365 0.202657
vt 0.075392 0.081518
vt 0.134010 0.047392
vt 0.511072 0.493535
vt 0.511072 0.671231
vt 0.492257 0.671231
vt 0.482849 0.493535
vt 0.806224 0.329386
vt 0.809868 0.148688
vt 0.821457 0.149243
vt 0.831687 0.329676
vt 0.795544 0.866047
vt 0.799189 0.685349
vt 0.824645 0.686086
vt 0.807146 0.865960
vt 0.511072 0.044069
vt 0.511072 0.221765
vt 0.482849 0.221765
vt 0.492257 0.044069
vt 0.167584 0.425210
vt 0.256465 0.397910
vt 0.086070 0.814573
vt 0.162995 0.849586
vt 0.131851 0.959305
vt 0.174023 0.853771
vt 0.317246 0.515054
vt 0.268853 0.393001
vt 0.190412 0.162744
vt 0.147203 0.031856
vt 0.317141 0.525095
vt 0.261468 0.652471
vt 0.316899 0.534824
vt 0.124431 0.965863
vt 0.132424 0.974156
vt 0.140717 0.966163
vt 0.273868 0.657387
vt 0.328081 0.537896
vt 0.329374 0.525532
vt 0.329500 0.513280
vt 0.203842 0.157581
vt 0.158753 0.025119
vt 0.283438 0.388160
vt 0.186322 0.859345
vt 0.798267 0.148775
vt 0.780929 0.103981
vt 0.810859 0.099606
vt 0.773726 0.685059
vt 0.783956 0.865492
vt 0.764825 0.909550
vt 0.748051 0.701191
vt 0.824484 0.910754
vt 0.794554 0.915129
vt 0.840587 0.105185
vt 0.857362 0.313544
vt 0.780768 0.328649
vt 0.755764 0.311493
vt 0.849649 0.703241
vt 0.511072 0.357650
vt 0.511072 0.451724
vt 0.511072 0.263576
vt 0.470306 0.263576
vt 0.539294 0.493535
vt 0.802706 0.507368
vt 0.801062 0.591475
vt 0.804351 0.423260
vt 0.551837 0.263576
vt 0.539294 0.221765
vt 0.138269 0.023824
vt 0.149235 0.013443
vt 0.126987 0.040004
vt 0.529887 0.044069
vt 0.529887 0.671231
vt 0.070482 0.073146
vt 0.416997 0.294934
vt 0.605146 0.294934
s 0
f 108/1/1 100/2/1 34/3/1 18/4/1
f 24/5/2 35/6/2 36/7/2 19/8/2
f 107/9/3 102/10/3 37/11/3 20/12/3
f 22/13/4 38/14/4 33/15/4 17/16/4
f 106/17/5 101/18/5 5/19/5 14/20/5
f 104/21/6 111/22/6 2/23/6 16/24/6
f 112/25/7 103/26/7 15/27/7 6/28/7
f 99/29/5 105/30/5 13/31/5 1/32/5
f 20/12/8 37/11/8 40/33/8 21/34/8
f 18/4/9 34/3/9 39/35/9 23/36/9
f 25/37/10 18/4/10 23/36/10 30/38/10
f 27/39/11 20/12/11 21/34/11 28/40/11
f 29/41/12 22/13/12 17/16/12 32/42/12
f 110/43/13 107/9/13 20/12/13 27/39/13
f 31/44/14 24/5/14 19/8/14 26/45/14
f 109/46/15 108/1/15 18/4/15 25/37/15
f 99/47/1 109/46/1 25/37/1 3/48/1
f 9/49/16 31/44/16 26/45/16 7/50/16
f 101/51/3 110/43/3 27/39/3 5/52/3
f 13/53/17 29/41/17 32/42/17 1/54/17
f 5/52/18 27/39/18 28/40/18 14/55/18
f 3/48/19 25/37/19 30/38/19 10/56/19
f 111/22/20 4/57/20 34/58/20 100/59/20
f 12/60/21 8/61/21 36/62/21 35/63/21
f 112/25/22 6/28/22 37/64/22 102/65/22
f 16/24/23 2/23/23 33/66/23 38/67/23
f 4/57/24 11/68/24 39/69/24 34/58/24
f 6/28/25 15/27/25 40/70/25 37/64/25
f 90/71/26 82/72/26 74/73/26 58/74/26
f 64/75/27 75/76/27 76/77/27 59/78/27
f 89/79/28 84/80/28 77/81/28 60/82/28
f 62/83/29 78/84/29 73/85/29 57/86/29
f 88/87/5 83/88/5 45/89/5 54/90/5
f 86/91/30 93/92/30 42/93/30 56/94/30
f 94/95/31 85/96/31 55/97/31 46/98/31
f 81/99/5 87/100/5 53/101/5 41/102/5
f 60/82/32 77/81/32 80/103/32 61/104/32
f 58/74/33 74/73/33 79/105/33 63/106/33
f 65/107/34 58/74/34 63/106/34 70/108/34
f 67/109/35 60/82/35 61/104/35 68/110/35
f 69/111/36 62/83/36 57/86/36 72/112/36
f 92/113/37 89/79/37 60/82/37 67/109/37
f 71/114/38 64/75/38 59/78/38 66/115/38
f 91/116/39 90/71/39 58/74/39 65/107/39
f 81/117/26 91/116/26 65/107/26 43/118/26
f 49/119/40 71/114/40 66/115/40 47/120/40
f 83/121/28 92/113/28 67/109/28 45/122/28
f 53/123/41 69/111/41 72/112/41 41/124/41
f 45/122/42 67/109/42 68/110/42 54/125/42
f 43/118/43 65/107/43 70/108/43 50/126/43
f 93/92/44 44/127/44 74/128/44 82/129/44
f 52/130/45 48/131/45 76/132/45 75/133/45
f 94/95/46 46/98/46 77/134/46 84/135/46
f 56/94/47 42/93/47 73/136/47 78/137/47
f 44/127/48 51/138/48 79/139/48 74/128/48
f 46/98/49 55/97/49 80/140/49 77/134/49
f 114/141/5 96/142/5 13/31/5 105/30/5
f 95/143/5 10/144/5 53/101/5 87/100/5
f 96/142/5 14/20/5 49/145/5 88/87/5
f 54/125/50 68/110/50 29/41/50 13/53/50
f 68/110/51 61/104/51 22/13/51 29/41/51
f 61/104/50 80/103/50 38/14/50 22/13/50
f 80/140/52 55/97/52 16/24/52 38/67/52
f 56/94/53 78/137/53 39/69/53 11/68/53
f 78/84/54 62/83/54 23/36/54 39/35/54
f 62/83/55 69/111/55 30/38/55 23/36/55
f 69/111/54 53/123/54 10/56/54 30/38/54
f 50/126/56 70/108/56 31/44/56 9/49/56
f 70/108/57 63/106/57 24/5/57 31/44/57
f 63/106/56 79/105/56 35/6/56 24/5/56
f 79/139/58 51/138/58 12/60/58 35/63/58
f 64/75/59 71/114/59 28/40/59 21/34/59
f 71/114/60 49/119/60 14/55/60 28/40/60
f 52/130/61 75/133/61 40/70/61 15/27/61
f 75/76/60 64/75/60 21/34/60 40/33/60
f 113/146/62 97/147/62 15/27/62 103/26/62
f 86/91/62 98/148/62 12/60/62 51/138/62
f 85/96/62 52/130/62 15/27/62 97/147/62
f 55/97/62 85/96/62 97/147/62 16/24/62
f 56/94/62 11/68/62 98/148/62 86/91/62
f 104/21/62 16/24/62 97/147/62 113/146/62
f 13/31/5 96/142/5 88/87/5 54/90/5
f 9/149/5 95/143/5 87/100/5 50/150/5
f 106/17/5 14/20/5 96/142/5 114/141/5
f 48/131/46 94/95/46 84/135/46 76/132/46
f 42/93/44 93/92/44 82/129/44 73/136/44
f 47/120/28 66/115/28 92/113/28 83/121/28
f 41/124/26 72/112/26 91/151/26 81/152/26
f 72/112/39 57/86/39 90/153/39 91/151/39
f 66/115/37 59/78/37 89/79/37 92/113/37
f 43/154/5 50/150/5 87/100/5 81/99/5
f 48/131/31 52/130/31 85/96/31 94/95/31
f 51/138/30 44/127/30 93/92/30 86/91/30
f 49/145/5 47/155/5 83/88/5 88/87/5
f 59/78/28 76/77/28 84/80/28 89/79/28
f 57/86/26 73/85/26 82/156/26 90/153/26
f 9/149/5 106/17/5 114/141/5 95/143/5
f 11/68/62 104/21/62 113/146/62 98/148/62
f 98/148/62 113/146/62 103/26/62 12/60/62
f 95/143/5 114/141/5 105/30/5 10/144/5
f 8/61/22 112/25/22 102/65/22 36/62/22
f 2/23/20 111/22/20 100/59/20 33/66/20
f 7/50/3 26/45/3 110/43/3 101/51/3
f 1/54/1 32/42/1 109/46/1 99/47/1
f 32/42/15 17/16/15 108/1/15 109/46/15
f 26/45/13 19/8/13 107/9/13 110/43/13
f 3/157/5 10/144/5 105/30/5 99/29/5
f 8/61/7 12/60/7 103/26/7 112/25/7
f 11/68/6 4/57/6 111/22/6 104/21/6
f 9/149/5 7/158/5 101/18/5 106/17/5
f 19/8/3 36/7/3 102/10/3 107/9/3
f 17/16/1 33/15/1 100/2/1 108/1/1
