# Blender 4.5.3 LTS
# www.blender.org
o MediumToSmallConnector
v -1.625000 -1.250000 1.125000
v -1.625000 0.000000 0.737100
v -1.625000 -1.250000 -1.125000
v -1.625000 0.000000 -0.737100
v 1.625000 -1.250000 1.125000
v 1.625000 1.250000 0.737100
v 1.625000 -1.250000 -1.125000
v 1.625000 1.250000 -0.737100
v -1.625000 -0.750000 0.877500
v -1.625000 -0.750000 -0.877500
v 1.625000 -0.750000 -0.877500
v 1.625000 -0.750000 0.877500
v -1.625000 -0.300000 0.877500
v -1.625000 -0.300000 -0.877500
v 1.625000 0.950000 -0.877500
v 1.625000 0.950000 0.877500
v -1.625000 -1.000000 -1.125000
v 1.625000 -1.000000 -1.125000
v 1.625000 -1.000000 1.125000
v -1.625000 -1.000000 1.125000
v -1.625000 -1.250000 0.000000
v -1.625000 0.000000 0.000000
v 1.625000 -1.250000 0.000000
v 1.625000 1.250000 0.000000
v 1.625000 -0.750000 0.000000
v -1.625000 -0.750000 0.000000
v 1.625000 0.950000 0.000000
v -1.625000 -0.300000 0.000000
v -1.625000 -1.000000 0.000000
v 1.625000 -1.000000 0.000000
v 0.000000 -1.250000 -1.125000
v 0.000000 1.250000 -0.737100
v 0.000000 -1.250000 1.125000
v 0.000000 1.250000 0.737100
v 0.000000 -0.750000 0.877500
v 0.000000 -0.750000 -0.877500
v 0.000000 0.950000 0.877500
v 0.000000 0.950000 -0.877500
v 0.000000 -1.000000 -1.125000
v 0.000000 -1.000000 1.125000
v 0.000000 1.250000 0.000000
v 0.000000 -1.250000 0.000000
vn -1.0000 -0.0000 -0.0000
vn -0.0000 0.4239 -0.9057
vn 1.0000 -0.0000 -0.0000
vn -0.3100 0.4030 0.8611
vn -0.0000 -1.0000 -0.0000
vn -0.6097 0.7926 -0.0000
vn -0.0000 0.7035 0.7107
vn -0.0000 0.7035 -0.7107
vn -0.0000 -0.0000 1.0000
vn -0.0000 -0.0000 -1.0000
vn -0.0000 1.0000 -0.0000
vn -0.0000 0.4239 0.9057
vn -0.3100 0.4030 -0.8611
vt 0.252810 0.115626
vt 0.252786 0.175492
vt 0.130915 0.187165
vt 0.079595 0.167915
vt 0.075828 0.373549
vt 0.128641 0.376185
vt 0.126367 0.565205
vt 0.072062 0.579182
vt 0.275601 0.645414
vt 0.255248 0.586213
vt 0.379881 0.565385
vt 0.432179 0.580117
vt 0.432179 0.374100
vt 0.379330 0.376037
vt 0.378779 0.186690
vt 0.432179 0.168082
vt 0.713104 0.374686
vt 0.710525 0.575070
vt 0.547025 0.508998
vt 0.561635 0.355804
vt 0.254017 0.380853
vt 0.532427 0.347661
vt 0.491635 0.338218
vt 0.513875 0.148269
vt 0.550261 0.180853
vt 0.652555 0.623416
vt 0.624034 0.645019
vt 0.469394 0.528166
vt 0.514592 0.514468
vt 0.894615 0.352217
vt 0.935936 0.346729
vt 0.935936 0.541630
vt 0.894689 0.522897
vt 0.716187 0.129783
vt 0.716338 0.097030
vt 0.935936 0.151828
vt 0.894541 0.181536
vt 0.731531 0.780600
vt 0.730407 0.958427
vt 0.600817 0.957954
vt 0.599562 0.779626
vt 0.966166 0.785542
vt 0.961188 0.962562
vt 0.859996 0.958899
vt 0.863501 0.781575
vt 0.266030 0.783761
vt 0.264905 0.961587
vt 0.132935 0.960613
vt 0.136440 0.783288
vt 0.496944 0.781883
vt 0.499493 0.960305
vt 0.396875 0.962562
vt 0.395619 0.784233
vt 0.715683 0.174301
vt 0.865411 0.197801
vt 0.864895 0.353400
vt 0.864379 0.508999
vt 0.576245 0.202610
vt 0.755371 0.616401
vt 0.030270 0.956646
vt 0.035248 0.779626
vt 0.781509 0.640540
vt 0.234236 0.645938
s 0
f 28/1/1 22/2/1 4/3/1 14/4/1
f 38/5/2 32/6/2 8/7/2 15/8/2
f 27/9/3 24/10/3 6/11/3 16/12/3
f 37/13/4 34/14/4 2/15/4 13/16/4
f 42/17/5 23/18/5 5/19/5 33/20/5
f 41/21/6 22/2/6 2/15/6 34/14/6
f 40/22/7 35/23/7 9/24/7 20/25/7
f 30/26/3 25/27/3 12/28/3 19/29/3
f 39/30/8 36/31/8 11/32/8 18/33/8
f 29/34/1 26/35/1 10/36/1 17/37/1
f 35/38/9 37/39/9 13/40/9 9/41/9
f 25/42/3 27/43/3 16/44/3 12/45/3
f 36/46/10 38/47/10 15/48/10 11/49/10
f 26/50/1 28/51/1 14/52/1 10/53/1
f 21/54/1 29/34/1 17/37/1 3/55/1
f 31/56/10 39/30/10 18/33/10 7/57/10
f 23/18/3 30/26/3 19/29/3 5/19/3
f 33/20/9 40/22/9 20/25/9 1/58/9
f 7/57/3 18/33/3 30/59/3 23/18/3
f 1/58/1 20/25/1 29/34/1 21/54/1
f 9/41/1 13/40/1 28/51/1 26/50/1
f 11/49/3 15/48/3 27/60/3 25/61/3
f 20/25/1 9/24/1 26/35/1 29/34/1
f 18/33/3 11/32/3 25/62/3 30/59/3
f 32/6/6 4/3/6 22/2/6 41/21/6
f 31/56/5 7/57/5 23/18/5 42/17/5
f 15/8/3 8/7/3 24/10/3 27/63/3
f 13/16/1 2/15/1 22/2/1 28/1/1
f 3/55/5 31/56/5 42/17/5 21/54/5
f 8/7/11 32/6/11 41/21/11 24/10/11
f 5/19/9 19/29/9 40/22/9 33/20/9
f 3/55/10 17/37/10 39/30/10 31/56/10
f 10/53/10 14/52/10 38/47/10 36/46/10
f 12/45/9 16/44/9 37/39/9 35/38/9
f 17/37/8 10/36/8 36/31/8 39/30/8
f 19/29/7 12/28/7 35/23/7 40/22/7
f 24/10/11 41/21/11 34/14/11 6/11/11
f 21/54/5 42/17/5 33/20/5 1/58/5
f 16/12/12 6/11/12 34/14/12 37/13/12
f 14/4/13 4/3/13 32/6/13 38/5/13
