# Blender 4.5.3 LTS
# www.blender.org
o SmallToTall
v -1.625000 -1.250000 1.125000
v -1.625000 0.000000 0.737100
v -1.625000 -1.250000 -1.125000
v -1.625000 0.000000 -0.737100
v 1.375000 -1.250000 0.500000
v 1.375000 1.875000 0.112100
v 1.375000 -1.250000 -0.500000
v 1.375000 1.875000 -0.112100
v -1.625000 -0.750000 0.877500
v -1.625000 -0.750000 -0.877500
v 1.375000 -0.750000 -0.252500
v 1.375000 -0.750000 0.252500
v -1.625000 -0.300000 0.877500
v -1.625000 -0.300000 -0.877500
v 1.375000 1.575000 -0.252500
v 1.375000 1.575000 0.252500
v -1.625000 -1.000000 -1.125000
v 1.375000 -1.000000 -0.500000
v 1.375000 -1.000000 0.500000
v -1.625000 -1.000000 1.125000
v -1.625000 -1.250000 0.000000
v -1.625000 0.000000 0.000000
v 1.375000 -1.250000 0.000000
v 1.375000 1.874875 0.000000
v -1.625000 -0.750000 0.000000
v -1.625000 -0.300000 0.000000
v -1.625000 -1.000000 0.000000
v 1.625000 -1.250000 0.125000
v 1.625000 -1.250000 -0.125000
v 1.425000 3.750000 0.075000
v 1.375000 3.700000 0.125000
v 1.425000 3.750000 -0.075000
v 1.375000 3.700000 -0.125000
v 1.575000 3.750000 0.075000
v 1.625000 3.700000 0.125000
v 1.575000 3.750000 -0.075000
v 1.625000 3.700000 -0.125000
v 1.625000 1.874750 0.125000
v 1.625000 1.874750 -0.125000
v 1.625000 -0.750050 -0.125000
v 1.625000 -0.750050 0.125000
v 1.625000 -1.000025 -0.125000
v 1.625000 -1.000025 0.125000
v 1.625000 1.574780 0.125000
v 1.625000 1.574780 -0.125000
v 1.625000 -1.250000 0.000000
v 1.375000 3.700000 0.000000
v 1.425000 3.750000 0.000000
v 1.575000 3.750000 0.000000
v 1.625000 3.700000 0.000000
v 1.625000 1.874750 0.000000
v 1.625000 -0.750050 0.000000
v 1.625000 -1.000025 0.000000
v 1.625000 1.574780 0.000000
v 0.000000 -1.250000 -1.125000
v 0.000000 1.250000 -0.737100
v 0.000000 -1.250000 1.125000
v 0.000000 1.250000 0.737100
v 0.000000 -0.750000 0.877500
v 0.000000 -0.750000 -0.877500
v 0.000000 0.950000 0.877500
v 0.000000 0.950000 -0.877500
v 0.000000 -1.000000 -1.125000
v 0.000000 -1.000000 1.125000
v 0.000000 1.250000 0.000000
v 0.000000 -1.250000 0.000000
vn -1.0000 -0.0000 -0.0000
vn 0.2139 0.4141 -0.8847
vn -0.3100 0.4030 0.8611
vn -0.0000 -1.0000 -0.0000
vn -0.6097 0.7926 -0.0000
vn -0.0000 0.7035 0.7107
vn 0.3074 0.6695 -0.6762
vn -0.0000 -0.0000 1.0000
vn 0.4138 -0.0000 -0.9104
vn -0.0000 0.7071 -0.7071
vn -0.0000 0.7071 0.7071
vn -0.7071 0.7071 -0.0000
vn 0.7071 0.7071 -0.0000
vn -0.0000 1.0000 -0.0000
vn -0.0258 -0.0035 0.9997
vn -0.0258 -0.0035 -0.9997
vn 1.0000 -0.0000 -0.0000
vn 0.2180 0.2224 -0.9503
vn 0.2180 0.2224 0.9503
vn 0.6693 0.3296 0.6659
vn 0.6693 0.3296 -0.6659
vn 0.8321 -0.0000 -0.5547
vn 0.8321 -0.0000 0.5547
vn 0.4543 -0.0000 0.8908
vn 0.4543 -0.0000 -0.8908
vn -0.4138 0.9104 0.0001
vn 0.4138 -0.0000 0.9104
vn -0.0000 -0.0000 -1.0000
vn -0.0000 0.7035 -0.7107
vn 0.3074 0.6695 0.6762
vn -0.4138 0.9104 -0.0001
vn 0.2139 0.4141 0.8847
vn -0.3100 0.4030 -0.8611
vt 0.252810 0.115626
vt 0.252786 0.175492
vt 0.130915 0.187165
vt 0.079595 0.167915
vt 0.075828 0.373549
vt 0.128641 0.376185
vt 0.126367 0.565205
vt 0.072062 0.579182
vt 0.432179 0.374100
vt 0.379330 0.376037
vt 0.378779 0.186690
vt 0.432179 0.168082
vt 0.713104 0.374686
vt 0.710525 0.575070
vt 0.547025 0.508998
vt 0.561635 0.355804
vt 0.254017 0.380853
vt 0.532427 0.347661
vt 0.491635 0.338218
vt 0.513875 0.148269
vt 0.550261 0.180853
vt 0.894615 0.352217
vt 0.935936 0.346729
vt 0.935936 0.541630
vt 0.894689 0.522897
vt 0.716187 0.129783
vt 0.716338 0.097030
vt 0.935936 0.151828
vt 0.894541 0.181536
vt 0.731531 0.780600
vt 0.730407 0.958427
vt 0.600817 0.957954
vt 0.599562 0.779626
vt 0.266030 0.783761
vt 0.264905 0.961587
vt 0.132935 0.960613
vt 0.136440 0.783288
vt 0.496944 0.781883
vt 0.499493 0.960305
vt 0.396875 0.962562
vt 0.395619 0.784233
vt 0.715683 0.174301
vt 0.865411 0.197801
vt 0.864895 0.353400
vt 0.864379 0.508999
vt 0.576245 0.202610
vt 0.375000 0.625000
vt 0.375000 0.750000
vt 0.125000 0.750000
vt 0.125000 0.625000
vt 0.825000 0.550000
vt 0.675000 0.550000
vt 0.622500 0.500000
vt 0.867500 0.500000
vt 0.675000 0.700000
vt 0.825000 0.700000
vt 0.867500 0.750000
vt 0.622500 0.750000
vt 0.867500 0.625000
vt 0.825000 0.625000
vt 0.675000 0.625000
vt 0.622500 0.625000
vt 0.499963 0.750000
vt 0.499987 0.750000
vt 0.499987 0.500000
vt 0.499963 0.500000
vt 0.499987 0.625000
vt 0.484989 0.625000
vt 0.484989 0.500000
vt 0.454967 0.500000
vt 0.499963 0.625000
vt 0.454967 0.750000
vt 0.484989 0.750000
vt 0.162496 0.750000
vt 0.387499 0.750000
vt 0.399998 0.750000
vt 0.199993 0.750000
vt 0.387499 0.500000
vt 0.162496 0.500000
vt 0.199993 0.500000
vt 0.399998 0.500000
vt 0.387499 0.625000
vt 0.399998 0.625000
vt 0.375000 0.500000
vt 0.125000 0.500000
vt 0.255248 0.586213
vt 0.514592 0.514468
vt 0.863501 0.781575
vt 0.859996 0.958899
vt 0.469394 0.528166
vt 0.379881 0.565385
vt 0.432179 0.580117
s 0
f 26/1/1 22/2/1 4/3/1 14/4/1
f 62/5/2 56/6/2 8/7/2 15/8/2
f 61/9/3 58/10/3 2/11/3 13/12/3
f 66/13/4 23/14/4 5/15/4 57/16/4
f 65/17/5 22/2/5 2/11/5 58/10/5
f 64/18/6 59/19/6 9/20/6 20/21/6
f 63/22/7 60/23/7 11/24/7 18/25/7
f 27/26/1 25/27/1 10/28/1 17/29/1
f 59/30/8 61/31/8 13/32/8 9/33/8
f 60/34/9 62/35/9 15/36/9 11/37/9
f 25/38/1 26/39/1 14/40/1 10/41/1
f 21/42/1 27/26/1 17/29/1 3/43/1
f 55/44/9 63/22/9 18/25/9 7/45/9
f 57/16/8 64/18/8 20/21/8 1/46/8
f 1/46/1 20/21/1 27/26/1 21/42/1
f 9/33/1 13/32/1 26/39/1 25/38/1
f 20/21/1 9/20/1 25/27/1 27/26/1
f 56/6/5 4/3/5 22/2/5 65/17/5
f 55/44/4 7/45/4 23/14/4 66/13/4
f 13/12/1 2/11/1 22/2/1 26/1/1
f 46/47/4 28/48/4 5/49/4 23/50/4
f 32/51/10 36/52/10 37/53/10 33/54/10
f 34/55/11 30/56/11 31/57/11 35/58/11
f 47/59/12 31/57/12 30/56/12 48/60/12
f 49/61/13 34/55/13 35/58/13 50/62/13
f 48/60/14 30/56/14 34/55/14 49/61/14
f 6/63/15 38/64/15 35/58/15 31/57/15
f 39/65/16 8/66/16 33/54/16 37/53/16
f 51/67/17 39/65/17 37/53/17 50/62/17
f 54/68/17 45/69/17 39/65/17 51/67/17
f 45/69/18 15/70/18 8/66/18 39/65/18
f 47/59/1 24/71/1 6/63/1 31/57/1
f 16/72/19 44/73/19 38/64/19 6/63/19
f 19/74/20 43/75/20 41/76/20 12/77/20
f 42/78/21 18/79/21 11/80/21 40/81/21
f 53/82/17 42/78/17 40/81/17 52/83/17
f 46/47/17 29/84/17 42/78/17 53/82/17
f 29/84/22 7/85/22 18/79/22 42/78/22
f 5/49/23 28/48/23 43/75/23 19/74/23
f 12/77/24 41/76/24 44/73/24 16/72/24
f 40/81/25 11/80/25 15/70/25 45/69/25
f 52/83/17 40/81/17 45/69/17 54/68/17
f 41/76/17 52/83/17 54/68/17 44/73/17
f 28/48/17 46/47/17 53/82/17 43/75/17
f 43/75/17 53/82/17 52/83/17 41/76/17
f 33/54/1 8/66/1 24/71/1 47/59/1
f 44/73/17 54/68/17 51/67/17 38/64/17
f 38/64/17 51/67/17 50/62/17 35/58/17
f 32/51/14 48/60/14 49/61/14 36/52/14
f 36/52/13 49/61/13 50/62/13 37/53/13
f 33/54/12 47/59/12 48/60/12 32/51/12
f 29/84/4 46/47/4 23/50/4 7/85/4
f 3/43/4 55/44/4 66/13/4 21/42/4
f 8/7/26 56/6/26 65/17/26 24/86/26
f 5/15/27 19/87/27 64/18/27 57/16/27
f 3/43/28 17/29/28 63/22/28 55/44/28
f 10/41/28 14/40/28 62/35/28 60/34/28
f 12/88/27 16/89/27 61/31/27 59/30/27
f 17/29/29 10/28/29 60/23/29 63/22/29
f 19/87/30 12/90/30 59/19/30 64/18/30
f 24/86/31 65/17/31 58/10/31 6/91/31
f 21/42/4 66/13/4 57/16/4 1/46/4
f 16/92/32 6/91/32 58/10/32 61/9/32
f 14/4/33 4/3/33 56/6/33 62/5/33
