# Blender 4.5.3 LTS
# www.blender.org
mtllib StraightWall.mtl
o Wall
v -3.750000 0.000000 0.750000
v -3.414874 1.986709 0.409837
v -3.750000 0.000000 -0.750000
v -3.414874 1.986709 -0.409837
v 3.750000 0.000000 0.750000
v 3.414874 1.986709 0.409837
v 3.750000 0.000000 -0.750000
v 3.414874 1.986709 -0.409837
v 1.625000 0.000000 -1.125000
v -1.625000 0.000000 -1.125000
v -1.549969 2.525010 -0.732818
v 1.549969 2.525010 -0.732818
v -1.625000 0.000000 1.125000
v 1.625000 0.000000 1.125000
v 1.549969 2.525010 0.732818
v -1.549969 2.525010 0.732818
v -3.500000 0.500000 0.500000
v -3.500000 0.500000 -0.500000
v 3.500000 0.500000 -0.500000
v 3.500000 0.500000 0.500000
v 1.625000 0.500000 0.875000
v -1.625000 0.500000 0.875000
v -1.625000 0.500000 -0.875000
v 1.625000 0.500000 -0.875000
v -3.750000 0.250000 -0.750000
v 3.750000 0.250000 -0.750000
v 3.750000 0.250000 0.750000
v 1.625000 0.250000 1.125000
v -1.625000 0.250000 1.125000
v -1.625000 0.250000 -1.125000
v 1.625000 0.250000 -1.125000
v -3.750000 0.250000 0.750000
v -3.500000 1.625000 0.500000
v -3.500000 1.625000 -0.500000
v 1.625000 2.250000 -0.875000
v 3.500000 1.625000 -0.500000
v 3.500000 1.625000 0.500000
v -1.625000 2.250000 0.875000
v -1.625000 2.250000 -0.875000
v 1.625000 2.250000 0.875000
v 0.000000 0.000000 -1.125000
v 0.000000 2.250000 -0.875000
v 0.000000 0.000000 1.125000
v 0.000000 2.250000 0.875000
v 0.000000 0.500000 -0.875000
v 0.000000 0.500000 0.875000
v 0.000000 0.250000 1.125000
v 0.000000 0.250000 -1.125000
v 0.000000 2.525010 -0.732818
v 0.000000 2.525010 0.732818
vn -1.0000 -0.0000 -0.0000
vn 0.1961 -0.0000 -0.9806
vn 1.0000 -0.0000 -0.0000
vn -0.1961 -0.0000 0.9806
vn -0.0000 -1.0000 -0.0000
vn -0.2773 0.9608 -0.0000
vn 0.2773 0.9608 -0.0000
vn -0.0000 1.0000 -0.0000
vn 0.1961 -0.0000 0.9806
vn -0.0000 -0.0000 1.0000
vn -0.1961 -0.0000 -0.9806
vn -0.0000 -0.0000 -1.0000
vn -0.0000 0.7071 -0.7071
vn -0.1255 0.7322 -0.6694
vn -0.0000 0.7071 0.7071
vn 0.1255 0.7322 0.6694
vn -0.1255 0.7322 0.6694
vn 0.7071 0.7071 -0.0000
vn 0.1255 0.7322 -0.6694
vn -0.7071 0.7071 -0.0000
vn 0.1738 -0.0000 -0.9848
vn -0.1738 -0.0000 0.9848
vn 0.1738 -0.0000 0.9848
vn -0.1738 -0.0000 -0.9848
vn -0.9734 0.2291 -0.0000
vn 0.2850 0.3910 -0.8752
vn 0.9734 0.2291 -0.0000
vn -0.2850 0.3910 0.8752
vn -0.2850 0.3910 -0.8752
vn -0.0000 0.4593 -0.8883
vn 0.2850 0.3910 0.8752
vn -0.0000 0.4593 0.8883
vt 0.084555 0.643331
vt 0.216319 0.627154
vt 0.243586 0.738846
vt 0.110290 0.786688
vt 0.180626 0.114352
vt 0.345571 0.204385
vt 0.254250 0.240645
vt 0.139378 0.193447
vt 0.224967 0.344406
vt 0.093346 0.322340
vt 0.080117 0.547219
vt 0.283146 0.546300
vt 0.322213 0.418705
vt 0.372772 0.332755
vt 0.575008 0.332755
vt 0.625567 0.418705
vt 0.706129 0.411751
vt 0.756391 0.291351
vt 0.888353 0.299272
vt 0.924091 0.419285
vt 0.741176 0.681899
vt 0.698880 0.560147
vt 0.916739 0.567655
vt 0.872590 0.685678
vt 0.696193 0.483583
vt 0.926004 0.495790
vt 0.372772 0.636108
vt 0.322213 0.550158
vt 0.625567 0.550158
vt 0.575008 0.636108
vt 0.322213 0.484432
vt 0.625567 0.484432
vt 0.286715 0.428025
vt 0.086402 0.415578
vt 0.084557 0.481585
vt 0.284246 0.488486
vt 0.344385 0.785606
vt 0.152586 0.874941
vt 0.215366 0.065383
vt 0.372337 0.157543
vt 0.182209 0.041277
vt 0.150705 0.086915
vt 0.083575 0.819377
vt 0.116060 0.903197
vt 0.040974 0.479737
vt 0.037491 0.538780
vt 0.056163 0.336492
vt 0.042241 0.420476
vt 0.043326 0.624957
vt 0.114503 0.159224
vt 0.014418 0.628656
vt 0.054200 0.827170
vt 0.129056 0.073535
vt 0.089279 0.148543
vt 0.028571 0.328931
vt 0.010297 0.538567
vt 0.014179 0.417555
vt 0.012425 0.478695
vt 0.088820 0.916115
vt 0.160601 0.026718
vt 0.730374 0.234640
vt 0.918378 0.241974
vt 0.712793 0.740567
vt 0.652280 0.582446
vt 0.899817 0.740567
vt 0.970382 0.398918
vt 0.662409 0.385561
vt 0.637986 0.481349
vt 0.960036 0.592021
vt 0.983137 0.498090
vt 0.148966 0.956958
vt 0.121930 0.973282
vt 0.185793 0.933653
vt 0.372337 0.843346
s 0
f 17/1/1 33/2/1 34/3/1 18/4/1
f 24/5/2 35/6/2 36/7/2 19/8/2
f 19/8/3 36/7/3 37/9/3 20/10/3
f 22/11/4 38/12/4 33/2/4 17/1/4
f 9/13/5 7/14/5 5/15/5 14/16/5
f 11/17/6 4/18/6 2/19/6 16/20/6
f 8/21/7 12/22/7 15/23/7 6/24/7
f 49/25/8 11/17/8 16/20/8 50/26/8
f 3/27/5 10/28/5 13/29/5 1/30/5
f 41/31/5 9/13/5 14/16/5 43/32/5
f 20/10/9 37/9/9 40/33/9 21/34/9
f 46/35/10 44/36/10 38/12/10 22/11/10
f 18/4/11 34/3/11 39/37/11 23/38/11
f 45/39/12 42/40/12 35/6/12 24/5/12
f 48/41/13 45/39/13 24/5/13 31/42/13
f 25/43/14 18/4/14 23/38/14 30/44/14
f 47/45/15 46/35/15 22/11/15 29/46/15
f 27/47/16 20/10/16 21/34/16 28/48/16
f 29/46/17 22/11/17 17/1/17 32/49/17
f 26/50/18 19/8/18 20/10/18 27/47/18
f 31/42/19 24/5/19 19/8/19 26/50/19
f 32/49/20 17/1/20 18/4/20 25/43/20
f 1/51/1 32/49/1 25/43/1 3/52/1
f 9/53/21 31/42/21 26/50/21 7/54/21
f 7/54/3 26/50/3 27/47/3 5/55/3
f 13/56/22 29/46/22 32/49/22 1/51/22
f 5/55/23 27/47/23 28/48/23 14/57/23
f 43/58/10 47/45/10 29/46/10 13/56/10
f 3/52/24 25/43/24 30/44/24 10/59/24
f 41/60/12 48/41/12 31/42/12 9/53/12
f 2/19/25 4/18/25 34/61/25 33/62/25
f 12/22/26 8/21/26 36/63/26 35/64/26
f 8/21/27 6/24/27 37/65/27 36/63/27
f 16/20/28 2/19/28 33/62/28 38/66/28
f 4/18/29 11/17/29 39/67/29 34/61/29
f 49/25/30 12/22/30 35/64/30 42/68/30
f 6/24/31 15/23/31 40/69/31 37/65/31
f 50/26/32 16/20/32 38/66/32 44/70/32
f 15/23/32 50/26/32 44/70/32 40/69/32
f 11/17/30 49/25/30 42/68/30 39/67/30
f 10/59/12 30/44/12 48/71/12 41/72/12
f 14/57/10 28/48/10 47/45/10 43/58/10
f 28/48/15 21/34/15 46/35/15 47/45/15
f 30/44/13 23/38/13 45/73/13 48/71/13
f 23/38/12 39/37/12 42/74/12 45/73/12
f 21/34/10 40/33/10 44/36/10 46/35/10
f 10/28/5 41/31/5 43/32/5 13/29/5
f 12/22/8 49/25/8 50/26/8 15/23/8
