# Blender 4.5.3 LTS
# www.blender.org
o TallWall
v 1.375000 -1.250000 0.125000
v 1.375000 -1.250000 -0.125000
v 1.625000 -1.250000 0.125000
v 1.625000 -1.250000 -0.125000
v -1.625000 -1.250000 0.125000
v -1.625000 -1.250000 -0.125000
v -1.375000 -1.250000 0.125000
v -1.375000 -1.250000 -0.125000
v -1.375000 3.625000 -0.012500
v 1.375000 3.625000 -0.012500
v -1.375000 -1.125000 -0.012500
v 1.375000 -1.125000 -0.012500
v 1.375000 3.625000 0.012500
v -1.375000 3.625000 0.012500
v 1.375000 -1.125000 0.012500
v -1.375000 -1.125000 0.012500
v 1.425000 3.750000 0.075000
v 1.375000 3.700000 0.125000
v 1.425000 3.750000 -0.075000
v 1.375000 3.700000 -0.125000
v 1.575000 3.750000 0.075000
v 1.625000 3.700000 0.125000
v 1.575000 3.750000 -0.075000
v 1.625000 3.700000 -0.125000
v -1.575000 3.750000 0.075000
v -1.625000 3.700000 0.125000
v -1.575000 3.750000 -0.075000
v -1.625000 3.700000 -0.125000
v -1.425000 3.750000 0.075000
v -1.375000 3.700000 0.125000
v -1.425000 3.750000 -0.075000
v -1.375000 3.700000 -0.125000
vn -0.0000 -1.0000 -0.0000
vn -0.0000 -0.0000 -1.0000
vn -0.0000 -0.0000 1.0000
vn -0.0000 0.7071 -0.7071
vn -0.0000 0.7071 0.7071
vn -0.7071 0.7071 -0.0000
vn 0.7071 0.7071 -0.0000
vn -0.0000 1.0000 -0.0000
vn -1.0000 -0.0000 -0.0000
vn 1.0000 -0.0000 -0.0000
vt 0.375000 0.500000
vt 0.375000 0.750000
vt 0.125000 0.750000
vt 0.125000 0.500000
vt 0.000000 0.000000
vt 1.000000 0.000000
vt 1.000000 1.000000
vt 0.000000 1.000000
vt 0.825000 0.550000
vt 0.675000 0.550000
vt 0.622500 0.500000
vt 0.867500 0.500000
vt 0.675000 0.700000
vt 0.825000 0.700000
vt 0.867500 0.750000
vt 0.622500 0.750000
vt 0.825000 0.550000
vt 0.622500 0.500000
vt 0.867500 0.500000
vt 0.675000 0.700000
vt 0.622500 0.750000
s 0
f 8/1/1 7/2/1 5/3/1 6/4/1
f 4/1/1 3/2/1 1/3/1 2/4/1
f 9/5/2 10/6/2 12/7/2 11/8/2
f 13/5/3 14/6/3 16/7/3 15/8/3
f 19/9/4 23/10/4 24/11/4 20/12/4
f 21/13/5 17/14/5 18/15/5 22/16/5
f 27/17/4 31/10/4 32/18/4 28/19/4
f 29/20/5 25/14/5 26/15/5 30/21/5
f 25/14/6 27/17/6 28/19/6 26/15/6
f 31/10/7 29/20/7 30/21/7 32/18/7
f 20/12/6 18/15/6 17/14/6 19/9/6
f 23/10/7 21/13/7 22/16/7 24/11/7
f 19/9/8 17/14/8 21/13/8 23/10/8
f 1/3/3 3/2/3 22/16/3 18/15/3
f 20/12/9 2/4/9 1/3/9 18/15/9
f 4/1/2 2/4/2 20/12/2 24/11/2
f 3/2/10 4/1/10 24/11/10 22/16/10
f 27/17/8 25/14/8 29/20/8 31/10/8
f 5/3/3 7/2/3 30/21/3 26/15/3
f 6/4/9 5/3/9 26/15/9 28/19/9
f 8/1/2 6/4/2 28/19/2 32/18/2
f 32/18/10 30/21/10 7/2/10 8/1/10
