# Blender 4.5.3 LTS
# www.blender.org
o Cube.001
v -11.625000 0.000000 1.560000
v -11.187500 2.062500 1.280712
v -11.625000 0.000000 -0.060000
v -11.187500 2.062500 0.219288
v -9.500000 0.000000 1.875000
v -9.500000 2.500000 1.487100
v -9.500000 0.000000 -0.375000
v -9.500000 2.500000 0.012900
v -11.325000 0.500000 1.381800
v -11.325000 0.500000 0.118200
v -9.500000 0.500000 -0.127500
v -9.500000 0.500000 1.627500
v -11.625000 0.250000 -0.060000
v -9.500000 0.250000 -0.375000
v -9.500000 0.250000 1.875000
v -11.625000 0.250000 1.560000
v -11.325000 1.762500 1.381800
v -11.325000 1.762500 0.118200
v -9.500000 2.200000 -0.127500
v -9.500000 2.200000 1.627500
v -11.625000 0.000000 0.750000
v -11.187500 2.062500 0.750000
v -9.500000 0.000000 0.750000
v -9.500000 2.500000 0.750000
v -9.500000 0.500000 0.750000
v -11.325000 0.500000 0.750000
v -11.625000 0.250000 0.750000
v -9.500000 0.250000 0.750000
v -9.500000 2.200000 0.750000
v -11.325000 1.762500 0.750000
vn -0.9091 0.4167 -0.0000
vn -0.2156 0.4067 -0.8878
vn 1.0000 -0.0000 -0.0000
vn -0.2156 0.4067 0.8878
vn -0.0000 -1.0000 -0.0000
vn -0.2510 0.9680 -0.0000
vn -0.1031 0.6799 0.7260
vn -0.1031 0.6799 -0.7260
vn -0.6402 0.7682 -0.0000
vn -1.0000 -0.0000 -0.0000
vn -0.1466 -0.0000 -0.9892
vn -0.1466 -0.0000 0.9892
vn -0.1334 -0.0000 0.9911
vn -0.1334 -0.0000 -0.9911
vt 0.259323 0.182843
vt 0.261455 0.230616
vt 0.189060 0.234807
vt 0.156242 0.201226
vt 0.170007 0.487362
vt 0.124850 0.495030
vt 0.299240 0.555561
vt 0.273770 0.506504
vt 0.375414 0.478193
vt 0.421075 0.481808
vt 0.333935 0.228340
vt 0.363632 0.191969
vt 0.744218 0.178615
vt 0.743632 0.549558
vt 0.588391 0.479811
vt 0.653774 0.207520
vt 0.556838 0.480841
vt 0.516261 0.490872
vt 0.577395 0.164421
vt 0.630570 0.189822
vt 0.683851 0.592383
vt 0.654970 0.610904
vt 0.861580 0.188508
vt 0.913337 0.160605
vt 0.971340 0.489554
vt 0.929042 0.476090
vt 0.744476 0.126910
vt 0.743881 0.077677
vt 0.836273 0.201761
vt 0.897710 0.467079
vt 0.152353 0.930334
vt 0.145148 0.723040
vt 0.409084 0.763746
vt 0.416507 0.917087
vt 0.032789 0.931887
vt 0.027532 0.725837
vt 0.582663 0.910385
vt 0.584647 0.756481
vt 0.854693 0.716551
vt 0.841154 0.922119
vt 0.500243 0.912290
vt 0.495917 0.758236
vt 0.973695 0.726496
vt 0.958545 0.931887
vt 0.794252 0.586819
vt 0.821541 0.607091
vt 0.252771 0.557635
s 0
f 30/1/1 22/2/1 4/3/1 18/4/1
f 18/4/2 4/3/2 8/5/2 19/6/2
f 29/7/3 24/8/3 6/9/3 20/10/3
f 20/10/4 6/9/4 2/11/4 17/12/4
f 21/13/5 23/14/5 5/15/5 1/16/5
f 24/8/6 22/2/6 2/11/6 6/9/6
f 15/17/7 12/18/7 9/19/7 16/20/7
f 28/21/3 25/22/3 12/18/3 15/17/3
f 13/23/8 10/24/8 11/25/8 14/26/8
f 27/27/9 26/28/9 10/24/9 13/23/9
f 21/13/10 27/27/10 13/23/10 3/29/10
f 3/29/11 13/23/11 14/26/11 7/30/11
f 23/14/3 28/21/3 15/17/3 5/15/3
f 5/15/12 15/17/12 16/20/12 1/16/12
f 12/31/13 20/32/13 17/33/13 9/34/13
f 25/35/3 29/36/3 20/32/3 12/31/3
f 10/37/14 18/38/14 19/39/14 11/40/14
f 26/41/10 30/42/10 18/38/10 10/37/10
f 9/34/10 17/33/10 30/42/10 26/41/10
f 11/40/3 19/39/3 29/43/3 25/44/3
f 7/30/3 14/26/3 28/45/3 23/14/3
f 1/16/10 16/20/10 27/27/10 21/13/10
f 16/20/9 9/19/9 26/28/9 27/27/9
f 14/26/3 11/25/3 25/46/3 28/45/3
f 8/5/6 4/3/6 22/2/6 24/8/6
f 3/29/5 7/30/5 23/14/5 21/13/5
f 19/6/3 8/5/3 24/8/3 29/47/3
f 17/12/1 2/11/1 22/2/1 30/1/1
