# Blender 4.5.3 LTS
# www.blender.org
o Cube
v -12.250000 0.000000 4.625000
v -12.250000 2.500000 4.237100
v -12.250000 0.000000 2.375000
v -12.250000 2.500000 2.762900
v -9.000000 0.000000 4.625000
v -9.000000 2.500000 4.237100
v -9.000000 0.000000 2.375000
v -9.000000 2.500000 2.762900
v -12.250000 0.500000 4.377500
v -12.250000 0.500000 2.622500
v -9.000000 0.500000 2.622500
v -9.000000 0.500000 4.377500
v -12.250000 2.200000 4.377500
v -12.250000 2.200000 2.622500
v -9.000000 2.200000 2.622500
v -9.000000 2.200000 4.377500
v -12.250000 0.250000 2.375000
v -9.000000 0.250000 2.375000
v -9.000000 0.250000 4.625000
v -12.250000 0.250000 4.625000
v -12.250000 0.000000 3.500000
v -12.250000 2.500000 3.500000
v -9.000000 0.000000 3.500000
v -9.000000 2.500000 3.500000
v -9.000000 0.500000 3.500000
v -12.250000 0.500000 3.500000
v -9.000000 2.200000 3.500000
v -12.250000 2.200000 3.500000
v -12.250000 0.250000 3.500000
v -9.000000 0.250000 3.500000
vn -1.0000 -0.0000 -0.0000
vn -0.0000 0.4239 -0.9057
vn 1.0000 -0.0000 -0.0000
vn -0.0000 0.4239 0.9057
vn -0.0000 -1.0000 -0.0000
vn -0.0000 1.0000 -0.0000
vn -0.0000 0.7035 0.7107
vn -0.0000 0.7035 -0.7107
vn -0.0000 -0.0000 1.0000
vn -0.0000 -0.0000 -1.0000
vt 0.252810 0.115626
vt 0.252786 0.175492
vt 0.130915 0.187165
vt 0.079595 0.167915
vt 0.126367 0.565205
vt 0.072062 0.579182
vt 0.275601 0.645414
vt 0.255248 0.586213
vt 0.379881 0.565385
vt 0.432179 0.580117
vt 0.378779 0.186690
vt 0.432179 0.168082
vt 0.715683 0.174301
vt 0.710525 0.575070
vt 0.547025 0.508998
vt 0.576245 0.202610
vt 0.514592 0.514468
vt 0.469394 0.528166
vt 0.513875 0.148269
vt 0.550261 0.180853
vt 0.652555 0.623416
vt 0.624034 0.645019
vt 0.894541 0.181536
vt 0.935936 0.151828
vt 0.935936 0.541630
vt 0.894689 0.522897
vt 0.716187 0.129783
vt 0.716338 0.097030
vt 0.863501 0.781575
vt 0.859996 0.958899
vt 0.600817 0.957954
vt 0.599562 0.779626
vt 0.966166 0.785542
vt 0.961188 0.962562
vt 0.395619 0.784233
vt 0.396875 0.962562
vt 0.132935 0.960613
vt 0.136440 0.783288
vt 0.496944 0.781883
vt 0.499493 0.960305
vt 0.865411 0.197801
vt 0.864379 0.508999
vt 0.755371 0.616401
vt 0.030270 0.956646
vt 0.035248 0.779626
vt 0.781509 0.640540
vt 0.234236 0.645938
s 0
f 28/1/1 22/2/1 4/3/1 14/4/1
f 14/4/2 4/3/2 8/5/2 15/6/2
f 27/7/3 24/8/3 6/9/3 16/10/3
f 16/10/4 6/9/4 2/11/4 13/12/4
f 21/13/5 23/14/5 5/15/5 1/16/5
f 24/8/6 22/2/6 2/11/6 6/9/6
f 19/17/7 12/18/7 9/19/7 20/20/7
f 30/21/3 25/22/3 12/18/3 19/17/3
f 17/23/8 10/24/8 11/25/8 18/26/8
f 29/27/1 26/28/1 10/24/1 17/23/1
f 12/29/9 16/30/9 13/31/9 9/32/9
f 25/33/3 27/34/3 16/30/3 12/29/3
f 10/35/10 14/36/10 15/37/10 11/38/10
f 26/39/1 28/40/1 14/36/1 10/35/1
f 21/13/1 29/27/1 17/23/1 3/41/1
f 3/41/10 17/23/10 18/26/10 7/42/10
f 23/14/3 30/21/3 19/17/3 5/15/3
f 5/15/9 19/17/9 20/20/9 1/16/9
f 7/42/3 18/26/3 30/43/3 23/14/3
f 1/16/1 20/20/1 29/27/1 21/13/1
f 9/32/1 13/31/1 28/40/1 26/39/1
f 11/38/3 15/37/3 27/44/3 25/45/3
f 20/20/1 9/19/1 26/28/1 29/27/1
f 18/26/3 11/25/3 25/46/3 30/43/3
f 8/5/6 4/3/6 22/2/6 24/8/6
f 3/41/5 7/42/5 23/14/5 21/13/5
f 15/6/3 8/5/3 24/8/3 27/47/3
f 13/12/1 2/11/1 22/2/1 28/1/1
