# Blender 4.3.0
# www.blender.org
mtllib bulletOne.mtl
o Cylinder
v 0.021815 0.999762 -1.000000
v 0.021815 0.999762 1.500000
v 0.402747 0.915311 -1.000000
v 0.402747 0.915312 1.500000
v 0.722364 0.691513 -1.000000
v 0.722364 0.691513 1.500000
v 0.932008 0.362438 -1.000000
v 0.932008 0.362438 1.500000
v 0.999762 -0.021815 -1.000000
v 0.999762 -0.021815 1.500000
v 0.915311 -0.402747 -1.000000
v 0.915311 -0.402747 1.500000
v 0.691513 -0.722364 -1.000000
v 0.691513 -0.722364 1.500000
v 0.362438 -0.932008 -1.000000
v 0.362438 -0.932008 1.500000
v -0.021815 -0.999762 -1.000000
v -0.021815 -0.999762 1.500000
v -0.402747 -0.915312 -1.000000
v -0.402747 -0.915311 1.500000
v -0.722364 -0.691513 -1.000000
v -0.722364 -0.691513 1.500000
v -0.932008 -0.362438 -1.000000
v -0.932008 -0.362438 1.500000
v -0.999762 0.021815 -1.000000
v -0.999762 0.021815 1.500000
v -0.915311 0.402747 -1.000000
v -0.915311 0.402747 1.500000
v -0.691513 0.722364 -1.000000
v -0.691513 0.722364 1.500000
v -0.362438 0.932008 -1.000000
v -0.362438 0.932008 1.500000
v 0.017452 0.799810 1.600000
v 0.322197 0.732249 1.600000
v 0.577891 0.553210 1.600000
v 0.745606 0.289951 1.600000
v 0.799810 -0.017452 1.600000
v 0.732249 -0.322197 1.600000
v 0.553210 -0.577891 1.600000
v 0.289950 -0.745606 1.600000
v -0.017452 -0.799809 1.600000
v -0.322197 -0.732249 1.600000
v -0.577891 -0.553210 1.600000
v -0.745606 -0.289950 1.600000
v -0.799810 0.017452 1.600000
v -0.732249 0.322197 1.600000
v -0.553210 0.577891 1.600000
v -0.289950 0.745606 1.600000
v 0.017452 0.799810 1.700000
v 0.322197 0.732249 1.700000
v 0.577891 0.553210 1.700000
v 0.745606 0.289951 1.700000
v 0.799810 -0.017452 1.700000
v 0.732249 -0.322197 1.700000
v 0.553210 -0.577891 1.700000
v 0.289950 -0.745606 1.700000
v -0.017452 -0.799809 1.700000
v -0.322197 -0.732249 1.700000
v -0.577891 -0.553210 1.700000
v -0.745606 -0.289950 1.700000
v -0.799810 0.017452 1.700000
v -0.732249 0.322197 1.700000
v -0.553210 0.577891 1.700000
v -0.289950 0.745606 1.700000
v 0.020942 0.959772 1.800000
v 0.386637 0.878699 1.800000
v 0.693469 0.663853 1.800000
v 0.894728 0.347941 1.800000
v 0.959772 -0.020942 1.800000
v 0.878699 -0.386637 1.800000
v 0.663853 -0.693469 1.800000
v 0.347941 -0.894727 1.800000
v -0.020942 -0.959771 1.800000
v -0.386637 -0.878699 1.800000
v -0.693469 -0.663852 1.800000
v -0.894728 -0.347940 1.800000
v -0.959772 0.020942 1.800000
v -0.878699 0.386637 1.800000
v -0.663853 0.693469 1.800000
v -0.347941 0.894728 1.800000
v 0.020942 0.959772 2.100000
v 0.386637 0.878699 2.100000
v 0.693469 0.663853 2.100000
v 0.894728 0.347941 2.100000
v 0.959772 -0.020942 2.100000
v 0.878699 -0.386637 2.100000
v 0.663853 -0.693469 2.100000
v 0.347941 -0.894727 2.100000
v -0.020942 -0.959771 2.100000
v -0.386637 -0.878699 2.100000
v -0.693469 -0.663852 2.100000
v -0.894728 -0.347940 2.100000
v -0.959772 0.020942 2.100000
v -0.878699 0.386637 2.100000
v -0.663853 0.693469 2.100000
v -0.347941 0.894728 2.100000
v -0.000000 0.000000 2.100001
v 0.019633 0.899786 -1.100000
v 0.362472 0.823780 -1.100000
v 0.650128 0.622362 -1.100000
v 0.838807 0.326194 -1.100000
v 0.899786 -0.019633 -1.100000
v 0.823780 -0.362472 -1.100000
v 0.622362 -0.650128 -1.100000
v 0.326194 -0.838807 -1.100000
v -0.019633 -0.899786 -1.100000
v -0.362472 -0.823780 -1.100000
v -0.650128 -0.622362 -1.100000
v -0.838807 -0.326194 -1.100000
v -0.899786 0.019633 -1.100000
v -0.823780 0.362472 -1.100000
v -0.622362 0.650128 -1.100000
v -0.326194 0.838807 -1.100000
v 0.019633 0.899786 -1.300000
v 0.362472 0.823780 -1.300000
v 0.650128 0.622362 -1.300000
v 0.838807 0.326194 -1.300000
v 0.899786 -0.019634 -1.300000
v 0.823780 -0.362472 -1.300000
v 0.622362 -0.650128 -1.300000
v 0.326194 -0.838807 -1.300000
v -0.019633 -0.899786 -1.300000
v -0.362472 -0.823780 -1.300000
v -0.650128 -0.622362 -1.300000
v -0.838807 -0.326194 -1.300000
v -0.899786 0.019633 -1.300000
v -0.823780 0.362472 -1.300000
v -0.622362 0.650127 -1.300000
v -0.326194 0.838807 -1.300000
v 0.010010 0.458758 -1.999453
v 0.184807 0.420006 -1.999453
v 0.331469 0.317313 -1.999453
v 0.427668 0.166311 -1.999453
v 0.458758 -0.010010 -1.999453
v 0.420007 -0.184808 -1.999453
v 0.317313 -0.331470 -1.999453
v 0.166311 -0.427668 -1.999453
v -0.010010 -0.458759 -1.999453
v -0.184807 -0.420007 -1.999453
v -0.331469 -0.317313 -1.999453
v -0.427668 -0.166311 -1.999453
v -0.458758 0.010010 -1.999453
v -0.420007 0.184807 -1.999453
v -0.317313 0.331469 -1.999453
v -0.166311 0.427668 -1.999453
v 0.000000 -0.000000 -2.500000
vn 0.1736 -0.9848 -0.0000
vn -0.2164 -0.9763 -0.0000
vn -0.5736 -0.8192 -0.0000
vn -0.8434 -0.5373 -0.0000
vn -0.9848 -0.1736 -0.0000
vn -0.9763 0.2164 -0.0000
vn -0.8192 0.5736 -0.0000
vn -0.5373 0.8434 -0.0000
vn 0.0789 -0.4473 0.8909
vn 0.0983 0.4434 0.8909
vn -0.2605 -0.3720 0.8909
vn 0.3831 0.2440 0.8909
vn -0.4473 -0.0789 0.8909
vn 0.4434 -0.0983 0.8909
vn -0.3720 0.2605 0.8909
vn 0.2440 -0.3831 0.8909
vn -0.3831 -0.2440 0.8909
vn -0.6021 -0.3836 -0.7002
vn -0.2440 0.3831 0.8909
vn 0.4473 0.0789 0.8909
vn -0.0983 -0.4434 0.8909
vn -0.4434 0.0983 0.8909
vn 0.2605 0.3720 0.8909
vn 0.3720 -0.2605 0.8909
vn -0.0789 0.4473 0.8909
vn 0.5373 -0.8434 -0.0000
vn 0.9848 0.1736 -0.0000
vn 0.9763 -0.2164 -0.0000
vn 0.5736 0.8192 -0.0000
vn 0.8434 0.5373 -0.0000
vn 0.2164 0.9763 -0.0000
vn -0.1736 0.9848 -0.0000
vn -0.3082 -0.4402 -0.8433
vn 0.8192 -0.5736 -0.0000
vn -0.0933 0.5292 -0.8433
vn -0.2887 0.4532 -0.8433
vn -0.1163 -0.5247 -0.8433
vn 0.3082 0.4402 -0.8433
vn 0.4532 0.2887 -0.8433
vn 0.5292 0.0933 -0.8433
vn 0.4402 -0.3082 -0.8433
vn 0.5247 -0.1163 -0.8433
vn 0.2887 -0.4532 -0.8433
vn 0.1163 0.5247 -0.8433
vn 0.0933 -0.5292 -0.8433
vn -0.4532 -0.2887 -0.8433
vn -0.5292 -0.0933 -0.8433
vn -0.5247 0.1163 -0.8433
vn -0.4402 0.3082 -0.8433
vn -0.0000 -0.0000 1.0000
vn 0.6021 0.3836 -0.7002
vn -0.7031 -0.1240 -0.7002
vn 0.6970 -0.1545 -0.7002
vn -0.5848 0.4095 -0.7002
vn 0.1240 -0.7031 -0.7002
vn 0.3836 -0.6021 -0.7002
vn -0.4095 -0.5848 -0.7002
vn 0.1545 0.6970 -0.7002
vn -0.3836 0.6021 -0.7002
vn 0.7031 0.1240 -0.7002
vn -0.1545 -0.6970 -0.7002
vn -0.6970 0.1545 -0.7002
vn 0.4095 0.5848 -0.7002
vn 0.5848 -0.4095 -0.7002
vn -0.1240 0.7031 -0.7002
vn -0.7173 -0.4569 -0.5261
vn 0.1841 0.8303 -0.5261
vn -0.1477 0.8375 -0.5261
vn -0.4878 -0.6966 -0.5261
vn 0.7173 0.4569 -0.5261
vn 0.8375 0.1477 -0.5261
vn 0.8303 -0.1841 -0.5261
vn 0.4569 -0.7173 -0.5261
vn 0.6966 -0.4878 -0.5261
vn 0.1609 0.7260 -0.6686
vn 0.4878 0.6966 -0.5261
vn -0.8375 -0.1477 -0.5261
vn 0.6272 0.3995 -0.6686
vn -0.8303 0.1841 -0.5261
vn 0.7323 0.1291 -0.6686
vn -0.6966 0.4878 -0.5261
vn 0.7260 -0.1609 -0.6686
vn -0.4569 0.7173 -0.5261
vn 0.1477 -0.8375 -0.5261
vn 0.6091 -0.4265 -0.6686
vn -0.1841 -0.8303 -0.5261
vn -0.1291 0.7323 -0.6686
vn 0.3995 -0.6272 -0.6686
vn -0.4265 -0.6091 -0.6686
vn -0.1609 -0.7260 -0.6686
vn -0.6272 -0.3995 -0.6686
vn 0.4265 0.6091 -0.6686
vn -0.7323 -0.1291 -0.6686
vn -0.7260 0.1609 -0.6686
vn -0.6091 0.4265 -0.6686
vn -0.3995 0.6272 -0.6686
vn 0.1291 -0.7323 -0.6686
vt 0.309833 0.533107
vt 0.310234 0.491812
vt 0.632405 0.490979
vt 0.631293 0.553420
vt 0.308077 0.451630
vt 0.629732 0.428660
vt 0.302224 0.410605
vt 0.623167 0.367577
vt 0.290415 0.368590
vt 0.613748 0.307155
vt 0.274432 0.325266
vt 0.601960 0.247071
vt 0.252029 0.279444
vt 0.588363 0.186965
vt 0.223116 0.230222
vt 0.573908 0.126449
vt 0.187241 0.174353
vt 0.560683 0.064955
vt 0.283337 0.530295
vt 0.286146 0.491995
vt 0.177552 0.812590
vt 0.128971 0.872677
vt 0.096446 0.834667
vt 0.144856 0.783128
vt 0.283102 0.454115
vt 0.275607 0.416456
vt 0.249581 0.710027
vt 0.217210 0.758969
vt 0.186470 0.734473
vt 0.220865 0.691795
vt 0.265705 0.377106
vt 0.247323 0.337564
vt 0.274165 0.662879
vt 0.245272 0.649307
vt 0.264370 0.608784
vt 0.290118 0.618075
vt 0.222839 0.296197
vt 0.190491 0.252334
vt 0.302225 0.575356
vt 0.276390 0.569035
vt 0.637273 0.303050
vt 0.646940 0.364442
vt 0.271747 0.528783
vt 0.274480 0.491860
vt 0.150116 0.202999
vt 0.138852 0.110919
vt 0.104218 0.149052
vt 0.210000 0.304789
vt 0.176330 0.263660
vt 0.264529 0.566207
vt 0.208175 0.682684
vt 0.233111 0.642473
vt 0.252292 0.604053
vt 0.129701 0.768200
vt 0.172785 0.722580
vt 0.079295 0.819269
vt 0.134204 0.216699
vt 0.086336 0.163596
vt 0.263967 0.419091
vt 0.271666 0.455466
vt 0.252255 0.457718
vt 0.245504 0.423922
vt 0.108189 0.244593
vt 0.046549 0.191921
vt 0.154936 0.283581
vt 0.254651 0.491485
vt 0.253885 0.381383
vt 0.104805 0.738996
vt 0.151884 0.701739
vt 0.235113 0.343962
vt 0.185989 0.664824
vt 0.212544 0.629495
vt 0.232002 0.594765
vt 0.244484 0.560265
vt 0.232926 0.390501
vt 0.219952 0.432393
vt 0.207887 0.402559
vt 0.251996 0.525644
vt 0.038795 0.789478
vt 0.226745 0.462241
vt 0.214462 0.355776
vt 0.125659 0.669201
vt 0.161004 0.640041
vt 0.188943 0.320446
vt 0.186769 0.610814
vt 0.206254 0.582299
vt 0.218110 0.552053
vt 0.225976 0.522294
vt 0.000339 0.718481
vt 0.076406 0.694325
vt 0.080614 0.289948
vt 0.000121 0.259634
vt 0.163981 0.345064
vt 0.188891 0.374046
vt 0.065996 0.491367
vt 0.582571 0.864350
vt 0.596956 0.800013
vt 0.622569 0.805327
vt 0.607415 0.870019
vt 0.625360 0.242178
vt 0.129649 0.317024
vt 0.609688 0.737485
vt 0.619208 0.676348
vt 0.643020 0.679711
vt 0.632953 0.741383
vt 0.228787 0.492190
vt 0.597229 0.121073
vt 0.611724 0.181561
vt 0.657983 0.490646
vt 0.655688 0.554675
vt 0.626708 0.615064
vt 0.650729 0.617441
vt 0.653986 0.426693
vt 0.556590 0.999670
vt 0.568147 0.929325
vt 0.592853 0.933802
vt 0.584188 0.999879
vt 0.658226 0.268351
vt 0.663008 0.210541
vt 0.693914 0.216459
vt 0.689490 0.267024
vt 0.583739 0.060967
vt 0.550846 0.000121
vt 0.576242 0.000121
vt 0.720381 0.424480
vt 0.688129 0.378373
vt 0.715012 0.363617
vt 0.743051 0.404843
vt 0.856266 0.009805
vt 0.915288 0.000175
vt 0.917927 0.033408
vt 0.864850 0.041124
vt 0.812012 0.491955
vt 0.761802 0.463938
vt 0.780660 0.438185
vt 0.824044 0.463716
vt 0.919859 0.515733
vt 0.865216 0.508286
vt 0.871650 0.479329
vt 0.921718 0.485015
vt 0.974572 0.515135
vt 0.974231 0.483975
vt 0.666844 0.325351
vt 0.696746 0.316962
vt 0.709903 0.167930
vt 0.736339 0.124080
vt 0.826171 0.195641
vt 0.812790 0.216487
vt 0.974541 0.000121
vt 0.974572 0.033868
vt 0.681015 0.155131
vt 0.920385 0.365376
vt 0.947594 0.359610
vt 0.946235 0.163405
vt 0.918865 0.157836
vt 0.711000 0.105098
vt 0.804506 0.239524
vt 0.751535 0.062931
vt 0.772029 0.087261
vt 0.869223 0.358572
vt 0.893902 0.364794
vt 0.800862 0.030747
vt 0.815614 0.059243
vt 0.847070 0.346790
vt 0.828443 0.330689
vt 0.805232 0.287971
vt 0.814151 0.310753
vt 0.901925 0.262340
vt 0.844443 0.178287
vt 0.866742 0.165835
vt 0.891906 0.158806
vt 0.801955 0.263795
s 0
f 16/1/1 18/2/1 17/3/1 15/4/1
f 18/2/2 20/5/2 19/6/2 17/3/2
f 20/5/3 22/7/3 21/8/3 19/6/3
f 22/7/4 24/9/4 23/10/4 21/8/4
f 24/9/5 26/11/5 25/12/5 23/10/5
f 26/11/6 28/13/6 27/14/6 25/12/6
f 28/13/7 30/15/7 29/16/7 27/14/7
f 30/15/8 32/17/8 31/18/8 29/16/8
f 18/2/9 16/1/9 40/19/9 41/20/9
f 4/21/10 2/22/10 33/23/10 34/24/10
f 22/7/11 20/5/11 42/25/11 43/26/11
f 8/27/12 6/28/12 35/29/12 36/30/12
f 26/11/13 24/9/13 44/31/13 45/32/13
f 10/33/14 37/34/14 38/35/14 12/36/14
f 28/13/15 46/37/15 47/38/15 30/15/15
f 14/39/16 39/40/16 40/19/16 16/1/16
f 24/9/17 22/7/17 43/26/17 44/31/17
f 21/8/18 23/10/18 109/41/18 108/42/18
f 41/20/1 40/19/1 56/43/1 57/44/1
f 32/17/19 30/15/19 47/38/19 48/45/19
f 10/33/20 8/27/20 36/30/20 37/34/20
f 20/5/21 18/2/21 41/20/21 42/25/21
f 28/13/22 26/11/22 45/32/22 46/37/22
f 6/28/23 4/21/23 34/24/23 35/29/23
f 14/39/24 12/36/24 38/35/24 39/40/24
f 2/46/25 32/17/25 48/45/25 33/47/25
f 47/38/7 46/37/7 62/48/7 63/49/7
f 39/40/26 55/50/26 56/43/26 40/19/26
f 37/34/27 36/30/27 52/51/27 53/52/27
f 38/35/28 37/34/28 53/52/28 54/53/28
f 35/29/29 34/24/29 50/54/29 51/55/29
f 36/30/30 35/29/30 51/55/30 52/51/30
f 34/24/31 33/23/31 49/56/31 50/54/31
f 33/47/32 48/45/32 64/57/32 49/58/32
f 59/59/33 58/60/33 74/61/33 75/62/33
f 39/40/34 38/35/34 54/53/34 55/50/34
f 48/45/8 47/38/8 63/49/8 64/57/8
f 42/25/2 41/20/2 57/44/2 58/60/2
f 49/58/35 64/57/35 80/63/35 65/64/35
f 63/49/36 79/65/36 80/63/36 64/57/36
f 43/26/3 42/25/3 58/60/3 59/59/3
f 58/60/37 57/44/37 73/66/37 74/61/37
f 44/31/4 43/26/4 59/59/4 60/67/4
f 51/55/38 50/54/38 66/68/38 67/69/38
f 45/32/5 44/31/5 60/67/5 61/70/5
f 52/51/39 51/55/39 67/69/39 68/71/39
f 46/37/6 45/32/6 61/70/6 62/48/6
f 53/52/40 52/51/40 68/71/40 69/72/40
f 55/50/41 54/53/41 70/73/41 71/74/41
f 54/53/42 53/52/42 69/72/42 70/73/42
f 76/75/4 75/62/4 91/76/4 92/77/4
f 56/43/43 55/50/43 71/74/43 72/78/43
f 50/54/44 49/56/44 65/79/44 66/68/44
f 57/44/45 56/43/45 72/78/45 73/66/45
f 60/67/46 59/59/46 75/62/46 76/75/46
f 74/61/3 90/80/3 91/76/3 75/62/3
f 61/70/47 60/67/47 76/75/47 77/81/47
f 67/69/30 83/82/30 84/83/30 68/71/30
f 62/48/48 61/70/48 77/81/48 78/84/48
f 69/72/27 68/71/27 84/83/27 85/85/27
f 63/49/49 62/48/49 78/84/49 79/65/49
f 70/73/28 69/72/28 85/85/28 86/86/28
f 72/78/26 71/74/26 87/87/26 88/88/26
f 71/74/34 70/73/34 86/86/34 87/87/34
f 66/68/31 65/79/31 81/89/31 82/90/31
f 65/64/32 80/63/32 96/91/32 81/92/32
f 94/93/50 93/94/50 97/95/50
f 67/69/29 66/68/29 82/90/29 83/82/29
f 77/81/5 76/75/5 92/77/5 93/94/5
f 5/96/51 7/97/51 101/98/51 100/99/51
f 78/84/6 77/81/6 93/94/6 94/93/6
f 23/10/52 25/12/52 110/100/52 109/41/52
f 79/65/7 78/84/7 94/93/7 95/101/7
f 9/102/53 11/103/53 103/104/53 102/105/53
f 80/63/8 79/65/8 95/101/8 96/91/8
f 73/66/1 72/78/1 88/88/1 89/106/1
f 27/14/54 29/16/54 112/107/54 111/108/54
f 74/61/2 73/66/2 89/106/2 90/80/2
f 15/4/55 17/3/55 106/109/55 105/110/55
f 13/111/56 15/4/56 105/110/56 104/112/56
f 19/6/57 21/8/57 108/42/57 107/113/57
f 1/114/58 3/115/58 99/116/58 98/117/58
f 85/85/50 84/83/50 97/95/50
f 95/101/50 94/93/50 97/95/50
f 96/91/50 95/101/50 97/95/50
f 89/106/50 88/88/50 97/95/50
f 4/21/29 6/28/29 5/96/29 3/115/29
f 90/80/50 89/106/50 97/95/50
f 8/27/27 10/33/27 9/102/27 7/97/27
f 2/22/31 4/21/31 3/115/31 1/114/31
f 91/76/50 90/80/50 97/95/50
f 6/28/30 8/27/30 7/97/30 5/96/30
f 92/77/50 91/76/50 97/95/50
f 14/39/26 16/1/26 15/4/26 13/111/26
f 12/36/34 14/39/34 13/111/34 11/103/34
f 10/33/28 12/36/28 11/103/28 9/102/28
f 106/118/2 107/119/2 123/120/2 122/121/2
f 29/16/59 31/18/59 113/122/59 112/107/59
f 7/97/60 9/102/60 102/105/60 101/98/60
f 17/3/61 19/6/61 107/113/61 106/109/61
f 25/12/62 27/14/62 111/108/62 110/100/62
f 3/115/63 5/96/63 100/99/63 99/116/63
f 11/103/64 13/111/64 104/112/64 103/104/64
f 31/18/65 1/123/65 98/124/65 113/122/65
f 103/125/34 104/126/34 120/127/34 119/128/34
f 112/129/8 113/130/8 129/131/8 128/132/8
f 101/133/27 102/134/27 118/135/27 117/136/27
f 102/134/28 103/125/28 119/128/28 118/135/28
f 99/137/29 100/138/29 116/139/29 115/140/29
f 100/138/30 101/133/30 117/136/30 116/139/30
f 98/141/31 99/137/31 115/140/31 114/142/31
f 105/143/1 106/118/1 122/121/1 121/144/1
f 124/145/66 125/146/66 141/147/66 140/148/66
f 104/126/26 105/143/26 121/144/26 120/127/26
f 98/149/32 114/150/32 129/131/32 113/130/32
f 107/119/3 108/151/3 124/145/3 123/120/3
f 114/142/67 115/140/67 131/152/67 130/153/67
f 129/131/68 114/150/68 130/154/68 145/155/68
f 108/151/4 109/156/4 125/146/4 124/145/4
f 123/120/69 124/145/69 140/148/69 139/157/69
f 109/156/5 110/158/5 126/159/5 125/146/5
f 116/139/70 117/136/70 133/160/70 132/161/70
f 110/158/6 111/162/6 127/163/6 126/159/6
f 117/136/71 118/135/71 134/164/71 133/160/71
f 111/162/7 112/129/7 128/132/7 127/163/7
f 118/135/72 119/128/72 135/165/72 134/164/72
f 120/127/73 121/144/73 137/166/73 136/167/73
f 119/128/74 120/127/74 136/167/74 135/165/74
f 130/153/75 131/152/75 146/168/75
f 115/140/76 116/139/76 132/161/76 131/152/76
f 125/146/77 126/159/77 142/169/77 141/147/77
f 132/161/78 133/160/78 146/168/78
f 126/159/79 127/163/79 143/170/79 142/169/79
f 133/160/80 134/164/80 146/168/80
f 127/163/81 128/132/81 144/171/81 143/170/81
f 134/164/82 135/165/82 146/168/82
f 128/132/83 129/131/83 145/155/83 144/171/83
f 121/144/84 122/121/84 138/172/84 137/166/84
f 135/165/85 136/167/85 146/168/85
f 122/121/86 123/120/86 139/157/86 138/172/86
f 145/155/87 130/154/87 146/168/87
f 136/167/88 137/166/88 146/168/88
f 139/157/89 140/148/89 146/168/89
f 138/172/90 139/157/90 146/168/90
f 140/148/91 141/147/91 146/168/91
f 131/152/92 132/161/92 146/168/92
f 141/147/93 142/169/93 146/168/93
f 84/83/50 83/82/50 97/95/50
f 142/169/94 143/170/94 146/168/94
f 93/94/50 92/77/50 97/95/50
f 143/170/95 144/171/95 146/168/95
f 86/86/50 85/85/50 97/95/50
f 144/171/96 145/155/96 146/168/96
f 137/166/97 138/172/97 146/168/97
f 87/87/50 86/86/50 97/95/50
f 82/90/50 81/89/50 97/95/50
f 81/92/50 96/91/50 97/95/50
f 88/88/50 87/87/50 97/95/50
f 83/82/50 82/90/50 97/95/50
f 31/18/32 32/17/32 2/46/32 1/123/32
