# Blender 4.3.2
# www.blender.org
mtllib blade2.mtl
o Cylinder
v 0.000000 0.269036 -0.204636
v 0.000000 0.337161 -0.204636
v 0.120282 0.269036 -0.165554
v 0.120282 0.337161 -0.165554
v 0.194620 0.269036 -0.063236
v 0.194620 0.337161 -0.063236
v 0.194620 0.269036 0.063236
v 0.194620 0.337161 0.063236
v 0.120282 0.269036 0.165554
v 0.120282 0.337161 0.165554
v 0.000000 0.269036 0.204636
v 0.000000 0.337161 0.204636
v -0.120282 0.269036 0.165554
v -0.120282 0.337161 0.165554
v -0.194620 0.269036 0.063236
v -0.194620 0.337161 0.063236
v -0.194620 0.269036 -0.063236
v -0.194620 0.337161 -0.063236
v -0.120282 0.269036 -0.165554
v -0.120282 0.337161 -0.165554
v 1.373735 0.270920 -0.446353
v 1.168568 0.270920 -0.849015
v 0.849015 0.270920 -1.168568
v 0.446353 0.270920 -1.373734
v 0.000000 0.270920 -1.444430
v -0.446353 0.270920 -1.373734
v -0.849014 0.270920 -1.168568
v -1.168568 0.270920 -0.849014
v -1.373734 0.270920 -0.446353
v -1.444429 0.270920 -0.000000
v -1.373734 0.270920 0.446353
v -1.168568 0.270920 0.849014
v -0.849014 0.270920 1.168568
v -0.446353 0.270920 1.373734
v 0.000000 0.270920 1.444429
v 0.446353 0.270920 1.373734
v 0.849014 0.270920 1.168568
v 1.168568 0.270920 0.849014
v 1.373734 0.270920 0.446353
v 1.444429 0.270920 -0.000000
v 1.373735 0.335277 -0.446353
v 1.168568 0.335277 -0.849015
v 0.849015 0.335277 -1.168568
v 0.446353 0.335277 -1.373734
v 0.000000 0.335277 -1.444430
v -0.446353 0.335277 -1.373734
v -0.849014 0.335277 -1.168568
v -1.168568 0.335277 -0.849014
v -1.373734 0.335277 -0.446353
v -1.444429 0.335277 -0.000000
v -1.373734 0.335277 0.446353
v -1.168568 0.335277 0.849014
v -0.849014 0.335277 1.168568
v -0.446353 0.335277 1.373734
v 0.000000 0.335277 1.444429
v 0.446353 0.335277 1.373734
v 0.849014 0.335277 1.168568
v 1.168568 0.335277 0.849014
v 1.373734 0.335277 0.446353
v 1.444429 0.335277 -0.000000
v 1.562960 0.303098 -1.337562
v 1.454401 0.303098 -0.000000
v 2.050659 0.303098 -0.163426
v 1.176635 0.303098 0.854875
v 1.755077 0.303098 1.073132
v 0.449435 0.303098 1.383218
v 0.789116 0.303098 1.899791
v -0.449435 0.303098 1.383218
v -0.478261 0.303098 2.000795
v -1.176635 0.303098 0.854876
v -1.562959 0.303098 1.337562
v -1.454401 0.303098 -0.000000
v -2.050659 0.303098 0.163427
v -1.176635 0.303098 -0.854876
v -1.755077 0.303098 -1.073132
v -0.449435 0.303098 -1.383218
v -0.789116 0.303098 -1.899792
v 0.449435 0.303098 -1.383218
v 0.478261 0.303098 -2.000796
v 1.176636 0.303098 -0.854876
v 0.000000 0.338859 1.183619
v 1.112736 0.267151 -0.361550
v 0.687709 0.267152 -0.946549
v 0.000000 0.267152 -1.170000
v -0.687709 0.267151 -0.946550
v -1.112736 0.267151 -0.361550
v -1.112736 0.267151 0.361550
v -0.687708 0.267151 0.946550
v 0.000000 0.267151 1.170000
v 0.687708 0.267151 0.946550
v 1.112736 0.267151 0.361550
v 1.112736 0.339046 -0.361549
v 0.687709 0.339045 -0.946550
v 0.000000 0.339045 -1.170000
v -0.687709 0.339046 -0.946550
v -1.112736 0.339046 -0.361550
v -1.112736 0.339046 0.361550
v -0.687708 0.339046 0.946550
v 0.000000 0.339046 1.170000
v 0.687708 0.339046 0.946550
v 1.112736 0.339046 0.361550
v -0.362656 0.267151 0.752063
v 0.000000 0.267151 0.957312
v 0.362656 0.267151 0.752063
v 0.362656 0.339057 -0.752063
v -0.000000 0.339052 -0.957312
v -0.362656 0.339046 0.752063
v 0.000000 0.339046 0.957312
v 0.362656 0.339046 0.752063
v -0.362656 0.267151 -0.752063
v -0.362656 0.339046 -0.752063
v 0.362656 0.267164 -0.752062
v -0.000000 0.267158 -0.957312
v 0.140511 0.323472 -0.447943
v 0.140511 0.282733 -0.447943
v 0.000000 0.323470 -0.567215
v -0.140511 0.323468 -0.447943
v -0.140511 0.282730 -0.447943
v 0.000000 0.282732 -0.567215
v 0.000000 0.282730 0.567215
v 0.140511 0.282730 0.447943
v -0.140511 0.282730 0.447943
v -0.140511 0.323468 0.447943
v 0.000000 0.323469 0.567215
v 0.140511 0.323468 0.447943
vn -0.9974 -0.0000 0.0715
vn 0.8090 -0.0000 -0.5878
vn 1.0000 -0.0000 -0.0000
vn 0.8090 -0.0000 0.5878
vn -0.0253 0.9988 0.0416
vn -0.0253 0.9996 0.0145
vn -0.9974 -0.0000 -0.0715
vn -0.8090 -0.0000 0.5878
vn -1.0000 -0.0000 -0.0000
vn -0.0000 1.0000 -0.0000
vn -0.8090 -0.0000 -0.5878
vn -0.0253 0.9988 -0.0416
vn -0.0534 0.9967 -0.0617
vn -0.0000 -1.0000 -0.0000
vn 0.0828 -0.9952 -0.0526
vn -0.0107 -0.9971 -0.0750
vn 0.6029 -0.0000 -0.7978
vn 0.8817 0.0016 -0.4717
vn 0.0361 -0.9952 -0.0912
vn 0.4363 -0.0000 -0.8998
vn -0.0528 -0.9971 -0.0543
vn 0.0188 -0.0000 -0.9998
vn -0.0244 -0.9952 -0.0950
vn -0.1759 -0.0000 -0.9844
vn -0.0746 -0.9971 -0.0129
vn -0.5725 -0.0000 -0.8199
vn -0.0756 -0.9952 -0.0625
vn -0.7210 -0.0000 -0.6930
vn -0.0680 -0.9971 0.0334
vn -0.9451 -0.0000 -0.3269
vn -0.0979 -0.9952 -0.0062
vn -0.9906 -0.0000 -0.1369
vn -0.0354 -0.9971 0.0670
vn -0.9567 -0.0000 0.2910
vn -0.0828 -0.9952 0.0526
vn -0.8818 -0.0000 0.4715
vn 0.0108 -0.9971 0.0750
vn -0.6029 -0.0000 0.7978
vn -0.0361 -0.9952 0.0912
vn -0.4363 -0.0000 0.8998
vn 0.0528 -0.9971 0.0543
vn -0.0188 -0.0000 0.9998
vn 0.0244 -0.9952 0.0950
vn 0.1759 -0.0000 0.9844
vn 0.0746 -0.9971 0.0129
vn 0.5725 -0.0000 0.8199
vn 0.0756 -0.9952 0.0625
vn 0.7210 -0.0000 0.6930
vn 0.0680 -0.9971 -0.0334
vn 0.9451 -0.0000 0.3268
vn 0.0979 -0.9952 0.0062
vn 0.9906 -0.0000 0.1369
vn 0.0354 -0.9971 -0.0670
vn 0.9567 -0.0000 -0.2910
vn 0.0041 -0.9999 0.0113
vn 0.0070 -0.9999 -0.0097
vn 0.0102 -0.9999 -0.0074
vn 0.0114 -0.9999 -0.0037
vn 0.0108 -0.9999 -0.0055
vn -0.0000 -0.9994 -0.0340
vn -0.0000 -0.9999 -0.0119
vn 0.0039 -0.9999 -0.0119
vn -0.0009 -0.9997 0.0230
vn -0.0070 -0.9999 -0.0097
vn -0.0039 -0.9999 -0.0119
vn -0.0114 -0.9999 -0.0037
vn -0.0102 -0.9999 -0.0074
vn -0.0102 -0.9999 0.0073
vn -0.0114 -0.9999 0.0037
vn -0.0126 -0.9999 -0.0000
vn 0.0036 -0.9999 -0.0132
vn -0.0070 -0.9999 0.0097
vn -0.0102 -0.9999 0.0074
vn -0.0000 -0.9994 0.0346
vn -0.0000 -0.9999 0.0119
vn -0.0039 -0.9999 0.0119
vn 0.0070 -0.9999 0.0097
vn 0.0039 -0.9999 0.0119
vn 0.0079 -0.9999 -0.0126
vn 0.0114 -0.9999 0.0037
vn 0.0102 -0.9999 0.0074
vn 0.0126 -0.9999 -0.0000
vn 0.0114 0.9999 -0.0037
vn 0.0102 0.9999 -0.0074
vn 0.0070 0.9999 -0.0097
vn 0.0057 1.0000 -0.0079
vn 0.0122 0.9999 -0.0011
vn 0.0039 0.9999 -0.0119
vn -0.0000 0.9999 -0.0119
vn 0.0258 0.9997 0.0012
vn -0.0039 0.9999 -0.0119
vn -0.0070 0.9999 -0.0097
vn -0.0019 0.9996 0.0267
vn -0.0102 0.9999 -0.0074
vn -0.0114 0.9999 -0.0037
vn -0.0102 0.9999 -0.0073
vn -0.0126 0.9999 -0.0000
vn -0.0114 0.9999 0.0037
vn -0.0122 0.9999 0.0011
vn -0.0102 0.9999 0.0074
vn -0.0070 0.9999 0.0097
vn -0.0010 0.9997 -0.0227
vn -0.0039 0.9999 0.0119
vn -0.0000 0.9999 0.0119
vn -0.0258 0.9997 -0.0012
vn 0.0039 0.9999 0.0119
vn 0.0070 0.9999 0.0097
vn -0.0036 0.9999 -0.0132
vn 0.0102 0.9999 0.0074
vn 0.0114 0.9999 0.0037
vn 0.0102 0.9999 0.0073
vn 0.0126 0.9999 -0.0000
vn 0.0826 0.9952 -0.0527
vn 0.0353 0.9971 -0.0668
vn 0.0978 0.9952 0.0059
vn 0.0679 0.9971 -0.0333
vn 0.0756 0.9952 0.0623
vn 0.0745 0.9971 0.0130
vn 0.0246 0.9952 0.0948
vn 0.0526 0.9971 0.0543
vn -0.0358 0.9952 0.0912
vn 0.0107 0.9971 0.0748
vn -0.0826 0.9952 0.0527
vn -0.0353 0.9971 0.0668
vn -0.0978 0.9952 -0.0059
vn -0.0679 0.9971 0.0333
vn -0.0757 0.9952 -0.0623
vn -0.0745 0.9971 -0.0130
vn -0.0246 0.9952 -0.0948
vn -0.0526 0.9971 -0.0543
vn 0.0358 0.9952 -0.0912
vn -0.0107 0.9971 -0.0748
vn -0.5134 -0.0000 0.8581
vn -0.0000 -0.9996 0.0269
vn -0.0041 -0.9995 0.0310
vn 0.5134 -0.0000 -0.8581
vn -0.0236 0.9996 -0.0134
vn -0.0042 0.9995 -0.0307
vn 0.0253 0.9988 -0.0416
vn 0.0138 0.9977 -0.0661
vn 0.9974 -0.0000 0.0715
vn -0.0253 -0.9988 0.0416
vn -0.0480 -0.9981 0.0386
vn 0.0253 -0.9988 0.0416
vn 0.0253 -0.9996 0.0142
vn -0.5134 -0.0000 -0.8581
vn -0.0117 0.9997 -0.0198
vn 0.0238 -0.9996 -0.0135
vn 0.0147 -0.9998 -0.0144
vn -0.0084 0.9994 0.0338
vn -0.0000 0.9996 0.0271
vn 0.5134 -0.0000 0.8581
vn 0.0117 -0.9997 -0.0198
vn 0.0058 -0.9998 0.0183
vn 0.0253 0.9988 0.0416
vn 0.0480 0.9981 0.0386
vn 0.9974 -0.0000 -0.0715
vn -0.0253 -0.9988 -0.0416
vn -0.0140 -0.9977 -0.0659
vn 0.0253 -0.9988 -0.0416
vn 0.0400 -0.9978 -0.0537
vn -0.0375 -0.9992 0.0140
vn -0.0077 -0.9996 0.0271
vn -0.0155 -0.9984 0.0543
vn -0.0239 -0.9990 0.0372
vn -0.0053 -0.9996 0.0265
vn 0.0375 -0.9992 0.0140
vn 0.0483 -0.9977 0.0484
vn 0.0240 -0.9990 0.0372
vn 0.8075 -0.0000 0.5898
vn -0.0240 0.9990 0.0372
vn -0.0377 0.9992 0.0138
vn -0.0485 0.9976 0.0485
vn 0.0376 0.9992 0.0137
vn -0.0069 0.9998 0.0212
vn 0.0110 0.9975 0.0694
vn 0.0240 0.9990 0.0372
vn -0.8075 -0.0000 0.5899
vn 0.8075 -0.0000 -0.5898
vn -0.0004 0.9987 -0.0505
vn -0.0029 0.9989 -0.0464
vn -0.0350 0.9977 -0.0572
vn -0.0240 0.9990 -0.0372
vn -0.0149 -0.9997 -0.0188
vn -0.0239 -0.9976 -0.0645
vn -0.0031 -0.9985 -0.0548
vn -0.0240 -0.9990 -0.0372
vn 0.0001 -0.9987 -0.0506
vn 0.0029 -0.9989 -0.0464
vn 0.0350 -0.9977 -0.0572
vn 0.0240 -0.9990 -0.0372
vn -0.8075 -0.0000 -0.5898
vn -0.0050 0.9996 -0.0264
vn 0.0239 0.9977 -0.0642
vn 0.0033 0.9985 -0.0547
vn 0.0240 0.9990 -0.0372
vt 0.100000 0.917381
vt 0.100000 0.658394
vt 0.100000 0.500000
vt 0.100000 1.000000
vt 0.900000 0.500000
vt 0.900000 1.000000
vt 0.800000 1.000000
vt 0.800000 0.500000
vt 0.700000 1.000000
vt 0.700000 0.500000
vt 0.600000 1.000000
vt 0.600000 0.500000
vt 0.344336 0.298231
vt 0.401355 0.233717
vt 0.250000 0.010000
vt 0.108932 0.055836
vt 0.400000 0.658394
vt 0.400000 0.917381
vt 0.400000 1.000000
vt 0.400000 0.500000
vt 0.300000 1.000000
vt 0.300000 0.500000
vt 0.200000 1.000000
vt 0.200000 0.500000
vt 0.391068 0.444164
vt 0.250000 0.490000
vt 0.108932 0.444164
vt 0.021746 0.324164
vt 0.021746 0.175836
vt 0.391068 0.055836
vt 0.478254 0.175836
vt 0.478254 0.324164
vt 0.542890 0.473717
vt 0.458840 0.492395
vt 0.750000 0.490000
vt 0.891068 0.444164
vt 0.978254 0.324164
vt 0.978254 0.175836
vt 0.891068 0.055836
vt 0.750000 0.010000
vt 0.608932 0.055836
vt 0.521746 0.175836
vt 0.521746 0.324164
vt 0.608932 0.444164
vt 0.189909 0.083879
vt 0.141200 0.108698
vt 0.140491 0.107722
vt 0.082100 0.060989
vt 0.084330 0.803264
vt 0.084330 0.764607
vt 0.121802 0.663933
vt 0.121802 0.802555
vt 0.102543 0.147355
vt 0.077724 0.196065
vt 0.076577 0.195692
vt 0.001869 0.192205
vt 0.123657 0.502245
vt 0.123657 0.556240
vt 0.086185 0.651700
vt 0.086185 0.501872
vt 0.069172 0.250060
vt 0.077724 0.304055
vt 0.076577 0.304428
vt 0.014087 0.345519
vt 0.285055 0.501872
vt 0.285055 0.550582
vt 0.247583 0.660189
vt 0.247583 0.502245
vt 0.102543 0.352765
vt 0.141200 0.391421
vt 0.140491 0.392397
vt 0.114088 0.462371
vt 0.248887 0.789896
vt 0.248887 0.741187
vt 0.286358 0.667422
vt 0.286358 0.790605
vt 0.189910 0.416240
vt 0.243905 0.424792
vt 0.243905 0.425999
vt 0.263674 0.498128
vt 0.371510 0.663677
vt 0.371510 0.609682
vt 0.408981 0.501872
vt 0.408981 0.663677
vt 0.297900 0.416240
vt 0.346610 0.391421
vt 0.347319 0.392397
vt 0.405709 0.439131
vt 0.166608 0.803264
vt 0.166608 0.764607
vt 0.204080 0.663933
vt 0.204080 0.802555
vt 0.385266 0.352765
vt 0.410085 0.304055
vt 0.411232 0.304428
vt 0.485941 0.307915
vt 0.001869 0.804899
vt 0.001869 0.750903
vt 0.039340 0.655444
vt 0.039340 0.805271
vt 0.418637 0.250060
vt 0.410085 0.196065
vt 0.411232 0.195692
vt 0.473722 0.154601
vt 0.129412 0.660189
vt 0.129412 0.611479
vt 0.166884 0.501872
vt 0.166884 0.659816
vt 0.385266 0.147355
vt 0.346610 0.108698
vt 0.347319 0.107723
vt 0.373721 0.037748
vt 0.331165 0.789896
vt 0.331165 0.741187
vt 0.368637 0.667422
vt 0.368637 0.790606
vt 0.297900 0.083880
vt 0.243905 0.075328
vt 0.243905 0.074121
vt 0.224135 0.001992
vt 0.290811 0.663677
vt 0.290811 0.609682
vt 0.328282 0.501872
vt 0.328282 0.663677
vt 0.129401 0.166868
vt 0.200168 0.115452
vt 0.129401 0.166868
vt 0.102370 0.250060
vt 0.129401 0.333252
vt 0.200169 0.384667
vt 0.287641 0.384667
vt 0.358409 0.333252
vt 0.385439 0.250060
vt 0.358409 0.166868
vt 0.287641 0.115453
vt 0.358409 0.166868
vt 0.200168 0.115452
vt 0.748240 0.291253
vt 0.796950 0.316072
vt 0.835606 0.354729
vt 0.808748 0.374242
vt 0.737981 0.322826
vt 0.860425 0.403438
vt 0.868977 0.457434
vt 0.835779 0.457434
vt 0.860425 0.511429
vt 0.835606 0.560139
vt 0.808749 0.540626
vt 0.796950 0.598795
vt 0.748240 0.623614
vt 0.737981 0.592041
vt 0.737981 0.592041
vt 0.694245 0.632166
vt 0.640249 0.623614
vt 0.650508 0.592041
vt 0.591539 0.598795
vt 0.552883 0.560139
vt 0.579741 0.540626
vt 0.579741 0.540626
vt 0.528064 0.511429
vt 0.519512 0.457434
vt 0.551062 0.457434
vt 0.552710 0.457434
vt 0.528064 0.403438
vt 0.552883 0.354729
vt 0.579741 0.374242
vt 0.591539 0.316072
vt 0.640249 0.291253
vt 0.650508 0.322826
vt 0.650508 0.322826
vt 0.694245 0.282701
vt 0.365754 0.609682
vt 0.365754 0.663677
vt 0.714014 0.209366
vt 0.694245 0.281495
vt 0.406108 0.741187
vt 0.406108 0.789896
vt 0.564428 0.245122
vt 0.590830 0.315096
vt 0.204356 0.611479
vt 0.204356 0.660189
vt 0.464427 0.361974
vt 0.526917 0.403066
vt 0.076812 0.750903
vt 0.076812 0.804899
vt 0.452209 0.515289
vt 0.526917 0.511802
vt 0.241552 0.764607
vt 0.241552 0.803264
vt 0.532440 0.646505
vt 0.590830 0.599771
vt 0.446453 0.609682
vt 0.446453 0.663677
vt 0.674475 0.705501
vt 0.694245 0.633372
vt 0.323830 0.741187
vt 0.323830 0.789896
vt 0.824061 0.669745
vt 0.797659 0.599771
vt 0.210112 0.550582
vt 0.210112 0.501872
vt 0.924062 0.552893
vt 0.861572 0.511802
vt 0.048713 0.556240
vt 0.048713 0.502245
vt 0.936281 0.399578
vt 0.861572 0.403066
vt 0.159273 0.764607
vt 0.159273 0.803264
vt 0.856049 0.268363
vt 0.797659 0.315096
vt 0.900000 0.816788
vt 0.800000 0.816788
vt 0.800000 0.834761
vt 0.900000 0.834761
vt 0.700000 0.816788
vt 0.700000 0.834761
vt 0.600000 0.816788
vt 0.600000 0.834761
vt 0.400000 0.834761
vt 0.400000 0.816788
vt 0.300000 0.816788
vt 0.300000 0.834761
vt 0.200000 0.816788
vt 0.200000 0.834761
vt 0.100000 0.816788
vt 0.100000 0.834761
vt 0.599908 0.409203
vt 0.900000 0.658394
vt 0.900000 0.917381
vt 0.567720 0.130030
vt 0.483670 0.194544
vt 0.624739 0.111352
vt 0.485405 0.215039
vt 0.600000 0.917381
vt 0.600000 0.658394
vt 0.369166 0.388708
vt 0.426185 0.370030
vt 0.510235 0.305516
s 0
usemtl initialShadingGroup
f 117/1/1 118/2/1 19/3/1 20/4/1
f 3/5/2 4/6/2 6/7/2 5/8/2
f 5/8/3 6/7/3 8/9/3 7/10/3
f 7/10/4 8/9/4 10/11/4 9/12/4
f 123/13/5 124/14/6 12/15/5 14/16/5
f 122/17/7 123/18/7 14/19/7 13/20/7
f 13/20/8 14/19/8 16/21/8 15/22/8
f 15/22/9 16/21/9 18/23/9 17/24/9
f 4/25/10 2/26/10 20/27/10 18/28/10 16/29/10 14/16/10 12/15/10 10/30/10 8/31/10 6/32/10
f 17/24/11 18/23/11 20/4/11 19/3/11
f 116/33/12 117/34/13 20/27/12 2/26/12
f 1/35/14 3/36/14 5/37/14 7/38/14 9/39/14 11/40/14 13/41/14 15/42/14 17/43/14 19/44/14
s 1
f 21/45/15 22/46/16 80/47/17 61/48/18
f 22/49/16 23/50/19 79/51/20 80/52/17
f 23/53/19 24/54/21 78/55/22 79/56/20
f 24/57/21 25/58/23 77/59/24 78/60/22
f 25/61/23 26/62/25 76/63/26 77/64/24
f 26/65/25 27/66/27 75/67/28 76/68/26
f 27/69/27 28/70/29 74/71/30 75/72/28
f 28/73/29 29/74/31 73/75/32 74/76/30
f 29/77/31 30/78/33 72/79/34 73/80/32
f 30/81/33 31/82/35 71/83/36 72/84/34
f 31/85/35 32/86/37 70/87/38 71/88/36
f 32/89/37 33/90/39 69/91/40 70/92/38
f 33/93/39 34/94/41 68/95/42 69/96/40
f 34/97/41 35/98/43 67/99/44 68/100/42
f 35/101/43 36/102/45 66/103/46 67/104/44
f 36/105/45 37/106/47 65/107/48 66/108/46
f 37/109/47 38/110/49 64/111/50 65/112/48
f 38/113/49 39/114/51 63/115/52 64/116/50
f 39/117/51 40/118/53 62/119/54 63/120/52
f 40/121/53 21/122/15 61/123/18 62/124/54
f 83/125/55 23/53/56 22/46/57 21/45/58 82/126/59
f 83/127/55 84/128/60 25/61/61 24/54/62 23/53/56
f 84/128/60 85/129/63 27/69/64 26/62/65 25/61/61
f 29/77/66 28/70/67 27/69/64 85/129/63 86/130/66
f 87/131/68 31/85/69 30/78/70 29/77/66 86/130/66
f 88/132/71 33/93/72 32/86/73 31/85/69 87/131/68
f 88/132/71 89/133/74 35/101/75 34/94/76 33/93/72
f 37/109/77 36/102/78 35/101/75 89/133/74 90/134/79
f 91/135/80 39/117/80 38/110/81 37/109/77 90/136/79
f 82/137/59 21/45/58 40/118/82 39/117/80 91/135/80
f 41/138/83 42/139/84 43/140/85 93/141/86 92/142/87
f 93/141/86 43/140/85 44/143/88 45/144/89 94/145/90
f 94/145/90 45/144/89 46/146/91 47/147/92 95/148/93
f 95/148/93 47/147/92 48/149/94 49/150/95 96/151/96
f 96/152/96 49/150/95 50/153/97 51/154/98 97/155/99
f 51/154/98 52/156/100 53/157/101 98/158/102 97/155/99
f 98/159/102 53/157/101 54/160/103 55/161/104 81/162/104 99/163/105
f 55/161/104 56/164/106 57/165/107 100/166/108 99/163/105 81/162/104
f 100/166/108 57/165/107 58/167/109 59/168/110 101/169/111
f 101/170/111 59/168/110 60/171/112 41/138/83 92/142/87
f 62/124/54 61/123/18 41/172/113 60/173/114
f 63/174/52 62/175/54 60/171/114 59/168/115
f 64/116/50 63/115/52 59/176/115 58/177/116
f 65/178/48 64/179/50 58/167/116 57/165/117
f 66/108/46 65/107/48 57/180/117 56/181/118
f 67/182/44 66/183/46 56/164/118 55/161/119
f 68/100/42 67/99/44 55/184/119 54/185/120
f 69/186/40 68/187/42 54/160/120 53/157/121
f 70/92/38 69/91/40 53/188/121 52/189/122
f 71/190/36 70/191/38 52/156/122 51/154/123
f 72/84/34 71/83/36 51/192/123 50/193/124
f 73/194/32 72/195/34 50/153/124 49/150/125
f 74/76/30 73/75/32 49/196/125 48/197/126
f 75/198/28 74/199/30 48/149/126 47/147/127
f 76/68/26 75/67/28 47/200/127 46/201/128
f 77/202/24 76/203/26 46/146/128 45/144/129
f 78/60/22 77/59/24 45/204/129 44/205/130
f 79/206/20 78/207/22 44/143/130 43/140/131
f 80/52/17 79/51/20 43/208/131 42/209/132
f 61/210/18 80/211/17 42/139/132 41/138/113
s 0
f 83/212/8 82/213/8 92/214/8 93/215/8
f 82/213/9 91/216/9 101/217/9 92/214/9
f 90/218/11 100/219/11 101/217/11 91/216/11
f 98/220/2 88/221/2 87/222/2 97/223/2
f 97/223/3 87/222/3 86/224/3 96/225/3
f 96/225/4 86/224/4 85/226/4 95/227/4
f 95/227/133 85/226/133 110/226/133 111/227/133
s 1
f 85/129/63 84/128/60 113/128/134 110/129/135
s 0
f 100/219/136 90/218/136 104/218/136 109/219/136
s 1
f 98/159/102 99/163/105 108/163/137 107/159/138
s 0
f 114/228/139 116/33/140 2/26/139 4/25/139
f 115/229/141 114/230/141 4/6/141 3/5/141
f 120/231/142 122/232/143 13/41/142 11/40/142
f 121/233/144 120/231/145 11/40/144 9/39/144
f 88/221/146 98/220/146 107/220/146 102/221/146
s 1
f 99/163/105 100/166/108 109/166/147 108/163/137
f 90/134/79 89/133/74 103/133/148 104/134/149
f 94/145/90 95/148/93 111/148/150 106/145/151
s 0
f 83/212/152 93/215/152 105/215/152 112/212/152
s 1
f 93/141/86 94/145/90 106/145/151 105/141/10
f 89/133/74 88/132/71 102/132/153 103/133/148
f 84/128/60 83/127/55 112/127/154 113/128/134
s 0
f 124/14/155 125/234/156 10/30/155 12/15/155
f 125/235/157 121/236/157 9/12/157 10/11/157
f 118/237/158 119/238/159 1/35/158 19/44/158
f 119/238/160 115/239/161 3/36/160 1/35/160
f 113/128/162 112/127/163 115/239/164 119/238/165
f 110/129/166 113/128/167 119/238/168 118/237/169
f 112/212/170 105/215/170 114/230/170 115/229/170
f 105/141/171 106/145/172 116/33/173 114/228/171
f 106/145/174 111/148/175 117/34/176 116/33/177
f 111/227/178 110/226/178 118/2/178 117/1/178
f 109/219/179 104/218/179 121/236/179 125/235/179
f 108/163/180 109/166/181 125/234/182 124/14/183
f 104/134/184 103/133/185 120/231/186 121/233/187
f 103/133/188 102/132/189 122/232/190 120/231/191
f 102/221/192 107/220/192 123/18/192 122/17/192
f 107/159/193 108/163/194 124/14/195 123/13/196
